<?xml version="1.0"?>
<!DOCTYPE svg PUBLIC "-//W3C//DTD SVG 1.1//EN" "http://www.w3.org/Graphics/SVG/1.1/DTD/svg11.dtd">
<svg width="271.524mm" height="271.52399999999994mm" viewBox="0 0 271.524 271.52399999999994" xmlns="http://www.w3.org/2000/svg" version="1.1">
<g id="path46" transform="translate(2.562000,2.562000) scale(1,-1)">
<path id="path46_w0000"  d="M 3.2 -263.29999999999995 L 10.100000000000001 -263.29999999999995 L 10.100000000000001 -266.19999999999993 C 10.100000000000001 -266.255 10.145000000000003 -266.29999999999995 10.200000000000003 -266.29999999999995 L 16.200000000000003 -266.29999999999995 C 16.255000000000003 -266.29999999999995 16.300000000000004 -266.255 16.300000000000004 -266.19999999999993 L 16.300000000000004 -263.29999999999995 L 22.1 -263.29999999999995 L 22.1 -266.19999999999993 C 22.1 -266.255 22.145000000000003 -266.29999999999995 22.200000000000003 -266.29999999999995 L 28.200000000000003 -266.29999999999995 C 28.255000000000003 -266.29999999999995 28.300000000000004 -266.255 28.300000000000004 -266.19999999999993 L 28.300000000000004 -263.29999999999995 L 34.1 -263.29999999999995 L 34.1 -266.19999999999993 C 34.1 -266.255 34.145 -266.29999999999995 34.2 -266.29999999999995 L 40.2 -266.29999999999995 C 40.254999999999995 -266.29999999999995 40.3 -266.255 40.3 -266.19999999999993 L 40.3 -263.29999999999995 L 46.099999999999994 -263.29999999999995 L 46.099999999999994 -266.19999999999993 C 46.099999999999994 -266.255 46.144999999999996 -266.29999999999995 46.2 -266.29999999999995 L 52.2 -266.29999999999995 C 52.254999999999995 -266.29999999999995 52.3 -266.255 52.3 -266.19999999999993 L 52.3 -263.29999999999995 L 58.099999999999994 -263.29999999999995 L 58.099999999999994 -266.19999999999993 C 58.099999999999994 -266.255 58.144999999999996 -266.29999999999995 58.19999999999999 -266.29999999999995 L 64.19999999999999 -266.29999999999995 C 64.255 -266.29999999999995 64.29999999999998 -266.255 64.29999999999998 -266.19999999999993 L 64.29999999999998 -263.29999999999995 L 70.1 -263.29999999999995 L 70.1 -266.19999999999993 C 70.1 -266.255 70.145 -266.29999999999995 70.19999999999999 -266.29999999999995 L 76.19999999999999 -266.29999999999995 C 76.255 -266.29999999999995 76.29999999999998 -266.255 76.29999999999998 -266.19999999999993 L 76.29999999999998 -263.29999999999995 L 82.1 -263.29999999999995 L 82.1 -266.19999999999993 C 82.1 -266.255 82.145 -266.29999999999995 82.19999999999999 -266.29999999999995 L 88.19999999999999 -266.29999999999995 C 88.255 -266.29999999999995 88.29999999999998 -266.255 88.29999999999998 -266.19999999999993 L 88.29999999999998 -263.29999999999995 L 94.09999999999998 -263.29999999999995 L 94.09999999999998 -266.19999999999993 C 94.09999999999998 -266.255 94.14499999999998 -266.29999999999995 94.19999999999997 -266.29999999999995 L 100.19999999999997 -266.29999999999995 C 100.25499999999998 -266.29999999999995 100.29999999999997 -266.255 100.29999999999997 -266.19999999999993 L 100.29999999999997 -263.29999999999995 L 106.09999999999997 -263.29999999999995 L 106.09999999999997 -266.19999999999993 C 106.09999999999997 -266.255 106.14499999999997 -266.29999999999995 106.19999999999996 -266.29999999999995 L 112.19999999999996 -266.29999999999995 C 112.25499999999997 -266.29999999999995 112.29999999999995 -266.255 112.29999999999995 -266.19999999999993 L 112.29999999999995 -263.29999999999995 L 118.09999999999995 -263.29999999999995 L 118.09999999999995 -266.19999999999993 C 118.09999999999995 -266.255 118.14499999999995 -266.29999999999995 118.19999999999996 -266.29999999999995 L 124.19999999999996 -266.29999999999995 C 124.25499999999997 -266.29999999999995 124.29999999999995 -266.255 124.29999999999995 -266.19999999999993 L 124.29999999999995 -263.29999999999995 L 130.09999999999997 -263.29999999999995 L 130.09999999999997 -266.19999999999993 C 130.09999999999997 -266.255 130.14499999999995 -266.29999999999995 130.19999999999996 -266.29999999999995 L 136.2 -266.29999999999995 C 136.255 -266.29999999999995 136.29999999999998 -266.255 136.29999999999998 -266.19999999999993 L 136.29999999999998 -263.29999999999995 L 142.1 -263.29999999999995 L 142.1 -266.19999999999993 C 142.1 -266.255 142.14499999999998 -266.29999999999995 142.2 -266.29999999999995 L 148.2 -266.29999999999995 C 148.255 -266.29999999999995 148.29999999999998 -266.255 148.29999999999998 -266.19999999999993 L 148.29999999999998 -263.29999999999995 L 154.1 -263.29999999999995 L 154.1 -266.19999999999993 C 154.1 -266.255 154.14499999999998 -266.29999999999995 154.2 -266.29999999999995 L 160.2 -266.29999999999995 C 160.255 -266.29999999999995 160.29999999999998 -266.255 160.29999999999998 -266.19999999999993 L 160.29999999999998 -263.29999999999995 L 166.1 -263.29999999999995 L 166.1 -266.19999999999993 C 166.1 -266.255 166.14499999999998 -266.29999999999995 166.2 -266.29999999999995 L 172.2 -266.29999999999995 C 172.255 -266.29999999999995 172.29999999999998 -266.255 172.29999999999998 -266.19999999999993 L 172.29999999999998 -263.29999999999995 L 178.1 -263.29999999999995 L 178.1 -266.19999999999993 C 178.1 -266.255 178.14499999999998 -266.29999999999995 178.2 -266.29999999999995 L 184.2 -266.29999999999995 C 184.255 -266.29999999999995 184.29999999999998 -266.255 184.29999999999998 -266.19999999999993 L 184.29999999999998 -263.29999999999995 L 190.1 -263.29999999999995 L 190.1 -266.19999999999993 C 190.1 -266.255 190.14499999999998 -266.29999999999995 190.2 -266.29999999999995 L 196.2 -266.29999999999995 C 196.255 -266.29999999999995 196.29999999999998 -266.255 196.29999999999998 -266.19999999999993 L 196.29999999999998 -263.29999999999995 L 202.1 -263.29999999999995 L 202.1 -266.19999999999993 C 202.1 -266.255 202.14499999999998 -266.29999999999995 202.2 -266.29999999999995 L 208.2 -266.29999999999995 C 208.255 -266.29999999999995 208.29999999999998 -266.255 208.29999999999998 -266.19999999999993 L 208.29999999999998 -263.29999999999995 L 214.1 -263.29999999999995 L 214.1 -266.19999999999993 C 214.1 -266.255 214.14499999999998 -266.29999999999995 214.2 -266.29999999999995 L 220.2 -266.29999999999995 C 220.255 -266.29999999999995 220.29999999999998 -266.255 220.29999999999998 -266.19999999999993 L 220.29999999999998 -263.29999999999995 L 226.1 -263.29999999999995 L 226.1 -266.19999999999993 C 226.1 -266.255 226.14499999999998 -266.29999999999995 226.2 -266.29999999999995 L 232.2 -266.29999999999995 C 232.255 -266.29999999999995 232.29999999999998 -266.255 232.29999999999998 -266.19999999999993 L 232.29999999999998 -263.29999999999995 L 238.1 -263.29999999999995 L 238.1 -266.19999999999993 C 238.1 -266.255 238.14499999999998 -266.29999999999995 238.2 -266.29999999999995 L 244.2 -266.29999999999995 C 244.255 -266.29999999999995 244.29999999999998 -266.255 244.29999999999998 -266.19999999999993 L 244.29999999999998 -263.29999999999995 L 250.09999999999997 -263.29999999999995 L 250.09999999999997 -266.19999999999993 C 250.09999999999997 -266.255 250.14499999999998 -266.29999999999995 250.2 -266.29999999999995 L 256.2 -266.29999999999995 C 256.255 -266.29999999999995 256.3 -266.255 256.3 -266.19999999999993 L 256.3 -263.29999999999995 L 263.2 -263.29999999999995 C 263.255 -263.29999999999995 263.3 -263.255 263.3 -263.19999999999993 L 263.3 -256.29999999999995 L 266.2 -256.29999999999995 C 266.255 -256.29999999999995 266.3 -256.255 266.3 -256.19999999999993 L 266.3 -250.19999999999996 C 266.3 -250.14499999999995 266.255 -250.09999999999994 266.2 -250.09999999999994 L 263.3 -250.09999999999994 L 263.3 -244.29999999999993 L 266.2 -244.29999999999993 C 266.255 -244.29999999999993 266.3 -244.25499999999994 266.3 -244.19999999999993 L 266.3 -238.19999999999993 C 266.3 -238.14499999999992 266.255 -238.09999999999994 266.2 -238.09999999999994 L 263.3 -238.09999999999994 L 263.3 -232.29999999999993 L 266.2 -232.29999999999993 C 266.255 -232.29999999999993 266.3 -232.25499999999994 266.3 -232.19999999999993 L 266.3 -226.19999999999993 C 266.3 -226.14499999999992 266.255 -226.09999999999994 266.2 -226.09999999999994 L 263.3 -226.09999999999994 L 263.3 -220.29999999999993 L 266.2 -220.29999999999993 C 266.255 -220.29999999999993 266.3 -220.25499999999994 266.3 -220.19999999999993 L 266.3 -214.19999999999993 C 266.3 -214.14499999999992 266.255 -214.09999999999994 266.2 -214.09999999999994 L 263.3 -214.09999999999994 L 263.3 -208.29999999999993 L 266.2 -208.29999999999993 C 266.255 -208.29999999999993 266.3 -208.25499999999994 266.3 -208.19999999999993 L 266.3 -202.19999999999993 C 266.3 -202.14499999999992 266.255 -202.09999999999994 266.2 -202.09999999999994 L 263.3 -202.09999999999994 L 263.3 -196.29999999999993 L 266.2 -196.29999999999993 C 266.255 -196.29999999999993 266.3 -196.25499999999994 266.3 -196.19999999999993 L 266.3 -190.19999999999993 C 266.3 -190.14499999999992 266.255 -190.09999999999994 266.2 -190.09999999999994 L 263.3 -190.09999999999994 L 263.3 -184.29999999999993 L 266.2 -184.29999999999993 C 266.255 -184.29999999999993 266.3 -184.25499999999994 266.3 -184.19999999999993 L 266.3 -178.19999999999993 C 266.3 -178.14499999999992 266.255 -178.09999999999994 266.2 -178.09999999999994 L 263.3 -178.09999999999994 L 263.3 -172.29999999999993 L 266.2 -172.29999999999993 C 266.255 -172.29999999999993 266.3 -172.25499999999994 266.3 -172.19999999999993 L 266.3 -166.19999999999993 C 266.3 -166.14499999999992 266.255 -166.09999999999994 266.2 -166.09999999999994 L 263.3 -166.09999999999994 L 263.3 -160.29999999999993 L 266.2 -160.29999999999993 C 266.255 -160.29999999999993 266.3 -160.25499999999994 266.3 -160.19999999999993 L 266.3 -154.19999999999993 C 266.3 -154.14499999999992 266.255 -154.09999999999994 266.2 -154.09999999999994 L 263.3 -154.09999999999994 L 263.3 -148.29999999999993 L 266.2 -148.29999999999993 C 266.255 -148.29999999999993 266.3 -148.25499999999994 266.3 -148.19999999999993 L 266.3 -142.19999999999993 C 266.3 -142.14499999999992 266.255 -142.09999999999994 266.2 -142.09999999999994 L 263.3 -142.09999999999994 L 263.3 -136.29999999999993 L 266.2 -136.29999999999993 C 266.255 -136.29999999999993 266.3 -136.25499999999994 266.3 -136.19999999999993 L 266.3 -130.19999999999993 C 266.3 -130.14499999999992 266.255 -130.09999999999994 266.2 -130.09999999999994 L 263.3 -130.09999999999994 L 263.3 -124.29999999999993 L 266.2 -124.29999999999993 C 266.255 -124.29999999999993 266.3 -124.25499999999994 266.3 -124.19999999999993 L 266.3 -118.19999999999993 C 266.3 -118.14499999999992 266.255 -118.09999999999994 266.2 -118.09999999999994 L 263.3 -118.09999999999994 L 263.3 -112.29999999999995 L 266.2 -112.29999999999995 C 266.255 -112.29999999999995 266.3 -112.25499999999994 266.3 -112.19999999999996 L 266.3 -106.19999999999996 C 266.3 -106.14499999999995 266.255 -106.09999999999997 266.2 -106.09999999999997 L 263.3 -106.09999999999997 L 263.3 -100.29999999999995 L 266.2 -100.29999999999995 C 266.255 -100.29999999999995 266.3 -100.25499999999997 266.3 -100.19999999999996 L 266.3 -94.19999999999996 C 266.3 -94.14499999999995 266.255 -94.09999999999997 266.2 -94.09999999999997 L 263.3 -94.09999999999997 L 263.3 -88.29999999999998 L 266.2 -88.29999999999998 C 266.255 -88.29999999999998 266.3 -88.25499999999997 266.3 -88.19999999999999 L 266.3 -82.19999999999999 C 266.3 -82.14499999999998 266.255 -82.1 266.2 -82.1 L 263.3 -82.1 L 263.3 -76.29999999999998 L 266.2 -76.29999999999998 C 266.255 -76.29999999999998 266.3 -76.255 266.3 -76.19999999999999 L 266.3 -70.19999999999999 C 266.3 -70.14499999999998 266.255 -70.1 266.2 -70.1 L 263.3 -70.1 L 263.3 -64.30000000000001 L 266.2 -64.30000000000001 C 266.255 -64.30000000000001 266.3 -64.255 266.3 -64.20000000000002 L 266.3 -58.20000000000001 C 266.3 -58.145 266.255 -58.100000000000016 266.2 -58.100000000000016 L 263.3 -58.100000000000016 L 263.3 -52.30000000000002 L 266.2 -52.30000000000002 C 266.255 -52.30000000000002 266.3 -52.25500000000002 266.3 -52.20000000000002 L 266.3 -46.20000000000002 C 266.3 -46.14500000000002 266.255 -46.100000000000016 266.2 -46.100000000000016 L 263.3 -46.100000000000016 L 263.3 -40.30000000000002 L 266.2 -40.30000000000002 C 266.255 -40.30000000000002 266.3 -40.25500000000002 266.3 -40.20000000000002 L 266.3 -34.20000000000002 C 266.3 -34.14500000000002 266.255 -34.100000000000016 266.2 -34.100000000000016 L 263.3 -34.100000000000016 L 263.3 -28.30000000000002 L 266.2 -28.30000000000002 C 266.255 -28.30000000000002 266.3 -28.255000000000017 266.3 -28.200000000000017 L 266.3 -22.200000000000017 C 266.3 -22.145000000000017 266.255 -22.100000000000016 266.2 -22.100000000000016 L 263.3 -22.100000000000016 L 263.3 -16.300000000000015 L 266.2 -16.300000000000015 C 266.255 -16.300000000000015 266.3 -16.255000000000013 266.3 -16.200000000000014 L 266.3 -10.200000000000014 C 266.3 -10.145000000000014 266.255 -10.100000000000012 266.2 -10.100000000000012 L 263.3 -10.100000000000012 L 263.3 -3.2000000000000117 C 263.3 -3.145000000000012 263.255 -3.100000000000012 263.2 -3.100000000000012 L 256.3 -3.100000000000012 L 256.3 -0.20000000000001172 C 256.3 -0.145000000000012 256.255 -0.10000000000001208 256.2 -0.10000000000001208 L 250.2 -0.10000000000001208 C 250.14499999999998 -0.10000000000001208 250.09999999999997 -0.145000000000012 250.09999999999997 -0.20000000000001172 L 250.09999999999997 -3.1000000000000014 L 244.29999999999995 -3.1000000000000014 L 244.29999999999995 -0.20000000000000107 C 244.29999999999995 -0.14500000000000135 244.25499999999997 -0.10000000000000142 244.19999999999996 -0.10000000000000142 L 238.19999999999996 -0.10000000000000142 C 238.14499999999995 -0.10000000000000142 238.09999999999997 -0.14500000000000135 238.09999999999997 -0.20000000000000107 L 238.09999999999997 -3.1000000000000014 L 232.29999999999995 -3.1000000000000014 L 232.29999999999995 -0.20000000000000107 C 232.29999999999995 -0.14500000000000135 232.25499999999997 -0.10000000000000142 232.19999999999996 -0.10000000000000142 L 226.19999999999996 -0.10000000000000142 C 226.14499999999995 -0.10000000000000142 226.09999999999997 -0.14500000000000135 226.09999999999997 -0.20000000000000107 L 226.09999999999997 -3.1000000000000014 L 220.29999999999995 -3.1000000000000014 L 220.29999999999995 -0.20000000000000107 C 220.29999999999995 -0.14500000000000135 220.25499999999997 -0.10000000000000142 220.19999999999996 -0.10000000000000142 L 214.19999999999996 -0.10000000000000142 C 214.14499999999995 -0.10000000000000142 214.09999999999997 -0.14500000000000135 214.09999999999997 -0.20000000000000107 L 214.09999999999997 -3.1000000000000014 L 208.29999999999995 -3.1000000000000014 L 208.29999999999995 -0.20000000000000107 C 208.29999999999995 -0.14500000000000135 208.25499999999997 -0.10000000000000142 208.19999999999996 -0.10000000000000142 L 202.19999999999996 -0.10000000000000142 C 202.14499999999995 -0.10000000000000142 202.09999999999997 -0.14500000000000135 202.09999999999997 -0.20000000000000107 L 202.09999999999997 -3.1000000000000014 L 196.29999999999995 -3.1000000000000014 L 196.29999999999995 -0.20000000000000107 C 196.29999999999995 -0.14500000000000135 196.25499999999997 -0.10000000000000142 196.19999999999996 -0.10000000000000142 L 190.19999999999996 -0.10000000000000142 C 190.14499999999995 -0.10000000000000142 190.09999999999997 -0.14500000000000135 190.09999999999997 -0.20000000000000107 L 190.09999999999997 -3.1000000000000014 L 184.29999999999995 -3.1000000000000014 L 184.29999999999995 -0.20000000000000107 C 184.29999999999995 -0.14500000000000135 184.25499999999997 -0.10000000000000142 184.19999999999996 -0.10000000000000142 L 178.19999999999996 -0.10000000000000142 C 178.14499999999995 -0.10000000000000142 178.09999999999997 -0.14500000000000135 178.09999999999997 -0.20000000000000107 L 178.09999999999997 -3.1000000000000014 L 172.29999999999995 -3.1000000000000014 L 172.29999999999995 -0.20000000000000107 C 172.29999999999995 -0.14500000000000135 172.25499999999997 -0.10000000000000142 172.19999999999996 -0.10000000000000142 L 166.19999999999996 -0.10000000000000142 C 166.14499999999995 -0.10000000000000142 166.09999999999997 -0.14500000000000135 166.09999999999997 -0.20000000000000107 L 166.09999999999997 -3.1000000000000014 L 160.29999999999995 -3.1000000000000014 L 160.29999999999995 -0.20000000000000107 C 160.29999999999995 -0.14500000000000135 160.25499999999997 -0.10000000000000142 160.19999999999996 -0.10000000000000142 L 154.19999999999996 -0.10000000000000142 C 154.14499999999995 -0.10000000000000142 154.09999999999997 -0.14500000000000135 154.09999999999997 -0.20000000000000107 L 154.09999999999997 -3.1000000000000014 L 148.29999999999995 -3.1000000000000014 L 148.29999999999995 -0.20000000000000107 C 148.29999999999995 -0.14500000000000135 148.25499999999997 -0.10000000000000142 148.19999999999996 -0.10000000000000142 L 142.19999999999996 -0.10000000000000142 C 142.14499999999995 -0.10000000000000142 142.09999999999997 -0.14500000000000135 142.09999999999997 -0.20000000000000107 L 142.09999999999997 -3.1000000000000014 L 136.29999999999995 -3.1000000000000014 L 136.29999999999995 -0.20000000000000107 C 136.29999999999995 -0.14500000000000135 136.25499999999997 -0.10000000000000142 136.19999999999996 -0.10000000000000142 L 130.19999999999993 -0.10000000000000142 C 130.14499999999992 -0.10000000000000142 130.09999999999994 -0.14500000000000135 130.09999999999994 -0.20000000000000107 L 130.09999999999994 -3.1000000000000014 L 124.29999999999993 -3.1000000000000014 L 124.29999999999993 -0.20000000000000107 C 124.29999999999993 -0.14500000000000135 124.25499999999994 -0.10000000000000142 124.19999999999993 -0.10000000000000142 L 118.19999999999993 -0.10000000000000142 C 118.14499999999992 -0.10000000000000142 118.09999999999994 -0.14500000000000135 118.09999999999994 -0.20000000000000107 L 118.09999999999994 -3.1000000000000014 L 112.29999999999994 -3.1000000000000014 L 112.29999999999994 -0.20000000000000107 C 112.29999999999994 -0.14500000000000135 112.25499999999994 -0.10000000000000142 112.19999999999995 -0.10000000000000142 L 106.19999999999995 -0.10000000000000142 C 106.14499999999994 -0.10000000000000142 106.09999999999995 -0.14500000000000135 106.09999999999995 -0.20000000000000107 L 106.09999999999995 -3.1000000000000014 L 100.29999999999995 -3.1000000000000014 L 100.29999999999995 -0.20000000000000107 C 100.29999999999995 -0.14500000000000135 100.25499999999995 -0.10000000000000142 100.19999999999996 -0.10000000000000142 L 94.19999999999996 -0.10000000000000142 C 94.14499999999995 -0.10000000000000142 94.09999999999997 -0.14500000000000135 94.09999999999997 -0.20000000000000107 L 94.09999999999997 -3.1000000000000014 L 88.29999999999997 -3.1000000000000014 L 88.29999999999997 -0.20000000000000107 C 88.3 -0.14500000000000135 88.255 -0.10000000000000142 88.19999999999999 -0.10000000000000142 L 82.19999999999999 -0.10000000000000142 C 82.145 -0.10000000000000142 82.1 -0.14500000000000135 82.1 -0.20000000000000107 L 82.1 -3.1000000000000014 L 76.3 -3.1000000000000014 L 76.3 -0.20000000000000107 C 76.3 -0.14500000000000135 76.255 -0.10000000000000142 76.19999999999999 -0.10000000000000142 L 70.19999999999999 -0.10000000000000142 C 70.145 -0.10000000000000142 70.1 -0.14500000000000135 70.1 -0.20000000000000107 L 70.1 -3.1000000000000014 L 64.3 -3.1000000000000014 L 64.3 -0.20000000000000107 C 64.3 -0.14500000000000135 64.255 -0.10000000000000142 64.19999999999999 -0.10000000000000142 L 58.19999999999999 -0.10000000000000142 C 58.144999999999996 -0.10000000000000142 58.099999999999994 -0.14500000000000135 58.099999999999994 -0.20000000000000107 L 58.099999999999994 -3.1000000000000014 L 52.3 -3.1000000000000014 L 52.3 -0.20000000000000107 C 52.3 -0.14500000000000135 52.254999999999995 -0.10000000000000142 52.2 -0.10000000000000142 L 46.2 -0.10000000000000142 C 46.144999999999996 -0.10000000000000142 46.099999999999994 -0.14500000000000135 46.099999999999994 -0.20000000000000107 L 46.099999999999994 -3.1000000000000014 L 40.3 -3.1000000000000014 L 40.3 -0.20000000000000107 C 40.3 -0.14500000000000135 40.254999999999995 -0.10000000000000142 40.2 -0.10000000000000142 L 34.2 -0.10000000000000142 C 34.145 -0.10000000000000142 34.1 -0.14500000000000135 34.1 -0.20000000000000107 L 34.1 -3.1000000000000014 L 28.300000000000004 -3.1000000000000014 L 28.300000000000004 -0.20000000000000107 C 28.300000000000004 -0.14500000000000135 28.255000000000003 -0.10000000000000142 28.200000000000003 -0.10000000000000142 L 22.200000000000003 -0.10000000000000142 C 22.145000000000003 -0.10000000000000142 22.1 -0.14500000000000135 22.1 -0.20000000000000107 L 22.1 -3.1000000000000014 L 16.3 -3.1000000000000014 L 16.3 -0.20000000000000107 C 16.3 -0.14500000000000135 16.255000000000003 -0.10000000000000142 16.200000000000003 -0.10000000000000142 L 10.200000000000003 -0.10000000000000142 C 10.145000000000003 -0.10000000000000142 10.100000000000001 -0.14500000000000135 10.100000000000001 -0.20000000000000107 L 10.100000000000001 -3.1000000000000014 L 3.2 -3.1000000000000014 C 3.1450000000000005 -3.1000000000000014 3.1000000000000005 -3.1450000000000014 3.1000000000000005 -3.200000000000001 L 3.1000000000000005 -10.100000000000001 L 0.20000000000000018 -10.100000000000001 C 0.14500000000000046 -10.100000000000001 0.10000000000000053 -10.145000000000003 0.10000000000000053 -10.200000000000003 L 0.10000000000000053 -16.200000000000003 C 0.10000000000000053 -16.255000000000003 0.14500000000000046 -16.300000000000004 0.20000000000000018 -16.300000000000004 L 3.1000000000000005 -16.300000000000004 L 3.1000000000000005 -22.1 L 0.20000000000000018 -22.1 C 0.14500000000000046 -22.1 0.10000000000000053 -22.145000000000003 0.10000000000000053 -22.200000000000003 L 0.10000000000000053 -28.200000000000003 C 0.10000000000000053 -28.255000000000003 0.14500000000000046 -28.300000000000004 0.20000000000000018 -28.300000000000004 L 3.1000000000000005 -28.300000000000004 L 3.1000000000000005 -34.1 L 0.20000000000000018 -34.1 C 0.14500000000000046 -34.1 0.10000000000000053 -34.145 0.10000000000000053 -34.2 L 0.10000000000000053 -40.2 C 0.10000000000000053 -40.255 0.14500000000000046 -40.300000000000004 0.20000000000000018 -40.300000000000004 L 3.1000000000000005 -40.300000000000004 L 3.1000000000000005 -46.1 L 0.20000000000000018 -46.1 C 0.14500000000000046 -46.1 0.10000000000000053 -46.145 0.10000000000000053 -46.2 L 0.10000000000000053 -52.2 C 0.10000000000000053 -52.255 0.14500000000000046 -52.300000000000004 0.20000000000000018 -52.300000000000004 L 3.1000000000000005 -52.300000000000004 L 3.1000000000000005 -58.1 L 0.20000000000000018 -58.1 C 0.14500000000000046 -58.1 0.10000000000000053 -58.145 0.10000000000000053 -58.199999999999996 L 0.10000000000000053 -64.19999999999999 C 0.10000000000000053 -64.255 0.14500000000000046 -64.29999999999998 0.20000000000000018 -64.29999999999998 L 3.1000000000000005 -64.29999999999998 L 3.1000000000000005 -70.1 L 0.20000000000000018 -70.1 C 0.14500000000000046 -70.1 0.10000000000000053 -70.14500000000001 0.10000000000000053 -70.19999999999999 L 0.10000000000000053 -76.19999999999999 C 0.10000000000000053 -76.255 0.14500000000000046 -76.29999999999998 0.20000000000000018 -76.29999999999998 L 3.1000000000000005 -76.29999999999998 L 3.1000000000000005 -82.1 L 0.20000000000000018 -82.1 C 0.14500000000000046 -82.1 0.10000000000000053 -82.14500000000001 0.10000000000000053 -82.19999999999999 L 0.10000000000000053 -88.19999999999999 C 0.10000000000000053 -88.255 0.14500000000000046 -88.29999999999998 0.20000000000000018 -88.29999999999998 L 3.1000000000000005 -88.29999999999998 L 3.1000000000000005 -94.1 L 0.20000000000000018 -94.1 C 0.14500000000000046 -94.1 0.10000000000000053 -94.14499999999998 0.10000000000000053 -94.19999999999999 L 0.10000000000000053 -100.19999999999999 C 0.10000000000000053 -100.255 0.14500000000000046 -100.29999999999998 0.20000000000000018 -100.29999999999998 L 3.1000000000000005 -100.29999999999998 L 3.1000000000000005 -106.09999999999997 L 0.20000000000000018 -106.09999999999997 C 0.14500000000000046 -106.09999999999997 0.10000000000000053 -106.14499999999998 0.10000000000000053 -106.19999999999996 L 0.10000000000000053 -112.19999999999996 C 0.10000000000000053 -112.25499999999997 0.14500000000000046 -112.29999999999995 0.20000000000000018 -112.29999999999995 L 3.1000000000000005 -112.29999999999995 L 3.1000000000000005 -118.09999999999997 L 0.20000000000000018 -118.09999999999997 C 0.14500000000000046 -118.09999999999997 0.10000000000000053 -118.14499999999995 0.10000000000000053 -118.19999999999996 L 0.10000000000000053 -124.19999999999996 C 0.10000000000000053 -124.25499999999997 0.14500000000000046 -124.29999999999995 0.20000000000000018 -124.29999999999995 L 3.1000000000000005 -124.29999999999995 L 3.1000000000000005 -130.09999999999997 L 0.20000000000000018 -130.09999999999997 C 0.14500000000000046 -130.09999999999997 0.10000000000000053 -130.14499999999995 0.10000000000000053 -130.19999999999996 L 0.10000000000000053 -136.19999999999996 C 0.10000000000000053 -136.25499999999997 0.14500000000000046 -136.29999999999995 0.20000000000000018 -136.29999999999995 L 3.1000000000000005 -136.29999999999995 L 3.1000000000000005 -142.09999999999997 L 0.20000000000000018 -142.09999999999997 C 0.14500000000000046 -142.09999999999997 0.10000000000000053 -142.14499999999995 0.10000000000000053 -142.19999999999996 L 0.10000000000000053 -148.19999999999996 C 0.10000000000000053 -148.25499999999997 0.14500000000000046 -148.29999999999995 0.20000000000000018 -148.29999999999995 L 3.1000000000000005 -148.29999999999995 L 3.1000000000000005 -154.09999999999997 L 0.20000000000000018 -154.09999999999997 C 0.14500000000000046 -154.09999999999997 0.10000000000000053 -154.14499999999995 0.10000000000000053 -154.19999999999996 L 0.10000000000000053 -160.19999999999996 C 0.10000000000000053 -160.25499999999997 0.14500000000000046 -160.29999999999995 0.20000000000000018 -160.29999999999995 L 3.1000000000000005 -160.29999999999995 L 3.1000000000000005 -166.09999999999997 L 0.20000000000000018 -166.09999999999997 C 0.14500000000000046 -166.09999999999997 0.10000000000000053 -166.14499999999995 0.10000000000000053 -166.19999999999996 L 0.10000000000000053 -172.19999999999996 C 0.10000000000000053 -172.25499999999997 0.14500000000000046 -172.29999999999995 0.20000000000000018 -172.29999999999995 L 3.1000000000000005 -172.29999999999995 L 3.1000000000000005 -178.09999999999997 L 0.20000000000000018 -178.09999999999997 C 0.14500000000000046 -178.09999999999997 0.10000000000000053 -178.14499999999995 0.10000000000000053 -178.19999999999996 L 0.10000000000000053 -184.19999999999996 C 0.10000000000000053 -184.25499999999997 0.14500000000000046 -184.29999999999995 0.20000000000000018 -184.29999999999995 L 3.1000000000000005 -184.29999999999995 L 3.1000000000000005 -190.09999999999997 L 0.20000000000000018 -190.09999999999997 C 0.14500000000000046 -190.09999999999997 0.10000000000000053 -190.14499999999995 0.10000000000000053 -190.19999999999996 L 0.10000000000000053 -196.19999999999996 C 0.10000000000000053 -196.25499999999997 0.14500000000000046 -196.29999999999995 0.20000000000000018 -196.29999999999995 L 3.1000000000000005 -196.29999999999995 L 3.1000000000000005 -202.09999999999997 L 0.20000000000000018 -202.09999999999997 C 0.14500000000000046 -202.09999999999997 0.10000000000000053 -202.14499999999995 0.10000000000000053 -202.19999999999996 L 0.10000000000000053 -208.19999999999996 C 0.10000000000000053 -208.25499999999997 0.14500000000000046 -208.29999999999995 0.20000000000000018 -208.29999999999995 L 3.1000000000000005 -208.29999999999995 L 3.1000000000000005 -214.09999999999997 L 0.20000000000000018 -214.09999999999997 C 0.14500000000000046 -214.09999999999997 0.10000000000000053 -214.14499999999995 0.10000000000000053 -214.19999999999996 L 0.10000000000000053 -220.19999999999996 C 0.10000000000000053 -220.25499999999997 0.14500000000000046 -220.29999999999995 0.20000000000000018 -220.29999999999995 L 3.1000000000000005 -220.29999999999995 L 3.1000000000000005 -226.09999999999997 L 0.20000000000000018 -226.09999999999997 C 0.14500000000000046 -226.09999999999997 0.10000000000000053 -226.14499999999995 0.10000000000000053 -226.19999999999996 L 0.10000000000000053 -232.19999999999996 C 0.10000000000000053 -232.25499999999997 0.14500000000000046 -232.29999999999995 0.20000000000000018 -232.29999999999995 L 3.1000000000000005 -232.29999999999995 L 3.1000000000000005 -238.09999999999997 L 0.20000000000000018 -238.09999999999997 C 0.14500000000000046 -238.09999999999997 0.10000000000000053 -238.14499999999995 0.10000000000000053 -238.19999999999996 L 0.10000000000000053 -244.19999999999996 C 0.10000000000000053 -244.25499999999997 0.14500000000000046 -244.29999999999995 0.20000000000000018 -244.29999999999995 L 3.1000000000000005 -244.29999999999995 L 3.1000000000000005 -250.09999999999994 L 0.20000000000000018 -250.09999999999994 C 0.14500000000000046 -250.09999999999994 0.10000000000000053 -250.14499999999995 0.10000000000000053 -250.19999999999996 L 0.10000000000000053 -256.19999999999993 C 0.10000000000000053 -256.255 0.14500000000000046 -256.29999999999995 0.20000000000000018 -256.29999999999995 L 3.1000000000000005 -256.29999999999995 L 3.1000000000000005 -263.19999999999993 C 3.1000000000000005 -263.255 3.1450000000000005 -263.29999999999995 3.2 -263.29999999999995 " stroke="#000000" stroke-width="0.35 px" style="stroke-width:0.35;stroke-miterlimit:4;stroke-dasharray:none;stroke-linecap:square;fill:none;fill-opacity:1;fill-rule: evenodd"/>
<title>b'path46'</title>
</g>
<g id="Part__Part2DObjectPython" transform="translate(2.562000,2.562000) scale(1,-1)">
<circle cx="8.0" cy="-27.81" r="2.0" stroke="#000000" stroke-width="0.7 px" style="stroke-width:0.7;stroke-miterlimit:4;stroke-dasharray:none;stroke-linecap:square;fill:none"/>
<circle cx="100.71" cy="-27.81" r="2.0" stroke="#000000" stroke-width="0.7 px" style="stroke-width:0.7;stroke-miterlimit:4;stroke-dasharray:none;stroke-linecap:square;fill:none"/>
<circle cx="100.71" cy="-121.78999999999999" r="2.0" stroke="#000000" stroke-width="0.7 px" style="stroke-width:0.7;stroke-miterlimit:4;stroke-dasharray:none;stroke-linecap:square;fill:none"/>
<circle cx="8.0" cy="-78.61" r="2.0" stroke="#000000" stroke-width="0.7 px" style="stroke-width:0.7;stroke-miterlimit:4;stroke-dasharray:none;stroke-linecap:square;fill:none"/>
<circle cx="100.71" cy="-149.41" r="2.0" stroke="#000000" stroke-width="0.7 px" style="stroke-width:0.7;stroke-miterlimit:4;stroke-dasharray:none;stroke-linecap:square;fill:none"/>
<circle cx="100.71" cy="-243.39" r="2.0" stroke="#000000" stroke-width="0.7 px" style="stroke-width:0.7;stroke-miterlimit:4;stroke-dasharray:none;stroke-linecap:square;fill:none"/>
<circle cx="8.000000000000005" cy="-149.41" r="2.0" stroke="#000000" stroke-width="0.7 px" style="stroke-width:0.7;stroke-miterlimit:4;stroke-dasharray:none;stroke-linecap:square;fill:none"/>
<circle cx="8.000000000000005" cy="-200.20999999999998" r="2.0" stroke="#000000" stroke-width="0.7 px" style="stroke-width:0.7;stroke-miterlimit:4;stroke-dasharray:none;stroke-linecap:square;fill:none"/>
<circle cx="150.71" cy="-27.81" r="2.0" stroke="#000000" stroke-width="0.7 px" style="stroke-width:0.7;stroke-miterlimit:4;stroke-dasharray:none;stroke-linecap:square;fill:none"/>
<circle cx="189.21" cy="-27.81" r="2.0" stroke="#000000" stroke-width="0.7 px" style="stroke-width:0.7;stroke-miterlimit:4;stroke-dasharray:none;stroke-linecap:square;fill:none"/>
<circle cx="150.71" cy="-48.41" r="2.0" stroke="#000000" stroke-width="0.7 px" style="stroke-width:0.7;stroke-miterlimit:4;stroke-dasharray:none;stroke-linecap:square;fill:none"/>
<circle cx="189.21" cy="-48.41" r="2.0" stroke="#000000" stroke-width="0.7 px" style="stroke-width:0.7;stroke-miterlimit:4;stroke-dasharray:none;stroke-linecap:square;fill:none"/>
<circle cx="150.71" cy="-68.41" r="2.0" stroke="#000000" stroke-width="0.7 px" style="stroke-width:0.7;stroke-miterlimit:4;stroke-dasharray:none;stroke-linecap:square;fill:none"/>
<circle cx="189.21" cy="-68.41" r="2.0" stroke="#000000" stroke-width="0.7 px" style="stroke-width:0.7;stroke-miterlimit:4;stroke-dasharray:none;stroke-linecap:square;fill:none"/>
<circle cx="189.21" cy="-89.01" r="2.0" stroke="#000000" stroke-width="0.7 px" style="stroke-width:0.7;stroke-miterlimit:4;stroke-dasharray:none;stroke-linecap:square;fill:none"/>
<circle cx="150.71" cy="-89.01" r="2.0" stroke="#000000" stroke-width="0.7 px" style="stroke-width:0.7;stroke-miterlimit:4;stroke-dasharray:none;stroke-linecap:square;fill:none"/>
<circle cx="150.71" cy="-182.19" r="2.0" stroke="#000000" stroke-width="0.7 px" style="stroke-width:0.7;stroke-miterlimit:4;stroke-dasharray:none;stroke-linecap:square;fill:none"/>
<circle cx="189.21" cy="-182.19" r="2.0" stroke="#000000" stroke-width="0.7 px" style="stroke-width:0.7;stroke-miterlimit:4;stroke-dasharray:none;stroke-linecap:square;fill:none"/>
<circle cx="150.71" cy="-202.79" r="2.0" stroke="#000000" stroke-width="0.7 px" style="stroke-width:0.7;stroke-miterlimit:4;stroke-dasharray:none;stroke-linecap:square;fill:none"/>
<circle cx="189.21" cy="-202.79" r="2.0" stroke="#000000" stroke-width="0.7 px" style="stroke-width:0.7;stroke-miterlimit:4;stroke-dasharray:none;stroke-linecap:square;fill:none"/>
<circle cx="150.71" cy="-222.79" r="2.0" stroke="#000000" stroke-width="0.7 px" style="stroke-width:0.7;stroke-miterlimit:4;stroke-dasharray:none;stroke-linecap:square;fill:none"/>
<circle cx="189.21" cy="-222.79" r="2.0" stroke="#000000" stroke-width="0.7 px" style="stroke-width:0.7;stroke-miterlimit:4;stroke-dasharray:none;stroke-linecap:square;fill:none"/>
<circle cx="150.71" cy="-243.39" r="2.0" stroke="#000000" stroke-width="0.7 px" style="stroke-width:0.7;stroke-miterlimit:4;stroke-dasharray:none;stroke-linecap:square;fill:none"/>
<circle cx="189.21" cy="-243.39" r="2.0" stroke="#000000" stroke-width="0.7 px" style="stroke-width:0.7;stroke-miterlimit:4;stroke-dasharray:none;stroke-linecap:square;fill:none"/>
<circle cx="164.0" cy="-114.2" r="2.0" stroke="#000000" stroke-width="0.7 px" style="stroke-width:0.7;stroke-miterlimit:4;stroke-dasharray:none;stroke-linecap:square;fill:none"/>
<circle cx="252.0" cy="-114.2" r="2.0" stroke="#000000" stroke-width="0.7 px" style="stroke-width:0.7;stroke-miterlimit:4;stroke-dasharray:none;stroke-linecap:square;fill:none"/>
<circle cx="164.0" cy="-152.2" r="2.0" stroke="#000000" stroke-width="0.7 px" style="stroke-width:0.7;stroke-miterlimit:4;stroke-dasharray:none;stroke-linecap:square;fill:none"/>
<circle cx="252.0" cy="-152.2" r="2.0" stroke="#000000" stroke-width="0.7 px" style="stroke-width:0.7;stroke-miterlimit:4;stroke-dasharray:none;stroke-linecap:square;fill:none"/>
<title>b'Part__Part2DObjectPython'</title>
</g>
</svg>