<?xml version="1.0" encoding="UTF-8" standalone="no"?>
<svg
   width="271.52400000000006mm"
   height="111.52400000000051mm"
   viewBox="0 0 271.52400000000006 111.52400000000051"
   version="1.1"
   id="svg25"
   sodipodi:docname="frente.svg"
   inkscape:version="1.4.2 (ebf0e940d0, 2025-05-08)"
   xmlns:inkscape="http://www.inkscape.org/namespaces/inkscape"
   xmlns:sodipodi="http://sodipodi.sourceforge.net/DTD/sodipodi-0.dtd"
   xmlns="http://www.w3.org/2000/svg"
   xmlns:svg="http://www.w3.org/2000/svg">
  <defs
     id="defs25" />
  <sodipodi:namedview
     id="namedview25"
     pagecolor="#ffffff"
     bordercolor="#000000"
     borderopacity="0.25"
     inkscape:showpageshadow="2"
     inkscape:pageopacity="0.0"
     inkscape:pagecheckerboard="0"
     inkscape:deskcolor="#d1d1d1"
     inkscape:document-units="mm"
     inkscape:zoom="0.61840607"
     inkscape:cx="409.1163"
     inkscape:cy="311.28414"
     inkscape:window-width="1920"
     inkscape:window-height="1043"
     inkscape:window-x="1920"
     inkscape:window-y="0"
     inkscape:window-maximized="1"
     inkscape:current-layer="svg25" />
  <g
     id="path24"
     transform="translate(2.562000,2.562000) scale(1,-1)"
     style="stroke:#000000;stroke-opacity:1">
    <path
       id="path24_w0000"
       d="M 13.2 -103.1 L 10.3 -103.1 L 10.3 -100.29999999999998 L 16.099999999999998 -100.29999999999998 L 16.099999999999998 -103.1 L 13.2 -103.1 "
       stroke="#0000ff"
       stroke-width="0.35 px"
       style="stroke-width:0.35;stroke-miterlimit:4;stroke-dasharray:none;stroke-linecap:square;fill:none;fill-opacity:1;fill-rule:evenodd;stroke:#000000;stroke-opacity:1" />
    <title
       id="title1">b'path24'</title>
  </g>
  <g
     id="path25"
     transform="translate(2.562000,2.562000) scale(1,-1)"
     style="stroke:#000000;stroke-opacity:1">
    <path
       id="path25_w0000"
       d="M 25.2 -103.1 L 22.3 -103.1 L 22.3 -100.29999999999998 L 28.099999999999998 -100.29999999999998 L 28.099999999999998 -103.1 L 25.2 -103.1 "
       stroke="#0000ff"
       stroke-width="0.35 px"
       style="stroke-width:0.35;stroke-miterlimit:4;stroke-dasharray:none;stroke-linecap:square;fill:none;fill-opacity:1;fill-rule:evenodd;stroke:#000000;stroke-opacity:1" />
    <title
       id="title2">b'path25'</title>
  </g>
  <g
     id="path26"
     transform="translate(2.562000,2.562000) scale(1,-1)"
     style="stroke:#000000;stroke-opacity:1">
    <path
       id="path26_w0000"
       d="M 37.2 -103.1 L 34.3 -103.1 L 34.3 -100.29999999999998 L 40.099999999999994 -100.29999999999998 L 40.099999999999994 -103.1 L 37.2 -103.1 "
       stroke="#0000ff"
       stroke-width="0.35 px"
       style="stroke-width:0.35;stroke-miterlimit:4;stroke-dasharray:none;stroke-linecap:square;fill:none;fill-opacity:1;fill-rule:evenodd;stroke:#000000;stroke-opacity:1" />
    <title
       id="title3">b'path26'</title>
  </g>
  <g
     id="path27"
     transform="translate(2.562000,2.562000) scale(1,-1)"
     style="stroke:#000000;stroke-opacity:1">
    <path
       id="path27_w0000"
       d="M 49.2 -103.1 L 46.3 -103.1 L 46.3 -100.29999999999998 L 52.099999999999994 -100.29999999999998 L 52.099999999999994 -103.1 L 49.2 -103.1 "
       stroke="#0000ff"
       stroke-width="0.35 px"
       style="stroke-width:0.35;stroke-miterlimit:4;stroke-dasharray:none;stroke-linecap:square;fill:none;fill-opacity:1;fill-rule:evenodd;stroke:#000000;stroke-opacity:1" />
    <title
       id="title4">b'path27'</title>
  </g>
  <g
     id="path28"
     transform="translate(2.562000,2.562000) scale(1,-1)"
     style="stroke:#000000;stroke-opacity:1">
    <path
       id="path28_w0000"
       d="M 61.19999999999999 -103.1 L 58.29999999999998 -103.1 L 58.29999999999998 -100.29999999999998 L 64.1 -100.29999999999998 L 64.1 -103.1 L 61.19999999999999 -103.1 "
       stroke="#0000ff"
       stroke-width="0.35 px"
       style="stroke-width:0.35;stroke-miterlimit:4;stroke-dasharray:none;stroke-linecap:square;fill:none;fill-opacity:1;fill-rule:evenodd;stroke:#000000;stroke-opacity:1" />
    <title
       id="title5">b'path28'</title>
  </g>
  <g
     id="path29"
     transform="translate(2.562000,2.562000) scale(1,-1)"
     style="stroke:#000000;stroke-opacity:1">
    <path
       id="path29_w0000"
       d="M 73.19999999999999 -103.1 L 70.29999999999998 -103.1 L 70.29999999999998 -100.29999999999998 L 76.1 -100.29999999999998 L 76.1 -103.1 L 73.19999999999999 -103.1 "
       stroke="#0000ff"
       stroke-width="0.35 px"
       style="stroke-width:0.35;stroke-miterlimit:4;stroke-dasharray:none;stroke-linecap:square;fill:none;fill-opacity:1;fill-rule:evenodd;stroke:#000000;stroke-opacity:1" />
    <title
       id="title6">b'path29'</title>
  </g>
  <g
     id="path30"
     transform="translate(2.562000,2.562000) scale(1,-1)"
     style="stroke:#000000;stroke-opacity:1">
    <path
       id="path30_w0000"
       d="M 85.19999999999999 -103.1 L 82.29999999999998 -103.1 L 82.29999999999998 -100.29999999999998 L 88.1 -100.29999999999998 L 88.1 -103.1 L 85.19999999999999 -103.1 "
       stroke="#0000ff"
       stroke-width="0.35 px"
       style="stroke-width:0.35;stroke-miterlimit:4;stroke-dasharray:none;stroke-linecap:square;fill:none;fill-opacity:1;fill-rule:evenodd;stroke:#000000;stroke-opacity:1" />
    <title
       id="title7">b'path30'</title>
  </g>
  <g
     id="path31"
     transform="translate(2.562000,2.562000) scale(1,-1)"
     style="stroke:#000000;stroke-opacity:1">
    <path
       id="path31_w0000"
       d="M 97.19999999999999 -103.1 L 94.29999999999998 -103.1 L 94.29999999999998 -100.29999999999998 L 100.09999999999998 -100.29999999999998 L 100.09999999999998 -103.1 L 97.19999999999999 -103.1 "
       stroke="#0000ff"
       stroke-width="0.35 px"
       style="stroke-width:0.35;stroke-miterlimit:4;stroke-dasharray:none;stroke-linecap:square;fill:none;fill-opacity:1;fill-rule:evenodd;stroke:#000000;stroke-opacity:1" />
    <title
       id="title8">b'path31'</title>
  </g>
  <g
     id="path32"
     transform="translate(2.562000,2.562000) scale(1,-1)"
     style="stroke:#000000;stroke-opacity:1">
    <path
       id="path32_w0000"
       d="M 109.19999999999999 -103.1 L 106.29999999999998 -103.1 L 106.29999999999998 -100.29999999999998 L 112.1 -100.29999999999998 L 112.1 -103.1 L 109.19999999999999 -103.1 "
       stroke="#0000ff"
       stroke-width="0.35 px"
       style="stroke-width:0.35;stroke-miterlimit:4;stroke-dasharray:none;stroke-linecap:square;fill:none;fill-opacity:1;fill-rule:evenodd;stroke:#000000;stroke-opacity:1" />
    <title
       id="title9">b'path32'</title>
  </g>
  <g
     id="path33"
     transform="translate(2.562000,2.562000) scale(1,-1)"
     style="stroke:#000000;stroke-opacity:1">
    <path
       id="path33_w0000"
       d="M 121.19999999999999 -103.1 L 118.29999999999998 -103.1 L 118.29999999999998 -100.29999999999998 L 124.1 -100.29999999999998 L 124.1 -103.1 L 121.19999999999999 -103.1 "
       stroke="#0000ff"
       stroke-width="0.35 px"
       style="stroke-width:0.35;stroke-miterlimit:4;stroke-dasharray:none;stroke-linecap:square;fill:none;fill-opacity:1;fill-rule:evenodd;stroke:#000000;stroke-opacity:1" />
    <title
       id="title10">b'path33'</title>
  </g>
  <g
     id="path34"
     transform="translate(2.562000,2.562000) scale(1,-1)"
     style="stroke:#000000;stroke-opacity:1">
    <path
       id="path34_w0000"
       d="M 133.2 -103.1 L 130.29999999999998 -103.1 L 130.29999999999998 -100.29999999999998 L 136.1 -100.29999999999998 L 136.1 -103.1 L 133.2 -103.1 "
       stroke="#0000ff"
       stroke-width="0.35 px"
       style="stroke-width:0.35;stroke-miterlimit:4;stroke-dasharray:none;stroke-linecap:square;fill:none;fill-opacity:1;fill-rule:evenodd;stroke:#000000;stroke-opacity:1" />
    <title
       id="title11">b'path34'</title>
  </g>
  <g
     id="path35"
     transform="translate(2.562000,2.562000) scale(1,-1)"
     style="stroke:#000000;stroke-opacity:1">
    <path
       id="path35_w0000"
       d="M 145.2 -103.1 L 142.29999999999998 -103.1 L 142.29999999999998 -100.29999999999998 L 148.1 -100.29999999999998 L 148.1 -103.1 L 145.2 -103.1 "
       stroke="#0000ff"
       stroke-width="0.35 px"
       style="stroke-width:0.35;stroke-miterlimit:4;stroke-dasharray:none;stroke-linecap:square;fill:none;fill-opacity:1;fill-rule:evenodd;stroke:#000000;stroke-opacity:1" />
    <title
       id="title12">b'path35'</title>
  </g>
  <g
     id="path36"
     transform="translate(2.562000,2.562000) scale(1,-1)"
     style="stroke:#000000;stroke-opacity:1">
    <path
       id="path36_w0000"
       d="M 157.2 -103.1 L 154.29999999999998 -103.1 L 154.29999999999998 -100.29999999999998 L 160.1 -100.29999999999998 L 160.1 -103.1 L 157.2 -103.1 "
       stroke="#0000ff"
       stroke-width="0.35 px"
       style="stroke-width:0.35;stroke-miterlimit:4;stroke-dasharray:none;stroke-linecap:square;fill:none;fill-opacity:1;fill-rule:evenodd;stroke:#000000;stroke-opacity:1" />
    <title
       id="title13">b'path36'</title>
  </g>
  <g
     id="path37"
     transform="translate(2.562000,2.562000) scale(1,-1)"
     style="stroke:#000000;stroke-opacity:1">
    <path
       id="path37_w0000"
       d="M 169.2 -103.1 L 166.29999999999998 -103.1 L 166.29999999999998 -100.29999999999998 L 172.1 -100.29999999999998 L 172.1 -103.1 L 169.2 -103.1 "
       stroke="#0000ff"
       stroke-width="0.35 px"
       style="stroke-width:0.35;stroke-miterlimit:4;stroke-dasharray:none;stroke-linecap:square;fill:none;fill-opacity:1;fill-rule:evenodd;stroke:#000000;stroke-opacity:1" />
    <title
       id="title14">b'path37'</title>
  </g>
  <g
     id="path38"
     transform="translate(2.562000,2.562000) scale(1,-1)"
     style="stroke:#000000;stroke-opacity:1">
    <path
       id="path38_w0000"
       d="M 181.2 -103.1 L 178.29999999999998 -103.1 L 178.29999999999998 -100.29999999999998 L 184.1 -100.29999999999998 L 184.1 -103.1 L 181.2 -103.1 "
       stroke="#0000ff"
       stroke-width="0.35 px"
       style="stroke-width:0.35;stroke-miterlimit:4;stroke-dasharray:none;stroke-linecap:square;fill:none;fill-opacity:1;fill-rule:evenodd;stroke:#000000;stroke-opacity:1" />
    <title
       id="title15">b'path38'</title>
  </g>
  <g
     id="path39"
     transform="translate(2.562000,2.562000) scale(1,-1)"
     style="stroke:#000000;stroke-opacity:1">
    <path
       id="path39_w0000"
       d="M 193.2 -103.1 L 190.29999999999998 -103.1 L 190.29999999999998 -100.29999999999998 L 196.1 -100.29999999999998 L 196.1 -103.1 L 193.2 -103.1 "
       stroke="#0000ff"
       stroke-width="0.35 px"
       style="stroke-width:0.35;stroke-miterlimit:4;stroke-dasharray:none;stroke-linecap:square;fill:none;fill-opacity:1;fill-rule:evenodd;stroke:#000000;stroke-opacity:1" />
    <title
       id="title16">b'path39'</title>
  </g>
  <g
     id="path40"
     transform="translate(2.562000,2.562000) scale(1,-1)"
     style="stroke:#000000;stroke-opacity:1">
    <path
       id="path40_w0000"
       d="M 205.2 -103.1 L 202.29999999999998 -103.1 L 202.29999999999998 -100.29999999999998 L 208.1 -100.29999999999998 L 208.1 -103.1 L 205.2 -103.1 "
       stroke="#0000ff"
       stroke-width="0.35 px"
       style="stroke-width:0.35;stroke-miterlimit:4;stroke-dasharray:none;stroke-linecap:square;fill:none;fill-opacity:1;fill-rule:evenodd;stroke:#000000;stroke-opacity:1" />
    <title
       id="title17">b'path40'</title>
  </g>
  <g
     id="path41"
     transform="translate(2.562000,2.562000) scale(1,-1)"
     style="stroke:#000000;stroke-opacity:1">
    <path
       id="path41_w0000"
       d="M 217.2 -103.1 L 214.29999999999998 -103.1 L 214.29999999999998 -100.29999999999998 L 220.1 -100.29999999999998 L 220.1 -103.1 L 217.2 -103.1 "
       stroke="#0000ff"
       stroke-width="0.35 px"
       style="stroke-width:0.35;stroke-miterlimit:4;stroke-dasharray:none;stroke-linecap:square;fill:none;fill-opacity:1;fill-rule:evenodd;stroke:#000000;stroke-opacity:1" />
    <title
       id="title18">b'path41'</title>
  </g>
  <g
     id="path42"
     transform="translate(2.562000,2.562000) scale(1,-1)"
     style="stroke:#000000;stroke-opacity:1">
    <path
       id="path42_w0000"
       d="M 229.2 -103.1 L 226.29999999999998 -103.1 L 226.29999999999998 -100.29999999999998 L 232.1 -100.29999999999998 L 232.1 -103.1 L 229.2 -103.1 "
       stroke="#0000ff"
       stroke-width="0.35 px"
       style="stroke-width:0.35;stroke-miterlimit:4;stroke-dasharray:none;stroke-linecap:square;fill:none;fill-opacity:1;fill-rule:evenodd;stroke:#000000;stroke-opacity:1" />
    <title
       id="title19">b'path42'</title>
  </g>
  <g
     id="path43"
     transform="translate(2.562000,2.562000) scale(1,-1)"
     style="stroke:#000000;stroke-opacity:1">
    <path
       id="path43_w0000"
       d="M 241.2 -103.1 L 238.3 -103.1 L 238.3 -100.29999999999998 L 244.10000000000002 -100.29999999999998 L 244.10000000000002 -103.1 L 241.2 -103.1 "
       stroke="#0000ff"
       stroke-width="0.35 px"
       style="stroke-width:0.35;stroke-miterlimit:4;stroke-dasharray:none;stroke-linecap:square;fill:none;fill-opacity:1;fill-rule:evenodd;stroke:#000000;stroke-opacity:1" />
    <title
       id="title20">b'path43'</title>
  </g>
  <g
     id="path44"
     transform="translate(2.562000,2.562000) scale(1,-1)"
     style="stroke:#000000;stroke-opacity:1">
    <path
       id="path44_w0000"
       d="M 253.20000000000005 -103.1 L 250.30000000000007 -103.1 L 250.30000000000007 -100.29999999999998 L 256.1000000000001 -100.29999999999998 L 256.1000000000001 -103.1 L 253.20000000000005 -103.1 "
       stroke="#0000ff"
       stroke-width="0.35 px"
       style="stroke-width:0.35;stroke-miterlimit:4;stroke-dasharray:none;stroke-linecap:square;fill:none;fill-opacity:1;fill-rule:evenodd;stroke:#000000;stroke-opacity:1" />
    <title
       id="title21">b'path44'</title>
  </g>
  <g
     id="path45"
     transform="translate(2.562000,2.562000) scale(1,-1)"
     style="stroke:#000000;stroke-opacity:1">
    <path
       id="path45_w0000"
       d="M 3.199999999999999 -106.29999999999998 L 263.20000000000005 -106.29999999999998 L 266.20000000000005 -106.29999999999998 C 266.25500000000005 -106.29999999999998 266.30000000000007 -106.25499999999997 266.30000000000007 -106.19999999999996 L 266.30000000000007 -98.19999999999996 C 266.30000000000007 -98.14499999999995 266.25500000000005 -98.09999999999994 266.20000000000005 -98.09999999999994 L 263.30000000000007 -98.09999999999994 L 263.30000000000007 -92.29999999999993 L 266.20000000000005 -92.29999999999993 C 266.25500000000005 -92.29999999999993 266.30000000000007 -92.25499999999991 266.30000000000007 -92.1999999999999 L 266.30000000000007 -86.1999999999999 C 266.30000000000007 -86.1449999999999 266.25500000000005 -86.09999999999988 266.20000000000005 -86.09999999999988 L 263.30000000000007 -86.09999999999988 L 263.30000000000007 -80.29999999999987 L 266.20000000000005 -80.29999999999987 C 266.25500000000005 -80.29999999999987 266.30000000000007 -80.25499999999985 266.30000000000007 -80.19999999999985 L 266.30000000000007 -74.19999999999985 C 266.30000000000007 -74.14499999999984 266.25500000000005 -74.09999999999982 266.20000000000005 -74.09999999999982 L 263.30000000000007 -74.09999999999982 L 263.30000000000007 -68.29999999999981 L 266.20000000000005 -68.29999999999981 C 266.25500000000005 -68.29999999999981 266.30000000000007 -68.2549999999998 266.30000000000007 -68.19999999999979 L 266.30000000000007 -62.19999999999978 C 266.30000000000007 -62.144999999999776 266.25500000000005 -62.09999999999976 266.20000000000005 -62.09999999999976 L 263.30000000000007 -62.09999999999976 L 263.30000000000007 -56.29999999999975 L 266.20000000000005 -56.29999999999975 C 266.25500000000005 -56.29999999999975 266.30000000000007 -56.25499999999973 266.30000000000007 -56.199999999999726 L 266.30000000000007 -50.199999999999726 C 266.30000000000007 -50.14499999999972 266.25500000000005 -50.0999999999997 266.20000000000005 -50.0999999999997 L 263.30000000000007 -50.0999999999997 L 263.30000000000007 -44.29999999999969 L 266.20000000000005 -44.29999999999969 C 266.25500000000005 -44.29999999999969 266.30000000000007 -44.254999999999676 266.30000000000007 -44.19999999999967 L 266.30000000000007 -38.19999999999967 C 266.30000000000007 -38.14499999999966 266.25500000000005 -38.099999999999646 266.20000000000005 -38.099999999999646 L 263.30000000000007 -38.099999999999646 L 263.30000000000007 -32.299999999999635 L 266.20000000000005 -32.299999999999635 C 266.25500000000005 -32.299999999999635 266.30000000000007 -32.25499999999962 266.30000000000007 -32.19999999999961 L 266.30000000000007 -26.199999999999612 C 266.30000000000007 -26.144999999999605 266.25500000000005 -26.09999999999959 266.20000000000005 -26.09999999999959 L 263.30000000000007 -26.09999999999959 L 263.30000000000007 -20.299999999999578 L 266.20000000000005 -20.299999999999578 C 266.25500000000005 -20.299999999999578 266.30000000000007 -20.254999999999562 266.30000000000007 -20.199999999999555 L 266.30000000000007 -14.199999999999555 C 266.30000000000007 -14.144999999999548 266.25500000000005 -14.099999999999532 266.20000000000005 -14.099999999999532 L 263.30000000000007 -14.099999999999532 L 263.30000000000007 -8.299999999999521 L 266.20000000000005 -8.299999999999521 C 266.25500000000005 -8.299999999999521 266.30000000000007 -8.254999999999505 266.30000000000007 -8.199999999999498 L 266.30000000000007 -0.19999999999949836 C 266.30000000000007 -0.14499999999949154 266.25500000000005 -0.09999999999947562 266.20000000000005 -0.09999999999947562 L 263.20000000000005 -0.09999999999947562 L 3.2000000000000206 -0.09999999999947562 L 0.2000000000000206 -0.09999999999947562 C 0.1450000000000209 -0.09999999999947562 0.10000000000002274 -0.14499999999949154 0.10000000000002274 -0.19999999999949836 L 0.10000000000002274 -8.199999999999498 C 0.10000000000002274 -8.254999999999505 0.1450000000000209 -8.299999999999521 0.2000000000000206 -8.299999999999521 L 3.099999999999998 -8.299999999999521 L 3.099999999999998 -14.099999999999532 L 0.1999999999999993 -14.099999999999532 C 0.14499999999999957 -14.099999999999532 0.09999999999999787 -14.144999999999548 0.09999999999999787 -14.199999999999555 L 0.09999999999999787 -20.199999999999555 C 0.09999999999999787 -20.254999999999562 0.14499999999999957 -20.299999999999578 0.1999999999999993 -20.299999999999578 L 3.099999999999998 -20.299999999999578 L 3.099999999999998 -26.09999999999959 L 0.1999999999999993 -26.09999999999959 C 0.14499999999999957 -26.09999999999959 0.09999999999999787 -26.144999999999605 0.09999999999999787 -26.199999999999612 L 0.09999999999999787 -32.19999999999961 C 0.09999999999999787 -32.25499999999962 0.14499999999999957 -32.299999999999635 0.1999999999999993 -32.299999999999635 L 3.099999999999998 -32.299999999999635 L 3.099999999999998 -38.099999999999646 L 0.1999999999999993 -38.099999999999646 C 0.14499999999999957 -38.099999999999646 0.09999999999999787 -38.14499999999966 0.09999999999999787 -38.19999999999967 L 0.09999999999999787 -44.19999999999967 C 0.09999999999999787 -44.254999999999676 0.14499999999999957 -44.29999999999969 0.1999999999999993 -44.29999999999969 L 3.099999999999998 -44.29999999999969 L 3.099999999999998 -50.0999999999997 L 0.1999999999999993 -50.0999999999997 C 0.14499999999999957 -50.0999999999997 0.09999999999999787 -50.14499999999972 0.09999999999999787 -50.199999999999726 L 0.09999999999999787 -56.199999999999726 C 0.09999999999999787 -56.25499999999973 0.14499999999999957 -56.29999999999975 0.1999999999999993 -56.29999999999975 L 3.099999999999998 -56.29999999999975 L 3.099999999999998 -62.09999999999976 L 0.1999999999999993 -62.09999999999976 C 0.14499999999999957 -62.09999999999976 0.09999999999999787 -62.144999999999776 0.09999999999999787 -62.19999999999978 L 0.09999999999999787 -68.19999999999979 C 0.09999999999999787 -68.2549999999998 0.14499999999999957 -68.29999999999981 0.1999999999999993 -68.29999999999981 L 3.099999999999998 -68.29999999999981 L 3.099999999999998 -74.09999999999982 L 0.1999999999999993 -74.09999999999982 C 0.14499999999999957 -74.09999999999982 0.09999999999999787 -74.14499999999984 0.09999999999999787 -74.19999999999985 L 0.09999999999999787 -80.19999999999985 C 0.09999999999999787 -80.25499999999985 0.14499999999999957 -80.29999999999987 0.1999999999999993 -80.29999999999987 L 3.099999999999998 -80.29999999999987 L 3.099999999999998 -86.09999999999988 L 0.1999999999999993 -86.09999999999988 C 0.14499999999999957 -86.09999999999988 0.09999999999999787 -86.1449999999999 0.09999999999999787 -86.1999999999999 L 0.09999999999999787 -92.1999999999999 C 0.09999999999999787 -92.25499999999991 0.14499999999999957 -92.29999999999993 0.1999999999999993 -92.29999999999993 L 3.099999999999998 -92.29999999999993 L 3.099999999999998 -98.09999999999994 L 0.1999999999999993 -98.09999999999994 C 0.14499999999999957 -98.09999999999994 0.09999999999999787 -98.14499999999995 0.09999999999999787 -98.19999999999996 L 0.09999999999999787 -106.19999999999996 C 0.09999999999999787 -106.25499999999997 0.14499999999999957 -106.29999999999998 0.1999999999999993 -106.29999999999998 L 3.1999999999999993 -106.29999999999998 "
       stroke="#000000"
       stroke-width="0.35 px"
       style="stroke-width:0.35;stroke-miterlimit:4;stroke-dasharray:none;stroke-linecap:square;fill:none;fill-opacity:1;fill-rule:evenodd;stroke:#000000;stroke-opacity:1" />
    <title
       id="title22">b'path45'</title>
  </g>
  <g
     id="Part__Part2DObjectPython002"
     transform="translate(2.562000,2.562000) scale(1,-1)"
     style="stroke:#000000;stroke-opacity:1">
    <path
       id="Part__Part2DObjectPython002_w0000"
       d="M 33.84 -75.2 L 33.84 -89.7 L 74.84 -89.7 L 74.84 -75.2 L 33.84 -75.2 "
       stroke="#000000"
       stroke-width="0.7 px"
       style="stroke-width:0.7;stroke-miterlimit:4;stroke-dasharray:none;stroke-linecap:square;fill:none;fill-opacity:1;fill-rule:evenodd;stroke:#000000;stroke-opacity:1" />
    <path
       id="Part__Part2DObjectPython002_w0001"
       d="M 84.64 -75.2 L 84.64 -89.7 L 125.64 -89.7 L 125.64 -75.2 L 84.64 -75.2 "
       stroke="#000000"
       stroke-width="0.7 px"
       style="stroke-width:0.7;stroke-miterlimit:4;stroke-dasharray:none;stroke-linecap:square;fill:none;fill-opacity:1;fill-rule:evenodd;stroke:#000000;stroke-opacity:1" />
    <path
       id="Part__Part2DObjectPython002_w0002"
       d="M 155.44 -75.2 L 155.44 -89.7 L 196.44 -89.7 L 196.44 -75.2 L 155.44 -75.2 "
       stroke="#000000"
       stroke-width="0.7 px"
       style="stroke-width:0.7;stroke-miterlimit:4;stroke-dasharray:none;stroke-linecap:square;fill:none;fill-opacity:1;fill-rule:evenodd;stroke:#000000;stroke-opacity:1" />
    <path
       id="Part__Part2DObjectPython002_w0003"
       d="M 206.24 -75.2 L 206.24 -89.7 L 247.24 -89.7 L 247.24 -75.2 L 206.24 -75.2 "
       stroke="#000000"
       stroke-width="0.7 px"
       style="stroke-width:0.7;stroke-miterlimit:4;stroke-dasharray:none;stroke-linecap:square;fill:none;fill-opacity:1;fill-rule:evenodd;stroke:#000000;stroke-opacity:1" />
    <circle
       cx="55.1"
       cy="-20.200000000000003"
       r="3.25"
       stroke="#000000"
       stroke-width="0.7 px"
       style="stroke-width:0.7;stroke-miterlimit:4;stroke-dasharray:none;stroke-linecap:square;fill:none;stroke:#000000;stroke-opacity:1"
       id="circle22" />
    <circle
       cx="107.1"
       cy="-20.2"
       r="3.25"
       stroke="#000000"
       stroke-width="0.7 px"
       style="stroke-width:0.7;stroke-miterlimit:4;stroke-dasharray:none;stroke-linecap:square;fill:none;stroke:#000000;stroke-opacity:1"
       id="circle23" />
    <circle
       cx="159.1"
       cy="-20.2"
       r="3.25"
       stroke="#000000"
       stroke-width="0.7 px"
       style="stroke-width:0.7;stroke-miterlimit:4;stroke-dasharray:none;stroke-linecap:square;fill:none;stroke:#000000;stroke-opacity:1"
       id="circle24" />
    <circle
       cx="211.1"
       cy="-20.200000000000003"
       r="3.25"
       stroke="#000000"
       stroke-width="0.7 px"
       style="stroke-width:0.7;stroke-miterlimit:4;stroke-dasharray:none;stroke-linecap:square;fill:none;stroke:#000000;stroke-opacity:1"
       id="circle25" />
    <path
       id="Part__Part2DObjectPython002_w0008"
       d="M 59.3 -43.263346959313566 A 4.625 4.625 0 0 1 50.9 -43.2633L 50.900000000000006 -47.13665304068644 A 4.625 4.625 0 0 1 59.3 -47.1367L 59.3 -43.263346959313566 "
       stroke="#000000"
       stroke-width="0.7 px"
       style="stroke-width:0.7;stroke-miterlimit:4;stroke-dasharray:none;stroke-linecap:square;fill:none;fill-opacity:1;fill-rule:evenodd;stroke:#000000;stroke-opacity:1" />
    <path
       id="Part__Part2DObjectPython002_w0009"
       d="M 111.35 -43.375685060084194 A 4.625 4.625 0 0 1 102.85 -43.3757L 102.85 -47.0243149399158 A 4.625 4.625 0 0 1 111.35 -47.0243L 111.35 -43.375685060084194 "
       stroke="#000000"
       stroke-width="0.7 px"
       style="stroke-width:0.7;stroke-miterlimit:4;stroke-dasharray:none;stroke-linecap:square;fill:none;fill-opacity:1;fill-rule:evenodd;stroke:#000000;stroke-opacity:1" />
    <path
       id="Part__Part2DObjectPython002_w0010"
       d="M 163.29999999999998 -43.26334695931358 A 4.625 4.625 0 0 1 154.9 -43.2633L 154.9 -47.13665304068641 A 4.625 4.625 0 0 1 163.3 -47.1367L 163.29999999999998 -43.26334695931358 "
       stroke="#000000"
       stroke-width="0.7 px"
       style="stroke-width:0.7;stroke-miterlimit:4;stroke-dasharray:none;stroke-linecap:square;fill:none;fill-opacity:1;fill-rule:evenodd;stroke:#000000;stroke-opacity:1" />
    <path
       id="Part__Part2DObjectPython002_w0011"
       d="M 215.29999999999998 -43.263346959313566 A 4.625 4.625 0 0 1 206.9 -43.2633L 206.89999999999998 -47.136653040686426 A 4.625 4.625 0 0 1 215.3 -47.1367L 215.29999999999998 -43.263346959313566 "
       stroke="#000000"
       stroke-width="0.7 px"
       style="stroke-width:0.7;stroke-miterlimit:4;stroke-dasharray:none;stroke-linecap:square;fill:none;fill-opacity:1;fill-rule:evenodd;stroke:#000000;stroke-opacity:1" />
    <title
       id="title25">b'Part__Part2DObjectPython002'</title>
  </g>
</svg>
