<?xml version="1.0"?>
<!DOCTYPE svg PUBLIC "-//W3C//DTD SVG 1.1//EN" "http://www.w3.org/Graphics/SVG/1.1/DTD/svg11.dtd">
<svg width="281.7240000000011mm" height="99.21980000000019mm" viewBox="0 0 281.7240000000011 99.21980000000019" xmlns="http://www.w3.org/2000/svg" version="1.1">
<g id="Part__Part2DObjectPython002" transform="translate(2.662000,2.662000) scale(1,-1)">
<path id="Part__Part2DObjectPython002_w0000"  d="M 140.45 -8.05 A 2.25 2.25 0 0 1 135.95 -8.05L 135.95 -11.05 A 2.25 2.25 0 0 1 140.45 -11.05L 140.45 -8.05 " stroke="#000000" stroke-width="0.7 px" style="stroke-width:0.7;stroke-miterlimit:4;stroke-dasharray:none;stroke-linecap:square;fill:none;fill-opacity:1;fill-rule: evenodd"/>
<path id="Part__Part2DObjectPython002_w0001"  d="M 140.45 -33.220000000000006 A 2.25 2.25 0 0 1 135.95 -33.22L 135.95 -36.220000000000006 A 2.25 2.25 0 1 1 140.45 -36.22L 140.45 -33.220000000000006 " stroke="#000000" stroke-width="0.7 px" style="stroke-width:0.7;stroke-miterlimit:4;stroke-dasharray:none;stroke-linecap:square;fill:none;fill-opacity:1;fill-rule: evenodd"/>
<title>b'Part__Part2DObjectPython002'</title>
</g>
<g id="path007" transform="translate(2.662000,2.662000) scale(1,-1)">
<path id="path007_w0000"  d="M 3.1999999999999993 -43.46527000000002 L 9.200000000000001 -43.46527000000002 C 9.255 -43.46527000000002 9.300000000000002 -43.42027 9.300000000000002 -43.365269999999995 L 9.300000000000002 -40.46527000000002 L 15.1 -40.46527000000002 L 15.1 -43.365269999999995 C 15.1 -43.42027 15.145000000000001 -43.46527000000002 15.200000000000001 -43.46527000000002 L 21.200000000000003 -43.46527000000002 C 21.255000000000003 -43.46527000000002 21.300000000000004 -43.42027 21.300000000000004 -43.365269999999995 L 21.300000000000004 -40.46527000000002 L 27.1 -40.46527000000002 L 27.1 -43.365269999999995 C 27.1 -43.42027 27.145000000000003 -43.46527000000002 27.200000000000003 -43.46527000000002 L 33.2 -43.46527000000002 C 33.255 -43.46527000000002 33.300000000000004 -43.42027 33.300000000000004 -43.365269999999995 L 33.300000000000004 -40.46527000000002 L 39.1 -40.46527000000002 L 39.1 -43.365269999999995 C 39.1 -43.42027 39.145 -43.46527000000002 39.2 -43.46527000000002 L 45.2 -43.46527000000002 C 45.255 -43.46527000000002 45.300000000000004 -43.42027 45.300000000000004 -43.365269999999995 L 45.300000000000004 -40.46527000000002 L 51.1 -40.46527000000002 L 51.1 -43.365269999999995 C 51.1 -43.42027 51.145 -43.46527000000002 51.2 -43.46527000000002 L 57.199999999999996 -43.46527000000002 C 57.255 -43.46527000000002 57.29999999999999 -43.42027 57.29999999999999 -43.365269999999995 L 57.29999999999999 -40.46527000000002 L 63.1 -40.46527000000002 L 63.1 -43.365269999999995 C 63.1 -43.42027 63.145 -43.46527000000002 63.199999999999996 -43.46527000000002 L 69.19999999999999 -43.46527000000002 C 69.255 -43.46527000000002 69.29999999999998 -43.42027 69.29999999999998 -43.365269999999995 L 69.29999999999998 -40.46527000000002 L 75.1 -40.46527000000002 L 75.1 -43.365269999999995 C 75.1 -43.42027 75.145 -43.46527000000002 75.19999999999999 -43.46527000000002 L 81.19999999999999 -43.46527000000002 C 81.255 -43.46527000000002 81.29999999999998 -43.42027 81.29999999999998 -43.365269999999995 L 81.29999999999998 -40.46527000000002 L 87.1 -40.46527000000002 L 87.1 -43.365269999999995 C 87.1 -43.42027 87.145 -43.46527000000002 87.19999999999999 -43.46527000000002 L 93.19999999999999 -43.46527000000002 C 93.255 -43.46527000000002 93.29999999999998 -43.42027 93.29999999999998 -43.365269999999995 L 93.29999999999998 -40.46527000000002 L 99.09999999999998 -40.46527000000002 L 99.09999999999998 -43.365269999999995 C 99.09999999999998 -43.42027 99.14499999999998 -43.46527000000002 99.19999999999997 -43.46527000000002 L 105.19999999999997 -43.46527000000002 C 105.25499999999998 -43.46527000000002 105.29999999999997 -43.42027 105.29999999999997 -43.365269999999995 L 105.29999999999997 -40.46527000000002 L 111.09999999999997 -40.46527000000002 L 111.09999999999997 -43.365269999999995 C 111.09999999999997 -43.42027 111.14499999999997 -43.46527000000002 111.19999999999996 -43.46527000000002 L 117.19999999999996 -43.46527000000002 C 117.25499999999997 -43.46527000000002 117.29999999999995 -43.42027 117.29999999999995 -43.365269999999995 L 117.29999999999995 -40.46527000000002 L 123.09999999999997 -40.46527000000002 L 123.09999999999997 -43.365269999999995 C 123.09999999999997 -43.42027 123.14499999999995 -43.46527000000002 123.19999999999996 -43.46527000000002 L 129.19999999999996 -43.46527000000002 C 129.25499999999997 -43.46527000000002 129.29999999999995 -43.42027 129.29999999999995 -43.365269999999995 L 129.29999999999995 -40.46527000000002 L 135.09999999999997 -40.46527000000002 L 135.09999999999997 -43.365269999999995 C 135.09999999999997 -43.42027 135.14499999999995 -43.46527000000002 135.19999999999996 -43.46527000000002 L 141.19999999999996 -43.46527000000002 C 141.25499999999997 -43.46527000000002 141.29999999999995 -43.42027 141.29999999999995 -43.365269999999995 L 141.29999999999995 -40.46527000000002 L 147.09999999999997 -40.46527000000002 L 147.09999999999997 -43.365269999999995 C 147.09999999999997 -43.42027 147.14499999999995 -43.46527000000002 147.19999999999996 -43.46527000000002 L 153.19999999999996 -43.46527000000002 C 153.25499999999997 -43.46527000000002 153.29999999999995 -43.42027 153.29999999999995 -43.365269999999995 L 153.29999999999995 -40.46527000000002 L 159.09999999999997 -40.46527000000002 L 159.09999999999997 -43.365269999999995 C 159.09999999999997 -43.42027 159.14499999999995 -43.46527000000002 159.19999999999996 -43.46527000000002 L 165.19999999999996 -43.46527000000002 C 165.25499999999997 -43.46527000000002 165.29999999999995 -43.42027 165.29999999999995 -43.365269999999995 L 165.29999999999995 -40.46527000000002 L 171.09999999999997 -40.46527000000002 L 171.09999999999997 -43.365269999999995 C 171.09999999999997 -43.42027 171.14499999999995 -43.46527000000002 171.19999999999996 -43.46527000000002 L 177.19999999999996 -43.46527000000002 C 177.25499999999997 -43.46527000000002 177.29999999999995 -43.42027 177.29999999999995 -43.365269999999995 L 177.29999999999995 -40.46527000000002 L 183.09999999999997 -40.46527000000002 L 183.09999999999997 -43.365269999999995 C 183.09999999999997 -43.42027 183.14499999999995 -43.46527000000002 183.19999999999996 -43.46527000000002 L 189.19999999999996 -43.46527000000002 C 189.25499999999997 -43.46527000000002 189.29999999999995 -43.42027 189.29999999999995 -43.365269999999995 L 189.29999999999995 -40.46527000000002 L 195.09999999999997 -40.46527000000002 L 195.09999999999997 -43.365269999999995 C 195.09999999999997 -43.42027 195.14499999999995 -43.46527000000002 195.19999999999996 -43.46527000000002 L 201.19999999999996 -43.46527000000002 C 201.25499999999997 -43.46527000000002 201.29999999999995 -43.42027 201.29999999999995 -43.365269999999995 L 201.29999999999995 -40.46527000000002 L 207.09999999999997 -40.46527000000002 L 207.09999999999997 -43.365269999999995 C 207.09999999999997 -43.42027 207.14499999999995 -43.46527000000002 207.19999999999996 -43.46527000000002 L 213.19999999999996 -43.46527000000002 C 213.25499999999997 -43.46527000000002 213.29999999999995 -43.42027 213.29999999999995 -43.365269999999995 L 213.29999999999995 -40.46527000000002 L 219.09999999999997 -40.46527000000002 L 219.09999999999997 -43.365269999999995 C 219.09999999999997 -43.42027 219.14499999999995 -43.46527000000002 219.19999999999996 -43.46527000000002 L 225.19999999999996 -43.46527000000002 C 225.25499999999997 -43.46527000000002 225.29999999999995 -43.42027 225.29999999999995 -43.365269999999995 L 225.29999999999995 -40.46527000000002 L 231.09999999999997 -40.46527000000002 L 231.09999999999997 -43.365269999999995 C 231.09999999999997 -43.42027 231.14499999999995 -43.46527000000002 231.19999999999996 -43.46527000000002 L 237.19999999999996 -43.46527000000002 C 237.25499999999997 -43.46527000000002 237.29999999999995 -43.42027 237.29999999999995 -43.365269999999995 L 237.29999999999995 -40.46527000000002 L 243.09999999999997 -40.46527000000002 L 243.09999999999997 -43.365269999999995 C 243.09999999999997 -43.42027 243.14499999999995 -43.46527000000002 243.19999999999996 -43.46527000000002 L 249.19999999999996 -43.46527000000002 C 249.25499999999997 -43.46527000000002 249.29999999999998 -43.42027 249.29999999999998 -43.365269999999995 L 249.29999999999998 -40.46527000000002 L 255.1 -40.46527000000002 L 255.1 -43.365269999999995 C 255.1 -43.42027 255.145 -43.46527000000002 255.20000000000002 -43.46527000000002 L 261.20000000000005 -43.46527000000002 C 261.25500000000005 -43.46527000000002 261.30000000000007 -43.42027 261.30000000000007 -43.365269999999995 L 261.30000000000007 -40.46527000000002 L 267.1000000000001 -40.46527000000002 L 267.1000000000001 -43.365269999999995 C 267.1000000000001 -43.42027 267.1450000000001 -43.46527000000002 267.2000000000001 -43.46527000000002 L 273.2000000000001 -43.46527000000002 L 276.2000000000001 -43.46527000000002 C 276.2550000000001 -43.46527000000002 276.3000000000001 -43.42027 276.3000000000001 -43.365269999999995 L 276.3000000000001 -37.365269999999995 C 276.3000000000001 -37.31026999999999 276.2550000000001 -37.26526999999997 276.2000000000001 -37.26526999999997 L 273.3000000000001 -37.26526999999997 L 273.3000000000001 -31.46526999999996 L 276.2000000000001 -31.46526999999996 C 276.2550000000001 -31.46526999999996 276.3000000000001 -31.420269999999945 276.3000000000001 -31.36526999999994 L 276.3000000000001 -25.36526999999994 C 276.3000000000001 -25.31026999999993 276.2550000000001 -25.265269999999916 276.2000000000001 -25.265269999999916 L 273.2000000000001 -25.265269999999916 L 3.2000000000000792 -25.265269999999916 L 0.20000000000007923 -25.265269999999916 C 0.1450000000000795 -25.265269999999916 0.10000000000007958 -25.31026999999993 0.10000000000007958 -25.36526999999994 L 0.10000000000007958 -31.36526999999994 C 0.10000000000007958 -31.420269999999945 0.1450000000000795 -31.46526999999996 0.20000000000007923 -31.46526999999996 L 3.0999999999999996 -31.46526999999996 L 3.0999999999999996 -37.26526999999997 L 0.1999999999999993 -37.26526999999997 C 0.14499999999999957 -37.26526999999997 0.09999999999999964 -37.31026999999999 0.09999999999999964 -37.365269999999995 L 0.09999999999999964 -43.365269999999995 C 0.09999999999999964 -43.42027 0.14499999999999957 -43.46527000000002 0.1999999999999993 -43.46527000000002 L 3.1999999999999993 -43.46527000000002 " stroke="#000000" stroke-width="0.35 px" style="stroke-width:0.35;stroke-miterlimit:4;stroke-dasharray:none;stroke-linecap:square;fill:none;fill-opacity:1;fill-rule: evenodd"/>
<title>b'path007'</title>
</g>
<g id="path008" transform="translate(2.662000,2.662000) scale(1,-1)">
<path id="path008_w0000"  d="M 3.1999999999999993 -18.29999999999997 L 9.200000000000001 -18.29999999999997 C 9.255 -18.29999999999997 9.300000000000002 -18.254999999999953 9.300000000000002 -18.199999999999946 L 9.300000000000002 -15.299999999999969 L 15.1 -15.299999999999969 L 15.1 -18.199999999999946 C 15.1 -18.254999999999953 15.145000000000001 -18.29999999999997 15.200000000000001 -18.29999999999997 L 21.200000000000003 -18.29999999999997 C 21.255000000000003 -18.29999999999997 21.300000000000004 -18.254999999999953 21.300000000000004 -18.199999999999946 L 21.300000000000004 -15.299999999999969 L 27.1 -15.299999999999969 L 27.1 -18.199999999999946 C 27.1 -18.254999999999953 27.145000000000003 -18.29999999999997 27.200000000000003 -18.29999999999997 L 33.2 -18.29999999999997 C 33.255 -18.29999999999997 33.300000000000004 -18.254999999999953 33.300000000000004 -18.199999999999946 L 33.300000000000004 -15.299999999999969 L 39.1 -15.299999999999969 L 39.1 -18.199999999999946 C 39.1 -18.254999999999953 39.145 -18.29999999999997 39.2 -18.29999999999997 L 45.2 -18.29999999999997 C 45.255 -18.29999999999997 45.300000000000004 -18.254999999999953 45.300000000000004 -18.199999999999946 L 45.300000000000004 -15.299999999999969 L 51.1 -15.299999999999969 L 51.1 -18.199999999999946 C 51.1 -18.254999999999953 51.145 -18.29999999999997 51.2 -18.29999999999997 L 57.199999999999996 -18.29999999999997 C 57.255 -18.29999999999997 57.29999999999999 -18.254999999999953 57.29999999999999 -18.199999999999946 L 57.29999999999999 -15.299999999999969 L 63.1 -15.299999999999969 L 63.1 -18.199999999999946 C 63.1 -18.254999999999953 63.145 -18.29999999999997 63.199999999999996 -18.29999999999997 L 69.19999999999999 -18.29999999999997 C 69.255 -18.29999999999997 69.29999999999998 -18.254999999999953 69.29999999999998 -18.199999999999946 L 69.29999999999998 -15.299999999999969 L 75.1 -15.299999999999969 L 75.1 -18.199999999999946 C 75.1 -18.254999999999953 75.145 -18.29999999999997 75.19999999999999 -18.29999999999997 L 81.19999999999999 -18.29999999999997 C 81.255 -18.29999999999997 81.29999999999998 -18.254999999999953 81.29999999999998 -18.199999999999946 L 81.29999999999998 -15.299999999999969 L 87.1 -15.299999999999969 L 87.1 -18.199999999999946 C 87.1 -18.254999999999953 87.145 -18.29999999999997 87.19999999999999 -18.29999999999997 L 93.19999999999999 -18.29999999999997 C 93.255 -18.29999999999997 93.29999999999998 -18.254999999999953 93.29999999999998 -18.199999999999946 L 93.29999999999998 -15.299999999999969 L 99.09999999999998 -15.299999999999969 L 99.09999999999998 -18.199999999999946 C 99.09999999999998 -18.254999999999953 99.14499999999998 -18.29999999999997 99.19999999999997 -18.29999999999997 L 105.19999999999997 -18.29999999999997 C 105.25499999999998 -18.29999999999997 105.29999999999997 -18.254999999999953 105.29999999999997 -18.199999999999946 L 105.29999999999997 -15.299999999999969 L 111.09999999999997 -15.299999999999969 L 111.09999999999997 -18.199999999999946 C 111.09999999999997 -18.254999999999953 111.14499999999997 -18.29999999999997 111.19999999999996 -18.29999999999997 L 117.19999999999996 -18.29999999999997 C 117.25499999999997 -18.29999999999997 117.29999999999995 -18.254999999999953 117.29999999999995 -18.199999999999946 L 117.29999999999995 -15.299999999999969 L 123.09999999999997 -15.299999999999969 L 123.09999999999997 -18.199999999999946 C 123.09999999999997 -18.254999999999953 123.14499999999995 -18.29999999999997 123.19999999999996 -18.29999999999997 L 129.19999999999996 -18.29999999999997 C 129.25499999999997 -18.29999999999997 129.29999999999995 -18.254999999999953 129.29999999999995 -18.199999999999946 L 129.29999999999995 -15.299999999999969 L 135.09999999999997 -15.299999999999969 L 135.09999999999997 -18.199999999999946 C 135.09999999999997 -18.254999999999953 135.14499999999995 -18.29999999999997 135.19999999999996 -18.29999999999997 L 141.19999999999996 -18.29999999999997 C 141.25499999999997 -18.29999999999997 141.29999999999995 -18.254999999999953 141.29999999999995 -18.199999999999946 L 141.29999999999995 -15.299999999999969 L 147.09999999999997 -15.299999999999969 L 147.09999999999997 -18.199999999999946 C 147.09999999999997 -18.254999999999953 147.14499999999995 -18.29999999999997 147.19999999999996 -18.29999999999997 L 153.19999999999996 -18.29999999999997 C 153.25499999999997 -18.29999999999997 153.29999999999995 -18.254999999999953 153.29999999999995 -18.199999999999946 L 153.29999999999995 -15.299999999999969 L 159.09999999999997 -15.299999999999969 L 159.09999999999997 -18.199999999999946 C 159.09999999999997 -18.254999999999953 159.14499999999995 -18.29999999999997 159.19999999999996 -18.29999999999997 L 165.19999999999996 -18.29999999999997 C 165.25499999999997 -18.29999999999997 165.29999999999995 -18.254999999999953 165.29999999999995 -18.199999999999946 L 165.29999999999995 -15.299999999999969 L 171.09999999999997 -15.299999999999969 L 171.09999999999997 -18.199999999999946 C 171.09999999999997 -18.254999999999953 171.14499999999995 -18.29999999999997 171.19999999999996 -18.29999999999997 L 177.19999999999996 -18.29999999999997 C 177.25499999999997 -18.29999999999997 177.29999999999995 -18.254999999999953 177.29999999999995 -18.199999999999946 L 177.29999999999995 -15.299999999999969 L 183.09999999999997 -15.299999999999969 L 183.09999999999997 -18.199999999999946 C 183.09999999999997 -18.254999999999953 183.14499999999995 -18.29999999999997 183.19999999999996 -18.29999999999997 L 189.19999999999996 -18.29999999999997 C 189.25499999999997 -18.29999999999997 189.29999999999995 -18.254999999999953 189.29999999999995 -18.199999999999946 L 189.29999999999995 -15.299999999999969 L 195.09999999999997 -15.299999999999969 L 195.09999999999997 -18.199999999999946 C 195.09999999999997 -18.254999999999953 195.14499999999995 -18.29999999999997 195.19999999999996 -18.29999999999997 L 201.19999999999996 -18.29999999999997 C 201.25499999999997 -18.29999999999997 201.29999999999995 -18.254999999999953 201.29999999999995 -18.199999999999946 L 201.29999999999995 -15.299999999999969 L 207.09999999999997 -15.299999999999969 L 207.09999999999997 -18.199999999999946 C 207.09999999999997 -18.254999999999953 207.14499999999995 -18.29999999999997 207.19999999999996 -18.29999999999997 L 213.19999999999996 -18.29999999999997 C 213.25499999999997 -18.29999999999997 213.29999999999995 -18.254999999999953 213.29999999999995 -18.199999999999946 L 213.29999999999995 -15.299999999999969 L 219.09999999999997 -15.299999999999969 L 219.09999999999997 -18.199999999999946 C 219.09999999999997 -18.254999999999953 219.14499999999995 -18.29999999999997 219.19999999999996 -18.29999999999997 L 225.19999999999996 -18.29999999999997 C 225.25499999999997 -18.29999999999997 225.29999999999995 -18.254999999999953 225.29999999999995 -18.199999999999946 L 225.29999999999995 -15.299999999999969 L 231.09999999999997 -15.299999999999969 L 231.09999999999997 -18.199999999999946 C 231.09999999999997 -18.254999999999953 231.14499999999995 -18.29999999999997 231.19999999999996 -18.29999999999997 L 237.19999999999996 -18.29999999999997 C 237.25499999999997 -18.29999999999997 237.29999999999995 -18.254999999999953 237.29999999999995 -18.199999999999946 L 237.29999999999995 -15.299999999999969 L 243.09999999999997 -15.299999999999969 L 243.09999999999997 -18.199999999999946 C 243.09999999999997 -18.254999999999953 243.14499999999995 -18.29999999999997 243.19999999999996 -18.29999999999997 L 249.19999999999996 -18.29999999999997 C 249.25499999999997 -18.29999999999997 249.29999999999998 -18.254999999999953 249.29999999999998 -18.199999999999946 L 249.29999999999998 -15.299999999999969 L 255.1 -15.299999999999969 L 255.1 -18.199999999999946 C 255.1 -18.254999999999953 255.145 -18.29999999999997 255.20000000000002 -18.29999999999997 L 261.20000000000005 -18.29999999999997 C 261.25500000000005 -18.29999999999997 261.30000000000007 -18.254999999999953 261.30000000000007 -18.199999999999946 L 261.30000000000007 -15.299999999999969 L 267.1000000000001 -15.299999999999969 L 267.1000000000001 -18.199999999999946 C 267.1000000000001 -18.254999999999953 267.1450000000001 -18.29999999999997 267.2000000000001 -18.29999999999997 L 273.2000000000001 -18.29999999999997 L 276.2000000000001 -18.29999999999997 C 276.2550000000001 -18.29999999999997 276.3000000000001 -18.254999999999953 276.3000000000001 -18.199999999999946 L 276.3000000000001 -12.199999999999946 C 276.3000000000001 -12.14499999999994 276.2550000000001 -12.099999999999923 276.2000000000001 -12.099999999999923 L 273.3000000000001 -12.099999999999923 L 273.3000000000001 -6.299999999999912 L 276.2000000000001 -6.299999999999912 C 276.2550000000001 -6.299999999999912 276.3000000000001 -6.254999999999896 276.3000000000001 -6.199999999999889 L 276.3000000000001 -0.19999999999988916 C 276.3000000000001 -0.14499999999988233 276.2550000000001 -0.09999999999986642 276.2000000000001 -0.09999999999986642 L 273.2000000000001 -0.09999999999986642 L 3.2000000000000792 -0.09999999999986642 L 0.20000000000007923 -0.09999999999986642 C 0.1450000000000795 -0.09999999999986642 0.10000000000007958 -0.14499999999988233 0.10000000000007958 -0.19999999999988916 L 0.10000000000007958 -6.199999999999889 C 0.10000000000007958 -6.254999999999896 0.1450000000000795 -6.299999999999912 0.20000000000007923 -6.299999999999912 L 3.0999999999999996 -6.299999999999912 L 3.0999999999999996 -12.099999999999923 L 0.1999999999999993 -12.099999999999923 C 0.14499999999999957 -12.099999999999923 0.09999999999999964 -12.14499999999994 0.09999999999999964 -12.199999999999946 L 0.09999999999999964 -18.199999999999946 C 0.09999999999999964 -18.254999999999953 0.14499999999999957 -18.29999999999997 0.1999999999999993 -18.29999999999997 L 3.1999999999999993 -18.29999999999997 " stroke="#000000" stroke-width="0.35 px" style="stroke-width:0.35;stroke-miterlimit:4;stroke-dasharray:none;stroke-linecap:square;fill:none;fill-opacity:1;fill-rule: evenodd"/>
<title>b'path008'</title>
</g>
<g id="path009" transform="translate(2.662000,2.662000) scale(1,-1)">
<path id="path009_w0000"  d="M 3.2000000000005002 -93.79580000000003 L 9.199999999999989 -93.79580000000003 C 9.254999999999995 -93.79580000000003 9.300000000000011 -93.75080000000001 9.300000000000011 -93.6958 L 9.300000000000011 -90.79580000000003 L 15.100000000000023 -90.79580000000003 L 15.100000000000023 -93.6958 C 15.100000000000023 -93.75080000000001 15.145000000000039 -93.79580000000003 15.200000000000045 -93.79580000000003 L 21.200000000000045 -93.79580000000003 C 21.255000000000052 -93.79580000000003 21.300000000000068 -93.75080000000001 21.300000000000068 -93.6958 L 21.300000000000068 -90.79580000000003 L 27.10000000000008 -90.79580000000003 L 27.10000000000008 -93.6958 C 27.10000000000008 -93.75080000000001 27.145000000000095 -93.79580000000003 27.200000000000102 -93.79580000000003 L 33.2000000000001 -93.79580000000003 C 33.25500000000011 -93.79580000000003 33.300000000000125 -93.75080000000001 33.300000000000125 -93.6958 L 33.300000000000125 -90.79580000000003 L 39.100000000000136 -90.79580000000003 L 39.100000000000136 -93.6958 C 39.100000000000136 -93.75080000000001 39.14500000000015 -93.79580000000003 39.20000000000016 -93.79580000000003 L 45.20000000000016 -93.79580000000003 C 45.255000000000166 -93.79580000000003 45.30000000000018 -93.75080000000001 45.30000000000018 -93.6958 L 45.30000000000018 -90.79580000000003 L 51.10000000000019 -90.79580000000003 L 51.10000000000019 -93.6958 C 51.10000000000019 -93.75080000000001 51.14500000000021 -93.79580000000003 51.200000000000216 -93.79580000000003 L 57.200000000000216 -93.79580000000003 C 57.25500000000022 -93.79580000000003 57.30000000000024 -93.75080000000001 57.30000000000024 -93.6958 L 57.30000000000024 -90.79580000000003 L 63.10000000000025 -90.79580000000003 L 63.10000000000025 -93.6958 C 63.10000000000025 -93.75080000000001 63.145000000000266 -93.79580000000003 63.20000000000027 -93.79580000000003 L 69.20000000000027 -93.79580000000003 C 69.25500000000028 -93.79580000000003 69.3000000000003 -93.75080000000001 69.3000000000003 -93.6958 L 69.3000000000003 -90.79580000000003 L 75.1000000000003 -90.79580000000003 L 75.1000000000003 -93.6958 C 75.1000000000003 -93.75080000000001 75.14500000000032 -93.79580000000003 75.20000000000033 -93.79580000000003 L 81.20000000000033 -93.79580000000003 C 81.25500000000034 -93.79580000000003 81.30000000000035 -93.75080000000001 81.30000000000035 -93.6958 L 81.30000000000035 -90.79580000000003 L 87.10000000000036 -90.79580000000003 L 87.10000000000036 -93.6958 C 87.10000000000036 -93.75080000000001 87.14500000000038 -93.79580000000003 87.20000000000039 -93.79580000000003 L 93.20000000000039 -93.79580000000003 C 93.2550000000004 -93.79580000000003 93.30000000000041 -93.75080000000001 93.30000000000041 -93.6958 L 93.30000000000041 -90.79580000000003 L 99.10000000000042 -90.79580000000003 L 99.10000000000042 -93.6958 C 99.10000000000042 -93.75080000000001 99.14500000000044 -93.79580000000003 99.20000000000044 -93.79580000000003 L 105.20000000000044 -93.79580000000003 C 105.25500000000045 -93.79580000000003 105.30000000000047 -93.75080000000001 105.30000000000047 -93.6958 L 105.30000000000047 -90.79580000000003 L 111.10000000000048 -90.79580000000003 L 111.10000000000048 -93.6958 C 111.10000000000048 -93.75080000000001 111.1450000000005 -93.79580000000003 111.2000000000005 -93.79580000000003 L 117.2000000000005 -93.79580000000003 C 117.2550000000005 -93.79580000000003 117.30000000000052 -93.75080000000001 117.30000000000052 -93.6958 L 117.30000000000052 -90.79580000000003 L 123.10000000000053 -90.79580000000003 L 123.10000000000053 -93.6958 C 123.10000000000053 -93.75080000000001 123.14500000000055 -93.79580000000003 123.20000000000056 -93.79580000000003 L 129.20000000000056 -93.79580000000003 C 129.25500000000056 -93.79580000000003 129.30000000000058 -93.75080000000001 129.30000000000058 -93.6958 L 129.30000000000058 -90.79580000000003 L 135.1000000000006 -90.79580000000003 L 135.1000000000006 -93.6958 C 135.1000000000006 -93.75080000000001 135.1450000000006 -93.79580000000003 135.2000000000006 -93.79580000000003 L 141.2000000000006 -93.79580000000003 C 141.25500000000062 -93.79580000000003 141.30000000000064 -93.75080000000001 141.30000000000064 -93.6958 L 141.30000000000064 -90.79580000000003 L 147.10000000000065 -90.79580000000003 L 147.10000000000065 -93.6958 C 147.10000000000065 -93.75080000000001 147.14500000000066 -93.79580000000003 147.20000000000067 -93.79580000000003 L 153.20000000000067 -93.79580000000003 C 153.25500000000068 -93.79580000000003 153.3000000000007 -93.75080000000001 153.3000000000007 -93.6958 L 153.3000000000007 -90.79580000000003 L 159.1000000000007 -90.79580000000003 L 159.1000000000007 -93.6958 C 159.1000000000007 -93.75080000000001 159.14500000000072 -93.79580000000003 159.20000000000073 -93.79580000000003 L 165.20000000000073 -93.79580000000003 C 165.25500000000073 -93.79580000000003 165.30000000000075 -93.75080000000001 165.30000000000075 -93.6958 L 165.30000000000075 -90.79580000000003 L 171.10000000000076 -90.79580000000003 L 171.10000000000076 -93.6958 C 171.10000000000076 -93.75080000000001 171.14500000000078 -93.79580000000003 171.20000000000078 -93.79580000000003 L 177.20000000000078 -93.79580000000003 C 177.2550000000008 -93.79580000000003 177.3000000000008 -93.75080000000001 177.3000000000008 -93.6958 L 177.3000000000008 -90.79580000000003 L 183.10000000000082 -90.79580000000003 L 183.10000000000082 -93.6958 C 183.10000000000082 -93.75080000000001 183.14500000000083 -93.79580000000003 183.20000000000084 -93.79580000000003 L 189.20000000000084 -93.79580000000003 C 189.25500000000085 -93.79580000000003 189.30000000000086 -93.75080000000001 189.30000000000086 -93.6958 L 189.30000000000086 -90.79580000000003 L 195.10000000000088 -90.79580000000003 L 195.10000000000088 -93.6958 C 195.10000000000088 -93.75080000000001 195.1450000000009 -93.79580000000003 195.2000000000009 -93.79580000000003 L 201.2000000000009 -93.79580000000003 C 201.2550000000009 -93.79580000000003 201.30000000000092 -93.75080000000001 201.30000000000092 -93.6958 L 201.30000000000092 -90.79580000000003 L 207.10000000000093 -90.79580000000003 L 207.10000000000093 -93.6958 C 207.10000000000093 -93.75080000000001 207.14500000000095 -93.79580000000003 207.20000000000095 -93.79580000000003 L 213.20000000000095 -93.79580000000003 C 213.25500000000096 -93.79580000000003 213.30000000000098 -93.75080000000001 213.30000000000098 -93.6958 L 213.30000000000098 -90.79580000000003 L 219.100000000001 -90.79580000000003 L 219.100000000001 -93.6958 C 219.100000000001 -93.75080000000001 219.145000000001 -93.79580000000003 219.200000000001 -93.79580000000003 L 225.20000000000107 -93.79580000000003 C 225.25500000000102 -93.79580000000003 225.3000000000011 -93.75080000000001 225.3000000000011 -93.6958 L 225.3000000000011 -90.79580000000003 L 231.10000000000105 -90.79580000000003 L 231.10000000000105 -93.6958 C 231.10000000000105 -93.75080000000001 231.145000000001 -93.79580000000003 231.20000000000107 -93.79580000000003 L 237.20000000000107 -93.79580000000003 C 237.25500000000102 -93.79580000000003 237.3000000000011 -93.75080000000001 237.3000000000011 -93.6958 L 237.3000000000011 -90.79580000000003 L 243.10000000000105 -90.79580000000003 L 243.10000000000105 -93.6958 C 243.10000000000105 -93.75080000000001 243.145000000001 -93.79580000000003 243.20000000000107 -93.79580000000003 L 249.20000000000107 -93.79580000000003 C 249.25500000000102 -93.79580000000003 249.3000000000011 -93.75080000000001 249.3000000000011 -93.6958 L 249.3000000000011 -90.79580000000003 L 255.10000000000105 -90.79580000000003 L 255.10000000000105 -93.6958 C 255.10000000000105 -93.75080000000001 255.145000000001 -93.79580000000003 255.20000000000107 -93.79580000000003 L 261.20000000000107 -93.79580000000003 C 261.255000000001 -93.79580000000003 261.3000000000011 -93.75080000000001 261.3000000000011 -93.6958 L 261.3000000000011 -90.79580000000003 L 267.10000000000105 -90.79580000000003 L 267.10000000000105 -93.6958 C 267.10000000000105 -93.75080000000001 267.145000000001 -93.79580000000003 267.20000000000107 -93.79580000000003 L 273.20000000000107 -93.79580000000003 C 273.255000000001 -93.79580000000003 273.3000000000011 -93.75080000000001 273.3000000000011 -93.6958 L 273.3000000000011 -87.79580000000003 L 276.20000000000107 -87.79580000000003 C 276.255000000001 -87.79580000000003 276.3000000000011 -87.75080000000001 276.3000000000011 -87.6958 L 276.3000000000011 -81.6958 C 276.3000000000011 -81.6408 276.25500000000113 -81.59579999999998 276.20000000000107 -81.59579999999998 L 273.3000000000011 -81.59579999999998 L 273.3000000000011 -75.6958 C 273.3000000000011 -75.6408 273.25500000000113 -75.59579999999998 273.20000000000107 -75.59579999999998 L 3.2000000000010687 -75.59579999999998 C 3.145000000001062 -75.59579999999998 3.100000000001046 -75.6408 3.100000000001046 -75.6958 L 3.100000000001046 -81.59579999999998 L 0.20000000000106866 -81.59579999999998 C 0.14500000000106184 -81.59579999999998 0.10000000000104592 -81.6408 0.10000000000104592 -81.6958 L 0.10000000000104592 -87.6958 C 0.10000000000104592 -87.75080000000001 0.14500000000106184 -87.79580000000003 0.20000000000106866 -87.79580000000003 L 3.100000000001046 -87.79580000000003 L 3.100000000001046 -93.6958 C 3.100000000001046 -93.75080000000001 3.145000000001062 -93.79580000000003 3.2000000000010687 -93.79580000000003 " stroke="#000000" stroke-width="0.35 px" style="stroke-width:0.35;stroke-miterlimit:4;stroke-dasharray:none;stroke-linecap:square;fill:none;fill-opacity:1;fill-rule: evenodd"/>
<title>b'path009'</title>
</g>
<g id="path010" transform="translate(2.662000,2.662000) scale(1,-1)">
<path id="path010_w0000"  d="M 3.2000000000005002 -68.63052999999998 L 9.199999999999989 -68.63052999999998 C 9.254999999999995 -68.63052999999998 9.300000000000011 -68.58552999999996 9.300000000000011 -68.53052999999996 L 9.300000000000011 -65.63052999999998 L 15.100000000000023 -65.63052999999998 L 15.100000000000023 -68.53052999999996 C 15.100000000000023 -68.58552999999996 15.145000000000039 -68.63052999999998 15.200000000000045 -68.63052999999998 L 21.200000000000045 -68.63052999999998 C 21.255000000000052 -68.63052999999998 21.300000000000068 -68.58552999999996 21.300000000000068 -68.53052999999996 L 21.300000000000068 -65.63052999999998 L 27.10000000000008 -65.63052999999998 L 27.10000000000008 -68.53052999999996 C 27.10000000000008 -68.58552999999996 27.145000000000095 -68.63052999999998 27.200000000000102 -68.63052999999998 L 33.2000000000001 -68.63052999999998 C 33.25500000000011 -68.63052999999998 33.300000000000125 -68.58552999999996 33.300000000000125 -68.53052999999996 L 33.300000000000125 -65.63052999999998 L 39.100000000000136 -65.63052999999998 L 39.100000000000136 -68.53052999999996 C 39.100000000000136 -68.58552999999996 39.14500000000015 -68.63052999999998 39.20000000000016 -68.63052999999998 L 45.20000000000016 -68.63052999999998 C 45.255000000000166 -68.63052999999998 45.30000000000018 -68.58552999999996 45.30000000000018 -68.53052999999996 L 45.30000000000018 -65.63052999999998 L 51.10000000000019 -65.63052999999998 L 51.10000000000019 -68.53052999999996 C 51.10000000000019 -68.58552999999996 51.14500000000021 -68.63052999999998 51.200000000000216 -68.63052999999998 L 57.200000000000216 -68.63052999999998 C 57.25500000000022 -68.63052999999998 57.30000000000024 -68.58552999999996 57.30000000000024 -68.53052999999996 L 57.30000000000024 -65.63052999999998 L 63.10000000000025 -65.63052999999998 L 63.10000000000025 -68.53052999999996 C 63.10000000000025 -68.58552999999996 63.145000000000266 -68.63052999999998 63.20000000000027 -68.63052999999998 L 69.20000000000027 -68.63052999999998 C 69.25500000000028 -68.63052999999998 69.3000000000003 -68.58552999999996 69.3000000000003 -68.53052999999996 L 69.3000000000003 -65.63052999999998 L 75.1000000000003 -65.63052999999998 L 75.1000000000003 -68.53052999999996 C 75.1000000000003 -68.58552999999996 75.14500000000032 -68.63052999999998 75.20000000000033 -68.63052999999998 L 81.20000000000033 -68.63052999999998 C 81.25500000000034 -68.63052999999998 81.30000000000035 -68.58552999999996 81.30000000000035 -68.53052999999996 L 81.30000000000035 -65.63052999999998 L 87.10000000000036 -65.63052999999998 L 87.10000000000036 -68.53052999999996 C 87.10000000000036 -68.58552999999996 87.14500000000038 -68.63052999999998 87.20000000000039 -68.63052999999998 L 93.20000000000039 -68.63052999999998 C 93.2550000000004 -68.63052999999998 93.30000000000041 -68.58552999999996 93.30000000000041 -68.53052999999996 L 93.30000000000041 -65.63052999999998 L 99.10000000000042 -65.63052999999998 L 99.10000000000042 -68.53052999999996 C 99.10000000000042 -68.58552999999996 99.14500000000044 -68.63052999999998 99.20000000000044 -68.63052999999998 L 105.20000000000044 -68.63052999999998 C 105.25500000000045 -68.63052999999998 105.30000000000047 -68.58552999999996 105.30000000000047 -68.53052999999996 L 105.30000000000047 -65.63052999999998 L 111.10000000000048 -65.63052999999998 L 111.10000000000048 -68.53052999999996 C 111.10000000000048 -68.58552999999996 111.1450000000005 -68.63052999999998 111.2000000000005 -68.63052999999998 L 117.2000000000005 -68.63052999999998 C 117.2550000000005 -68.63052999999998 117.30000000000052 -68.58552999999996 117.30000000000052 -68.53052999999996 L 117.30000000000052 -65.63052999999998 L 123.10000000000053 -65.63052999999998 L 123.10000000000053 -68.53052999999996 C 123.10000000000053 -68.58552999999996 123.14500000000055 -68.63052999999998 123.20000000000056 -68.63052999999998 L 129.20000000000056 -68.63052999999998 C 129.25500000000056 -68.63052999999998 129.30000000000058 -68.58552999999996 129.30000000000058 -68.53052999999996 L 129.30000000000058 -65.63052999999998 L 135.1000000000006 -65.63052999999998 L 135.1000000000006 -68.53052999999996 C 135.1000000000006 -68.58552999999996 135.1450000000006 -68.63052999999998 135.2000000000006 -68.63052999999998 L 141.2000000000006 -68.63052999999998 C 141.25500000000062 -68.63052999999998 141.30000000000064 -68.58552999999996 141.30000000000064 -68.53052999999996 L 141.30000000000064 -65.63052999999998 L 147.10000000000065 -65.63052999999998 L 147.10000000000065 -68.53052999999996 C 147.10000000000065 -68.58552999999996 147.14500000000066 -68.63052999999998 147.20000000000067 -68.63052999999998 L 153.20000000000067 -68.63052999999998 C 153.25500000000068 -68.63052999999998 153.3000000000007 -68.58552999999996 153.3000000000007 -68.53052999999996 L 153.3000000000007 -65.63052999999998 L 159.1000000000007 -65.63052999999998 L 159.1000000000007 -68.53052999999996 C 159.1000000000007 -68.58552999999996 159.14500000000072 -68.63052999999998 159.20000000000073 -68.63052999999998 L 165.20000000000073 -68.63052999999998 C 165.25500000000073 -68.63052999999998 165.30000000000075 -68.58552999999996 165.30000000000075 -68.53052999999996 L 165.30000000000075 -65.63052999999998 L 171.10000000000076 -65.63052999999998 L 171.10000000000076 -68.53052999999996 C 171.10000000000076 -68.58552999999996 171.14500000000078 -68.63052999999998 171.20000000000078 -68.63052999999998 L 177.20000000000078 -68.63052999999998 C 177.2550000000008 -68.63052999999998 177.3000000000008 -68.58552999999996 177.3000000000008 -68.53052999999996 L 177.3000000000008 -65.63052999999998 L 183.10000000000082 -65.63052999999998 L 183.10000000000082 -68.53052999999996 C 183.10000000000082 -68.58552999999996 183.14500000000083 -68.63052999999998 183.20000000000084 -68.63052999999998 L 189.20000000000084 -68.63052999999998 C 189.25500000000085 -68.63052999999998 189.30000000000086 -68.58552999999996 189.30000000000086 -68.53052999999996 L 189.30000000000086 -65.63052999999998 L 195.10000000000088 -65.63052999999998 L 195.10000000000088 -68.53052999999996 C 195.10000000000088 -68.58552999999996 195.1450000000009 -68.63052999999998 195.2000000000009 -68.63052999999998 L 201.2000000000009 -68.63052999999998 C 201.2550000000009 -68.63052999999998 201.30000000000092 -68.58552999999996 201.30000000000092 -68.53052999999996 L 201.30000000000092 -65.63052999999998 L 207.10000000000093 -65.63052999999998 L 207.10000000000093 -68.53052999999996 C 207.10000000000093 -68.58552999999996 207.14500000000095 -68.63052999999998 207.20000000000095 -68.63052999999998 L 213.20000000000095 -68.63052999999998 C 213.25500000000096 -68.63052999999998 213.30000000000098 -68.58552999999996 213.30000000000098 -68.53052999999996 L 213.30000000000098 -65.63052999999998 L 219.100000000001 -65.63052999999998 L 219.100000000001 -68.53052999999996 C 219.100000000001 -68.58552999999996 219.145000000001 -68.63052999999998 219.200000000001 -68.63052999999998 L 225.20000000000107 -68.63052999999998 C 225.25500000000102 -68.63052999999998 225.3000000000011 -68.58552999999996 225.3000000000011 -68.53052999999996 L 225.3000000000011 -65.63052999999998 L 231.10000000000105 -65.63052999999998 L 231.10000000000105 -68.53052999999996 C 231.10000000000105 -68.58552999999996 231.145000000001 -68.63052999999998 231.20000000000107 -68.63052999999998 L 237.20000000000107 -68.63052999999998 C 237.25500000000102 -68.63052999999998 237.3000000000011 -68.58552999999996 237.3000000000011 -68.53052999999996 L 237.3000000000011 -65.63052999999998 L 243.10000000000105 -65.63052999999998 L 243.10000000000105 -68.53052999999996 C 243.10000000000105 -68.58552999999996 243.145000000001 -68.63052999999998 243.20000000000107 -68.63052999999998 L 249.20000000000107 -68.63052999999998 C 249.25500000000102 -68.63052999999998 249.3000000000011 -68.58552999999996 249.3000000000011 -68.53052999999996 L 249.3000000000011 -65.63052999999998 L 255.10000000000105 -65.63052999999998 L 255.10000000000105 -68.53052999999996 C 255.10000000000105 -68.58552999999996 255.145000000001 -68.63052999999998 255.20000000000107 -68.63052999999998 L 261.20000000000107 -68.63052999999998 C 261.255000000001 -68.63052999999998 261.3000000000011 -68.58552999999996 261.3000000000011 -68.53052999999996 L 261.3000000000011 -65.63052999999998 L 267.10000000000105 -65.63052999999998 L 267.10000000000105 -68.53052999999996 C 267.10000000000105 -68.58552999999996 267.145000000001 -68.63052999999998 267.20000000000107 -68.63052999999998 L 273.20000000000107 -68.63052999999998 C 273.255000000001 -68.63052999999998 273.3000000000011 -68.58552999999996 273.3000000000011 -68.53052999999996 L 273.3000000000011 -62.63052999999998 L 276.20000000000107 -62.63052999999998 C 276.255000000001 -62.63052999999998 276.3000000000011 -62.58552999999996 276.3000000000011 -62.530529999999956 L 276.3000000000011 -56.530529999999956 C 276.3000000000011 -56.47552999999995 276.25500000000113 -56.43052999999993 276.20000000000107 -56.43052999999993 L 273.3000000000011 -56.43052999999993 L 273.3000000000011 -50.530529999999956 C 273.3000000000011 -50.47552999999995 273.25500000000113 -50.43052999999993 273.20000000000107 -50.43052999999993 L 3.2000000000010687 -50.43052999999993 C 3.145000000001062 -50.43052999999993 3.100000000001046 -50.47552999999995 3.100000000001046 -50.530529999999956 L 3.100000000001046 -56.43052999999993 L 0.20000000000106866 -56.43052999999993 C 0.14500000000106184 -56.43052999999993 0.10000000000104592 -56.47552999999995 0.10000000000104592 -56.530529999999956 L 0.10000000000104592 -62.530529999999956 C 0.10000000000104592 -62.58552999999996 0.14500000000106184 -62.63052999999998 0.20000000000106866 -62.63052999999998 L 3.100000000001046 -62.63052999999998 L 3.100000000001046 -68.53052999999996 C 3.100000000001046 -68.58552999999996 3.145000000001062 -68.63052999999998 3.2000000000010687 -68.63052999999998 " stroke="#000000" stroke-width="0.35 px" style="stroke-width:0.35;stroke-miterlimit:4;stroke-dasharray:none;stroke-linecap:square;fill:none;fill-opacity:1;fill-rule: evenodd"/>
<title>b'path010'</title>
</g>
</svg>