<?xml version='1.0' encoding='utf-8'?>
<svg height="347.30mm" viewBox="0.0 0.0 573.90 347.30" width="573.90mm" xmlns="http://www.w3.org/2000/svg" xmlns:cc="http://creativecommons.org/ns#" xmlns:dc="http://purl.org/dc/elements/1.1/" xmlns:inkscape="http://www.inkscape.org/namespaces/inkscape" xmlns:rdf="http://www.w3.org/1999/02/22-rdf-syntax-ns#" xmlns:svg="http://www.w3.org/2000/svg" xmlns:xlink="http://www.w3.org/1999/xlink">
<!--
ABox - A simple Box


This box is kept simple on purpose. If you need more features have a look at the UniversalBox.


Created with Boxes.py (https://boxes.hackerspace-bamberg.de/)
Creation date: 2026-02-03 14:17:47
Command line (remove spaces between dashes): boxes ABox - -x=270 - -y=270 - -h=15 - -outside=0 - -bottom_edge=F - -spacing=0.5
Url: https://boxes.hackerspace-bamberg.de/ABox?FingerJoint_style=rectangular&FingerJoint_surroundingspaces=2.0&FingerJoint_bottom_lip=0.0&FingerJoint_edge_width=1.0&FingerJoint_extra_length=0.0&FingerJoint_finger=2.0&FingerJoint_play=0.0&FingerJoint_space=2.0&FingerJoint_width=1.0&Lid_handle=none&Lid_style=none&Lid_handle_height=8.0&Lid_height=4.0&Lid_play=0.1&x=270&y=270&h=15&outside=0&bottom_edge=F&thickness=3.0&burn=0.1&format=svg&labels=0&labels=1&reference=100.0&tabs=0.0&qr_code=0&inner_corners=loop&spacing=0.5&debug=0&language=en&render=2
Url short: https://boxes.hackerspace-bamberg.de/ABox?x=270&y=270&h=15&outside=0&bottom_edge=F&spacing=0.5
SettingsUrl: https://boxes.hackerspace-bamberg.de/ABox?FingerJoint_style=rectangular&FingerJoint_surroundingspaces=2.0&FingerJoint_bottom_lip=0.0&FingerJoint_edge_width=1.0&FingerJoint_extra_length=0.0&FingerJoint_finger=2.0&FingerJoint_play=0.0&FingerJoint_space=2.0&FingerJoint_width=1.0&Lid_handle=none&Lid_style=none&Lid_handle_height=8.0&Lid_height=4.0&Lid_play=0.1&x=270&y=270&h=15&outside=0&bottom_edge=F&thickness=3.0&burn=0.1&format=svg&labels=0&labels=1&reference=100.0&tabs=0.0&qr_code=0&inner_corners=loop&spacing=0.5&debug=0&language=en&render=2
SettingsUrl short: https://boxes.hackerspace-bamberg.de/ABox?x=270&y=270&h=15&outside=0&bottom_edge=F&spacing=0.5
-->
<title>ABox</title>
<metadata>
<rdf:RDF><cc:Work>
<dc:title>Box - ABox</dc:title>
<dc:date>2026-02-03 14:17:47</dc:date>
<dc:source>https://boxes.hackerspace-bamberg.de/ABox?FingerJoint_style=rectangular&amp;FingerJoint_surroundingspaces=2.0&amp;FingerJoint_bottom_lip=0.0&amp;FingerJoint_edge_width=1.0&amp;FingerJoint_extra_length=0.0&amp;FingerJoint_finger=2.0&amp;FingerJoint_play=0.0&amp;FingerJoint_space=2.0&amp;FingerJoint_width=1.0&amp;Lid_handle=none&amp;Lid_style=none&amp;Lid_handle_height=8.0&amp;Lid_height=4.0&amp;Lid_play=0.1&amp;x=270&amp;y=270&amp;h=15&amp;outside=0&amp;bottom_edge=F&amp;thickness=3.0&amp;burn=0.1&amp;format=svg&amp;labels=0&amp;labels=1&amp;reference=100.0&amp;tabs=0.0&amp;qr_code=0&amp;inner_corners=loop&amp;spacing=0.5&amp;debug=0&amp;language=en&amp;render=2</dc:source>
<dc:source>https://boxes.hackerspace-bamberg.de/ABox?x=270&amp;y=270&amp;h=15&amp;outside=0&amp;bottom_edge=F&amp;spacing=0.5</dc:source>
<dc:description>A simple Box

This box is kept simple on purpose. If you need more features have a look at the UniversalBox.

Created with Boxes.py (https://boxes.hackerspace-bamberg.de/)
Command line: boxes ABox --FingerJoint_style=rectangular --FingerJoint_surroundingspaces=2.0 --FingerJoint_bottom_lip=0.0 --FingerJoint_edge_width=1.0 --FingerJoint_extra_length=0.0 --FingerJoint_finger=2.0 --FingerJoint_play=0.0 --FingerJoint_space=2.0 --FingerJoint_width=1.0 --Lid_handle=none --Lid_style=none --Lid_handle_height=8.0 --Lid_height=4.0 --Lid_play=0.1 --x=270 --y=270 --h=15 --outside=0 --bottom_edge=F --thickness=3.0 --burn=0.1 --format=svg --labels=0 --labels=1 --reference=100.0 --tabs=0.0 --qr_code=0 --inner_corners=loop --spacing=0.5 --debug=0
Command line short: boxes ABox --x=270 --y=270 --h=15 --outside=0 --bottom_edge=F --spacing=0.5
Url: https://boxes.hackerspace-bamberg.de/ABox?FingerJoint_style=rectangular&amp;FingerJoint_surroundingspaces=2.0&amp;FingerJoint_bottom_lip=0.0&amp;FingerJoint_edge_width=1.0&amp;FingerJoint_extra_length=0.0&amp;FingerJoint_finger=2.0&amp;FingerJoint_play=0.0&amp;FingerJoint_space=2.0&amp;FingerJoint_width=1.0&amp;Lid_handle=none&amp;Lid_style=none&amp;Lid_handle_height=8.0&amp;Lid_height=4.0&amp;Lid_play=0.1&amp;x=270&amp;y=270&amp;h=15&amp;outside=0&amp;bottom_edge=F&amp;thickness=3.0&amp;burn=0.1&amp;format=svg&amp;labels=0&amp;labels=1&amp;reference=100.0&amp;tabs=0.0&amp;qr_code=0&amp;inner_corners=loop&amp;spacing=0.5&amp;debug=0&amp;language=en&amp;render=2
Url short: https://boxes.hackerspace-bamberg.de/ABox?x=270&amp;y=270&amp;h=15&amp;outside=0&amp;bottom_edge=F&amp;spacing=0.5
SettingsUrl: https://boxes.hackerspace-bamberg.de/ABox?FingerJoint_style=rectangular&amp;FingerJoint_surroundingspaces=2.0&amp;FingerJoint_bottom_lip=0.0&amp;FingerJoint_edge_width=1.0&amp;FingerJoint_extra_length=0.0&amp;FingerJoint_finger=2.0&amp;FingerJoint_play=0.0&amp;FingerJoint_space=2.0&amp;FingerJoint_width=1.0&amp;Lid_handle=none&amp;Lid_style=none&amp;Lid_handle_height=8.0&amp;Lid_height=4.0&amp;Lid_play=0.1&amp;x=270&amp;y=270&amp;h=15&amp;outside=0&amp;bottom_edge=F&amp;thickness=3.0&amp;burn=0.1&amp;format=svg&amp;labels=0&amp;labels=1&amp;reference=100.0&amp;tabs=0.0&amp;qr_code=0&amp;inner_corners=loop&amp;spacing=0.5&amp;debug=0&amp;language=en&amp;render=2
SettingsUrl short: https://boxes.hackerspace-bamberg.de/ABox?x=270&amp;y=270&amp;h=15&amp;outside=0&amp;bottom_edge=F&amp;spacing=0.5
</dc:description>
</cc:Work></rdf:RDF></metadata>
<g id="p-0" style="fill:none;stroke-linecap:round;stroke-linejoin:round;">
  <path d="M 10.100 337.300 H 110.100 V 327.300 H 10.100 V 337.300 Z" stroke="rgb(0,0,0)" stroke-width="0.20" />
  <text dominant-baseline="hanging" font-size="6px" style="font-family: sans-serif ; font-weight: normal; font-style: normal; fill: rgb(255,0,0)" text-anchor="middle" transform="matrix( 1.000 0.000 0.000 1.000 60.100 329.300 )">100.0mm, burn:0.10mm</text>
</g>
<g id="p-1" style="fill:none;stroke-linecap:round;stroke-linejoin:round;">
  <path d="M 13.100 325.600 H 19.100 C 19.155 325.600 19.200 325.555 19.200 325.500 V 322.600 C 19.200 322.500 19.100 322.600 19.200 322.600 H 25.000 C 25.100 322.600 25.000 322.500 25.000 322.600 V 325.500 C 25.000 325.555 25.045 325.600 25.100 325.600 H 31.100 C 31.155 325.600 31.200 325.555 31.200 325.500 V 322.600 C 31.200 322.500 31.100 322.600 31.200 322.600 H 37.000 C 37.100 322.600 37.000 322.500 37.000 322.600 V 325.500 C 37.000 325.555 37.045 325.600 37.100 325.600 H 43.100 C 43.155 325.600 43.200 325.555 43.200 325.500 V 322.600 C 43.200 322.500 43.100 322.600 43.200 322.600 H 49.000 C 49.100 322.600 49.000 322.500 49.000 322.600 V 325.500 C 49.000 325.555 49.045 325.600 49.100 325.600 H 55.100 C 55.155 325.600 55.200 325.555 55.200 325.500 V 322.600 C 55.200 322.500 55.100 322.600 55.200 322.600 H 61.000 C 61.100 322.600 61.000 322.500 61.000 322.600 V 325.500 C 61.000 325.555 61.045 325.600 61.100 325.600 H 67.100 C 67.155 325.600 67.200 325.555 67.200 325.500 V 322.600 C 67.200 322.500 67.100 322.600 67.200 322.600 H 73.000 C 73.100 322.600 73.000 322.500 73.000 322.600 V 325.500 C 73.000 325.555 73.045 325.600 73.100 325.600 H 79.100 C 79.155 325.600 79.200 325.555 79.200 325.500 V 322.600 C 79.200 322.500 79.100 322.600 79.200 322.600 H 85.000 C 85.100 322.600 85.000 322.500 85.000 322.600 V 325.500 C 85.000 325.555 85.045 325.600 85.100 325.600 H 91.100 C 91.155 325.600 91.200 325.555 91.200 325.500 V 322.600 C 91.200 322.500 91.100 322.600 91.200 322.600 H 97.000 C 97.100 322.600 97.000 322.500 97.000 322.600 V 325.500 C 97.000 325.555 97.045 325.600 97.100 325.600 H 103.100 C 103.155 325.600 103.200 325.555 103.200 325.500 V 322.600 C 103.200 322.500 103.100 322.600 103.200 322.600 H 109.000 C 109.100 322.600 109.000 322.500 109.000 322.600 V 325.500 C 109.000 325.555 109.045 325.600 109.100 325.600 H 115.100 C 115.155 325.600 115.200 325.555 115.200 325.500 V 322.600 C 115.200 322.500 115.100 322.600 115.200 322.600 H 121.000 C 121.100 322.600 121.000 322.500 121.000 322.600 V 325.500 C 121.000 325.555 121.045 325.600 121.100 325.600 H 127.100 C 127.155 325.600 127.200 325.555 127.200 325.500 V 322.600 C 127.200 322.500 127.100 322.600 127.200 322.600 H 133.000 C 133.100 322.600 133.000 322.500 133.000 322.600 V 325.500 C 133.000 325.555 133.045 325.600 133.100 325.600 H 139.100 C 139.155 325.600 139.200 325.555 139.200 325.500 V 322.600 C 139.200 322.500 139.100 322.600 139.200 322.600 H 145.000 C 145.100 322.600 145.000 322.500 145.000 322.600 V 325.500 C 145.000 325.555 145.045 325.600 145.100 325.600 H 151.100 C 151.155 325.600 151.200 325.555 151.200 325.500 V 322.600 C 151.200 322.500 151.100 322.600 151.200 322.600 H 157.000 C 157.100 322.600 157.000 322.500 157.000 322.600 V 325.500 C 157.000 325.555 157.045 325.600 157.100 325.600 H 163.100 C 163.155 325.600 163.200 325.555 163.200 325.500 V 322.600 C 163.200 322.500 163.100 322.600 163.200 322.600 H 169.000 C 169.100 322.600 169.000 322.500 169.000 322.600 V 325.500 C 169.000 325.555 169.045 325.600 169.100 325.600 H 175.100 C 175.155 325.600 175.200 325.555 175.200 325.500 V 322.600 C 175.200 322.500 175.100 322.600 175.200 322.600 H 181.000 C 181.100 322.600 181.000 322.500 181.000 322.600 V 325.500 C 181.000 325.555 181.045 325.600 181.100 325.600 H 187.100 C 187.155 325.600 187.200 325.555 187.200 325.500 V 322.600 C 187.200 322.500 187.100 322.600 187.200 322.600 H 193.000 C 193.100 322.600 193.000 322.500 193.000 322.600 V 325.500 C 193.000 325.555 193.045 325.600 193.100 325.600 H 199.100 C 199.155 325.600 199.200 325.555 199.200 325.500 V 322.600 C 199.200 322.500 199.100 322.600 199.200 322.600 H 205.000 C 205.100 322.600 205.000 322.500 205.000 322.600 V 325.500 C 205.000 325.555 205.045 325.600 205.100 325.600 H 211.100 C 211.155 325.600 211.200 325.555 211.200 325.500 V 322.600 C 211.200 322.500 211.100 322.600 211.200 322.600 H 217.000 C 217.100 322.600 217.000 322.500 217.000 322.600 V 325.500 C 217.000 325.555 217.045 325.600 217.100 325.600 H 223.100 C 223.155 325.600 223.200 325.555 223.200 325.500 V 322.600 C 223.200 322.500 223.100 322.600 223.200 322.600 H 229.000 C 229.100 322.600 229.000 322.500 229.000 322.600 V 325.500 C 229.000 325.555 229.045 325.600 229.100 325.600 H 235.100 C 235.155 325.600 235.200 325.555 235.200 325.500 V 322.600 C 235.200 322.500 235.100 322.600 235.200 322.600 H 241.000 C 241.100 322.600 241.000 322.500 241.000 322.600 V 325.500 C 241.000 325.555 241.045 325.600 241.100 325.600 H 247.100 C 247.155 325.600 247.200 325.555 247.200 325.500 V 322.600 C 247.200 322.500 247.100 322.600 247.200 322.600 H 253.000 C 253.100 322.600 253.000 322.500 253.000 322.600 V 325.500 C 253.000 325.555 253.045 325.600 253.100 325.600 H 259.100 C 259.155 325.600 259.200 325.555 259.200 325.500 V 322.600 C 259.200 322.500 259.100 322.600 259.200 322.600 H 265.000 C 265.100 322.600 265.000 322.500 265.000 322.600 V 325.500 C 265.000 325.555 265.045 325.600 265.100 325.600 H 271.100 C 271.155 325.600 271.200 325.555 271.200 325.500 V 322.600 C 271.200 322.500 271.100 322.600 271.200 322.600 H 277.000 C 277.100 322.600 277.000 322.500 277.000 322.600 V 325.500 C 277.000 325.555 277.045 325.600 277.100 325.600 H 283.100 H 286.100 C 286.155 325.600 286.200 325.555 286.200 325.500 V 319.500 C 286.200 319.445 286.155 319.400 286.100 319.400 H 283.200 C 283.100 319.400 283.200 319.500 283.200 319.400 V 313.600 C 283.200 313.500 283.100 313.600 283.200 313.600 H 286.100 C 286.155 313.600 286.200 313.555 286.200 313.500 V 307.500 C 286.200 307.445 286.155 307.400 286.100 307.400 H 283.100 H 13.100 H 10.100 C 10.045 307.400 10.000 307.445 10.000 307.500 V 313.500 C 10.000 313.555 10.045 313.600 10.100 313.600 H 13.000 C 13.100 313.600 13.000 313.500 13.000 313.600 V 319.400 C 13.000 319.500 13.100 319.400 13.000 319.400 H 10.100 C 10.045 319.400 10.000 319.445 10.000 319.500 V 325.500 C 10.000 325.555 10.045 325.600 10.100 325.600 H 13.100 Z" stroke="rgb(0,0,0)" stroke-width="0.20" />
</g>
<g id="p-2" style="fill:none;stroke-linecap:round;stroke-linejoin:round;">
  <path d="M 13.100 305.900 H 19.100 C 19.155 305.900 19.200 305.855 19.200 305.800 V 302.900 C 19.200 302.800 19.100 302.900 19.200 302.900 H 25.000 C 25.100 302.900 25.000 302.800 25.000 302.900 V 305.800 C 25.000 305.855 25.045 305.900 25.100 305.900 H 31.100 C 31.155 305.900 31.200 305.855 31.200 305.800 V 302.900 C 31.200 302.800 31.100 302.900 31.200 302.900 H 37.000 C 37.100 302.900 37.000 302.800 37.000 302.900 V 305.800 C 37.000 305.855 37.045 305.900 37.100 305.900 H 43.100 C 43.155 305.900 43.200 305.855 43.200 305.800 V 302.900 C 43.200 302.800 43.100 302.900 43.200 302.900 H 49.000 C 49.100 302.900 49.000 302.800 49.000 302.900 V 305.800 C 49.000 305.855 49.045 305.900 49.100 305.900 H 55.100 C 55.155 305.900 55.200 305.855 55.200 305.800 V 302.900 C 55.200 302.800 55.100 302.900 55.200 302.900 H 61.000 C 61.100 302.900 61.000 302.800 61.000 302.900 V 305.800 C 61.000 305.855 61.045 305.900 61.100 305.900 H 67.100 C 67.155 305.900 67.200 305.855 67.200 305.800 V 302.900 C 67.200 302.800 67.100 302.900 67.200 302.900 H 73.000 C 73.100 302.900 73.000 302.800 73.000 302.900 V 305.800 C 73.000 305.855 73.045 305.900 73.100 305.900 H 79.100 C 79.155 305.900 79.200 305.855 79.200 305.800 V 302.900 C 79.200 302.800 79.100 302.900 79.200 302.900 H 85.000 C 85.100 302.900 85.000 302.800 85.000 302.900 V 305.800 C 85.000 305.855 85.045 305.900 85.100 305.900 H 91.100 C 91.155 305.900 91.200 305.855 91.200 305.800 V 302.900 C 91.200 302.800 91.100 302.900 91.200 302.900 H 97.000 C 97.100 302.900 97.000 302.800 97.000 302.900 V 305.800 C 97.000 305.855 97.045 305.900 97.100 305.900 H 103.100 C 103.155 305.900 103.200 305.855 103.200 305.800 V 302.900 C 103.200 302.800 103.100 302.900 103.200 302.900 H 109.000 C 109.100 302.900 109.000 302.800 109.000 302.900 V 305.800 C 109.000 305.855 109.045 305.900 109.100 305.900 H 115.100 C 115.155 305.900 115.200 305.855 115.200 305.800 V 302.900 C 115.200 302.800 115.100 302.900 115.200 302.900 H 121.000 C 121.100 302.900 121.000 302.800 121.000 302.900 V 305.800 C 121.000 305.855 121.045 305.900 121.100 305.900 H 127.100 C 127.155 305.900 127.200 305.855 127.200 305.800 V 302.900 C 127.200 302.800 127.100 302.900 127.200 302.900 H 133.000 C 133.100 302.900 133.000 302.800 133.000 302.900 V 305.800 C 133.000 305.855 133.045 305.900 133.100 305.900 H 139.100 C 139.155 305.900 139.200 305.855 139.200 305.800 V 302.900 C 139.200 302.800 139.100 302.900 139.200 302.900 H 145.000 C 145.100 302.900 145.000 302.800 145.000 302.900 V 305.800 C 145.000 305.855 145.045 305.900 145.100 305.900 H 151.100 C 151.155 305.900 151.200 305.855 151.200 305.800 V 302.900 C 151.200 302.800 151.100 302.900 151.200 302.900 H 157.000 C 157.100 302.900 157.000 302.800 157.000 302.900 V 305.800 C 157.000 305.855 157.045 305.900 157.100 305.900 H 163.100 C 163.155 305.900 163.200 305.855 163.200 305.800 V 302.900 C 163.200 302.800 163.100 302.900 163.200 302.900 H 169.000 C 169.100 302.900 169.000 302.800 169.000 302.900 V 305.800 C 169.000 305.855 169.045 305.900 169.100 305.900 H 175.100 C 175.155 305.900 175.200 305.855 175.200 305.800 V 302.900 C 175.200 302.800 175.100 302.900 175.200 302.900 H 181.000 C 181.100 302.900 181.000 302.800 181.000 302.900 V 305.800 C 181.000 305.855 181.045 305.900 181.100 305.900 H 187.100 C 187.155 305.900 187.200 305.855 187.200 305.800 V 302.900 C 187.200 302.800 187.100 302.900 187.200 302.900 H 193.000 C 193.100 302.900 193.000 302.800 193.000 302.900 V 305.800 C 193.000 305.855 193.045 305.900 193.100 305.900 H 199.100 C 199.155 305.900 199.200 305.855 199.200 305.800 V 302.900 C 199.200 302.800 199.100 302.900 199.200 302.900 H 205.000 C 205.100 302.900 205.000 302.800 205.000 302.900 V 305.800 C 205.000 305.855 205.045 305.900 205.100 305.900 H 211.100 C 211.155 305.900 211.200 305.855 211.200 305.800 V 302.900 C 211.200 302.800 211.100 302.900 211.200 302.900 H 217.000 C 217.100 302.900 217.000 302.800 217.000 302.900 V 305.800 C 217.000 305.855 217.045 305.900 217.100 305.900 H 223.100 C 223.155 305.900 223.200 305.855 223.200 305.800 V 302.900 C 223.200 302.800 223.100 302.900 223.200 302.900 H 229.000 C 229.100 302.900 229.000 302.800 229.000 302.900 V 305.800 C 229.000 305.855 229.045 305.900 229.100 305.900 H 235.100 C 235.155 305.900 235.200 305.855 235.200 305.800 V 302.900 C 235.200 302.800 235.100 302.900 235.200 302.900 H 241.000 C 241.100 302.900 241.000 302.800 241.000 302.900 V 305.800 C 241.000 305.855 241.045 305.900 241.100 305.900 H 247.100 C 247.155 305.900 247.200 305.855 247.200 305.800 V 302.900 C 247.200 302.800 247.100 302.900 247.200 302.900 H 253.000 C 253.100 302.900 253.000 302.800 253.000 302.900 V 305.800 C 253.000 305.855 253.045 305.900 253.100 305.900 H 259.100 C 259.155 305.900 259.200 305.855 259.200 305.800 V 302.900 C 259.200 302.800 259.100 302.900 259.200 302.900 H 265.000 C 265.100 302.900 265.000 302.800 265.000 302.900 V 305.800 C 265.000 305.855 265.045 305.900 265.100 305.900 H 271.100 C 271.155 305.900 271.200 305.855 271.200 305.800 V 302.900 C 271.200 302.800 271.100 302.900 271.200 302.900 H 277.000 C 277.100 302.900 277.000 302.800 277.000 302.900 V 305.800 C 277.000 305.855 277.045 305.900 277.100 305.900 H 283.100 H 286.100 C 286.155 305.900 286.200 305.855 286.200 305.800 V 299.800 C 286.200 299.745 286.155 299.700 286.100 299.700 H 283.200 C 283.100 299.700 283.200 299.800 283.200 299.700 V 293.900 C 283.200 293.800 283.100 293.900 283.200 293.900 H 286.100 C 286.155 293.900 286.200 293.855 286.200 293.800 V 287.800 C 286.200 287.745 286.155 287.700 286.100 287.700 H 283.100 H 13.100 H 10.100 C 10.045 287.700 10.000 287.745 10.000 287.800 V 293.800 C 10.000 293.855 10.045 293.900 10.100 293.900 H 13.000 C 13.100 293.900 13.000 293.800 13.000 293.900 V 299.700 C 13.000 299.800 13.100 299.700 13.000 299.700 H 10.100 C 10.045 299.700 10.000 299.745 10.000 299.800 V 305.800 C 10.000 305.855 10.045 305.900 10.100 305.900 H 13.100 Z" stroke="rgb(0,0,0)" stroke-width="0.20" />
</g>
<g id="p-3" style="fill:none;stroke-linecap:round;stroke-linejoin:round;">
  <path d="M 13.100 283.200 H 19.000 C 19.100 283.200 19.000 283.100 19.000 283.200 V 286.100 C 19.000 286.155 19.045 286.200 19.100 286.200 H 25.100 C 25.155 286.200 25.200 286.155 25.200 286.100 V 283.200 C 25.200 283.100 25.100 283.200 25.200 283.200 H 31.000 C 31.100 283.200 31.000 283.100 31.000 283.200 V 286.100 C 31.000 286.155 31.045 286.200 31.100 286.200 H 37.100 C 37.155 286.200 37.200 286.155 37.200 286.100 V 283.200 C 37.200 283.100 37.100 283.200 37.200 283.200 H 43.000 C 43.100 283.200 43.000 283.100 43.000 283.200 V 286.100 C 43.000 286.155 43.045 286.200 43.100 286.200 H 49.100 C 49.155 286.200 49.200 286.155 49.200 286.100 V 283.200 C 49.200 283.100 49.100 283.200 49.200 283.200 H 55.000 C 55.100 283.200 55.000 283.100 55.000 283.200 V 286.100 C 55.000 286.155 55.045 286.200 55.100 286.200 H 61.100 C 61.155 286.200 61.200 286.155 61.200 286.100 V 283.200 C 61.200 283.100 61.100 283.200 61.200 283.200 H 67.000 C 67.100 283.200 67.000 283.100 67.000 283.200 V 286.100 C 67.000 286.155 67.045 286.200 67.100 286.200 H 73.100 C 73.155 286.200 73.200 286.155 73.200 286.100 V 283.200 C 73.200 283.100 73.100 283.200 73.200 283.200 H 79.000 C 79.100 283.200 79.000 283.100 79.000 283.200 V 286.100 C 79.000 286.155 79.045 286.200 79.100 286.200 H 85.100 C 85.155 286.200 85.200 286.155 85.200 286.100 V 283.200 C 85.200 283.100 85.100 283.200 85.200 283.200 H 91.000 C 91.100 283.200 91.000 283.100 91.000 283.200 V 286.100 C 91.000 286.155 91.045 286.200 91.100 286.200 H 97.100 C 97.155 286.200 97.200 286.155 97.200 286.100 V 283.200 C 97.200 283.100 97.100 283.200 97.200 283.200 H 103.000 C 103.100 283.200 103.000 283.100 103.000 283.200 V 286.100 C 103.000 286.155 103.045 286.200 103.100 286.200 H 109.100 C 109.155 286.200 109.200 286.155 109.200 286.100 V 283.200 C 109.200 283.100 109.100 283.200 109.200 283.200 H 115.000 C 115.100 283.200 115.000 283.100 115.000 283.200 V 286.100 C 115.000 286.155 115.045 286.200 115.100 286.200 H 121.100 C 121.155 286.200 121.200 286.155 121.200 286.100 V 283.200 C 121.200 283.100 121.100 283.200 121.200 283.200 H 127.000 C 127.100 283.200 127.000 283.100 127.000 283.200 V 286.100 C 127.000 286.155 127.045 286.200 127.100 286.200 H 133.100 C 133.155 286.200 133.200 286.155 133.200 286.100 V 283.200 C 133.200 283.100 133.100 283.200 133.200 283.200 H 139.000 C 139.100 283.200 139.000 283.100 139.000 283.200 V 286.100 C 139.000 286.155 139.045 286.200 139.100 286.200 H 145.100 C 145.155 286.200 145.200 286.155 145.200 286.100 V 283.200 C 145.200 283.100 145.100 283.200 145.200 283.200 H 151.000 C 151.100 283.200 151.000 283.100 151.000 283.200 V 286.100 C 151.000 286.155 151.045 286.200 151.100 286.200 H 157.100 C 157.155 286.200 157.200 286.155 157.200 286.100 V 283.200 C 157.200 283.100 157.100 283.200 157.200 283.200 H 163.000 C 163.100 283.200 163.000 283.100 163.000 283.200 V 286.100 C 163.000 286.155 163.045 286.200 163.100 286.200 H 169.100 C 169.155 286.200 169.200 286.155 169.200 286.100 V 283.200 C 169.200 283.100 169.100 283.200 169.200 283.200 H 175.000 C 175.100 283.200 175.000 283.100 175.000 283.200 V 286.100 C 175.000 286.155 175.045 286.200 175.100 286.200 H 181.100 C 181.155 286.200 181.200 286.155 181.200 286.100 V 283.200 C 181.200 283.100 181.100 283.200 181.200 283.200 H 187.000 C 187.100 283.200 187.000 283.100 187.000 283.200 V 286.100 C 187.000 286.155 187.045 286.200 187.100 286.200 H 193.100 C 193.155 286.200 193.200 286.155 193.200 286.100 V 283.200 C 193.200 283.100 193.100 283.200 193.200 283.200 H 199.000 C 199.100 283.200 199.000 283.100 199.000 283.200 V 286.100 C 199.000 286.155 199.045 286.200 199.100 286.200 H 205.100 C 205.155 286.200 205.200 286.155 205.200 286.100 V 283.200 C 205.200 283.100 205.100 283.200 205.200 283.200 H 211.000 C 211.100 283.200 211.000 283.100 211.000 283.200 V 286.100 C 211.000 286.155 211.045 286.200 211.100 286.200 H 217.100 C 217.155 286.200 217.200 286.155 217.200 286.100 V 283.200 C 217.200 283.100 217.100 283.200 217.200 283.200 H 223.000 C 223.100 283.200 223.000 283.100 223.000 283.200 V 286.100 C 223.000 286.155 223.045 286.200 223.100 286.200 H 229.100 C 229.155 286.200 229.200 286.155 229.200 286.100 V 283.200 C 229.200 283.100 229.100 283.200 229.200 283.200 H 235.000 C 235.100 283.200 235.000 283.100 235.000 283.200 V 286.100 C 235.000 286.155 235.045 286.200 235.100 286.200 H 241.100 C 241.155 286.200 241.200 286.155 241.200 286.100 V 283.200 C 241.200 283.100 241.100 283.200 241.200 283.200 H 247.000 C 247.100 283.200 247.000 283.100 247.000 283.200 V 286.100 C 247.000 286.155 247.045 286.200 247.100 286.200 H 253.100 C 253.155 286.200 253.200 286.155 253.200 286.100 V 283.200 C 253.200 283.100 253.100 283.200 253.200 283.200 H 259.000 C 259.100 283.200 259.000 283.100 259.000 283.200 V 286.100 C 259.000 286.155 259.045 286.200 259.100 286.200 H 265.100 C 265.155 286.200 265.200 286.155 265.200 286.100 V 283.200 C 265.200 283.100 265.100 283.200 265.200 283.200 H 271.000 C 271.100 283.200 271.000 283.100 271.000 283.200 V 286.100 C 271.000 286.155 271.045 286.200 271.100 286.200 H 277.100 C 277.155 286.200 277.200 286.155 277.200 286.100 V 283.200 C 277.200 283.100 277.100 283.200 277.200 283.200 H 283.100 C 283.155 283.200 283.200 283.155 283.200 283.100 V 277.200 C 283.200 277.100 283.100 277.200 283.200 277.200 H 286.100 C 286.155 277.200 286.200 277.155 286.200 277.100 V 271.100 C 286.200 271.045 286.155 271.000 286.100 271.000 H 283.200 C 283.100 271.000 283.200 271.100 283.200 271.000 V 265.200 C 283.200 265.100 283.100 265.200 283.200 265.200 H 286.100 C 286.155 265.200 286.200 265.155 286.200 265.100 V 259.100 C 286.200 259.045 286.155 259.000 286.100 259.000 H 283.200 C 283.100 259.000 283.200 259.100 283.200 259.000 V 253.200 C 283.200 253.100 283.100 253.200 283.200 253.200 H 286.100 C 286.155 253.200 286.200 253.155 286.200 253.100 V 247.100 C 286.200 247.045 286.155 247.000 286.100 247.000 H 283.200 C 283.100 247.000 283.200 247.100 283.200 247.000 V 241.200 C 283.200 241.100 283.100 241.200 283.200 241.200 H 286.100 C 286.155 241.200 286.200 241.155 286.200 241.100 V 235.100 C 286.200 235.045 286.155 235.000 286.100 235.000 H 283.200 C 283.100 235.000 283.200 235.100 283.200 235.000 V 229.200 C 283.200 229.100 283.100 229.200 283.200 229.200 H 286.100 C 286.155 229.200 286.200 229.155 286.200 229.100 V 223.100 C 286.200 223.045 286.155 223.000 286.100 223.000 H 283.200 C 283.100 223.000 283.200 223.100 283.200 223.000 V 217.200 C 283.200 217.100 283.100 217.200 283.200 217.200 H 286.100 C 286.155 217.200 286.200 217.155 286.200 217.100 V 211.100 C 286.200 211.045 286.155 211.000 286.100 211.000 H 283.200 C 283.100 211.000 283.200 211.100 283.200 211.000 V 205.200 C 283.200 205.100 283.100 205.200 283.200 205.200 H 286.100 C 286.155 205.200 286.200 205.155 286.200 205.100 V 199.100 C 286.200 199.045 286.155 199.000 286.100 199.000 H 283.200 C 283.100 199.000 283.200 199.100 283.200 199.000 V 193.200 C 283.200 193.100 283.100 193.200 283.200 193.200 H 286.100 C 286.155 193.200 286.200 193.155 286.200 193.100 V 187.100 C 286.200 187.045 286.155 187.000 286.100 187.000 H 283.200 C 283.100 187.000 283.200 187.100 283.200 187.000 V 181.200 C 283.200 181.100 283.100 181.200 283.200 181.200 H 286.100 C 286.155 181.200 286.200 181.155 286.200 181.100 V 175.100 C 286.200 175.045 286.155 175.000 286.100 175.000 H 283.200 C 283.100 175.000 283.200 175.100 283.200 175.000 V 169.200 C 283.200 169.100 283.100 169.200 283.200 169.200 H 286.100 C 286.155 169.200 286.200 169.155 286.200 169.100 V 163.100 C 286.200 163.045 286.155 163.000 286.100 163.000 H 283.200 C 283.100 163.000 283.200 163.100 283.200 163.000 V 157.200 C 283.200 157.100 283.100 157.200 283.200 157.200 H 286.100 C 286.155 157.200 286.200 157.155 286.200 157.100 V 151.100 C 286.200 151.045 286.155 151.000 286.100 151.000 H 283.200 C 283.100 151.000 283.200 151.100 283.200 151.000 V 145.200 C 283.200 145.100 283.100 145.200 283.200 145.200 H 286.100 C 286.155 145.200 286.200 145.155 286.200 145.100 V 139.100 C 286.200 139.045 286.155 139.000 286.100 139.000 H 283.200 C 283.100 139.000 283.200 139.100 283.200 139.000 V 133.200 C 283.200 133.100 283.100 133.200 283.200 133.200 H 286.100 C 286.155 133.200 286.200 133.155 286.200 133.100 V 127.100 C 286.200 127.045 286.155 127.000 286.100 127.000 H 283.200 C 283.100 127.000 283.200 127.100 283.200 127.000 V 121.200 C 283.200 121.100 283.100 121.200 283.200 121.200 H 286.100 C 286.155 121.200 286.200 121.155 286.200 121.100 V 115.100 C 286.200 115.045 286.155 115.000 286.100 115.000 H 283.200 C 283.100 115.000 283.200 115.100 283.200 115.000 V 109.200 C 283.200 109.100 283.100 109.200 283.200 109.200 H 286.100 C 286.155 109.200 286.200 109.155 286.200 109.100 V 103.100 C 286.200 103.045 286.155 103.000 286.100 103.000 H 283.200 C 283.100 103.000 283.200 103.100 283.200 103.000 V 97.200 C 283.200 97.100 283.100 97.200 283.200 97.200 H 286.100 C 286.155 97.200 286.200 97.155 286.200 97.100 V 91.100 C 286.200 91.045 286.155 91.000 286.100 91.000 H 283.200 C 283.100 91.000 283.200 91.100 283.200 91.000 V 85.200 C 283.200 85.100 283.100 85.200 283.200 85.200 H 286.100 C 286.155 85.200 286.200 85.155 286.200 85.100 V 79.100 C 286.200 79.045 286.155 79.000 286.100 79.000 H 283.200 C 283.100 79.000 283.200 79.100 283.200 79.000 V 73.200 C 283.200 73.100 283.100 73.200 283.200 73.200 H 286.100 C 286.155 73.200 286.200 73.155 286.200 73.100 V 67.100 C 286.200 67.045 286.155 67.000 286.100 67.000 H 283.200 C 283.100 67.000 283.200 67.100 283.200 67.000 V 61.200 C 283.200 61.100 283.100 61.200 283.200 61.200 H 286.100 C 286.155 61.200 286.200 61.155 286.200 61.100 V 55.100 C 286.200 55.045 286.155 55.000 286.100 55.000 H 283.200 C 283.100 55.000 283.200 55.100 283.200 55.000 V 49.200 C 283.200 49.100 283.100 49.200 283.200 49.200 H 286.100 C 286.155 49.200 286.200 49.155 286.200 49.100 V 43.100 C 286.200 43.045 286.155 43.000 286.100 43.000 H 283.200 C 283.100 43.000 283.200 43.100 283.200 43.000 V 37.200 C 283.200 37.100 283.100 37.200 283.200 37.200 H 286.100 C 286.155 37.200 286.200 37.155 286.200 37.100 V 31.100 C 286.200 31.045 286.155 31.000 286.100 31.000 H 283.200 C 283.100 31.000 283.200 31.100 283.200 31.000 V 25.200 C 283.200 25.100 283.100 25.200 283.200 25.200 H 286.100 C 286.155 25.200 286.200 25.155 286.200 25.100 V 19.100 C 286.200 19.045 286.155 19.000 286.100 19.000 H 283.200 C 283.100 19.000 283.200 19.100 283.200 19.000 V 13.100 C 283.200 13.045 283.155 13.000 283.100 13.000 H 277.200 C 277.100 13.000 277.200 13.100 277.200 13.000 V 10.100 C 277.200 10.045 277.155 10.000 277.100 10.000 H 271.100 C 271.045 10.000 271.000 10.045 271.000 10.100 V 13.000 C 271.000 13.100 271.100 13.000 271.000 13.000 H 265.200 C 265.100 13.000 265.200 13.100 265.200 13.000 V 10.100 C 265.200 10.045 265.155 10.000 265.100 10.000 H 259.100 C 259.045 10.000 259.000 10.045 259.000 10.100 V 13.000 C 259.000 13.100 259.100 13.000 259.000 13.000 H 253.200 C 253.100 13.000 253.200 13.100 253.200 13.000 V 10.100 C 253.200 10.045 253.155 10.000 253.100 10.000 H 247.100 C 247.045 10.000 247.000 10.045 247.000 10.100 V 13.000 C 247.000 13.100 247.100 13.000 247.000 13.000 H 241.200 C 241.100 13.000 241.200 13.100 241.200 13.000 V 10.100 C 241.200 10.045 241.155 10.000 241.100 10.000 H 235.100 C 235.045 10.000 235.000 10.045 235.000 10.100 V 13.000 C 235.000 13.100 235.100 13.000 235.000 13.000 H 229.200 C 229.100 13.000 229.200 13.100 229.200 13.000 V 10.100 C 229.200 10.045 229.155 10.000 229.100 10.000 H 223.100 C 223.045 10.000 223.000 10.045 223.000 10.100 V 13.000 C 223.000 13.100 223.100 13.000 223.000 13.000 H 217.200 C 217.100 13.000 217.200 13.100 217.200 13.000 V 10.100 C 217.200 10.045 217.155 10.000 217.100 10.000 H 211.100 C 211.045 10.000 211.000 10.045 211.000 10.100 V 13.000 C 211.000 13.100 211.100 13.000 211.000 13.000 H 205.200 C 205.100 13.000 205.200 13.100 205.200 13.000 V 10.100 C 205.200 10.045 205.155 10.000 205.100 10.000 H 199.100 C 199.045 10.000 199.000 10.045 199.000 10.100 V 13.000 C 199.000 13.100 199.100 13.000 199.000 13.000 H 193.200 C 193.100 13.000 193.200 13.100 193.200 13.000 V 10.100 C 193.200 10.045 193.155 10.000 193.100 10.000 H 187.100 C 187.045 10.000 187.000 10.045 187.000 10.100 V 13.000 C 187.000 13.100 187.100 13.000 187.000 13.000 H 181.200 C 181.100 13.000 181.200 13.100 181.200 13.000 V 10.100 C 181.200 10.045 181.155 10.000 181.100 10.000 H 175.100 C 175.045 10.000 175.000 10.045 175.000 10.100 V 13.000 C 175.000 13.100 175.100 13.000 175.000 13.000 H 169.200 C 169.100 13.000 169.200 13.100 169.200 13.000 V 10.100 C 169.200 10.045 169.155 10.000 169.100 10.000 H 163.100 C 163.045 10.000 163.000 10.045 163.000 10.100 V 13.000 C 163.000 13.100 163.100 13.000 163.000 13.000 H 157.200 C 157.100 13.000 157.200 13.100 157.200 13.000 V 10.100 C 157.200 10.045 157.155 10.000 157.100 10.000 H 151.100 C 151.045 10.000 151.000 10.045 151.000 10.100 V 13.000 C 151.000 13.100 151.100 13.000 151.000 13.000 H 145.200 C 145.100 13.000 145.200 13.100 145.200 13.000 V 10.100 C 145.200 10.045 145.155 10.000 145.100 10.000 H 139.100 C 139.045 10.000 139.000 10.045 139.000 10.100 V 13.000 C 139.000 13.100 139.100 13.000 139.000 13.000 H 133.200 C 133.100 13.000 133.200 13.100 133.200 13.000 V 10.100 C 133.200 10.045 133.155 10.000 133.100 10.000 H 127.100 C 127.045 10.000 127.000 10.045 127.000 10.100 V 13.000 C 127.000 13.100 127.100 13.000 127.000 13.000 H 121.200 C 121.100 13.000 121.200 13.100 121.200 13.000 V 10.100 C 121.200 10.045 121.155 10.000 121.100 10.000 H 115.100 C 115.045 10.000 115.000 10.045 115.000 10.100 V 13.000 C 115.000 13.100 115.100 13.000 115.000 13.000 H 109.200 C 109.100 13.000 109.200 13.100 109.200 13.000 V 10.100 C 109.200 10.045 109.155 10.000 109.100 10.000 H 103.100 C 103.045 10.000 103.000 10.045 103.000 10.100 V 13.000 C 103.000 13.100 103.100 13.000 103.000 13.000 H 97.200 C 97.100 13.000 97.200 13.100 97.200 13.000 V 10.100 C 97.200 10.045 97.155 10.000 97.100 10.000 H 91.100 C 91.045 10.000 91.000 10.045 91.000 10.100 V 13.000 C 91.000 13.100 91.100 13.000 91.000 13.000 H 85.200 C 85.100 13.000 85.200 13.100 85.200 13.000 V 10.100 C 85.200 10.045 85.155 10.000 85.100 10.000 H 79.100 C 79.045 10.000 79.000 10.045 79.000 10.100 V 13.000 C 79.000 13.100 79.100 13.000 79.000 13.000 H 73.200 C 73.100 13.000 73.200 13.100 73.200 13.000 V 10.100 C 73.200 10.045 73.155 10.000 73.100 10.000 H 67.100 C 67.045 10.000 67.000 10.045 67.000 10.100 V 13.000 C 67.000 13.100 67.100 13.000 67.000 13.000 H 61.200 C 61.100 13.000 61.200 13.100 61.200 13.000 V 10.100 C 61.200 10.045 61.155 10.000 61.100 10.000 H 55.100 C 55.045 10.000 55.000 10.045 55.000 10.100 V 13.000 C 55.000 13.100 55.100 13.000 55.000 13.000 H 49.200 C 49.100 13.000 49.200 13.100 49.200 13.000 V 10.100 C 49.200 10.045 49.155 10.000 49.100 10.000 H 43.100 C 43.045 10.000 43.000 10.045 43.000 10.100 V 13.000 C 43.000 13.100 43.100 13.000 43.000 13.000 H 37.200 C 37.100 13.000 37.200 13.100 37.200 13.000 V 10.100 C 37.200 10.045 37.155 10.000 37.100 10.000 H 31.100 C 31.045 10.000 31.000 10.045 31.000 10.100 V 13.000 C 31.000 13.100 31.100 13.000 31.000 13.000 H 25.200 C 25.100 13.000 25.200 13.100 25.200 13.000 V 10.100 C 25.200 10.045 25.155 10.000 25.100 10.000 H 19.100 C 19.045 10.000 19.000 10.045 19.000 10.100 V 13.000 C 19.000 13.100 19.100 13.000 19.000 13.000 H 13.100 C 13.045 13.000 13.000 13.045 13.000 13.100 V 19.000 C 13.000 19.100 13.100 19.000 13.000 19.000 H 10.100 C 10.045 19.000 10.000 19.045 10.000 19.100 V 25.100 C 10.000 25.155 10.045 25.200 10.100 25.200 H 13.000 C 13.100 25.200 13.000 25.100 13.000 25.200 V 31.000 C 13.000 31.100 13.100 31.000 13.000 31.000 H 10.100 C 10.045 31.000 10.000 31.045 10.000 31.100 V 37.100 C 10.000 37.155 10.045 37.200 10.100 37.200 H 13.000 C 13.100 37.200 13.000 37.100 13.000 37.200 V 43.000 C 13.000 43.100 13.100 43.000 13.000 43.000 H 10.100 C 10.045 43.000 10.000 43.045 10.000 43.100 V 49.100 C 10.000 49.155 10.045 49.200 10.100 49.200 H 13.000 C 13.100 49.200 13.000 49.100 13.000 49.200 V 55.000 C 13.000 55.100 13.100 55.000 13.000 55.000 H 10.100 C 10.045 55.000 10.000 55.045 10.000 55.100 V 61.100 C 10.000 61.155 10.045 61.200 10.100 61.200 H 13.000 C 13.100 61.200 13.000 61.100 13.000 61.200 V 67.000 C 13.000 67.100 13.100 67.000 13.000 67.000 H 10.100 C 10.045 67.000 10.000 67.045 10.000 67.100 V 73.100 C 10.000 73.155 10.045 73.200 10.100 73.200 H 13.000 C 13.100 73.200 13.000 73.100 13.000 73.200 V 79.000 C 13.000 79.100 13.100 79.000 13.000 79.000 H 10.100 C 10.045 79.000 10.000 79.045 10.000 79.100 V 85.100 C 10.000 85.155 10.045 85.200 10.100 85.200 H 13.000 C 13.100 85.200 13.000 85.100 13.000 85.200 V 91.000 C 13.000 91.100 13.100 91.000 13.000 91.000 H 10.100 C 10.045 91.000 10.000 91.045 10.000 91.100 V 97.100 C 10.000 97.155 10.045 97.200 10.100 97.200 H 13.000 C 13.100 97.200 13.000 97.100 13.000 97.200 V 103.000 C 13.000 103.100 13.100 103.000 13.000 103.000 H 10.100 C 10.045 103.000 10.000 103.045 10.000 103.100 V 109.100 C 10.000 109.155 10.045 109.200 10.100 109.200 H 13.000 C 13.100 109.200 13.000 109.100 13.000 109.200 V 115.000 C 13.000 115.100 13.100 115.000 13.000 115.000 H 10.100 C 10.045 115.000 10.000 115.045 10.000 115.100 V 121.100 C 10.000 121.155 10.045 121.200 10.100 121.200 H 13.000 C 13.100 121.200 13.000 121.100 13.000 121.200 V 127.000 C 13.000 127.100 13.100 127.000 13.000 127.000 H 10.100 C 10.045 127.000 10.000 127.045 10.000 127.100 V 133.100 C 10.000 133.155 10.045 133.200 10.100 133.200 H 13.000 C 13.100 133.200 13.000 133.100 13.000 133.200 V 139.000 C 13.000 139.100 13.100 139.000 13.000 139.000 H 10.100 C 10.045 139.000 10.000 139.045 10.000 139.100 V 145.100 C 10.000 145.155 10.045 145.200 10.100 145.200 H 13.000 C 13.100 145.200 13.000 145.100 13.000 145.200 V 151.000 C 13.000 151.100 13.100 151.000 13.000 151.000 H 10.100 C 10.045 151.000 10.000 151.045 10.000 151.100 V 157.100 C 10.000 157.155 10.045 157.200 10.100 157.200 H 13.000 C 13.100 157.200 13.000 157.100 13.000 157.200 V 163.000 C 13.000 163.100 13.100 163.000 13.000 163.000 H 10.100 C 10.045 163.000 10.000 163.045 10.000 163.100 V 169.100 C 10.000 169.155 10.045 169.200 10.100 169.200 H 13.000 C 13.100 169.200 13.000 169.100 13.000 169.200 V 175.000 C 13.000 175.100 13.100 175.000 13.000 175.000 H 10.100 C 10.045 175.000 10.000 175.045 10.000 175.100 V 181.100 C 10.000 181.155 10.045 181.200 10.100 181.200 H 13.000 C 13.100 181.200 13.000 181.100 13.000 181.200 V 187.000 C 13.000 187.100 13.100 187.000 13.000 187.000 H 10.100 C 10.045 187.000 10.000 187.045 10.000 187.100 V 193.100 C 10.000 193.155 10.045 193.200 10.100 193.200 H 13.000 C 13.100 193.200 13.000 193.100 13.000 193.200 V 199.000 C 13.000 199.100 13.100 199.000 13.000 199.000 H 10.100 C 10.045 199.000 10.000 199.045 10.000 199.100 V 205.100 C 10.000 205.155 10.045 205.200 10.100 205.200 H 13.000 C 13.100 205.200 13.000 205.100 13.000 205.200 V 211.000 C 13.000 211.100 13.100 211.000 13.000 211.000 H 10.100 C 10.045 211.000 10.000 211.045 10.000 211.100 V 217.100 C 10.000 217.155 10.045 217.200 10.100 217.200 H 13.000 C 13.100 217.200 13.000 217.100 13.000 217.200 V 223.000 C 13.000 223.100 13.100 223.000 13.000 223.000 H 10.100 C 10.045 223.000 10.000 223.045 10.000 223.100 V 229.100 C 10.000 229.155 10.045 229.200 10.100 229.200 H 13.000 C 13.100 229.200 13.000 229.100 13.000 229.200 V 235.000 C 13.000 235.100 13.100 235.000 13.000 235.000 H 10.100 C 10.045 235.000 10.000 235.045 10.000 235.100 V 241.100 C 10.000 241.155 10.045 241.200 10.100 241.200 H 13.000 C 13.100 241.200 13.000 241.100 13.000 241.200 V 247.000 C 13.000 247.100 13.100 247.000 13.000 247.000 H 10.100 C 10.045 247.000 10.000 247.045 10.000 247.100 V 253.100 C 10.000 253.155 10.045 253.200 10.100 253.200 H 13.000 C 13.100 253.200 13.000 253.100 13.000 253.200 V 259.000 C 13.000 259.100 13.100 259.000 13.000 259.000 H 10.100 C 10.045 259.000 10.000 259.045 10.000 259.100 V 265.100 C 10.000 265.155 10.045 265.200 10.100 265.200 H 13.000 C 13.100 265.200 13.000 265.100 13.000 265.200 V 271.000 C 13.000 271.100 13.100 271.000 13.000 271.000 H 10.100 C 10.045 271.000 10.000 271.045 10.000 271.100 V 277.100 C 10.000 277.155 10.045 277.200 10.100 277.200 H 13.000 C 13.100 277.200 13.000 277.100 13.000 277.200 V 283.100 C 13.000 283.155 13.045 283.200 13.100 283.200 Z" stroke="rgb(0,0,0)" stroke-width="0.20" />
</g>
<g id="p-4" style="fill:none;stroke-linecap:round;stroke-linejoin:round;">
  <path d="M 290.800 325.600 H 296.800 C 296.855 325.600 296.900 325.555 296.900 325.500 V 322.600 C 296.900 322.500 296.800 322.600 296.900 322.600 H 302.700 C 302.800 322.600 302.700 322.500 302.700 322.600 V 325.500 C 302.700 325.555 302.745 325.600 302.800 325.600 H 308.800 C 308.855 325.600 308.900 325.555 308.900 325.500 V 322.600 C 308.900 322.500 308.800 322.600 308.900 322.600 H 314.700 C 314.800 322.600 314.700 322.500 314.700 322.600 V 325.500 C 314.700 325.555 314.745 325.600 314.800 325.600 H 320.800 C 320.855 325.600 320.900 325.555 320.900 325.500 V 322.600 C 320.900 322.500 320.800 322.600 320.900 322.600 H 326.700 C 326.800 322.600 326.700 322.500 326.700 322.600 V 325.500 C 326.700 325.555 326.745 325.600 326.800 325.600 H 332.800 C 332.855 325.600 332.900 325.555 332.900 325.500 V 322.600 C 332.900 322.500 332.800 322.600 332.900 322.600 H 338.700 C 338.800 322.600 338.700 322.500 338.700 322.600 V 325.500 C 338.700 325.555 338.745 325.600 338.800 325.600 H 344.800 C 344.855 325.600 344.900 325.555 344.900 325.500 V 322.600 C 344.900 322.500 344.800 322.600 344.900 322.600 H 350.700 C 350.800 322.600 350.700 322.500 350.700 322.600 V 325.500 C 350.700 325.555 350.745 325.600 350.800 325.600 H 356.800 C 356.855 325.600 356.900 325.555 356.900 325.500 V 322.600 C 356.900 322.500 356.800 322.600 356.900 322.600 H 362.700 C 362.800 322.600 362.700 322.500 362.700 322.600 V 325.500 C 362.700 325.555 362.745 325.600 362.800 325.600 H 368.800 C 368.855 325.600 368.900 325.555 368.900 325.500 V 322.600 C 368.900 322.500 368.800 322.600 368.900 322.600 H 374.700 C 374.800 322.600 374.700 322.500 374.700 322.600 V 325.500 C 374.700 325.555 374.745 325.600 374.800 325.600 H 380.800 C 380.855 325.600 380.900 325.555 380.900 325.500 V 322.600 C 380.900 322.500 380.800 322.600 380.900 322.600 H 386.700 C 386.800 322.600 386.700 322.500 386.700 322.600 V 325.500 C 386.700 325.555 386.745 325.600 386.800 325.600 H 392.800 C 392.855 325.600 392.900 325.555 392.900 325.500 V 322.600 C 392.900 322.500 392.800 322.600 392.900 322.600 H 398.700 C 398.800 322.600 398.700 322.500 398.700 322.600 V 325.500 C 398.700 325.555 398.745 325.600 398.800 325.600 H 404.800 C 404.855 325.600 404.900 325.555 404.900 325.500 V 322.600 C 404.900 322.500 404.800 322.600 404.900 322.600 H 410.700 C 410.800 322.600 410.700 322.500 410.700 322.600 V 325.500 C 410.700 325.555 410.745 325.600 410.800 325.600 H 416.800 C 416.855 325.600 416.900 325.555 416.900 325.500 V 322.600 C 416.900 322.500 416.800 322.600 416.900 322.600 H 422.700 C 422.800 322.600 422.700 322.500 422.700 322.600 V 325.500 C 422.700 325.555 422.745 325.600 422.800 325.600 H 428.800 C 428.855 325.600 428.900 325.555 428.900 325.500 V 322.600 C 428.900 322.500 428.800 322.600 428.900 322.600 H 434.700 C 434.800 322.600 434.700 322.500 434.700 322.600 V 325.500 C 434.700 325.555 434.745 325.600 434.800 325.600 H 440.800 C 440.855 325.600 440.900 325.555 440.900 325.500 V 322.600 C 440.900 322.500 440.800 322.600 440.900 322.600 H 446.700 C 446.800 322.600 446.700 322.500 446.700 322.600 V 325.500 C 446.700 325.555 446.745 325.600 446.800 325.600 H 452.800 C 452.855 325.600 452.900 325.555 452.900 325.500 V 322.600 C 452.900 322.500 452.800 322.600 452.900 322.600 H 458.700 C 458.800 322.600 458.700 322.500 458.700 322.600 V 325.500 C 458.700 325.555 458.745 325.600 458.800 325.600 H 464.800 C 464.855 325.600 464.900 325.555 464.900 325.500 V 322.600 C 464.900 322.500 464.800 322.600 464.900 322.600 H 470.700 C 470.800 322.600 470.700 322.500 470.700 322.600 V 325.500 C 470.700 325.555 470.745 325.600 470.800 325.600 H 476.800 C 476.855 325.600 476.900 325.555 476.900 325.500 V 322.600 C 476.900 322.500 476.800 322.600 476.900 322.600 H 482.700 C 482.800 322.600 482.700 322.500 482.700 322.600 V 325.500 C 482.700 325.555 482.745 325.600 482.800 325.600 H 488.800 C 488.855 325.600 488.900 325.555 488.900 325.500 V 322.600 C 488.900 322.500 488.800 322.600 488.900 322.600 H 494.700 C 494.800 322.600 494.700 322.500 494.700 322.600 V 325.500 C 494.700 325.555 494.745 325.600 494.800 325.600 H 500.800 C 500.855 325.600 500.900 325.555 500.900 325.500 V 322.600 C 500.900 322.500 500.800 322.600 500.900 322.600 H 506.700 C 506.800 322.600 506.700 322.500 506.700 322.600 V 325.500 C 506.700 325.555 506.745 325.600 506.800 325.600 H 512.800 C 512.855 325.600 512.900 325.555 512.900 325.500 V 322.600 C 512.900 322.500 512.800 322.600 512.900 322.600 H 518.700 C 518.800 322.600 518.700 322.500 518.700 322.600 V 325.500 C 518.700 325.555 518.745 325.600 518.800 325.600 H 524.800 C 524.855 325.600 524.900 325.555 524.900 325.500 V 322.600 C 524.900 322.500 524.800 322.600 524.900 322.600 H 530.700 C 530.800 322.600 530.700 322.500 530.700 322.600 V 325.500 C 530.700 325.555 530.745 325.600 530.800 325.600 H 536.800 C 536.855 325.600 536.900 325.555 536.900 325.500 V 322.600 C 536.900 322.500 536.800 322.600 536.900 322.600 H 542.700 C 542.800 322.600 542.700 322.500 542.700 322.600 V 325.500 C 542.700 325.555 542.745 325.600 542.800 325.600 H 548.800 C 548.855 325.600 548.900 325.555 548.900 325.500 V 322.600 C 548.900 322.500 548.800 322.600 548.900 322.600 H 554.700 C 554.800 322.600 554.700 322.500 554.700 322.600 V 325.500 C 554.700 325.555 554.745 325.600 554.800 325.600 H 560.800 C 560.855 325.600 560.900 325.555 560.900 325.500 V 319.600 C 560.900 319.500 560.800 319.600 560.900 319.600 H 563.800 C 563.855 319.600 563.900 319.555 563.900 319.500 V 313.500 C 563.900 313.445 563.855 313.400 563.800 313.400 H 560.900 C 560.800 313.400 560.900 313.500 560.900 313.400 V 307.500 C 560.900 307.445 560.855 307.400 560.800 307.400 H 290.800 C 290.745 307.400 290.700 307.445 290.700 307.500 V 313.400 C 290.700 313.500 290.800 313.400 290.700 313.400 H 287.800 C 287.745 313.400 287.700 313.445 287.700 313.500 V 319.500 C 287.700 319.555 287.745 319.600 287.800 319.600 H 290.700 C 290.800 319.600 290.700 319.500 290.700 319.600 V 325.500 C 290.700 325.555 290.745 325.600 290.800 325.600 Z" stroke="rgb(0,0,0)" stroke-width="0.20" />
</g>
<g id="p-5" style="fill:none;stroke-linecap:round;stroke-linejoin:round;">
  <path d="M 290.800 305.900 H 296.800 C 296.855 305.900 296.900 305.855 296.900 305.800 V 302.900 C 296.900 302.800 296.800 302.900 296.900 302.900 H 302.700 C 302.800 302.900 302.700 302.800 302.700 302.900 V 305.800 C 302.700 305.855 302.745 305.900 302.800 305.900 H 308.800 C 308.855 305.900 308.900 305.855 308.900 305.800 V 302.900 C 308.900 302.800 308.800 302.900 308.900 302.900 H 314.700 C 314.800 302.900 314.700 302.800 314.700 302.900 V 305.800 C 314.700 305.855 314.745 305.900 314.800 305.900 H 320.800 C 320.855 305.900 320.900 305.855 320.900 305.800 V 302.900 C 320.900 302.800 320.800 302.900 320.900 302.900 H 326.700 C 326.800 302.900 326.700 302.800 326.700 302.900 V 305.800 C 326.700 305.855 326.745 305.900 326.800 305.900 H 332.800 C 332.855 305.900 332.900 305.855 332.900 305.800 V 302.900 C 332.900 302.800 332.800 302.900 332.900 302.900 H 338.700 C 338.800 302.900 338.700 302.800 338.700 302.900 V 305.800 C 338.700 305.855 338.745 305.900 338.800 305.900 H 344.800 C 344.855 305.900 344.900 305.855 344.900 305.800 V 302.900 C 344.900 302.800 344.800 302.900 344.900 302.900 H 350.700 C 350.800 302.900 350.700 302.800 350.700 302.900 V 305.800 C 350.700 305.855 350.745 305.900 350.800 305.900 H 356.800 C 356.855 305.900 356.900 305.855 356.900 305.800 V 302.900 C 356.900 302.800 356.800 302.900 356.900 302.900 H 362.700 C 362.800 302.900 362.700 302.800 362.700 302.900 V 305.800 C 362.700 305.855 362.745 305.900 362.800 305.900 H 368.800 C 368.855 305.900 368.900 305.855 368.900 305.800 V 302.900 C 368.900 302.800 368.800 302.900 368.900 302.900 H 374.700 C 374.800 302.900 374.700 302.800 374.700 302.900 V 305.800 C 374.700 305.855 374.745 305.900 374.800 305.900 H 380.800 C 380.855 305.900 380.900 305.855 380.900 305.800 V 302.900 C 380.900 302.800 380.800 302.900 380.900 302.900 H 386.700 C 386.800 302.900 386.700 302.800 386.700 302.900 V 305.800 C 386.700 305.855 386.745 305.900 386.800 305.900 H 392.800 C 392.855 305.900 392.900 305.855 392.900 305.800 V 302.900 C 392.900 302.800 392.800 302.900 392.900 302.900 H 398.700 C 398.800 302.900 398.700 302.800 398.700 302.900 V 305.800 C 398.700 305.855 398.745 305.900 398.800 305.900 H 404.800 C 404.855 305.900 404.900 305.855 404.900 305.800 V 302.900 C 404.900 302.800 404.800 302.900 404.900 302.900 H 410.700 C 410.800 302.900 410.700 302.800 410.700 302.900 V 305.800 C 410.700 305.855 410.745 305.900 410.800 305.900 H 416.800 C 416.855 305.900 416.900 305.855 416.900 305.800 V 302.900 C 416.900 302.800 416.800 302.900 416.900 302.900 H 422.700 C 422.800 302.900 422.700 302.800 422.700 302.900 V 305.800 C 422.700 305.855 422.745 305.900 422.800 305.900 H 428.800 C 428.855 305.900 428.900 305.855 428.900 305.800 V 302.900 C 428.900 302.800 428.800 302.900 428.900 302.900 H 434.700 C 434.800 302.900 434.700 302.800 434.700 302.900 V 305.800 C 434.700 305.855 434.745 305.900 434.800 305.900 H 440.800 C 440.855 305.900 440.900 305.855 440.900 305.800 V 302.900 C 440.900 302.800 440.800 302.900 440.900 302.900 H 446.700 C 446.800 302.900 446.700 302.800 446.700 302.900 V 305.800 C 446.700 305.855 446.745 305.900 446.800 305.900 H 452.800 C 452.855 305.900 452.900 305.855 452.900 305.800 V 302.900 C 452.900 302.800 452.800 302.900 452.900 302.900 H 458.700 C 458.800 302.900 458.700 302.800 458.700 302.900 V 305.800 C 458.700 305.855 458.745 305.900 458.800 305.900 H 464.800 C 464.855 305.900 464.900 305.855 464.900 305.800 V 302.900 C 464.900 302.800 464.800 302.900 464.900 302.900 H 470.700 C 470.800 302.900 470.700 302.800 470.700 302.900 V 305.800 C 470.700 305.855 470.745 305.900 470.800 305.900 H 476.800 C 476.855 305.900 476.900 305.855 476.900 305.800 V 302.900 C 476.900 302.800 476.800 302.900 476.900 302.900 H 482.700 C 482.800 302.900 482.700 302.800 482.700 302.900 V 305.800 C 482.700 305.855 482.745 305.900 482.800 305.900 H 488.800 C 488.855 305.900 488.900 305.855 488.900 305.800 V 302.900 C 488.900 302.800 488.800 302.900 488.900 302.900 H 494.700 C 494.800 302.900 494.700 302.800 494.700 302.900 V 305.800 C 494.700 305.855 494.745 305.900 494.800 305.900 H 500.800 C 500.855 305.900 500.900 305.855 500.900 305.800 V 302.900 C 500.900 302.800 500.800 302.900 500.900 302.900 H 506.700 C 506.800 302.900 506.700 302.800 506.700 302.900 V 305.800 C 506.700 305.855 506.745 305.900 506.800 305.900 H 512.800 C 512.855 305.900 512.900 305.855 512.900 305.800 V 302.900 C 512.900 302.800 512.800 302.900 512.900 302.900 H 518.700 C 518.800 302.900 518.700 302.800 518.700 302.900 V 305.800 C 518.700 305.855 518.745 305.900 518.800 305.900 H 524.800 C 524.855 305.900 524.900 305.855 524.900 305.800 V 302.900 C 524.900 302.800 524.800 302.900 524.900 302.900 H 530.700 C 530.800 302.900 530.700 302.800 530.700 302.900 V 305.800 C 530.700 305.855 530.745 305.900 530.800 305.900 H 536.800 C 536.855 305.900 536.900 305.855 536.900 305.800 V 302.900 C 536.900 302.800 536.800 302.900 536.900 302.900 H 542.700 C 542.800 302.900 542.700 302.800 542.700 302.900 V 305.800 C 542.700 305.855 542.745 305.900 542.800 305.900 H 548.800 C 548.855 305.900 548.900 305.855 548.900 305.800 V 302.900 C 548.900 302.800 548.800 302.900 548.900 302.900 H 554.700 C 554.800 302.900 554.700 302.800 554.700 302.900 V 305.800 C 554.700 305.855 554.745 305.900 554.800 305.900 H 560.800 C 560.855 305.900 560.900 305.855 560.900 305.800 V 299.900 C 560.900 299.800 560.800 299.900 560.900 299.900 H 563.800 C 563.855 299.900 563.900 299.855 563.900 299.800 V 293.800 C 563.900 293.745 563.855 293.700 563.800 293.700 H 560.900 C 560.800 293.700 560.900 293.800 560.900 293.700 V 287.800 C 560.900 287.745 560.855 287.700 560.800 287.700 H 290.800 C 290.745 287.700 290.700 287.745 290.700 287.800 V 293.700 C 290.700 293.800 290.800 293.700 290.700 293.700 H 287.800 C 287.745 293.700 287.700 293.745 287.700 293.800 V 299.800 C 287.700 299.855 287.745 299.900 287.800 299.900 H 290.700 C 290.800 299.900 290.700 299.800 290.700 299.900 V 305.800 C 290.700 305.855 290.745 305.900 290.800 305.900 Z" stroke="rgb(0,0,0)" stroke-width="0.20" />
</g>
</svg>