<?xml version='1.0' encoding='utf-8'?>
<svg height="513.30mm" viewBox="0.0 0.0 553.90 513.30" width="553.90mm" xmlns="http://www.w3.org/2000/svg" xmlns:cc="http://creativecommons.org/ns#" xmlns:dc="http://purl.org/dc/elements/1.1/" xmlns:inkscape="http://www.inkscape.org/namespaces/inkscape" xmlns:rdf="http://www.w3.org/1999/02/22-rdf-syntax-ns#" xmlns:svg="http://www.w3.org/2000/svg" xmlns:xlink="http://www.w3.org/1999/xlink">
<!--
ABox - A simple Box


This box is kept simple on purpose. If you need more features have a look at the UniversalBox.


Created with Boxes.py (https://boxes.hackerspace-bamberg.de/)
Creation date: 2026-02-02 20:36:25
Command line (remove spaces between dashes): boxes ABox - -x=260 - -y=260 - -outside=0 - -spacing=0.5
Url: https://boxes.hackerspace-bamberg.de/ABox?FingerJoint_style=rectangular&FingerJoint_surroundingspaces=2.0&FingerJoint_bottom_lip=0.0&FingerJoint_edge_width=1.0&FingerJoint_extra_length=0.0&FingerJoint_finger=2.0&FingerJoint_play=0.0&FingerJoint_space=2.0&FingerJoint_width=1.0&Lid_handle=none&Lid_style=none&Lid_handle_height=8.0&Lid_height=4.0&Lid_play=0.1&x=260&y=260&h=100.0&outside=0&bottom_edge=h&thickness=3.0&burn=0.1&format=svg&labels=0&labels=1&reference=100.0&tabs=0.0&qr_code=0&inner_corners=loop&spacing=0.5&debug=0&language=en&render=2
Url short: https://boxes.hackerspace-bamberg.de/ABox?x=260&y=260&outside=0&spacing=0.5
SettingsUrl: https://boxes.hackerspace-bamberg.de/ABox?FingerJoint_style=rectangular&FingerJoint_surroundingspaces=2.0&FingerJoint_bottom_lip=0.0&FingerJoint_edge_width=1.0&FingerJoint_extra_length=0.0&FingerJoint_finger=2.0&FingerJoint_play=0.0&FingerJoint_space=2.0&FingerJoint_width=1.0&Lid_handle=none&Lid_style=none&Lid_handle_height=8.0&Lid_height=4.0&Lid_play=0.1&x=260&y=260&h=100.0&outside=0&bottom_edge=h&thickness=3.0&burn=0.1&format=svg&labels=0&labels=1&reference=100.0&tabs=0.0&qr_code=0&inner_corners=loop&spacing=0.5&debug=0&language=en&render=2
SettingsUrl short: https://boxes.hackerspace-bamberg.de/ABox?x=260&y=260&outside=0&spacing=0.5
-->
<title>ABox</title>
<metadata>
<rdf:RDF><cc:Work>
<dc:title>Box - ABox</dc:title>
<dc:date>2026-02-02 20:36:25</dc:date>
<dc:source>https://boxes.hackerspace-bamberg.de/ABox?FingerJoint_style=rectangular&amp;FingerJoint_surroundingspaces=2.0&amp;FingerJoint_bottom_lip=0.0&amp;FingerJoint_edge_width=1.0&amp;FingerJoint_extra_length=0.0&amp;FingerJoint_finger=2.0&amp;FingerJoint_play=0.0&amp;FingerJoint_space=2.0&amp;FingerJoint_width=1.0&amp;Lid_handle=none&amp;Lid_style=none&amp;Lid_handle_height=8.0&amp;Lid_height=4.0&amp;Lid_play=0.1&amp;x=260&amp;y=260&amp;h=100.0&amp;outside=0&amp;bottom_edge=h&amp;thickness=3.0&amp;burn=0.1&amp;format=svg&amp;labels=0&amp;labels=1&amp;reference=100.0&amp;tabs=0.0&amp;qr_code=0&amp;inner_corners=loop&amp;spacing=0.5&amp;debug=0&amp;language=en&amp;render=2</dc:source>
<dc:source>https://boxes.hackerspace-bamberg.de/ABox?x=260&amp;y=260&amp;outside=0&amp;spacing=0.5</dc:source>
<dc:description>A simple Box

This box is kept simple on purpose. If you need more features have a look at the UniversalBox.

Created with Boxes.py (https://boxes.hackerspace-bamberg.de/)
Command line: boxes ABox --FingerJoint_style=rectangular --FingerJoint_surroundingspaces=2.0 --FingerJoint_bottom_lip=0.0 --FingerJoint_edge_width=1.0 --FingerJoint_extra_length=0.0 --FingerJoint_finger=2.0 --FingerJoint_play=0.0 --FingerJoint_space=2.0 --FingerJoint_width=1.0 --Lid_handle=none --Lid_style=none --Lid_handle_height=8.0 --Lid_height=4.0 --Lid_play=0.1 --x=260 --y=260 --h=100.0 --outside=0 --bottom_edge=h --thickness=3.0 --burn=0.1 --format=svg --labels=0 --labels=1 --reference=100.0 --tabs=0.0 --qr_code=0 --inner_corners=loop --spacing=0.5 --debug=0
Command line short: boxes ABox --x=260 --y=260 --outside=0 --spacing=0.5
Url: https://boxes.hackerspace-bamberg.de/ABox?FingerJoint_style=rectangular&amp;FingerJoint_surroundingspaces=2.0&amp;FingerJoint_bottom_lip=0.0&amp;FingerJoint_edge_width=1.0&amp;FingerJoint_extra_length=0.0&amp;FingerJoint_finger=2.0&amp;FingerJoint_play=0.0&amp;FingerJoint_space=2.0&amp;FingerJoint_width=1.0&amp;Lid_handle=none&amp;Lid_style=none&amp;Lid_handle_height=8.0&amp;Lid_height=4.0&amp;Lid_play=0.1&amp;x=260&amp;y=260&amp;h=100.0&amp;outside=0&amp;bottom_edge=h&amp;thickness=3.0&amp;burn=0.1&amp;format=svg&amp;labels=0&amp;labels=1&amp;reference=100.0&amp;tabs=0.0&amp;qr_code=0&amp;inner_corners=loop&amp;spacing=0.5&amp;debug=0&amp;language=en&amp;render=2
Url short: https://boxes.hackerspace-bamberg.de/ABox?x=260&amp;y=260&amp;outside=0&amp;spacing=0.5
SettingsUrl: https://boxes.hackerspace-bamberg.de/ABox?FingerJoint_style=rectangular&amp;FingerJoint_surroundingspaces=2.0&amp;FingerJoint_bottom_lip=0.0&amp;FingerJoint_edge_width=1.0&amp;FingerJoint_extra_length=0.0&amp;FingerJoint_finger=2.0&amp;FingerJoint_play=0.0&amp;FingerJoint_space=2.0&amp;FingerJoint_width=1.0&amp;Lid_handle=none&amp;Lid_style=none&amp;Lid_handle_height=8.0&amp;Lid_height=4.0&amp;Lid_play=0.1&amp;x=260&amp;y=260&amp;h=100.0&amp;outside=0&amp;bottom_edge=h&amp;thickness=3.0&amp;burn=0.1&amp;format=svg&amp;labels=0&amp;labels=1&amp;reference=100.0&amp;tabs=0.0&amp;qr_code=0&amp;inner_corners=loop&amp;spacing=0.5&amp;debug=0&amp;language=en&amp;render=2
SettingsUrl short: https://boxes.hackerspace-bamberg.de/ABox?x=260&amp;y=260&amp;outside=0&amp;spacing=0.5
</dc:description>
</cc:Work></rdf:RDF></metadata>
<g id="p-0" style="fill:none;stroke-linecap:round;stroke-linejoin:round;">
  <path d="M 10.100 503.300 H 110.100 V 493.300 H 10.100 V 503.300 Z" stroke="rgb(0,0,0)" stroke-width="0.20" />
  <text dominant-baseline="hanging" font-size="6px" style="font-family: sans-serif ; font-weight: normal; font-style: normal; fill: rgb(255,0,0)" text-anchor="middle" transform="matrix( 1.000 0.000 0.000 1.000 60.100 495.300 )">100.0mm, burn:0.10mm</text>
</g>
<g id="p-1" style="fill:none;stroke-linecap:round;stroke-linejoin:round;">
  <path d="M 23.100 488.400 H 20.200 C 20.100 488.400 20.200 488.500 20.200 488.400 V 485.600 C 20.200 485.500 20.100 485.600 20.200 485.600 H 26.000 C 26.100 485.600 26.000 485.500 26.000 485.600 V 488.400 C 26.000 488.500 26.100 488.400 26.000 488.400 H 23.100 Z" stroke="rgb(0,0,255)" stroke-width="0.20" />
  <path d="M 35.100 488.400 H 32.200 C 32.100 488.400 32.200 488.500 32.200 488.400 V 485.600 C 32.200 485.500 32.100 485.600 32.200 485.600 H 38.000 C 38.100 485.600 38.000 485.500 38.000 485.600 V 488.400 C 38.000 488.500 38.100 488.400 38.000 488.400 H 35.100 Z" stroke="rgb(0,0,255)" stroke-width="0.20" />
  <path d="M 47.100 488.400 H 44.200 C 44.100 488.400 44.200 488.500 44.200 488.400 V 485.600 C 44.200 485.500 44.100 485.600 44.200 485.600 H 50.000 C 50.100 485.600 50.000 485.500 50.000 485.600 V 488.400 C 50.000 488.500 50.100 488.400 50.000 488.400 H 47.100 Z" stroke="rgb(0,0,255)" stroke-width="0.20" />
  <path d="M 59.100 488.400 H 56.200 C 56.100 488.400 56.200 488.500 56.200 488.400 V 485.600 C 56.200 485.500 56.100 485.600 56.200 485.600 H 62.000 C 62.100 485.600 62.000 485.500 62.000 485.600 V 488.400 C 62.000 488.500 62.100 488.400 62.000 488.400 H 59.100 Z" stroke="rgb(0,0,255)" stroke-width="0.20" />
  <path d="M 71.100 488.400 H 68.200 C 68.100 488.400 68.200 488.500 68.200 488.400 V 485.600 C 68.200 485.500 68.100 485.600 68.200 485.600 H 74.000 C 74.100 485.600 74.000 485.500 74.000 485.600 V 488.400 C 74.000 488.500 74.100 488.400 74.000 488.400 H 71.100 Z" stroke="rgb(0,0,255)" stroke-width="0.20" />
  <path d="M 83.100 488.400 H 80.200 C 80.100 488.400 80.200 488.500 80.200 488.400 V 485.600 C 80.200 485.500 80.100 485.600 80.200 485.600 H 86.000 C 86.100 485.600 86.000 485.500 86.000 485.600 V 488.400 C 86.000 488.500 86.100 488.400 86.000 488.400 H 83.100 Z" stroke="rgb(0,0,255)" stroke-width="0.20" />
  <path d="M 95.100 488.400 H 92.200 C 92.100 488.400 92.200 488.500 92.200 488.400 V 485.600 C 92.200 485.500 92.100 485.600 92.200 485.600 H 98.000 C 98.100 485.600 98.000 485.500 98.000 485.600 V 488.400 C 98.000 488.500 98.100 488.400 98.000 488.400 H 95.100 Z" stroke="rgb(0,0,255)" stroke-width="0.20" />
  <path d="M 107.100 488.400 H 104.200 C 104.100 488.400 104.200 488.500 104.200 488.400 V 485.600 C 104.200 485.500 104.100 485.600 104.200 485.600 H 110.000 C 110.100 485.600 110.000 485.500 110.000 485.600 V 488.400 C 110.000 488.500 110.100 488.400 110.000 488.400 H 107.100 Z" stroke="rgb(0,0,255)" stroke-width="0.20" />
  <path d="M 119.100 488.400 H 116.200 C 116.100 488.400 116.200 488.500 116.200 488.400 V 485.600 C 116.200 485.500 116.100 485.600 116.200 485.600 H 122.000 C 122.100 485.600 122.000 485.500 122.000 485.600 V 488.400 C 122.000 488.500 122.100 488.400 122.000 488.400 H 119.100 Z" stroke="rgb(0,0,255)" stroke-width="0.20" />
  <path d="M 131.100 488.400 H 128.200 C 128.100 488.400 128.200 488.500 128.200 488.400 V 485.600 C 128.200 485.500 128.100 485.600 128.200 485.600 H 134.000 C 134.100 485.600 134.000 485.500 134.000 485.600 V 488.400 C 134.000 488.500 134.100 488.400 134.000 488.400 H 131.100 Z" stroke="rgb(0,0,255)" stroke-width="0.20" />
  <path d="M 143.100 488.400 H 140.200 C 140.100 488.400 140.200 488.500 140.200 488.400 V 485.600 C 140.200 485.500 140.100 485.600 140.200 485.600 H 146.000 C 146.100 485.600 146.000 485.500 146.000 485.600 V 488.400 C 146.000 488.500 146.100 488.400 146.000 488.400 H 143.100 Z" stroke="rgb(0,0,255)" stroke-width="0.20" />
  <path d="M 155.100 488.400 H 152.200 C 152.100 488.400 152.200 488.500 152.200 488.400 V 485.600 C 152.200 485.500 152.100 485.600 152.200 485.600 H 158.000 C 158.100 485.600 158.000 485.500 158.000 485.600 V 488.400 C 158.000 488.500 158.100 488.400 158.000 488.400 H 155.100 Z" stroke="rgb(0,0,255)" stroke-width="0.20" />
  <path d="M 167.100 488.400 H 164.200 C 164.100 488.400 164.200 488.500 164.200 488.400 V 485.600 C 164.200 485.500 164.100 485.600 164.200 485.600 H 170.000 C 170.100 485.600 170.000 485.500 170.000 485.600 V 488.400 C 170.000 488.500 170.100 488.400 170.000 488.400 H 167.100 Z" stroke="rgb(0,0,255)" stroke-width="0.20" />
  <path d="M 179.100 488.400 H 176.200 C 176.100 488.400 176.200 488.500 176.200 488.400 V 485.600 C 176.200 485.500 176.100 485.600 176.200 485.600 H 182.000 C 182.100 485.600 182.000 485.500 182.000 485.600 V 488.400 C 182.000 488.500 182.100 488.400 182.000 488.400 H 179.100 Z" stroke="rgb(0,0,255)" stroke-width="0.20" />
  <path d="M 191.100 488.400 H 188.200 C 188.100 488.400 188.200 488.500 188.200 488.400 V 485.600 C 188.200 485.500 188.100 485.600 188.200 485.600 H 194.000 C 194.100 485.600 194.000 485.500 194.000 485.600 V 488.400 C 194.000 488.500 194.100 488.400 194.000 488.400 H 191.100 Z" stroke="rgb(0,0,255)" stroke-width="0.20" />
  <path d="M 203.100 488.400 H 200.200 C 200.100 488.400 200.200 488.500 200.200 488.400 V 485.600 C 200.200 485.500 200.100 485.600 200.200 485.600 H 206.000 C 206.100 485.600 206.000 485.500 206.000 485.600 V 488.400 C 206.000 488.500 206.100 488.400 206.000 488.400 H 203.100 Z" stroke="rgb(0,0,255)" stroke-width="0.20" />
  <path d="M 215.100 488.400 H 212.200 C 212.100 488.400 212.200 488.500 212.200 488.400 V 485.600 C 212.200 485.500 212.100 485.600 212.200 485.600 H 218.000 C 218.100 485.600 218.000 485.500 218.000 485.600 V 488.400 C 218.000 488.500 218.100 488.400 218.000 488.400 H 215.100 Z" stroke="rgb(0,0,255)" stroke-width="0.20" />
  <path d="M 227.100 488.400 H 224.200 C 224.100 488.400 224.200 488.500 224.200 488.400 V 485.600 C 224.200 485.500 224.100 485.600 224.200 485.600 H 230.000 C 230.100 485.600 230.000 485.500 230.000 485.600 V 488.400 C 230.000 488.500 230.100 488.400 230.000 488.400 H 227.100 Z" stroke="rgb(0,0,255)" stroke-width="0.20" />
  <path d="M 239.100 488.400 H 236.200 C 236.100 488.400 236.200 488.500 236.200 488.400 V 485.600 C 236.200 485.500 236.100 485.600 236.200 485.600 H 242.000 C 242.100 485.600 242.000 485.500 242.000 485.600 V 488.400 C 242.000 488.500 242.100 488.400 242.000 488.400 H 239.100 Z" stroke="rgb(0,0,255)" stroke-width="0.20" />
  <path d="M 251.100 488.400 H 248.200 C 248.100 488.400 248.200 488.500 248.200 488.400 V 485.600 C 248.200 485.500 248.100 485.600 248.200 485.600 H 254.000 C 254.100 485.600 254.000 485.500 254.000 485.600 V 488.400 C 254.000 488.500 254.100 488.400 254.000 488.400 H 251.100 Z" stroke="rgb(0,0,255)" stroke-width="0.20" />
  <path d="M 263.100 488.400 H 260.200 C 260.100 488.400 260.200 488.500 260.200 488.400 V 485.600 C 260.200 485.500 260.100 485.600 260.200 485.600 H 266.000 C 266.100 485.600 266.000 485.500 266.000 485.600 V 488.400 C 266.000 488.500 266.100 488.400 266.000 488.400 H 263.100 Z" stroke="rgb(0,0,255)" stroke-width="0.20" />
  <path d="M 13.100 491.600 H 273.100 H 276.100 C 276.155 491.600 276.200 491.555 276.200 491.500 V 483.500 C 276.200 483.445 276.155 483.400 276.100 483.400 H 273.200 C 273.100 483.400 273.200 483.500 273.200 483.400 V 477.600 C 273.200 477.500 273.100 477.600 273.200 477.600 H 276.100 C 276.155 477.600 276.200 477.555 276.200 477.500 V 471.500 C 276.200 471.445 276.155 471.400 276.100 471.400 H 273.200 C 273.100 471.400 273.200 471.500 273.200 471.400 V 465.600 C 273.200 465.500 273.100 465.600 273.200 465.600 H 276.100 C 276.155 465.600 276.200 465.555 276.200 465.500 V 459.500 C 276.200 459.445 276.155 459.400 276.100 459.400 H 273.200 C 273.100 459.400 273.200 459.500 273.200 459.400 V 453.600 C 273.200 453.500 273.100 453.600 273.200 453.600 H 276.100 C 276.155 453.600 276.200 453.555 276.200 453.500 V 447.500 C 276.200 447.445 276.155 447.400 276.100 447.400 H 273.200 C 273.100 447.400 273.200 447.500 273.200 447.400 V 441.600 C 273.200 441.500 273.100 441.600 273.200 441.600 H 276.100 C 276.155 441.600 276.200 441.555 276.200 441.500 V 435.500 C 276.200 435.445 276.155 435.400 276.100 435.400 H 273.200 C 273.100 435.400 273.200 435.500 273.200 435.400 V 429.600 C 273.200 429.500 273.100 429.600 273.200 429.600 H 276.100 C 276.155 429.600 276.200 429.555 276.200 429.500 V 423.500 C 276.200 423.445 276.155 423.400 276.100 423.400 H 273.200 C 273.100 423.400 273.200 423.500 273.200 423.400 V 417.600 C 273.200 417.500 273.100 417.600 273.200 417.600 H 276.100 C 276.155 417.600 276.200 417.555 276.200 417.500 V 411.500 C 276.200 411.445 276.155 411.400 276.100 411.400 H 273.200 C 273.100 411.400 273.200 411.500 273.200 411.400 V 405.600 C 273.200 405.500 273.100 405.600 273.200 405.600 H 276.100 C 276.155 405.600 276.200 405.555 276.200 405.500 V 399.500 C 276.200 399.445 276.155 399.400 276.100 399.400 H 273.200 C 273.100 399.400 273.200 399.500 273.200 399.400 V 393.600 C 273.200 393.500 273.100 393.600 273.200 393.600 H 276.100 C 276.155 393.600 276.200 393.555 276.200 393.500 V 385.500 C 276.200 385.445 276.155 385.400 276.100 385.400 H 273.100 H 13.100 H 10.100 C 10.045 385.400 10.000 385.445 10.000 385.500 V 393.500 C 10.000 393.555 10.045 393.600 10.100 393.600 H 13.000 C 13.100 393.600 13.000 393.500 13.000 393.600 V 399.400 C 13.000 399.500 13.100 399.400 13.000 399.400 H 10.100 C 10.045 399.400 10.000 399.445 10.000 399.500 V 405.500 C 10.000 405.555 10.045 405.600 10.100 405.600 H 13.000 C 13.100 405.600 13.000 405.500 13.000 405.600 V 411.400 C 13.000 411.500 13.100 411.400 13.000 411.400 H 10.100 C 10.045 411.400 10.000 411.445 10.000 411.500 V 417.500 C 10.000 417.555 10.045 417.600 10.100 417.600 H 13.000 C 13.100 417.600 13.000 417.500 13.000 417.600 V 423.400 C 13.000 423.500 13.100 423.400 13.000 423.400 H 10.100 C 10.045 423.400 10.000 423.445 10.000 423.500 V 429.500 C 10.000 429.555 10.045 429.600 10.100 429.600 H 13.000 C 13.100 429.600 13.000 429.500 13.000 429.600 V 435.400 C 13.000 435.500 13.100 435.400 13.000 435.400 H 10.100 C 10.045 435.400 10.000 435.445 10.000 435.500 V 441.500 C 10.000 441.555 10.045 441.600 10.100 441.600 H 13.000 C 13.100 441.600 13.000 441.500 13.000 441.600 V 447.400 C 13.000 447.500 13.100 447.400 13.000 447.400 H 10.100 C 10.045 447.400 10.000 447.445 10.000 447.500 V 453.500 C 10.000 453.555 10.045 453.600 10.100 453.600 H 13.000 C 13.100 453.600 13.000 453.500 13.000 453.600 V 459.400 C 13.000 459.500 13.100 459.400 13.000 459.400 H 10.100 C 10.045 459.400 10.000 459.445 10.000 459.500 V 465.500 C 10.000 465.555 10.045 465.600 10.100 465.600 H 13.000 C 13.100 465.600 13.000 465.500 13.000 465.600 V 471.400 C 13.000 471.500 13.100 471.400 13.000 471.400 H 10.100 C 10.045 471.400 10.000 471.445 10.000 471.500 V 477.500 C 10.000 477.555 10.045 477.600 10.100 477.600 H 13.000 C 13.100 477.600 13.000 477.500 13.000 477.600 V 483.400 C 13.000 483.500 13.100 483.400 13.000 483.400 H 10.100 C 10.045 483.400 10.000 483.445 10.000 483.500 V 491.500 C 10.000 491.555 10.045 491.600 10.100 491.600 H 13.100 Z" stroke="rgb(0,0,0)" stroke-width="0.20" />
</g>
<g id="p-2" style="fill:none;stroke-linecap:round;stroke-linejoin:round;">
  <path d="M 23.100 380.700 H 20.200 C 20.100 380.700 20.200 380.800 20.200 380.700 V 377.900 C 20.200 377.800 20.100 377.900 20.200 377.900 H 26.000 C 26.100 377.900 26.000 377.800 26.000 377.900 V 380.700 C 26.000 380.800 26.100 380.700 26.000 380.700 H 23.100 Z" stroke="rgb(0,0,255)" stroke-width="0.20" />
  <path d="M 35.100 380.700 H 32.200 C 32.100 380.700 32.200 380.800 32.200 380.700 V 377.900 C 32.200 377.800 32.100 377.900 32.200 377.900 H 38.000 C 38.100 377.900 38.000 377.800 38.000 377.900 V 380.700 C 38.000 380.800 38.100 380.700 38.000 380.700 H 35.100 Z" stroke="rgb(0,0,255)" stroke-width="0.20" />
  <path d="M 47.100 380.700 H 44.200 C 44.100 380.700 44.200 380.800 44.200 380.700 V 377.900 C 44.200 377.800 44.100 377.900 44.200 377.900 H 50.000 C 50.100 377.900 50.000 377.800 50.000 377.900 V 380.700 C 50.000 380.800 50.100 380.700 50.000 380.700 H 47.100 Z" stroke="rgb(0,0,255)" stroke-width="0.20" />
  <path d="M 59.100 380.700 H 56.200 C 56.100 380.700 56.200 380.800 56.200 380.700 V 377.900 C 56.200 377.800 56.100 377.900 56.200 377.900 H 62.000 C 62.100 377.900 62.000 377.800 62.000 377.900 V 380.700 C 62.000 380.800 62.100 380.700 62.000 380.700 H 59.100 Z" stroke="rgb(0,0,255)" stroke-width="0.20" />
  <path d="M 71.100 380.700 H 68.200 C 68.100 380.700 68.200 380.800 68.200 380.700 V 377.900 C 68.200 377.800 68.100 377.900 68.200 377.900 H 74.000 C 74.100 377.900 74.000 377.800 74.000 377.900 V 380.700 C 74.000 380.800 74.100 380.700 74.000 380.700 H 71.100 Z" stroke="rgb(0,0,255)" stroke-width="0.20" />
  <path d="M 83.100 380.700 H 80.200 C 80.100 380.700 80.200 380.800 80.200 380.700 V 377.900 C 80.200 377.800 80.100 377.900 80.200 377.900 H 86.000 C 86.100 377.900 86.000 377.800 86.000 377.900 V 380.700 C 86.000 380.800 86.100 380.700 86.000 380.700 H 83.100 Z" stroke="rgb(0,0,255)" stroke-width="0.20" />
  <path d="M 95.100 380.700 H 92.200 C 92.100 380.700 92.200 380.800 92.200 380.700 V 377.900 C 92.200 377.800 92.100 377.900 92.200 377.900 H 98.000 C 98.100 377.900 98.000 377.800 98.000 377.900 V 380.700 C 98.000 380.800 98.100 380.700 98.000 380.700 H 95.100 Z" stroke="rgb(0,0,255)" stroke-width="0.20" />
  <path d="M 107.100 380.700 H 104.200 C 104.100 380.700 104.200 380.800 104.200 380.700 V 377.900 C 104.200 377.800 104.100 377.900 104.200 377.900 H 110.000 C 110.100 377.900 110.000 377.800 110.000 377.900 V 380.700 C 110.000 380.800 110.100 380.700 110.000 380.700 H 107.100 Z" stroke="rgb(0,0,255)" stroke-width="0.20" />
  <path d="M 119.100 380.700 H 116.200 C 116.100 380.700 116.200 380.800 116.200 380.700 V 377.900 C 116.200 377.800 116.100 377.900 116.200 377.900 H 122.000 C 122.100 377.900 122.000 377.800 122.000 377.900 V 380.700 C 122.000 380.800 122.100 380.700 122.000 380.700 H 119.100 Z" stroke="rgb(0,0,255)" stroke-width="0.20" />
  <path d="M 131.100 380.700 H 128.200 C 128.100 380.700 128.200 380.800 128.200 380.700 V 377.900 C 128.200 377.800 128.100 377.900 128.200 377.900 H 134.000 C 134.100 377.900 134.000 377.800 134.000 377.900 V 380.700 C 134.000 380.800 134.100 380.700 134.000 380.700 H 131.100 Z" stroke="rgb(0,0,255)" stroke-width="0.20" />
  <path d="M 143.100 380.700 H 140.200 C 140.100 380.700 140.200 380.800 140.200 380.700 V 377.900 C 140.200 377.800 140.100 377.900 140.200 377.900 H 146.000 C 146.100 377.900 146.000 377.800 146.000 377.900 V 380.700 C 146.000 380.800 146.100 380.700 146.000 380.700 H 143.100 Z" stroke="rgb(0,0,255)" stroke-width="0.20" />
  <path d="M 155.100 380.700 H 152.200 C 152.100 380.700 152.200 380.800 152.200 380.700 V 377.900 C 152.200 377.800 152.100 377.900 152.200 377.900 H 158.000 C 158.100 377.900 158.000 377.800 158.000 377.900 V 380.700 C 158.000 380.800 158.100 380.700 158.000 380.700 H 155.100 Z" stroke="rgb(0,0,255)" stroke-width="0.20" />
  <path d="M 167.100 380.700 H 164.200 C 164.100 380.700 164.200 380.800 164.200 380.700 V 377.900 C 164.200 377.800 164.100 377.900 164.200 377.900 H 170.000 C 170.100 377.900 170.000 377.800 170.000 377.900 V 380.700 C 170.000 380.800 170.100 380.700 170.000 380.700 H 167.100 Z" stroke="rgb(0,0,255)" stroke-width="0.20" />
  <path d="M 179.100 380.700 H 176.200 C 176.100 380.700 176.200 380.800 176.200 380.700 V 377.900 C 176.200 377.800 176.100 377.900 176.200 377.900 H 182.000 C 182.100 377.900 182.000 377.800 182.000 377.900 V 380.700 C 182.000 380.800 182.100 380.700 182.000 380.700 H 179.100 Z" stroke="rgb(0,0,255)" stroke-width="0.20" />
  <path d="M 191.100 380.700 H 188.200 C 188.100 380.700 188.200 380.800 188.200 380.700 V 377.900 C 188.200 377.800 188.100 377.900 188.200 377.900 H 194.000 C 194.100 377.900 194.000 377.800 194.000 377.900 V 380.700 C 194.000 380.800 194.100 380.700 194.000 380.700 H 191.100 Z" stroke="rgb(0,0,255)" stroke-width="0.20" />
  <path d="M 203.100 380.700 H 200.200 C 200.100 380.700 200.200 380.800 200.200 380.700 V 377.900 C 200.200 377.800 200.100 377.900 200.200 377.900 H 206.000 C 206.100 377.900 206.000 377.800 206.000 377.900 V 380.700 C 206.000 380.800 206.100 380.700 206.000 380.700 H 203.100 Z" stroke="rgb(0,0,255)" stroke-width="0.20" />
  <path d="M 215.100 380.700 H 212.200 C 212.100 380.700 212.200 380.800 212.200 380.700 V 377.900 C 212.200 377.800 212.100 377.900 212.200 377.900 H 218.000 C 218.100 377.900 218.000 377.800 218.000 377.900 V 380.700 C 218.000 380.800 218.100 380.700 218.000 380.700 H 215.100 Z" stroke="rgb(0,0,255)" stroke-width="0.20" />
  <path d="M 227.100 380.700 H 224.200 C 224.100 380.700 224.200 380.800 224.200 380.700 V 377.900 C 224.200 377.800 224.100 377.900 224.200 377.900 H 230.000 C 230.100 377.900 230.000 377.800 230.000 377.900 V 380.700 C 230.000 380.800 230.100 380.700 230.000 380.700 H 227.100 Z" stroke="rgb(0,0,255)" stroke-width="0.20" />
  <path d="M 239.100 380.700 H 236.200 C 236.100 380.700 236.200 380.800 236.200 380.700 V 377.900 C 236.200 377.800 236.100 377.900 236.200 377.900 H 242.000 C 242.100 377.900 242.000 377.800 242.000 377.900 V 380.700 C 242.000 380.800 242.100 380.700 242.000 380.700 H 239.100 Z" stroke="rgb(0,0,255)" stroke-width="0.20" />
  <path d="M 251.100 380.700 H 248.200 C 248.100 380.700 248.200 380.800 248.200 380.700 V 377.900 C 248.200 377.800 248.100 377.900 248.200 377.900 H 254.000 C 254.100 377.900 254.000 377.800 254.000 377.900 V 380.700 C 254.000 380.800 254.100 380.700 254.000 380.700 H 251.100 Z" stroke="rgb(0,0,255)" stroke-width="0.20" />
  <path d="M 263.100 380.700 H 260.200 C 260.100 380.700 260.200 380.800 260.200 380.700 V 377.900 C 260.200 377.800 260.100 377.900 260.200 377.900 H 266.000 C 266.100 377.900 266.000 377.800 266.000 377.900 V 380.700 C 266.000 380.800 266.100 380.700 266.000 380.700 H 263.100 Z" stroke="rgb(0,0,255)" stroke-width="0.20" />
  <path d="M 13.100 383.900 H 273.100 H 276.100 C 276.155 383.900 276.200 383.855 276.200 383.800 V 375.800 C 276.200 375.745 276.155 375.700 276.100 375.700 H 273.200 C 273.100 375.700 273.200 375.800 273.200 375.700 V 369.900 C 273.200 369.800 273.100 369.900 273.200 369.900 H 276.100 C 276.155 369.900 276.200 369.855 276.200 369.800 V 363.800 C 276.200 363.745 276.155 363.700 276.100 363.700 H 273.200 C 273.100 363.700 273.200 363.800 273.200 363.700 V 357.900 C 273.200 357.800 273.100 357.900 273.200 357.900 H 276.100 C 276.155 357.900 276.200 357.855 276.200 357.800 V 351.800 C 276.200 351.745 276.155 351.700 276.100 351.700 H 273.200 C 273.100 351.700 273.200 351.800 273.200 351.700 V 345.900 C 273.200 345.800 273.100 345.900 273.200 345.900 H 276.100 C 276.155 345.900 276.200 345.855 276.200 345.800 V 339.800 C 276.200 339.745 276.155 339.700 276.100 339.700 H 273.200 C 273.100 339.700 273.200 339.800 273.200 339.700 V 333.900 C 273.200 333.800 273.100 333.900 273.200 333.900 H 276.100 C 276.155 333.900 276.200 333.855 276.200 333.800 V 327.800 C 276.200 327.745 276.155 327.700 276.100 327.700 H 273.200 C 273.100 327.700 273.200 327.800 273.200 327.700 V 321.900 C 273.200 321.800 273.100 321.900 273.200 321.900 H 276.100 C 276.155 321.900 276.200 321.855 276.200 321.800 V 315.800 C 276.200 315.745 276.155 315.700 276.100 315.700 H 273.200 C 273.100 315.700 273.200 315.800 273.200 315.700 V 309.900 C 273.200 309.800 273.100 309.900 273.200 309.900 H 276.100 C 276.155 309.900 276.200 309.855 276.200 309.800 V 303.800 C 276.200 303.745 276.155 303.700 276.100 303.700 H 273.200 C 273.100 303.700 273.200 303.800 273.200 303.700 V 297.900 C 273.200 297.800 273.100 297.900 273.200 297.900 H 276.100 C 276.155 297.900 276.200 297.855 276.200 297.800 V 291.800 C 276.200 291.745 276.155 291.700 276.100 291.700 H 273.200 C 273.100 291.700 273.200 291.800 273.200 291.700 V 285.900 C 273.200 285.800 273.100 285.900 273.200 285.900 H 276.100 C 276.155 285.900 276.200 285.855 276.200 285.800 V 277.800 C 276.200 277.745 276.155 277.700 276.100 277.700 H 273.100 H 13.100 H 10.100 C 10.045 277.700 10.000 277.745 10.000 277.800 V 285.800 C 10.000 285.855 10.045 285.900 10.100 285.900 H 13.000 C 13.100 285.900 13.000 285.800 13.000 285.900 V 291.700 C 13.000 291.800 13.100 291.700 13.000 291.700 H 10.100 C 10.045 291.700 10.000 291.745 10.000 291.800 V 297.800 C 10.000 297.855 10.045 297.900 10.100 297.900 H 13.000 C 13.100 297.900 13.000 297.800 13.000 297.900 V 303.700 C 13.000 303.800 13.100 303.700 13.000 303.700 H 10.100 C 10.045 303.700 10.000 303.745 10.000 303.800 V 309.800 C 10.000 309.855 10.045 309.900 10.100 309.900 H 13.000 C 13.100 309.900 13.000 309.800 13.000 309.900 V 315.700 C 13.000 315.800 13.100 315.700 13.000 315.700 H 10.100 C 10.045 315.700 10.000 315.745 10.000 315.800 V 321.800 C 10.000 321.855 10.045 321.900 10.100 321.900 H 13.000 C 13.100 321.900 13.000 321.800 13.000 321.900 V 327.700 C 13.000 327.800 13.100 327.700 13.000 327.700 H 10.100 C 10.045 327.700 10.000 327.745 10.000 327.800 V 333.800 C 10.000 333.855 10.045 333.900 10.100 333.900 H 13.000 C 13.100 333.900 13.000 333.800 13.000 333.900 V 339.700 C 13.000 339.800 13.100 339.700 13.000 339.700 H 10.100 C 10.045 339.700 10.000 339.745 10.000 339.800 V 345.800 C 10.000 345.855 10.045 345.900 10.100 345.900 H 13.000 C 13.100 345.900 13.000 345.800 13.000 345.900 V 351.700 C 13.000 351.800 13.100 351.700 13.000 351.700 H 10.100 C 10.045 351.700 10.000 351.745 10.000 351.800 V 357.800 C 10.000 357.855 10.045 357.900 10.100 357.900 H 13.000 C 13.100 357.900 13.000 357.800 13.000 357.900 V 363.700 C 13.000 363.800 13.100 363.700 13.000 363.700 H 10.100 C 10.045 363.700 10.000 363.745 10.000 363.800 V 369.800 C 10.000 369.855 10.045 369.900 10.100 369.900 H 13.000 C 13.100 369.900 13.000 369.800 13.000 369.900 V 375.700 C 13.000 375.800 13.100 375.700 13.000 375.700 H 10.100 C 10.045 375.700 10.000 375.745 10.000 375.800 V 383.800 C 10.000 383.855 10.045 383.900 10.100 383.900 H 13.100 Z" stroke="rgb(0,0,0)" stroke-width="0.20" />
</g>
<g id="p-3" style="fill:none;stroke-linecap:round;stroke-linejoin:round;">
  <path d="M 13.100 273.200 H 20.000 C 20.100 273.200 20.000 273.100 20.000 273.200 V 276.100 C 20.000 276.155 20.045 276.200 20.100 276.200 H 26.100 C 26.155 276.200 26.200 276.155 26.200 276.100 V 273.200 C 26.200 273.100 26.100 273.200 26.200 273.200 H 32.000 C 32.100 273.200 32.000 273.100 32.000 273.200 V 276.100 C 32.000 276.155 32.045 276.200 32.100 276.200 H 38.100 C 38.155 276.200 38.200 276.155 38.200 276.100 V 273.200 C 38.200 273.100 38.100 273.200 38.200 273.200 H 44.000 C 44.100 273.200 44.000 273.100 44.000 273.200 V 276.100 C 44.000 276.155 44.045 276.200 44.100 276.200 H 50.100 C 50.155 276.200 50.200 276.155 50.200 276.100 V 273.200 C 50.200 273.100 50.100 273.200 50.200 273.200 H 56.000 C 56.100 273.200 56.000 273.100 56.000 273.200 V 276.100 C 56.000 276.155 56.045 276.200 56.100 276.200 H 62.100 C 62.155 276.200 62.200 276.155 62.200 276.100 V 273.200 C 62.200 273.100 62.100 273.200 62.200 273.200 H 68.000 C 68.100 273.200 68.000 273.100 68.000 273.200 V 276.100 C 68.000 276.155 68.045 276.200 68.100 276.200 H 74.100 C 74.155 276.200 74.200 276.155 74.200 276.100 V 273.200 C 74.200 273.100 74.100 273.200 74.200 273.200 H 80.000 C 80.100 273.200 80.000 273.100 80.000 273.200 V 276.100 C 80.000 276.155 80.045 276.200 80.100 276.200 H 86.100 C 86.155 276.200 86.200 276.155 86.200 276.100 V 273.200 C 86.200 273.100 86.100 273.200 86.200 273.200 H 92.000 C 92.100 273.200 92.000 273.100 92.000 273.200 V 276.100 C 92.000 276.155 92.045 276.200 92.100 276.200 H 98.100 C 98.155 276.200 98.200 276.155 98.200 276.100 V 273.200 C 98.200 273.100 98.100 273.200 98.200 273.200 H 104.000 C 104.100 273.200 104.000 273.100 104.000 273.200 V 276.100 C 104.000 276.155 104.045 276.200 104.100 276.200 H 110.100 C 110.155 276.200 110.200 276.155 110.200 276.100 V 273.200 C 110.200 273.100 110.100 273.200 110.200 273.200 H 116.000 C 116.100 273.200 116.000 273.100 116.000 273.200 V 276.100 C 116.000 276.155 116.045 276.200 116.100 276.200 H 122.100 C 122.155 276.200 122.200 276.155 122.200 276.100 V 273.200 C 122.200 273.100 122.100 273.200 122.200 273.200 H 128.000 C 128.100 273.200 128.000 273.100 128.000 273.200 V 276.100 C 128.000 276.155 128.045 276.200 128.100 276.200 H 134.100 C 134.155 276.200 134.200 276.155 134.200 276.100 V 273.200 C 134.200 273.100 134.100 273.200 134.200 273.200 H 140.000 C 140.100 273.200 140.000 273.100 140.000 273.200 V 276.100 C 140.000 276.155 140.045 276.200 140.100 276.200 H 146.100 C 146.155 276.200 146.200 276.155 146.200 276.100 V 273.200 C 146.200 273.100 146.100 273.200 146.200 273.200 H 152.000 C 152.100 273.200 152.000 273.100 152.000 273.200 V 276.100 C 152.000 276.155 152.045 276.200 152.100 276.200 H 158.100 C 158.155 276.200 158.200 276.155 158.200 276.100 V 273.200 C 158.200 273.100 158.100 273.200 158.200 273.200 H 164.000 C 164.100 273.200 164.000 273.100 164.000 273.200 V 276.100 C 164.000 276.155 164.045 276.200 164.100 276.200 H 170.100 C 170.155 276.200 170.200 276.155 170.200 276.100 V 273.200 C 170.200 273.100 170.100 273.200 170.200 273.200 H 176.000 C 176.100 273.200 176.000 273.100 176.000 273.200 V 276.100 C 176.000 276.155 176.045 276.200 176.100 276.200 H 182.100 C 182.155 276.200 182.200 276.155 182.200 276.100 V 273.200 C 182.200 273.100 182.100 273.200 182.200 273.200 H 188.000 C 188.100 273.200 188.000 273.100 188.000 273.200 V 276.100 C 188.000 276.155 188.045 276.200 188.100 276.200 H 194.100 C 194.155 276.200 194.200 276.155 194.200 276.100 V 273.200 C 194.200 273.100 194.100 273.200 194.200 273.200 H 200.000 C 200.100 273.200 200.000 273.100 200.000 273.200 V 276.100 C 200.000 276.155 200.045 276.200 200.100 276.200 H 206.100 C 206.155 276.200 206.200 276.155 206.200 276.100 V 273.200 C 206.200 273.100 206.100 273.200 206.200 273.200 H 212.000 C 212.100 273.200 212.000 273.100 212.000 273.200 V 276.100 C 212.000 276.155 212.045 276.200 212.100 276.200 H 218.100 C 218.155 276.200 218.200 276.155 218.200 276.100 V 273.200 C 218.200 273.100 218.100 273.200 218.200 273.200 H 224.000 C 224.100 273.200 224.000 273.100 224.000 273.200 V 276.100 C 224.000 276.155 224.045 276.200 224.100 276.200 H 230.100 C 230.155 276.200 230.200 276.155 230.200 276.100 V 273.200 C 230.200 273.100 230.100 273.200 230.200 273.200 H 236.000 C 236.100 273.200 236.000 273.100 236.000 273.200 V 276.100 C 236.000 276.155 236.045 276.200 236.100 276.200 H 242.100 C 242.155 276.200 242.200 276.155 242.200 276.100 V 273.200 C 242.200 273.100 242.100 273.200 242.200 273.200 H 248.000 C 248.100 273.200 248.000 273.100 248.000 273.200 V 276.100 C 248.000 276.155 248.045 276.200 248.100 276.200 H 254.100 C 254.155 276.200 254.200 276.155 254.200 276.100 V 273.200 C 254.200 273.100 254.100 273.200 254.200 273.200 H 260.000 C 260.100 273.200 260.000 273.100 260.000 273.200 V 276.100 C 260.000 276.155 260.045 276.200 260.100 276.200 H 266.100 C 266.155 276.200 266.200 276.155 266.200 276.100 V 273.200 C 266.200 273.100 266.100 273.200 266.200 273.200 H 273.100 C 273.155 273.200 273.200 273.155 273.200 273.100 V 266.200 C 273.200 266.100 273.100 266.200 273.200 266.200 H 276.100 C 276.155 266.200 276.200 266.155 276.200 266.100 V 260.100 C 276.200 260.045 276.155 260.000 276.100 260.000 H 273.200 C 273.100 260.000 273.200 260.100 273.200 260.000 V 254.200 C 273.200 254.100 273.100 254.200 273.200 254.200 H 276.100 C 276.155 254.200 276.200 254.155 276.200 254.100 V 248.100 C 276.200 248.045 276.155 248.000 276.100 248.000 H 273.200 C 273.100 248.000 273.200 248.100 273.200 248.000 V 242.200 C 273.200 242.100 273.100 242.200 273.200 242.200 H 276.100 C 276.155 242.200 276.200 242.155 276.200 242.100 V 236.100 C 276.200 236.045 276.155 236.000 276.100 236.000 H 273.200 C 273.100 236.000 273.200 236.100 273.200 236.000 V 230.200 C 273.200 230.100 273.100 230.200 273.200 230.200 H 276.100 C 276.155 230.200 276.200 230.155 276.200 230.100 V 224.100 C 276.200 224.045 276.155 224.000 276.100 224.000 H 273.200 C 273.100 224.000 273.200 224.100 273.200 224.000 V 218.200 C 273.200 218.100 273.100 218.200 273.200 218.200 H 276.100 C 276.155 218.200 276.200 218.155 276.200 218.100 V 212.100 C 276.200 212.045 276.155 212.000 276.100 212.000 H 273.200 C 273.100 212.000 273.200 212.100 273.200 212.000 V 206.200 C 273.200 206.100 273.100 206.200 273.200 206.200 H 276.100 C 276.155 206.200 276.200 206.155 276.200 206.100 V 200.100 C 276.200 200.045 276.155 200.000 276.100 200.000 H 273.200 C 273.100 200.000 273.200 200.100 273.200 200.000 V 194.200 C 273.200 194.100 273.100 194.200 273.200 194.200 H 276.100 C 276.155 194.200 276.200 194.155 276.200 194.100 V 188.100 C 276.200 188.045 276.155 188.000 276.100 188.000 H 273.200 C 273.100 188.000 273.200 188.100 273.200 188.000 V 182.200 C 273.200 182.100 273.100 182.200 273.200 182.200 H 276.100 C 276.155 182.200 276.200 182.155 276.200 182.100 V 176.100 C 276.200 176.045 276.155 176.000 276.100 176.000 H 273.200 C 273.100 176.000 273.200 176.100 273.200 176.000 V 170.200 C 273.200 170.100 273.100 170.200 273.200 170.200 H 276.100 C 276.155 170.200 276.200 170.155 276.200 170.100 V 164.100 C 276.200 164.045 276.155 164.000 276.100 164.000 H 273.200 C 273.100 164.000 273.200 164.100 273.200 164.000 V 158.200 C 273.200 158.100 273.100 158.200 273.200 158.200 H 276.100 C 276.155 158.200 276.200 158.155 276.200 158.100 V 152.100 C 276.200 152.045 276.155 152.000 276.100 152.000 H 273.200 C 273.100 152.000 273.200 152.100 273.200 152.000 V 146.200 C 273.200 146.100 273.100 146.200 273.200 146.200 H 276.100 C 276.155 146.200 276.200 146.155 276.200 146.100 V 140.100 C 276.200 140.045 276.155 140.000 276.100 140.000 H 273.200 C 273.100 140.000 273.200 140.100 273.200 140.000 V 134.200 C 273.200 134.100 273.100 134.200 273.200 134.200 H 276.100 C 276.155 134.200 276.200 134.155 276.200 134.100 V 128.100 C 276.200 128.045 276.155 128.000 276.100 128.000 H 273.200 C 273.100 128.000 273.200 128.100 273.200 128.000 V 122.200 C 273.200 122.100 273.100 122.200 273.200 122.200 H 276.100 C 276.155 122.200 276.200 122.155 276.200 122.100 V 116.100 C 276.200 116.045 276.155 116.000 276.100 116.000 H 273.200 C 273.100 116.000 273.200 116.100 273.200 116.000 V 110.200 C 273.200 110.100 273.100 110.200 273.200 110.200 H 276.100 C 276.155 110.200 276.200 110.155 276.200 110.100 V 104.100 C 276.200 104.045 276.155 104.000 276.100 104.000 H 273.200 C 273.100 104.000 273.200 104.100 273.200 104.000 V 98.200 C 273.200 98.100 273.100 98.200 273.200 98.200 H 276.100 C 276.155 98.200 276.200 98.155 276.200 98.100 V 92.100 C 276.200 92.045 276.155 92.000 276.100 92.000 H 273.200 C 273.100 92.000 273.200 92.100 273.200 92.000 V 86.200 C 273.200 86.100 273.100 86.200 273.200 86.200 H 276.100 C 276.155 86.200 276.200 86.155 276.200 86.100 V 80.100 C 276.200 80.045 276.155 80.000 276.100 80.000 H 273.200 C 273.100 80.000 273.200 80.100 273.200 80.000 V 74.200 C 273.200 74.100 273.100 74.200 273.200 74.200 H 276.100 C 276.155 74.200 276.200 74.155 276.200 74.100 V 68.100 C 276.200 68.045 276.155 68.000 276.100 68.000 H 273.200 C 273.100 68.000 273.200 68.100 273.200 68.000 V 62.200 C 273.200 62.100 273.100 62.200 273.200 62.200 H 276.100 C 276.155 62.200 276.200 62.155 276.200 62.100 V 56.100 C 276.200 56.045 276.155 56.000 276.100 56.000 H 273.200 C 273.100 56.000 273.200 56.100 273.200 56.000 V 50.200 C 273.200 50.100 273.100 50.200 273.200 50.200 H 276.100 C 276.155 50.200 276.200 50.155 276.200 50.100 V 44.100 C 276.200 44.045 276.155 44.000 276.100 44.000 H 273.200 C 273.100 44.000 273.200 44.100 273.200 44.000 V 38.200 C 273.200 38.100 273.100 38.200 273.200 38.200 H 276.100 C 276.155 38.200 276.200 38.155 276.200 38.100 V 32.100 C 276.200 32.045 276.155 32.000 276.100 32.000 H 273.200 C 273.100 32.000 273.200 32.100 273.200 32.000 V 26.200 C 273.200 26.100 273.100 26.200 273.200 26.200 H 276.100 C 276.155 26.200 276.200 26.155 276.200 26.100 V 20.100 C 276.200 20.045 276.155 20.000 276.100 20.000 H 273.200 C 273.100 20.000 273.200 20.100 273.200 20.000 V 13.100 C 273.200 13.045 273.155 13.000 273.100 13.000 H 266.200 C 266.100 13.000 266.200 13.100 266.200 13.000 V 10.100 C 266.200 10.045 266.155 10.000 266.100 10.000 H 260.100 C 260.045 10.000 260.000 10.045 260.000 10.100 V 13.000 C 260.000 13.100 260.100 13.000 260.000 13.000 H 254.200 C 254.100 13.000 254.200 13.100 254.200 13.000 V 10.100 C 254.200 10.045 254.155 10.000 254.100 10.000 H 248.100 C 248.045 10.000 248.000 10.045 248.000 10.100 V 13.000 C 248.000 13.100 248.100 13.000 248.000 13.000 H 242.200 C 242.100 13.000 242.200 13.100 242.200 13.000 V 10.100 C 242.200 10.045 242.155 10.000 242.100 10.000 H 236.100 C 236.045 10.000 236.000 10.045 236.000 10.100 V 13.000 C 236.000 13.100 236.100 13.000 236.000 13.000 H 230.200 C 230.100 13.000 230.200 13.100 230.200 13.000 V 10.100 C 230.200 10.045 230.155 10.000 230.100 10.000 H 224.100 C 224.045 10.000 224.000 10.045 224.000 10.100 V 13.000 C 224.000 13.100 224.100 13.000 224.000 13.000 H 218.200 C 218.100 13.000 218.200 13.100 218.200 13.000 V 10.100 C 218.200 10.045 218.155 10.000 218.100 10.000 H 212.100 C 212.045 10.000 212.000 10.045 212.000 10.100 V 13.000 C 212.000 13.100 212.100 13.000 212.000 13.000 H 206.200 C 206.100 13.000 206.200 13.100 206.200 13.000 V 10.100 C 206.200 10.045 206.155 10.000 206.100 10.000 H 200.100 C 200.045 10.000 200.000 10.045 200.000 10.100 V 13.000 C 200.000 13.100 200.100 13.000 200.000 13.000 H 194.200 C 194.100 13.000 194.200 13.100 194.200 13.000 V 10.100 C 194.200 10.045 194.155 10.000 194.100 10.000 H 188.100 C 188.045 10.000 188.000 10.045 188.000 10.100 V 13.000 C 188.000 13.100 188.100 13.000 188.000 13.000 H 182.200 C 182.100 13.000 182.200 13.100 182.200 13.000 V 10.100 C 182.200 10.045 182.155 10.000 182.100 10.000 H 176.100 C 176.045 10.000 176.000 10.045 176.000 10.100 V 13.000 C 176.000 13.100 176.100 13.000 176.000 13.000 H 170.200 C 170.100 13.000 170.200 13.100 170.200 13.000 V 10.100 C 170.200 10.045 170.155 10.000 170.100 10.000 H 164.100 C 164.045 10.000 164.000 10.045 164.000 10.100 V 13.000 C 164.000 13.100 164.100 13.000 164.000 13.000 H 158.200 C 158.100 13.000 158.200 13.100 158.200 13.000 V 10.100 C 158.200 10.045 158.155 10.000 158.100 10.000 H 152.100 C 152.045 10.000 152.000 10.045 152.000 10.100 V 13.000 C 152.000 13.100 152.100 13.000 152.000 13.000 H 146.200 C 146.100 13.000 146.200 13.100 146.200 13.000 V 10.100 C 146.200 10.045 146.155 10.000 146.100 10.000 H 140.100 C 140.045 10.000 140.000 10.045 140.000 10.100 V 13.000 C 140.000 13.100 140.100 13.000 140.000 13.000 H 134.200 C 134.100 13.000 134.200 13.100 134.200 13.000 V 10.100 C 134.200 10.045 134.155 10.000 134.100 10.000 H 128.100 C 128.045 10.000 128.000 10.045 128.000 10.100 V 13.000 C 128.000 13.100 128.100 13.000 128.000 13.000 H 122.200 C 122.100 13.000 122.200 13.100 122.200 13.000 V 10.100 C 122.200 10.045 122.155 10.000 122.100 10.000 H 116.100 C 116.045 10.000 116.000 10.045 116.000 10.100 V 13.000 C 116.000 13.100 116.100 13.000 116.000 13.000 H 110.200 C 110.100 13.000 110.200 13.100 110.200 13.000 V 10.100 C 110.200 10.045 110.155 10.000 110.100 10.000 H 104.100 C 104.045 10.000 104.000 10.045 104.000 10.100 V 13.000 C 104.000 13.100 104.100 13.000 104.000 13.000 H 98.200 C 98.100 13.000 98.200 13.100 98.200 13.000 V 10.100 C 98.200 10.045 98.155 10.000 98.100 10.000 H 92.100 C 92.045 10.000 92.000 10.045 92.000 10.100 V 13.000 C 92.000 13.100 92.100 13.000 92.000 13.000 H 86.200 C 86.100 13.000 86.200 13.100 86.200 13.000 V 10.100 C 86.200 10.045 86.155 10.000 86.100 10.000 H 80.100 C 80.045 10.000 80.000 10.045 80.000 10.100 V 13.000 C 80.000 13.100 80.100 13.000 80.000 13.000 H 74.200 C 74.100 13.000 74.200 13.100 74.200 13.000 V 10.100 C 74.200 10.045 74.155 10.000 74.100 10.000 H 68.100 C 68.045 10.000 68.000 10.045 68.000 10.100 V 13.000 C 68.000 13.100 68.100 13.000 68.000 13.000 H 62.200 C 62.100 13.000 62.200 13.100 62.200 13.000 V 10.100 C 62.200 10.045 62.155 10.000 62.100 10.000 H 56.100 C 56.045 10.000 56.000 10.045 56.000 10.100 V 13.000 C 56.000 13.100 56.100 13.000 56.000 13.000 H 50.200 C 50.100 13.000 50.200 13.100 50.200 13.000 V 10.100 C 50.200 10.045 50.155 10.000 50.100 10.000 H 44.100 C 44.045 10.000 44.000 10.045 44.000 10.100 V 13.000 C 44.000 13.100 44.100 13.000 44.000 13.000 H 38.200 C 38.100 13.000 38.200 13.100 38.200 13.000 V 10.100 C 38.200 10.045 38.155 10.000 38.100 10.000 H 32.100 C 32.045 10.000 32.000 10.045 32.000 10.100 V 13.000 C 32.000 13.100 32.100 13.000 32.000 13.000 H 26.200 C 26.100 13.000 26.200 13.100 26.200 13.000 V 10.100 C 26.200 10.045 26.155 10.000 26.100 10.000 H 20.100 C 20.045 10.000 20.000 10.045 20.000 10.100 V 13.000 C 20.000 13.100 20.100 13.000 20.000 13.000 H 13.100 C 13.045 13.000 13.000 13.045 13.000 13.100 V 20.000 C 13.000 20.100 13.100 20.000 13.000 20.000 H 10.100 C 10.045 20.000 10.000 20.045 10.000 20.100 V 26.100 C 10.000 26.155 10.045 26.200 10.100 26.200 H 13.000 C 13.100 26.200 13.000 26.100 13.000 26.200 V 32.000 C 13.000 32.100 13.100 32.000 13.000 32.000 H 10.100 C 10.045 32.000 10.000 32.045 10.000 32.100 V 38.100 C 10.000 38.155 10.045 38.200 10.100 38.200 H 13.000 C 13.100 38.200 13.000 38.100 13.000 38.200 V 44.000 C 13.000 44.100 13.100 44.000 13.000 44.000 H 10.100 C 10.045 44.000 10.000 44.045 10.000 44.100 V 50.100 C 10.000 50.155 10.045 50.200 10.100 50.200 H 13.000 C 13.100 50.200 13.000 50.100 13.000 50.200 V 56.000 C 13.000 56.100 13.100 56.000 13.000 56.000 H 10.100 C 10.045 56.000 10.000 56.045 10.000 56.100 V 62.100 C 10.000 62.155 10.045 62.200 10.100 62.200 H 13.000 C 13.100 62.200 13.000 62.100 13.000 62.200 V 68.000 C 13.000 68.100 13.100 68.000 13.000 68.000 H 10.100 C 10.045 68.000 10.000 68.045 10.000 68.100 V 74.100 C 10.000 74.155 10.045 74.200 10.100 74.200 H 13.000 C 13.100 74.200 13.000 74.100 13.000 74.200 V 80.000 C 13.000 80.100 13.100 80.000 13.000 80.000 H 10.100 C 10.045 80.000 10.000 80.045 10.000 80.100 V 86.100 C 10.000 86.155 10.045 86.200 10.100 86.200 H 13.000 C 13.100 86.200 13.000 86.100 13.000 86.200 V 92.000 C 13.000 92.100 13.100 92.000 13.000 92.000 H 10.100 C 10.045 92.000 10.000 92.045 10.000 92.100 V 98.100 C 10.000 98.155 10.045 98.200 10.100 98.200 H 13.000 C 13.100 98.200 13.000 98.100 13.000 98.200 V 104.000 C 13.000 104.100 13.100 104.000 13.000 104.000 H 10.100 C 10.045 104.000 10.000 104.045 10.000 104.100 V 110.100 C 10.000 110.155 10.045 110.200 10.100 110.200 H 13.000 C 13.100 110.200 13.000 110.100 13.000 110.200 V 116.000 C 13.000 116.100 13.100 116.000 13.000 116.000 H 10.100 C 10.045 116.000 10.000 116.045 10.000 116.100 V 122.100 C 10.000 122.155 10.045 122.200 10.100 122.200 H 13.000 C 13.100 122.200 13.000 122.100 13.000 122.200 V 128.000 C 13.000 128.100 13.100 128.000 13.000 128.000 H 10.100 C 10.045 128.000 10.000 128.045 10.000 128.100 V 134.100 C 10.000 134.155 10.045 134.200 10.100 134.200 H 13.000 C 13.100 134.200 13.000 134.100 13.000 134.200 V 140.000 C 13.000 140.100 13.100 140.000 13.000 140.000 H 10.100 C 10.045 140.000 10.000 140.045 10.000 140.100 V 146.100 C 10.000 146.155 10.045 146.200 10.100 146.200 H 13.000 C 13.100 146.200 13.000 146.100 13.000 146.200 V 152.000 C 13.000 152.100 13.100 152.000 13.000 152.000 H 10.100 C 10.045 152.000 10.000 152.045 10.000 152.100 V 158.100 C 10.000 158.155 10.045 158.200 10.100 158.200 H 13.000 C 13.100 158.200 13.000 158.100 13.000 158.200 V 164.000 C 13.000 164.100 13.100 164.000 13.000 164.000 H 10.100 C 10.045 164.000 10.000 164.045 10.000 164.100 V 170.100 C 10.000 170.155 10.045 170.200 10.100 170.200 H 13.000 C 13.100 170.200 13.000 170.100 13.000 170.200 V 176.000 C 13.000 176.100 13.100 176.000 13.000 176.000 H 10.100 C 10.045 176.000 10.000 176.045 10.000 176.100 V 182.100 C 10.000 182.155 10.045 182.200 10.100 182.200 H 13.000 C 13.100 182.200 13.000 182.100 13.000 182.200 V 188.000 C 13.000 188.100 13.100 188.000 13.000 188.000 H 10.100 C 10.045 188.000 10.000 188.045 10.000 188.100 V 194.100 C 10.000 194.155 10.045 194.200 10.100 194.200 H 13.000 C 13.100 194.200 13.000 194.100 13.000 194.200 V 200.000 C 13.000 200.100 13.100 200.000 13.000 200.000 H 10.100 C 10.045 200.000 10.000 200.045 10.000 200.100 V 206.100 C 10.000 206.155 10.045 206.200 10.100 206.200 H 13.000 C 13.100 206.200 13.000 206.100 13.000 206.200 V 212.000 C 13.000 212.100 13.100 212.000 13.000 212.000 H 10.100 C 10.045 212.000 10.000 212.045 10.000 212.100 V 218.100 C 10.000 218.155 10.045 218.200 10.100 218.200 H 13.000 C 13.100 218.200 13.000 218.100 13.000 218.200 V 224.000 C 13.000 224.100 13.100 224.000 13.000 224.000 H 10.100 C 10.045 224.000 10.000 224.045 10.000 224.100 V 230.100 C 10.000 230.155 10.045 230.200 10.100 230.200 H 13.000 C 13.100 230.200 13.000 230.100 13.000 230.200 V 236.000 C 13.000 236.100 13.100 236.000 13.000 236.000 H 10.100 C 10.045 236.000 10.000 236.045 10.000 236.100 V 242.100 C 10.000 242.155 10.045 242.200 10.100 242.200 H 13.000 C 13.100 242.200 13.000 242.100 13.000 242.200 V 248.000 C 13.000 248.100 13.100 248.000 13.000 248.000 H 10.100 C 10.045 248.000 10.000 248.045 10.000 248.100 V 254.100 C 10.000 254.155 10.045 254.200 10.100 254.200 H 13.000 C 13.100 254.200 13.000 254.100 13.000 254.200 V 260.000 C 13.000 260.100 13.100 260.000 13.000 260.000 H 10.100 C 10.045 260.000 10.000 260.045 10.000 260.100 V 266.100 C 10.000 266.155 10.045 266.200 10.100 266.200 H 13.000 C 13.100 266.200 13.000 266.100 13.000 266.200 V 273.100 C 13.000 273.155 13.045 273.200 13.100 273.200 Z" stroke="rgb(0,0,0)" stroke-width="0.20" />
</g>
<g id="p-4" style="fill:none;stroke-linecap:round;stroke-linejoin:round;">
  <path d="M 290.800 488.400 H 287.900 C 287.800 488.400 287.900 488.500 287.900 488.400 V 485.600 C 287.900 485.500 287.800 485.600 287.900 485.600 H 293.700 C 293.800 485.600 293.700 485.500 293.700 485.600 V 488.400 C 293.700 488.500 293.800 488.400 293.700 488.400 H 290.800 Z" stroke="rgb(0,0,255)" stroke-width="0.20" />
  <path d="M 302.800 488.400 H 299.900 C 299.800 488.400 299.900 488.500 299.900 488.400 V 485.600 C 299.900 485.500 299.800 485.600 299.900 485.600 H 305.700 C 305.800 485.600 305.700 485.500 305.700 485.600 V 488.400 C 305.700 488.500 305.800 488.400 305.700 488.400 H 302.800 Z" stroke="rgb(0,0,255)" stroke-width="0.20" />
  <path d="M 314.800 488.400 H 311.900 C 311.800 488.400 311.900 488.500 311.900 488.400 V 485.600 C 311.900 485.500 311.800 485.600 311.900 485.600 H 317.700 C 317.800 485.600 317.700 485.500 317.700 485.600 V 488.400 C 317.700 488.500 317.800 488.400 317.700 488.400 H 314.800 Z" stroke="rgb(0,0,255)" stroke-width="0.20" />
  <path d="M 326.800 488.400 H 323.900 C 323.800 488.400 323.900 488.500 323.900 488.400 V 485.600 C 323.900 485.500 323.800 485.600 323.900 485.600 H 329.700 C 329.800 485.600 329.700 485.500 329.700 485.600 V 488.400 C 329.700 488.500 329.800 488.400 329.700 488.400 H 326.800 Z" stroke="rgb(0,0,255)" stroke-width="0.20" />
  <path d="M 338.800 488.400 H 335.900 C 335.800 488.400 335.900 488.500 335.900 488.400 V 485.600 C 335.900 485.500 335.800 485.600 335.900 485.600 H 341.700 C 341.800 485.600 341.700 485.500 341.700 485.600 V 488.400 C 341.700 488.500 341.800 488.400 341.700 488.400 H 338.800 Z" stroke="rgb(0,0,255)" stroke-width="0.20" />
  <path d="M 350.800 488.400 H 347.900 C 347.800 488.400 347.900 488.500 347.900 488.400 V 485.600 C 347.900 485.500 347.800 485.600 347.900 485.600 H 353.700 C 353.800 485.600 353.700 485.500 353.700 485.600 V 488.400 C 353.700 488.500 353.800 488.400 353.700 488.400 H 350.800 Z" stroke="rgb(0,0,255)" stroke-width="0.20" />
  <path d="M 362.800 488.400 H 359.900 C 359.800 488.400 359.900 488.500 359.900 488.400 V 485.600 C 359.900 485.500 359.800 485.600 359.900 485.600 H 365.700 C 365.800 485.600 365.700 485.500 365.700 485.600 V 488.400 C 365.700 488.500 365.800 488.400 365.700 488.400 H 362.800 Z" stroke="rgb(0,0,255)" stroke-width="0.20" />
  <path d="M 374.800 488.400 H 371.900 C 371.800 488.400 371.900 488.500 371.900 488.400 V 485.600 C 371.900 485.500 371.800 485.600 371.900 485.600 H 377.700 C 377.800 485.600 377.700 485.500 377.700 485.600 V 488.400 C 377.700 488.500 377.800 488.400 377.700 488.400 H 374.800 Z" stroke="rgb(0,0,255)" stroke-width="0.20" />
  <path d="M 386.800 488.400 H 383.900 C 383.800 488.400 383.900 488.500 383.900 488.400 V 485.600 C 383.900 485.500 383.800 485.600 383.900 485.600 H 389.700 C 389.800 485.600 389.700 485.500 389.700 485.600 V 488.400 C 389.700 488.500 389.800 488.400 389.700 488.400 H 386.800 Z" stroke="rgb(0,0,255)" stroke-width="0.20" />
  <path d="M 398.800 488.400 H 395.900 C 395.800 488.400 395.900 488.500 395.900 488.400 V 485.600 C 395.900 485.500 395.800 485.600 395.900 485.600 H 401.700 C 401.800 485.600 401.700 485.500 401.700 485.600 V 488.400 C 401.700 488.500 401.800 488.400 401.700 488.400 H 398.800 Z" stroke="rgb(0,0,255)" stroke-width="0.20" />
  <path d="M 410.800 488.400 H 407.900 C 407.800 488.400 407.900 488.500 407.900 488.400 V 485.600 C 407.900 485.500 407.800 485.600 407.900 485.600 H 413.700 C 413.800 485.600 413.700 485.500 413.700 485.600 V 488.400 C 413.700 488.500 413.800 488.400 413.700 488.400 H 410.800 Z" stroke="rgb(0,0,255)" stroke-width="0.20" />
  <path d="M 422.800 488.400 H 419.900 C 419.800 488.400 419.900 488.500 419.900 488.400 V 485.600 C 419.900 485.500 419.800 485.600 419.900 485.600 H 425.700 C 425.800 485.600 425.700 485.500 425.700 485.600 V 488.400 C 425.700 488.500 425.800 488.400 425.700 488.400 H 422.800 Z" stroke="rgb(0,0,255)" stroke-width="0.20" />
  <path d="M 434.800 488.400 H 431.900 C 431.800 488.400 431.900 488.500 431.900 488.400 V 485.600 C 431.900 485.500 431.800 485.600 431.900 485.600 H 437.700 C 437.800 485.600 437.700 485.500 437.700 485.600 V 488.400 C 437.700 488.500 437.800 488.400 437.700 488.400 H 434.800 Z" stroke="rgb(0,0,255)" stroke-width="0.20" />
  <path d="M 446.800 488.400 H 443.900 C 443.800 488.400 443.900 488.500 443.900 488.400 V 485.600 C 443.900 485.500 443.800 485.600 443.900 485.600 H 449.700 C 449.800 485.600 449.700 485.500 449.700 485.600 V 488.400 C 449.700 488.500 449.800 488.400 449.700 488.400 H 446.800 Z" stroke="rgb(0,0,255)" stroke-width="0.20" />
  <path d="M 458.800 488.400 H 455.900 C 455.800 488.400 455.900 488.500 455.900 488.400 V 485.600 C 455.900 485.500 455.800 485.600 455.900 485.600 H 461.700 C 461.800 485.600 461.700 485.500 461.700 485.600 V 488.400 C 461.700 488.500 461.800 488.400 461.700 488.400 H 458.800 Z" stroke="rgb(0,0,255)" stroke-width="0.20" />
  <path d="M 470.800 488.400 H 467.900 C 467.800 488.400 467.900 488.500 467.900 488.400 V 485.600 C 467.900 485.500 467.800 485.600 467.900 485.600 H 473.700 C 473.800 485.600 473.700 485.500 473.700 485.600 V 488.400 C 473.700 488.500 473.800 488.400 473.700 488.400 H 470.800 Z" stroke="rgb(0,0,255)" stroke-width="0.20" />
  <path d="M 482.800 488.400 H 479.900 C 479.800 488.400 479.900 488.500 479.900 488.400 V 485.600 C 479.900 485.500 479.800 485.600 479.900 485.600 H 485.700 C 485.800 485.600 485.700 485.500 485.700 485.600 V 488.400 C 485.700 488.500 485.800 488.400 485.700 488.400 H 482.800 Z" stroke="rgb(0,0,255)" stroke-width="0.20" />
  <path d="M 494.800 488.400 H 491.900 C 491.800 488.400 491.900 488.500 491.900 488.400 V 485.600 C 491.900 485.500 491.800 485.600 491.900 485.600 H 497.700 C 497.800 485.600 497.700 485.500 497.700 485.600 V 488.400 C 497.700 488.500 497.800 488.400 497.700 488.400 H 494.800 Z" stroke="rgb(0,0,255)" stroke-width="0.20" />
  <path d="M 506.800 488.400 H 503.900 C 503.800 488.400 503.900 488.500 503.900 488.400 V 485.600 C 503.900 485.500 503.800 485.600 503.900 485.600 H 509.700 C 509.800 485.600 509.700 485.500 509.700 485.600 V 488.400 C 509.700 488.500 509.800 488.400 509.700 488.400 H 506.800 Z" stroke="rgb(0,0,255)" stroke-width="0.20" />
  <path d="M 518.800 488.400 H 515.900 C 515.800 488.400 515.900 488.500 515.900 488.400 V 485.600 C 515.900 485.500 515.800 485.600 515.900 485.600 H 521.700 C 521.800 485.600 521.700 485.500 521.700 485.600 V 488.400 C 521.700 488.500 521.800 488.400 521.700 488.400 H 518.800 Z" stroke="rgb(0,0,255)" stroke-width="0.20" />
  <path d="M 530.800 488.400 H 527.900 C 527.800 488.400 527.900 488.500 527.900 488.400 V 485.600 C 527.900 485.500 527.800 485.600 527.900 485.600 H 533.700 C 533.800 485.600 533.700 485.500 533.700 485.600 V 488.400 C 533.700 488.500 533.800 488.400 533.700 488.400 H 530.800 Z" stroke="rgb(0,0,255)" stroke-width="0.20" />
  <path d="M 280.800 491.600 H 540.800 C 540.855 491.600 540.900 491.555 540.900 491.500 V 483.600 C 540.900 483.500 540.800 483.600 540.900 483.600 H 543.800 C 543.855 483.600 543.900 483.555 543.900 483.500 V 477.500 C 543.900 477.445 543.855 477.400 543.800 477.400 H 540.900 C 540.800 477.400 540.900 477.500 540.900 477.400 V 471.600 C 540.900 471.500 540.800 471.600 540.900 471.600 H 543.800 C 543.855 471.600 543.900 471.555 543.900 471.500 V 465.500 C 543.900 465.445 543.855 465.400 543.800 465.400 H 540.900 C 540.800 465.400 540.900 465.500 540.900 465.400 V 459.600 C 540.900 459.500 540.800 459.600 540.900 459.600 H 543.800 C 543.855 459.600 543.900 459.555 543.900 459.500 V 453.500 C 543.900 453.445 543.855 453.400 543.800 453.400 H 540.900 C 540.800 453.400 540.900 453.500 540.900 453.400 V 447.600 C 540.900 447.500 540.800 447.600 540.900 447.600 H 543.800 C 543.855 447.600 543.900 447.555 543.900 447.500 V 441.500 C 543.900 441.445 543.855 441.400 543.800 441.400 H 540.900 C 540.800 441.400 540.900 441.500 540.900 441.400 V 435.600 C 540.900 435.500 540.800 435.600 540.900 435.600 H 543.800 C 543.855 435.600 543.900 435.555 543.900 435.500 V 429.500 C 543.900 429.445 543.855 429.400 543.800 429.400 H 540.900 C 540.800 429.400 540.900 429.500 540.900 429.400 V 423.600 C 540.900 423.500 540.800 423.600 540.900 423.600 H 543.800 C 543.855 423.600 543.900 423.555 543.900 423.500 V 417.500 C 543.900 417.445 543.855 417.400 543.800 417.400 H 540.900 C 540.800 417.400 540.900 417.500 540.900 417.400 V 411.600 C 540.900 411.500 540.800 411.600 540.900 411.600 H 543.800 C 543.855 411.600 543.900 411.555 543.900 411.500 V 405.500 C 543.900 405.445 543.855 405.400 543.800 405.400 H 540.900 C 540.800 405.400 540.900 405.500 540.900 405.400 V 399.600 C 540.900 399.500 540.800 399.600 540.900 399.600 H 543.800 C 543.855 399.600 543.900 399.555 543.900 399.500 V 393.500 C 543.900 393.445 543.855 393.400 543.800 393.400 H 540.900 C 540.800 393.400 540.900 393.500 540.900 393.400 V 385.500 C 540.900 385.445 540.855 385.400 540.800 385.400 H 280.800 C 280.745 385.400 280.700 385.445 280.700 385.500 V 393.400 C 280.700 393.500 280.800 393.400 280.700 393.400 H 277.800 C 277.745 393.400 277.700 393.445 277.700 393.500 V 399.500 C 277.700 399.555 277.745 399.600 277.800 399.600 H 280.700 C 280.800 399.600 280.700 399.500 280.700 399.600 V 405.400 C 280.700 405.500 280.800 405.400 280.700 405.400 H 277.800 C 277.745 405.400 277.700 405.445 277.700 405.500 V 411.500 C 277.700 411.555 277.745 411.600 277.800 411.600 H 280.700 C 280.800 411.600 280.700 411.500 280.700 411.600 V 417.400 C 280.700 417.500 280.800 417.400 280.700 417.400 H 277.800 C 277.745 417.400 277.700 417.445 277.700 417.500 V 423.500 C 277.700 423.555 277.745 423.600 277.800 423.600 H 280.700 C 280.800 423.600 280.700 423.500 280.700 423.600 V 429.400 C 280.700 429.500 280.800 429.400 280.700 429.400 H 277.800 C 277.745 429.400 277.700 429.445 277.700 429.500 V 435.500 C 277.700 435.555 277.745 435.600 277.800 435.600 H 280.700 C 280.800 435.600 280.700 435.500 280.700 435.600 V 441.400 C 280.700 441.500 280.800 441.400 280.700 441.400 H 277.800 C 277.745 441.400 277.700 441.445 277.700 441.500 V 447.500 C 277.700 447.555 277.745 447.600 277.800 447.600 H 280.700 C 280.800 447.600 280.700 447.500 280.700 447.600 V 453.400 C 280.700 453.500 280.800 453.400 280.700 453.400 H 277.800 C 277.745 453.400 277.700 453.445 277.700 453.500 V 459.500 C 277.700 459.555 277.745 459.600 277.800 459.600 H 280.700 C 280.800 459.600 280.700 459.500 280.700 459.600 V 465.400 C 280.700 465.500 280.800 465.400 280.700 465.400 H 277.800 C 277.745 465.400 277.700 465.445 277.700 465.500 V 471.500 C 277.700 471.555 277.745 471.600 277.800 471.600 H 280.700 C 280.800 471.600 280.700 471.500 280.700 471.600 V 477.400 C 280.700 477.500 280.800 477.400 280.700 477.400 H 277.800 C 277.745 477.400 277.700 477.445 277.700 477.500 V 483.500 C 277.700 483.555 277.745 483.600 277.800 483.600 H 280.700 C 280.800 483.600 280.700 483.500 280.700 483.600 V 491.500 C 280.700 491.555 280.745 491.600 280.800 491.600 Z" stroke="rgb(0,0,0)" stroke-width="0.20" />
</g>
<g id="p-5" style="fill:none;stroke-linecap:round;stroke-linejoin:round;">
  <path d="M 290.800 380.700 H 287.900 C 287.800 380.700 287.900 380.800 287.900 380.700 V 377.900 C 287.900 377.800 287.800 377.900 287.900 377.900 H 293.700 C 293.800 377.900 293.700 377.800 293.700 377.900 V 380.700 C 293.700 380.800 293.800 380.700 293.700 380.700 H 290.800 Z" stroke="rgb(0,0,255)" stroke-width="0.20" />
  <path d="M 302.800 380.700 H 299.900 C 299.800 380.700 299.900 380.800 299.900 380.700 V 377.900 C 299.900 377.800 299.800 377.900 299.900 377.900 H 305.700 C 305.800 377.900 305.700 377.800 305.700 377.900 V 380.700 C 305.700 380.800 305.800 380.700 305.700 380.700 H 302.800 Z" stroke="rgb(0,0,255)" stroke-width="0.20" />
  <path d="M 314.800 380.700 H 311.900 C 311.800 380.700 311.900 380.800 311.900 380.700 V 377.900 C 311.900 377.800 311.800 377.900 311.900 377.900 H 317.700 C 317.800 377.900 317.700 377.800 317.700 377.900 V 380.700 C 317.700 380.800 317.800 380.700 317.700 380.700 H 314.800 Z" stroke="rgb(0,0,255)" stroke-width="0.20" />
  <path d="M 326.800 380.700 H 323.900 C 323.800 380.700 323.900 380.800 323.900 380.700 V 377.900 C 323.900 377.800 323.800 377.900 323.900 377.900 H 329.700 C 329.800 377.900 329.700 377.800 329.700 377.900 V 380.700 C 329.700 380.800 329.800 380.700 329.700 380.700 H 326.800 Z" stroke="rgb(0,0,255)" stroke-width="0.20" />
  <path d="M 338.800 380.700 H 335.900 C 335.800 380.700 335.900 380.800 335.900 380.700 V 377.900 C 335.900 377.800 335.800 377.900 335.900 377.900 H 341.700 C 341.800 377.900 341.700 377.800 341.700 377.900 V 380.700 C 341.700 380.800 341.800 380.700 341.700 380.700 H 338.800 Z" stroke="rgb(0,0,255)" stroke-width="0.20" />
  <path d="M 350.800 380.700 H 347.900 C 347.800 380.700 347.900 380.800 347.900 380.700 V 377.900 C 347.900 377.800 347.800 377.900 347.900 377.900 H 353.700 C 353.800 377.900 353.700 377.800 353.700 377.900 V 380.700 C 353.700 380.800 353.800 380.700 353.700 380.700 H 350.800 Z" stroke="rgb(0,0,255)" stroke-width="0.20" />
  <path d="M 362.800 380.700 H 359.900 C 359.800 380.700 359.900 380.800 359.900 380.700 V 377.900 C 359.900 377.800 359.800 377.900 359.900 377.900 H 365.700 C 365.800 377.900 365.700 377.800 365.700 377.900 V 380.700 C 365.700 380.800 365.800 380.700 365.700 380.700 H 362.800 Z" stroke="rgb(0,0,255)" stroke-width="0.20" />
  <path d="M 374.800 380.700 H 371.900 C 371.800 380.700 371.900 380.800 371.900 380.700 V 377.900 C 371.900 377.800 371.800 377.900 371.900 377.900 H 377.700 C 377.800 377.900 377.700 377.800 377.700 377.900 V 380.700 C 377.700 380.800 377.800 380.700 377.700 380.700 H 374.800 Z" stroke="rgb(0,0,255)" stroke-width="0.20" />
  <path d="M 386.800 380.700 H 383.900 C 383.800 380.700 383.900 380.800 383.900 380.700 V 377.900 C 383.900 377.800 383.800 377.900 383.900 377.900 H 389.700 C 389.800 377.900 389.700 377.800 389.700 377.900 V 380.700 C 389.700 380.800 389.800 380.700 389.700 380.700 H 386.800 Z" stroke="rgb(0,0,255)" stroke-width="0.20" />
  <path d="M 398.800 380.700 H 395.900 C 395.800 380.700 395.900 380.800 395.900 380.700 V 377.900 C 395.900 377.800 395.800 377.900 395.900 377.900 H 401.700 C 401.800 377.900 401.700 377.800 401.700 377.900 V 380.700 C 401.700 380.800 401.800 380.700 401.700 380.700 H 398.800 Z" stroke="rgb(0,0,255)" stroke-width="0.20" />
  <path d="M 410.800 380.700 H 407.900 C 407.800 380.700 407.900 380.800 407.900 380.700 V 377.900 C 407.900 377.800 407.800 377.900 407.900 377.900 H 413.700 C 413.800 377.900 413.700 377.800 413.700 377.900 V 380.700 C 413.700 380.800 413.800 380.700 413.700 380.700 H 410.800 Z" stroke="rgb(0,0,255)" stroke-width="0.20" />
  <path d="M 422.800 380.700 H 419.900 C 419.800 380.700 419.900 380.800 419.900 380.700 V 377.900 C 419.900 377.800 419.800 377.900 419.900 377.900 H 425.700 C 425.800 377.900 425.700 377.800 425.700 377.900 V 380.700 C 425.700 380.800 425.800 380.700 425.700 380.700 H 422.800 Z" stroke="rgb(0,0,255)" stroke-width="0.20" />
  <path d="M 434.800 380.700 H 431.900 C 431.800 380.700 431.900 380.800 431.900 380.700 V 377.900 C 431.900 377.800 431.800 377.900 431.900 377.900 H 437.700 C 437.800 377.900 437.700 377.800 437.700 377.900 V 380.700 C 437.700 380.800 437.800 380.700 437.700 380.700 H 434.800 Z" stroke="rgb(0,0,255)" stroke-width="0.20" />
  <path d="M 446.800 380.700 H 443.900 C 443.800 380.700 443.900 380.800 443.900 380.700 V 377.900 C 443.900 377.800 443.800 377.900 443.900 377.900 H 449.700 C 449.800 377.900 449.700 377.800 449.700 377.900 V 380.700 C 449.700 380.800 449.800 380.700 449.700 380.700 H 446.800 Z" stroke="rgb(0,0,255)" stroke-width="0.20" />
  <path d="M 458.800 380.700 H 455.900 C 455.800 380.700 455.900 380.800 455.900 380.700 V 377.900 C 455.900 377.800 455.800 377.900 455.900 377.900 H 461.700 C 461.800 377.900 461.700 377.800 461.700 377.900 V 380.700 C 461.700 380.800 461.800 380.700 461.700 380.700 H 458.800 Z" stroke="rgb(0,0,255)" stroke-width="0.20" />
  <path d="M 470.800 380.700 H 467.900 C 467.800 380.700 467.900 380.800 467.900 380.700 V 377.900 C 467.900 377.800 467.800 377.900 467.900 377.900 H 473.700 C 473.800 377.900 473.700 377.800 473.700 377.900 V 380.700 C 473.700 380.800 473.800 380.700 473.700 380.700 H 470.800 Z" stroke="rgb(0,0,255)" stroke-width="0.20" />
  <path d="M 482.800 380.700 H 479.900 C 479.800 380.700 479.900 380.800 479.900 380.700 V 377.900 C 479.900 377.800 479.800 377.900 479.900 377.900 H 485.700 C 485.800 377.900 485.700 377.800 485.700 377.900 V 380.700 C 485.700 380.800 485.800 380.700 485.700 380.700 H 482.800 Z" stroke="rgb(0,0,255)" stroke-width="0.20" />
  <path d="M 494.800 380.700 H 491.900 C 491.800 380.700 491.900 380.800 491.900 380.700 V 377.900 C 491.900 377.800 491.800 377.900 491.900 377.900 H 497.700 C 497.800 377.900 497.700 377.800 497.700 377.900 V 380.700 C 497.700 380.800 497.800 380.700 497.700 380.700 H 494.800 Z" stroke="rgb(0,0,255)" stroke-width="0.20" />
  <path d="M 506.800 380.700 H 503.900 C 503.800 380.700 503.900 380.800 503.900 380.700 V 377.900 C 503.900 377.800 503.800 377.900 503.900 377.900 H 509.700 C 509.800 377.900 509.700 377.800 509.700 377.900 V 380.700 C 509.700 380.800 509.800 380.700 509.700 380.700 H 506.800 Z" stroke="rgb(0,0,255)" stroke-width="0.20" />
  <path d="M 518.800 380.700 H 515.900 C 515.800 380.700 515.900 380.800 515.900 380.700 V 377.900 C 515.900 377.800 515.800 377.900 515.900 377.900 H 521.700 C 521.800 377.900 521.700 377.800 521.700 377.900 V 380.700 C 521.700 380.800 521.800 380.700 521.700 380.700 H 518.800 Z" stroke="rgb(0,0,255)" stroke-width="0.20" />
  <path d="M 530.800 380.700 H 527.900 C 527.800 380.700 527.900 380.800 527.900 380.700 V 377.900 C 527.900 377.800 527.800 377.900 527.900 377.900 H 533.700 C 533.800 377.900 533.700 377.800 533.700 377.900 V 380.700 C 533.700 380.800 533.800 380.700 533.700 380.700 H 530.800 Z" stroke="rgb(0,0,255)" stroke-width="0.20" />
  <path d="M 280.800 383.900 H 540.800 C 540.855 383.900 540.900 383.855 540.900 383.800 V 375.900 C 540.900 375.800 540.800 375.900 540.900 375.900 H 543.800 C 543.855 375.900 543.900 375.855 543.900 375.800 V 369.800 C 543.900 369.745 543.855 369.700 543.800 369.700 H 540.900 C 540.800 369.700 540.900 369.800 540.900 369.700 V 363.900 C 540.900 363.800 540.800 363.900 540.900 363.900 H 543.800 C 543.855 363.900 543.900 363.855 543.900 363.800 V 357.800 C 543.900 357.745 543.855 357.700 543.800 357.700 H 540.900 C 540.800 357.700 540.900 357.800 540.900 357.700 V 351.900 C 540.900 351.800 540.800 351.900 540.900 351.900 H 543.800 C 543.855 351.900 543.900 351.855 543.900 351.800 V 345.800 C 543.900 345.745 543.855 345.700 543.800 345.700 H 540.900 C 540.800 345.700 540.900 345.800 540.900 345.700 V 339.900 C 540.900 339.800 540.800 339.900 540.900 339.900 H 543.800 C 543.855 339.900 543.900 339.855 543.900 339.800 V 333.800 C 543.900 333.745 543.855 333.700 543.800 333.700 H 540.900 C 540.800 333.700 540.900 333.800 540.900 333.700 V 327.900 C 540.900 327.800 540.800 327.900 540.900 327.900 H 543.800 C 543.855 327.900 543.900 327.855 543.900 327.800 V 321.800 C 543.900 321.745 543.855 321.700 543.800 321.700 H 540.900 C 540.800 321.700 540.900 321.800 540.900 321.700 V 315.900 C 540.900 315.800 540.800 315.900 540.900 315.900 H 543.800 C 543.855 315.900 543.900 315.855 543.900 315.800 V 309.800 C 543.900 309.745 543.855 309.700 543.800 309.700 H 540.900 C 540.800 309.700 540.900 309.800 540.900 309.700 V 303.900 C 540.900 303.800 540.800 303.900 540.900 303.900 H 543.800 C 543.855 303.900 543.900 303.855 543.900 303.800 V 297.800 C 543.900 297.745 543.855 297.700 543.800 297.700 H 540.900 C 540.800 297.700 540.900 297.800 540.900 297.700 V 291.900 C 540.900 291.800 540.800 291.900 540.900 291.900 H 543.800 C 543.855 291.900 543.900 291.855 543.900 291.800 V 285.800 C 543.900 285.745 543.855 285.700 543.800 285.700 H 540.900 C 540.800 285.700 540.900 285.800 540.900 285.700 V 277.800 C 540.900 277.745 540.855 277.700 540.800 277.700 H 280.800 C 280.745 277.700 280.700 277.745 280.700 277.800 V 285.700 C 280.700 285.800 280.800 285.700 280.700 285.700 H 277.800 C 277.745 285.700 277.700 285.745 277.700 285.800 V 291.800 C 277.700 291.855 277.745 291.900 277.800 291.900 H 280.700 C 280.800 291.900 280.700 291.800 280.700 291.900 V 297.700 C 280.700 297.800 280.800 297.700 280.700 297.700 H 277.800 C 277.745 297.700 277.700 297.745 277.700 297.800 V 303.800 C 277.700 303.855 277.745 303.900 277.800 303.900 H 280.700 C 280.800 303.900 280.700 303.800 280.700 303.900 V 309.700 C 280.700 309.800 280.800 309.700 280.700 309.700 H 277.800 C 277.745 309.700 277.700 309.745 277.700 309.800 V 315.800 C 277.700 315.855 277.745 315.900 277.800 315.900 H 280.700 C 280.800 315.900 280.700 315.800 280.700 315.900 V 321.700 C 280.700 321.800 280.800 321.700 280.700 321.700 H 277.800 C 277.745 321.700 277.700 321.745 277.700 321.800 V 327.800 C 277.700 327.855 277.745 327.900 277.800 327.900 H 280.700 C 280.800 327.900 280.700 327.800 280.700 327.900 V 333.700 C 280.700 333.800 280.800 333.700 280.700 333.700 H 277.800 C 277.745 333.700 277.700 333.745 277.700 333.800 V 339.800 C 277.700 339.855 277.745 339.900 277.800 339.900 H 280.700 C 280.800 339.900 280.700 339.800 280.700 339.900 V 345.700 C 280.700 345.800 280.800 345.700 280.700 345.700 H 277.800 C 277.745 345.700 277.700 345.745 277.700 345.800 V 351.800 C 277.700 351.855 277.745 351.900 277.800 351.900 H 280.700 C 280.800 351.900 280.700 351.800 280.700 351.900 V 357.700 C 280.700 357.800 280.800 357.700 280.700 357.700 H 277.800 C 277.745 357.700 277.700 357.745 277.700 357.800 V 363.800 C 277.700 363.855 277.745 363.900 277.800 363.900 H 280.700 C 280.800 363.900 280.700 363.800 280.700 363.900 V 369.700 C 280.700 369.800 280.800 369.700 280.700 369.700 H 277.800 C 277.745 369.700 277.700 369.745 277.700 369.800 V 375.800 C 277.700 375.855 277.745 375.900 277.800 375.900 H 280.700 C 280.800 375.900 280.700 375.800 280.700 375.900 V 383.800 C 280.700 383.855 280.745 383.900 280.800 383.900 Z" stroke="rgb(0,0,0)" stroke-width="0.20" />
</g>
</svg>