<?xml version="1.0"?>
<!DOCTYPE svg PUBLIC "-//W3C//DTD SVG 1.1//EN" "http://www.w3.org/Graphics/SVG/1.1/DTD/svg11.dtd">
<svg width="281.724mm" height="281.72400000000005mm" viewBox="0 0 281.724 281.72400000000005" xmlns="http://www.w3.org/2000/svg" version="1.1">
<g id="Part__Part2DObjectPython001" transform="translate(2.662000,2.662000) scale(1,-1)">
<path id="Part__Part2DObjectPython001_w0000"  d="M 20.0 -42.0 L 20.0 -30.0 L 80.0 -30.0 L 80.0 -42.0 L 20.0 -42.0 " stroke="#000000" stroke-width="0.7 px" style="stroke-width:0.7;stroke-miterlimit:4;stroke-dasharray:none;stroke-linecap:square;fill:none;fill-opacity:1;fill-rule: evenodd"/>
<path id="Part__Part2DObjectPython001_w0001"  d="M 20.0 -80.8 L 20.0 -92.8 L 80.00000000000004 -92.8 L 80.00000000000004 -80.8 L 20.0 -80.8 " stroke="#000000" stroke-width="0.7 px" style="stroke-width:0.7;stroke-miterlimit:4;stroke-dasharray:none;stroke-linecap:square;fill:none;fill-opacity:1;fill-rule: evenodd"/>
<path id="Part__Part2DObjectPython001_w0002"  d="M 20.0 -151.6 L 20.0 -163.6 L 80.00000000000009 -163.6 L 80.00000000000009 -151.6 L 20.0 -151.6 " stroke="#000000" stroke-width="0.7 px" style="stroke-width:0.7;stroke-miterlimit:4;stroke-dasharray:none;stroke-linecap:square;fill:none;fill-opacity:1;fill-rule: evenodd"/>
<path id="Part__Part2DObjectPython001_w0003"  d="M 20.0 -202.4 L 20.0 -214.4 L 80.00000000000014 -214.4 L 80.00000000000014 -202.4 L 20.0 -202.4 " stroke="#000000" stroke-width="0.7 px" style="stroke-width:0.7;stroke-miterlimit:4;stroke-dasharray:none;stroke-linecap:square;fill:none;fill-opacity:1;fill-rule: evenodd"/>
<title>b'Part__Part2DObjectPython001'</title>
</g>
<g id="path4" transform="translate(2.662000,2.662000) scale(1,-1)">
<path id="path4_w0000"  d="M 3.2 -273.30000000000007 L 9.100000000000001 -273.3 L 9.100000000000001 -276.2 C 9.100000000000001 -276.255 9.145000000000003 -276.3 9.200000000000003 -276.3 L 15.200000000000003 -276.3 C 15.255000000000003 -276.3 15.300000000000004 -276.255 15.300000000000004 -276.2 L 15.300000000000004 -273.3 L 21.099999999999998 -273.3 L 21.099999999999998 -276.2 C 21.099999999999998 -276.255 21.145 -276.3 21.2 -276.3 L 27.2 -276.3 C 27.255 -276.3 27.3 -276.255 27.3 -276.2 L 27.3 -273.3 L 33.1 -273.3 L 33.1 -276.2 C 33.1 -276.255 33.145 -276.3 33.2 -276.3 L 39.2 -276.3 C 39.255 -276.3 39.300000000000004 -276.255 39.300000000000004 -276.2 L 39.300000000000004 -273.3 L 45.1 -273.3 L 45.1 -276.2 C 45.1 -276.255 45.145 -276.3 45.2 -276.3 L 51.2 -276.3 C 51.255 -276.3 51.300000000000004 -276.255 51.300000000000004 -276.2 L 51.300000000000004 -273.3 L 57.1 -273.3 L 57.1 -276.2 C 57.1 -276.255 57.145 -276.3 57.199999999999996 -276.3 L 63.199999999999996 -276.3 C 63.255 -276.3 63.29999999999999 -276.255 63.29999999999999 -276.2 L 63.29999999999999 -273.3 L 69.10000000000001 -273.3 L 69.10000000000001 -276.2 C 69.10000000000001 -276.255 69.14500000000001 -276.3 69.2 -276.3 L 75.2 -276.3 C 75.25500000000001 -276.3 75.3 -276.255 75.3 -276.2 L 75.3 -273.3 L 81.10000000000001 -273.3 L 81.10000000000001 -276.2 C 81.10000000000001 -276.255 81.14500000000001 -276.3 81.2 -276.3 L 87.2 -276.3 C 87.25500000000001 -276.3 87.3 -276.255 87.3 -276.2 L 87.3 -273.3 L 93.1 -273.3 L 93.1 -276.2 C 93.1 -276.255 93.145 -276.3 93.19999999999999 -276.3 L 99.19999999999999 -276.3 C 99.255 -276.3 99.29999999999998 -276.255 99.29999999999998 -276.2 L 99.29999999999998 -273.3 L 105.09999999999998 -273.3 L 105.09999999999998 -276.2 C 105.09999999999998 -276.255 105.14499999999998 -276.3 105.19999999999997 -276.3 L 111.19999999999997 -276.3 C 111.25499999999998 -276.3 111.29999999999997 -276.255 111.29999999999997 -276.2 L 111.29999999999997 -273.3 L 117.09999999999997 -273.3 L 117.09999999999997 -276.2 C 117.09999999999997 -276.255 117.14499999999997 -276.3 117.19999999999996 -276.3 L 123.19999999999997 -276.3 C 123.25499999999998 -276.3 123.29999999999997 -276.255 123.29999999999997 -276.2 L 123.29999999999997 -273.3 L 129.09999999999997 -273.3 L 129.09999999999997 -276.2 C 129.09999999999997 -276.255 129.14499999999995 -276.3 129.19999999999996 -276.3 L 135.19999999999996 -276.3 C 135.25499999999997 -276.3 135.29999999999995 -276.255 135.29999999999995 -276.2 L 135.29999999999995 -273.3 L 141.09999999999997 -273.3 L 141.09999999999997 -276.2 C 141.09999999999997 -276.255 141.14499999999995 -276.3 141.19999999999996 -276.3 L 147.19999999999996 -276.3 C 147.25499999999997 -276.3 147.29999999999995 -276.255 147.29999999999995 -276.2 L 147.29999999999995 -273.3 L 153.09999999999997 -273.3 L 153.09999999999997 -276.2 C 153.09999999999997 -276.255 153.14499999999995 -276.3 153.19999999999996 -276.3 L 159.19999999999996 -276.3 C 159.25499999999997 -276.3 159.29999999999995 -276.255 159.29999999999995 -276.2 L 159.29999999999995 -273.3 L 165.09999999999997 -273.3 L 165.09999999999997 -276.2 C 165.09999999999997 -276.255 165.14499999999995 -276.3 165.19999999999996 -276.3 L 171.19999999999996 -276.3 C 171.25499999999997 -276.3 171.29999999999995 -276.255 171.29999999999995 -276.2 L 171.29999999999995 -273.3 L 177.09999999999997 -273.3 L 177.09999999999997 -276.2 C 177.09999999999997 -276.255 177.14499999999995 -276.3 177.19999999999996 -276.3 L 183.19999999999996 -276.3 C 183.25499999999997 -276.3 183.29999999999995 -276.255 183.29999999999995 -276.2 L 183.29999999999995 -273.3 L 189.09999999999997 -273.3 L 189.09999999999997 -276.2 C 189.09999999999997 -276.255 189.14499999999995 -276.3 189.19999999999996 -276.3 L 195.19999999999996 -276.3 C 195.25499999999997 -276.3 195.29999999999995 -276.255 195.29999999999995 -276.2 L 195.29999999999995 -273.3 L 201.09999999999997 -273.3 L 201.09999999999997 -276.2 C 201.09999999999997 -276.255 201.14499999999995 -276.3 201.19999999999996 -276.3 L 207.19999999999996 -276.3 C 207.25499999999997 -276.3 207.29999999999995 -276.255 207.29999999999995 -276.2 L 207.29999999999995 -273.3 L 213.09999999999997 -273.3 L 213.09999999999997 -276.2 C 213.09999999999997 -276.255 213.14499999999995 -276.3 213.19999999999996 -276.3 L 219.19999999999996 -276.3 C 219.25499999999997 -276.3 219.29999999999995 -276.255 219.29999999999995 -276.2 L 219.29999999999995 -273.3 L 225.09999999999997 -273.3 L 225.09999999999997 -276.2 C 225.09999999999997 -276.255 225.14499999999995 -276.3 225.19999999999996 -276.3 L 231.19999999999996 -276.3 C 231.25499999999997 -276.3 231.29999999999995 -276.255 231.29999999999995 -276.2 L 231.29999999999995 -273.3 L 237.09999999999997 -273.3 L 237.09999999999997 -276.2 C 237.09999999999997 -276.255 237.14499999999995 -276.3 237.19999999999996 -276.3 L 243.19999999999996 -276.3 C 243.25499999999997 -276.3 243.29999999999995 -276.255 243.29999999999995 -276.2 L 243.29999999999995 -273.3 L 249.09999999999994 -273.3 L 249.09999999999994 -276.2 C 249.09999999999994 -276.255 249.14499999999995 -276.3 249.19999999999996 -276.3 L 255.19999999999996 -276.3 C 255.25499999999997 -276.3 255.29999999999998 -276.255 255.29999999999998 -276.2 L 255.29999999999998 -273.3 L 261.09999999999997 -273.3 L 261.09999999999997 -276.2 C 261.09999999999997 -276.255 261.145 -276.3 261.2 -276.3 L 267.2 -276.3 C 267.255 -276.3 267.3 -276.255 267.3 -276.2 L 267.3 -273.3 L 273.2 -273.3 C 273.255 -273.3 273.3 -273.255 273.3 -273.2 L 273.3 -267.3 L 276.2 -267.3 C 276.255 -267.3 276.3 -267.255 276.3 -267.2 L 276.3 -261.2 C 276.3 -261.145 276.255 -261.09999999999997 276.2 -261.09999999999997 L 273.3 -261.09999999999997 L 273.3 -255.29999999999993 L 276.2 -255.29999999999993 C 276.255 -255.29999999999993 276.3 -255.2549999999999 276.3 -255.1999999999999 L 276.3 -249.1999999999999 C 276.3 -249.1449999999999 276.255 -249.09999999999988 276.2 -249.09999999999988 L 273.3 -249.09999999999988 L 273.3 -243.29999999999987 L 276.2 -243.29999999999987 C 276.255 -243.29999999999987 276.3 -243.25499999999988 276.3 -243.19999999999987 L 276.3 -237.19999999999987 C 276.3 -237.14499999999987 276.255 -237.09999999999988 276.2 -237.09999999999988 L 273.3 -237.09999999999988 L 273.3 -231.29999999999987 L 276.2 -231.29999999999987 C 276.255 -231.29999999999987 276.3 -231.25499999999988 276.3 -231.19999999999987 L 276.3 -225.19999999999987 C 276.3 -225.14499999999987 276.255 -225.09999999999988 276.2 -225.09999999999988 L 273.3 -225.09999999999988 L 273.3 -219.29999999999987 L 276.2 -219.29999999999987 C 276.255 -219.29999999999987 276.3 -219.25499999999988 276.3 -219.19999999999987 L 276.3 -213.19999999999987 C 276.3 -213.14499999999987 276.255 -213.09999999999988 276.2 -213.09999999999988 L 273.3 -213.09999999999988 L 273.3 -207.29999999999987 L 276.2 -207.29999999999987 C 276.255 -207.29999999999987 276.3 -207.25499999999988 276.3 -207.19999999999987 L 276.3 -201.19999999999987 C 276.3 -201.14499999999987 276.255 -201.09999999999988 276.2 -201.09999999999988 L 273.3 -201.09999999999988 L 273.3 -195.29999999999987 L 276.2 -195.29999999999987 C 276.255 -195.29999999999987 276.3 -195.25499999999988 276.3 -195.19999999999987 L 276.3 -189.19999999999987 C 276.3 -189.14499999999987 276.255 -189.09999999999988 276.2 -189.09999999999988 L 273.3 -189.09999999999988 L 273.3 -183.29999999999987 L 276.2 -183.29999999999987 C 276.255 -183.29999999999987 276.3 -183.25499999999988 276.3 -183.19999999999987 L 276.3 -177.19999999999987 C 276.3 -177.14499999999987 276.255 -177.09999999999988 276.2 -177.09999999999988 L 273.3 -177.09999999999988 L 273.3 -171.29999999999987 L 276.2 -171.29999999999987 C 276.255 -171.29999999999987 276.3 -171.25499999999988 276.3 -171.19999999999987 L 276.3 -165.19999999999987 C 276.3 -165.14499999999987 276.255 -165.09999999999988 276.2 -165.09999999999988 L 273.3 -165.09999999999988 L 273.3 -159.29999999999987 L 276.2 -159.29999999999987 C 276.255 -159.29999999999987 276.3 -159.25499999999988 276.3 -159.19999999999987 L 276.3 -153.19999999999987 C 276.3 -153.14499999999987 276.255 -153.09999999999988 276.2 -153.09999999999988 L 273.3 -153.09999999999988 L 273.3 -147.29999999999987 L 276.2 -147.29999999999987 C 276.255 -147.29999999999987 276.3 -147.25499999999988 276.3 -147.19999999999987 L 276.3 -141.19999999999987 C 276.3 -141.14499999999987 276.255 -141.09999999999988 276.2 -141.09999999999988 L 273.3 -141.09999999999988 L 273.3 -135.29999999999987 L 276.2 -135.29999999999987 C 276.255 -135.29999999999987 276.3 -135.25499999999988 276.3 -135.19999999999987 L 276.3 -129.19999999999987 C 276.3 -129.14499999999987 276.255 -129.09999999999988 276.2 -129.09999999999988 L 273.3 -129.09999999999988 L 273.3 -123.29999999999987 L 276.2 -123.29999999999987 C 276.255 -123.29999999999987 276.3 -123.25499999999988 276.3 -123.19999999999987 L 276.3 -117.19999999999987 C 276.3 -117.14499999999987 276.255 -117.09999999999988 276.2 -117.09999999999988 L 273.3 -117.09999999999988 L 273.3 -111.2999999999999 L 276.2 -111.2999999999999 C 276.255 -111.2999999999999 276.3 -111.25499999999988 276.3 -111.1999999999999 L 276.3 -105.1999999999999 C 276.3 -105.1449999999999 276.255 -105.09999999999991 276.2 -105.09999999999991 L 273.3 -105.09999999999991 L 273.3 -99.2999999999999 L 276.2 -99.2999999999999 C 276.255 -99.2999999999999 276.3 -99.25499999999991 276.3 -99.1999999999999 L 276.3 -93.1999999999999 C 276.3 -93.1449999999999 276.255 -93.09999999999991 276.2 -93.09999999999991 L 273.3 -93.09999999999991 L 273.3 -87.29999999999993 L 276.2 -87.29999999999993 C 276.255 -87.29999999999993 276.3 -87.25499999999991 276.3 -87.19999999999993 L 276.3 -81.19999999999993 C 276.3 -81.14499999999992 276.255 -81.09999999999994 276.2 -81.09999999999994 L 273.3 -81.09999999999994 L 273.3 -75.29999999999993 L 276.2 -75.29999999999993 C 276.255 -75.29999999999993 276.3 -75.25499999999994 276.3 -75.19999999999993 L 276.3 -69.19999999999993 C 276.3 -69.14499999999992 276.255 -69.09999999999994 276.2 -69.09999999999994 L 273.3 -69.09999999999994 L 273.3 -63.29999999999995 L 276.2 -63.29999999999995 C 276.255 -63.29999999999995 276.3 -63.254999999999946 276.3 -63.19999999999995 L 276.3 -57.19999999999995 C 276.3 -57.144999999999946 276.255 -57.09999999999996 276.2 -57.09999999999996 L 273.3 -57.09999999999996 L 273.3 -51.29999999999996 L 276.2 -51.29999999999996 C 276.255 -51.29999999999996 276.3 -51.25499999999996 276.3 -51.19999999999996 L 276.3 -45.19999999999996 C 276.3 -45.14499999999996 276.255 -45.09999999999996 276.2 -45.09999999999996 L 273.3 -45.09999999999996 L 273.3 -39.29999999999996 L 276.2 -39.29999999999996 C 276.255 -39.29999999999996 276.3 -39.25499999999996 276.3 -39.19999999999996 L 276.3 -33.19999999999996 C 276.3 -33.14499999999996 276.255 -33.09999999999996 276.2 -33.09999999999996 L 273.3 -33.09999999999996 L 273.3 -27.29999999999996 L 276.2 -27.29999999999996 C 276.255 -27.29999999999996 276.3 -27.25499999999996 276.3 -27.19999999999996 L 276.3 -21.19999999999996 C 276.3 -21.14499999999996 276.255 -21.09999999999996 276.2 -21.09999999999996 L 273.3 -21.09999999999996 L 273.3 -15.299999999999962 L 276.2 -15.299999999999962 C 276.255 -15.299999999999962 276.3 -15.25499999999996 276.3 -15.199999999999953 L 276.3 -9.199999999999953 C 276.3 -9.14499999999996 276.255 -9.099999999999959 276.2 -9.099999999999959 L 273.3 -9.099999999999959 L 273.3 -3.199999999999953 C 273.3 -3.1449999999999534 273.255 -3.099999999999959 273.2 -3.099999999999959 L 267.3 -3.099999999999959 L 267.3 -0.1999999999999531 C 267.3 -0.1449999999999534 267.255 -0.09999999999995879 267.2 -0.09999999999995879 L 261.2 -0.09999999999995879 C 261.145 -0.09999999999995879 261.09999999999997 -0.1449999999999534 261.09999999999997 -0.1999999999999531 L 261.09999999999997 -3.1000000000000014 L 255.29999999999998 -3.1000000000000014 L 255.29999999999998 -0.20000000000000284 C 255.29999999999998 -0.14500000000000313 255.25499999999997 -0.10000000000000142 255.19999999999996 -0.10000000000000142 L 249.19999999999996 -0.10000000000000142 C 249.14499999999995 -0.10000000000000142 249.09999999999994 -0.14500000000000313 249.09999999999994 -0.20000000000000284 L 249.09999999999994 -3.1000000000000014 L 243.29999999999993 -3.1000000000000014 L 243.29999999999993 -0.20000000000000284 C 243.29999999999993 -0.14500000000000313 243.25499999999994 -0.10000000000000142 243.19999999999993 -0.10000000000000142 L 237.19999999999993 -0.10000000000000142 C 237.14499999999992 -0.10000000000000142 237.09999999999994 -0.14500000000000313 237.09999999999994 -0.20000000000000284 L 237.09999999999994 -3.1000000000000014 L 231.29999999999993 -3.1000000000000014 L 231.29999999999993 -0.20000000000000284 C 231.29999999999993 -0.14500000000000313 231.25499999999994 -0.10000000000000142 231.19999999999993 -0.10000000000000142 L 225.19999999999993 -0.10000000000000142 C 225.14499999999992 -0.10000000000000142 225.09999999999994 -0.14500000000000313 225.09999999999994 -0.20000000000000284 L 225.09999999999994 -3.1000000000000014 L 219.29999999999993 -3.1000000000000014 L 219.29999999999993 -0.20000000000000284 C 219.29999999999993 -0.14500000000000313 219.25499999999994 -0.10000000000000142 219.19999999999993 -0.10000000000000142 L 213.19999999999993 -0.10000000000000142 C 213.14499999999992 -0.10000000000000142 213.09999999999994 -0.14500000000000313 213.09999999999994 -0.20000000000000284 L 213.09999999999994 -3.1000000000000014 L 207.29999999999993 -3.1000000000000014 L 207.29999999999993 -0.20000000000000284 C 207.29999999999993 -0.14500000000000313 207.25499999999994 -0.10000000000000142 207.19999999999993 -0.10000000000000142 L 201.19999999999993 -0.10000000000000142 C 201.14499999999992 -0.10000000000000142 201.09999999999994 -0.14500000000000313 201.09999999999994 -0.20000000000000284 L 201.09999999999994 -3.1000000000000014 L 195.29999999999993 -3.1000000000000014 L 195.29999999999993 -0.20000000000000284 C 195.29999999999993 -0.14500000000000313 195.25499999999994 -0.10000000000000142 195.19999999999993 -0.10000000000000142 L 189.19999999999993 -0.10000000000000142 C 189.14499999999992 -0.10000000000000142 189.09999999999994 -0.14500000000000313 189.09999999999994 -0.20000000000000284 L 189.09999999999994 -3.1000000000000014 L 183.29999999999993 -3.1000000000000014 L 183.29999999999993 -0.20000000000000284 C 183.29999999999993 -0.14500000000000313 183.25499999999994 -0.10000000000000142 183.19999999999993 -0.10000000000000142 L 177.19999999999993 -0.10000000000000142 C 177.14499999999992 -0.10000000000000142 177.09999999999994 -0.14500000000000313 177.09999999999994 -0.20000000000000284 L 177.09999999999994 -3.1000000000000014 L 171.29999999999993 -3.1000000000000014 L 171.29999999999993 -0.20000000000000284 C 171.29999999999993 -0.14500000000000313 171.25499999999994 -0.10000000000000142 171.19999999999993 -0.10000000000000142 L 165.19999999999993 -0.10000000000000142 C 165.14499999999992 -0.10000000000000142 165.09999999999994 -0.14500000000000313 165.09999999999994 -0.20000000000000284 L 165.09999999999994 -3.1000000000000014 L 159.29999999999993 -3.1000000000000014 L 159.29999999999993 -0.20000000000000284 C 159.29999999999993 -0.14500000000000313 159.25499999999994 -0.10000000000000142 159.19999999999993 -0.10000000000000142 L 153.19999999999993 -0.10000000000000142 C 153.14499999999992 -0.10000000000000142 153.09999999999994 -0.14500000000000313 153.09999999999994 -0.20000000000000284 L 153.09999999999994 -3.1000000000000014 L 147.29999999999993 -3.1000000000000014 L 147.29999999999993 -0.20000000000000284 C 147.29999999999993 -0.14500000000000313 147.25499999999994 -0.10000000000000142 147.19999999999993 -0.10000000000000142 L 141.19999999999993 -0.10000000000000142 C 141.14499999999992 -0.10000000000000142 141.09999999999994 -0.14500000000000313 141.09999999999994 -0.20000000000000284 L 141.09999999999994 -3.1000000000000014 L 135.29999999999993 -3.1000000000000014 L 135.29999999999993 -0.20000000000000284 C 135.29999999999993 -0.14500000000000313 135.25499999999994 -0.10000000000000142 135.19999999999993 -0.10000000000000142 L 129.19999999999993 -0.10000000000000142 C 129.14499999999992 -0.10000000000000142 129.09999999999994 -0.14500000000000313 129.09999999999994 -0.20000000000000284 L 129.09999999999994 -3.1000000000000014 L 123.29999999999994 -3.1000000000000014 L 123.29999999999994 -0.20000000000000284 C 123.29999999999994 -0.14500000000000313 123.25499999999995 -0.10000000000000142 123.19999999999995 -0.10000000000000142 L 117.19999999999995 -0.10000000000000142 C 117.14499999999994 -0.10000000000000142 117.09999999999995 -0.14500000000000313 117.09999999999995 -0.20000000000000284 L 117.09999999999995 -3.1000000000000014 L 111.29999999999995 -3.1000000000000014 L 111.29999999999995 -0.20000000000000284 C 111.29999999999995 -0.14500000000000313 111.25499999999995 -0.10000000000000142 111.19999999999996 -0.10000000000000142 L 105.19999999999996 -0.10000000000000142 C 105.14499999999995 -0.10000000000000142 105.09999999999997 -0.14500000000000313 105.09999999999997 -0.20000000000000284 L 105.09999999999997 -3.1000000000000014 L 99.29999999999997 -3.1000000000000014 L 99.29999999999997 -0.20000000000000284 C 99.29999999999997 -0.14500000000000313 99.25499999999997 -0.10000000000000142 99.19999999999997 -0.10000000000000142 L 93.19999999999997 -0.10000000000000142 C 93.14499999999997 -0.10000000000000142 93.09999999999998 -0.14500000000000313 93.09999999999998 -0.20000000000000284 L 93.09999999999998 -3.1000000000000014 L 87.29999999999998 -3.1000000000000014 L 87.29999999999998 -0.20000000000000284 C 87.30000000000001 -0.14500000000000313 87.25500000000001 -0.10000000000000142 87.2 -0.10000000000000142 L 81.2 -0.10000000000000142 C 81.14500000000001 -0.10000000000000142 81.10000000000001 -0.14500000000000313 81.10000000000001 -0.20000000000000284 L 81.10000000000001 -3.1000000000000014 L 75.30000000000001 -3.1000000000000014 L 75.30000000000001 -0.20000000000000284 C 75.30000000000001 -0.14500000000000313 75.25500000000001 -0.10000000000000142 75.2 -0.10000000000000142 L 69.2 -0.10000000000000142 C 69.14500000000001 -0.10000000000000142 69.10000000000001 -0.14500000000000313 69.10000000000001 -0.20000000000000284 L 69.10000000000001 -3.1000000000000014 L 63.300000000000004 -3.1000000000000014 L 63.300000000000004 -0.20000000000000284 C 63.300000000000004 -0.14500000000000313 63.255 -0.10000000000000142 63.199999999999996 -0.10000000000000142 L 57.199999999999996 -0.10000000000000142 C 57.145 -0.10000000000000142 57.1 -0.14500000000000313 57.1 -0.20000000000000284 L 57.1 -3.1000000000000014 L 51.300000000000004 -3.1000000000000014 L 51.300000000000004 -0.20000000000000284 C 51.300000000000004 -0.14500000000000313 51.255 -0.10000000000000142 51.2 -0.10000000000000142 L 45.2 -0.10000000000000142 C 45.145 -0.10000000000000142 45.1 -0.14500000000000313 45.1 -0.20000000000000284 L 45.1 -3.1000000000000014 L 39.300000000000004 -3.1000000000000014 L 39.300000000000004 -0.20000000000000284 C 39.300000000000004 -0.14500000000000313 39.255 -0.10000000000000142 39.2 -0.10000000000000142 L 33.2 -0.10000000000000142 C 33.145 -0.10000000000000142 33.1 -0.14500000000000313 33.1 -0.20000000000000284 L 33.1 -3.1000000000000014 L 27.3 -3.1000000000000014 L 27.3 -0.20000000000000284 C 27.3 -0.14500000000000313 27.255 -0.10000000000000142 27.2 -0.10000000000000142 L 21.2 -0.10000000000000142 C 21.145 -0.10000000000000142 21.099999999999998 -0.14500000000000313 21.099999999999998 -0.20000000000000284 L 21.099999999999998 -3.1000000000000014 L 15.3 -3.1000000000000014 L 15.3 -0.20000000000000284 C 15.3 -0.14500000000000313 15.255000000000003 -0.10000000000000142 15.200000000000003 -0.10000000000000142 L 9.200000000000003 -0.10000000000000142 C 9.145000000000003 -0.10000000000000142 9.100000000000001 -0.14500000000000313 9.100000000000001 -0.20000000000000284 L 9.100000000000001 -3.1000000000000014 L 3.2 -3.1000000000000014 C 3.1450000000000005 -3.1000000000000014 3.1000000000000005 -3.145000000000003 3.1000000000000005 -3.200000000000003 L 3.1000000000000005 -9.100000000000001 L 0.20000000000000018 -9.100000000000001 C 0.14500000000000046 -9.100000000000001 0.10000000000000053 -9.145000000000003 0.10000000000000053 -9.200000000000003 L 0.10000000000000053 -15.200000000000003 C 0.10000000000000053 -15.255000000000003 0.14500000000000046 -15.300000000000004 0.20000000000000018 -15.300000000000004 L 3.1000000000000005 -15.300000000000004 L 3.1000000000000005 -21.1 L 0.20000000000000018 -21.1 C 0.14500000000000046 -21.1 0.10000000000000053 -21.145000000000003 0.10000000000000053 -21.200000000000003 L 0.10000000000000053 -27.200000000000003 C 0.10000000000000053 -27.255000000000003 0.14500000000000046 -27.300000000000004 0.20000000000000018 -27.300000000000004 L 3.1000000000000005 -27.300000000000004 L 3.1000000000000005 -33.1 L 0.20000000000000018 -33.1 C 0.14500000000000046 -33.1 0.10000000000000053 -33.145 0.10000000000000053 -33.2 L 0.10000000000000053 -39.2 C 0.10000000000000053 -39.255 0.14500000000000046 -39.300000000000004 0.20000000000000018 -39.300000000000004 L 3.1000000000000005 -39.300000000000004 L 3.1000000000000005 -45.1 L 0.20000000000000018 -45.1 C 0.14500000000000046 -45.1 0.10000000000000053 -45.145 0.10000000000000053 -45.2 L 0.10000000000000053 -51.2 C 0.10000000000000053 -51.255 0.14500000000000046 -51.300000000000004 0.20000000000000018 -51.300000000000004 L 3.1000000000000005 -51.300000000000004 L 3.1000000000000005 -57.1 L 0.20000000000000018 -57.1 C 0.14500000000000046 -57.1 0.10000000000000053 -57.145 0.10000000000000053 -57.199999999999996 L 0.10000000000000053 -63.199999999999996 C 0.10000000000000053 -63.255 0.14500000000000046 -63.29999999999999 0.20000000000000018 -63.29999999999999 L 3.1000000000000005 -63.29999999999999 L 3.1000000000000005 -69.1 L 0.20000000000000018 -69.1 C 0.14500000000000046 -69.1 0.10000000000000053 -69.14500000000001 0.10000000000000053 -69.19999999999999 L 0.10000000000000053 -75.19999999999999 C 0.10000000000000053 -75.255 0.14500000000000046 -75.29999999999998 0.20000000000000018 -75.29999999999998 L 3.1000000000000005 -75.29999999999998 L 3.1000000000000005 -81.1 L 0.20000000000000018 -81.1 C 0.14500000000000046 -81.1 0.10000000000000053 -81.14500000000001 0.10000000000000053 -81.19999999999999 L 0.10000000000000053 -87.19999999999999 C 0.10000000000000053 -87.255 0.14500000000000046 -87.29999999999998 0.20000000000000018 -87.29999999999998 L 3.1000000000000005 -87.29999999999998 L 3.1000000000000005 -93.1 L 0.20000000000000018 -93.1 C 0.14500000000000046 -93.1 0.10000000000000053 -93.14499999999998 0.10000000000000053 -93.19999999999999 L 0.10000000000000053 -99.19999999999999 C 0.10000000000000053 -99.255 0.14500000000000046 -99.29999999999998 0.20000000000000018 -99.29999999999998 L 3.1000000000000005 -99.29999999999998 L 3.1000000000000005 -105.09999999999997 L 0.20000000000000018 -105.09999999999997 C 0.14500000000000046 -105.09999999999997 0.10000000000000053 -105.14499999999998 0.10000000000000053 -105.19999999999996 L 0.10000000000000053 -111.19999999999996 C 0.10000000000000053 -111.25499999999997 0.14500000000000046 -111.29999999999995 0.20000000000000018 -111.29999999999995 L 3.1000000000000005 -111.29999999999995 L 3.1000000000000005 -117.09999999999997 L 0.20000000000000018 -117.09999999999997 C 0.14500000000000046 -117.09999999999997 0.10000000000000053 -117.14499999999995 0.10000000000000053 -117.19999999999996 L 0.10000000000000053 -123.19999999999996 C 0.10000000000000053 -123.25499999999997 0.14500000000000046 -123.29999999999995 0.20000000000000018 -123.29999999999995 L 3.1000000000000005 -123.29999999999995 L 3.1000000000000005 -129.09999999999997 L 0.20000000000000018 -129.09999999999997 C 0.14500000000000046 -129.09999999999997 0.10000000000000053 -129.14499999999995 0.10000000000000053 -129.19999999999996 L 0.10000000000000053 -135.19999999999996 C 0.10000000000000053 -135.25499999999997 0.14500000000000046 -135.29999999999995 0.20000000000000018 -135.29999999999995 L 3.1000000000000005 -135.29999999999995 L 3.1000000000000005 -141.09999999999997 L 0.20000000000000018 -141.09999999999997 C 0.14500000000000046 -141.09999999999997 0.10000000000000053 -141.14499999999995 0.10000000000000053 -141.19999999999996 L 0.10000000000000053 -147.19999999999996 C 0.10000000000000053 -147.25499999999997 0.14500000000000046 -147.29999999999995 0.20000000000000018 -147.29999999999995 L 3.1000000000000005 -147.29999999999995 L 3.1000000000000005 -153.09999999999997 L 0.20000000000000018 -153.09999999999997 C 0.14500000000000046 -153.09999999999997 0.10000000000000053 -153.14499999999995 0.10000000000000053 -153.19999999999996 L 0.10000000000000053 -159.19999999999996 C 0.10000000000000053 -159.25499999999997 0.14500000000000046 -159.29999999999995 0.20000000000000018 -159.29999999999995 L 3.1000000000000005 -159.29999999999995 L 3.1000000000000005 -165.09999999999997 L 0.20000000000000018 -165.09999999999997 C 0.14500000000000046 -165.09999999999997 0.10000000000000053 -165.14499999999995 0.10000000000000053 -165.19999999999996 L 0.10000000000000053 -171.19999999999996 C 0.10000000000000053 -171.25499999999997 0.14500000000000046 -171.29999999999995 0.20000000000000018 -171.29999999999995 L 3.1000000000000005 -171.29999999999995 L 3.1000000000000005 -177.09999999999997 L 0.20000000000000018 -177.09999999999997 C 0.14500000000000046 -177.09999999999997 0.10000000000000053 -177.14499999999995 0.10000000000000053 -177.19999999999996 L 0.10000000000000053 -183.19999999999996 C 0.10000000000000053 -183.25499999999997 0.14500000000000046 -183.29999999999995 0.20000000000000018 -183.29999999999995 L 3.1000000000000005 -183.29999999999995 L 3.1000000000000005 -189.09999999999997 L 0.20000000000000018 -189.09999999999997 C 0.14500000000000046 -189.09999999999997 0.10000000000000053 -189.14499999999995 0.10000000000000053 -189.19999999999996 L 0.10000000000000053 -195.19999999999996 C 0.10000000000000053 -195.25499999999997 0.14500000000000046 -195.29999999999995 0.20000000000000018 -195.29999999999995 L 3.1000000000000005 -195.29999999999995 L 3.1000000000000005 -201.09999999999997 L 0.20000000000000018 -201.09999999999997 C 0.14500000000000046 -201.09999999999997 0.10000000000000053 -201.14499999999995 0.10000000000000053 -201.19999999999996 L 0.10000000000000053 -207.19999999999996 C 0.10000000000000053 -207.25499999999997 0.14500000000000046 -207.29999999999995 0.20000000000000018 -207.29999999999995 L 3.1000000000000005 -207.29999999999995 L 3.1000000000000005 -213.09999999999997 L 0.20000000000000018 -213.09999999999997 C 0.14500000000000046 -213.09999999999997 0.10000000000000053 -213.14499999999995 0.10000000000000053 -213.19999999999996 L 0.10000000000000053 -219.19999999999996 C 0.10000000000000053 -219.25499999999997 0.14500000000000046 -219.29999999999995 0.20000000000000018 -219.29999999999995 L 3.1000000000000005 -219.29999999999995 L 3.1000000000000005 -225.09999999999997 L 0.20000000000000018 -225.09999999999997 C 0.14500000000000046 -225.09999999999997 0.10000000000000053 -225.14499999999995 0.10000000000000053 -225.19999999999996 L 0.10000000000000053 -231.19999999999996 C 0.10000000000000053 -231.25499999999997 0.14500000000000046 -231.29999999999995 0.20000000000000018 -231.29999999999995 L 3.1000000000000005 -231.29999999999995 L 3.1000000000000005 -237.09999999999997 L 0.20000000000000018 -237.09999999999997 C 0.14500000000000046 -237.09999999999997 0.10000000000000053 -237.14499999999995 0.10000000000000053 -237.19999999999996 L 0.10000000000000053 -243.19999999999996 C 0.10000000000000053 -243.25499999999997 0.14500000000000046 -243.29999999999995 0.20000000000000018 -243.29999999999995 L 3.1000000000000005 -243.29999999999995 L 3.1000000000000005 -249.09999999999994 L 0.20000000000000018 -249.09999999999994 C 0.14500000000000046 -249.09999999999994 0.10000000000000053 -249.14499999999995 0.10000000000000053 -249.19999999999996 L 0.10000000000000053 -255.19999999999996 C 0.10000000000000053 -255.25499999999997 0.14500000000000046 -255.29999999999998 0.20000000000000018 -255.29999999999998 L 3.1000000000000005 -255.29999999999998 L 3.1000000000000005 -261.1 L 0.20000000000000018 -261.1 C 0.14500000000000046 -261.1 0.10000000000000053 -261.14500000000004 0.10000000000000053 -261.20000000000005 L 0.10000000000000053 -267.20000000000005 C 0.10000000000000053 -267.25500000000005 0.14500000000000046 -267.30000000000007 0.20000000000000018 -267.30000000000007 L 3.1000000000000005 -267.30000000000007 L 3.1000000000000005 -273.20000000000005 C 3.1000000000000005 -273.25500000000005 3.1450000000000005 -273.30000000000007 3.2 -273.30000000000007 " stroke="#000000" stroke-width="0.35 px" style="stroke-width:0.35;stroke-miterlimit:4;stroke-dasharray:none;stroke-linecap:square;fill:none;fill-opacity:1;fill-rule: evenodd"/>
<title>b'path4'</title>
</g>
</svg>