%TF.GenerationSoftware,KiCad,Pcbnew,10.0.0*%
%TF.CreationDate,2026-05-02T17:45:33-03:00*%
%TF.ProjectId,pwmsla5800,70776d73-6c61-4353-9830-302e6b696361,rev?*%
%TF.SameCoordinates,Original*%
%TF.FileFunction,Copper,L1,Top*%
%TF.FilePolarity,Positive*%
%FSLAX46Y46*%
G04 Gerber Fmt 4.6, Leading zero omitted, Abs format (unit mm)*
G04 Created by KiCad (PCBNEW 10.0.0) date 2026-05-02 17:45:33*
%MOMM*%
%LPD*%
G01*
G04 APERTURE LIST*
G04 Aperture macros list*
%AMRoundRect*
0 Rectangle with rounded corners*
0 $1 Rounding radius*
0 $2 $3 $4 $5 $6 $7 $8 $9 X,Y pos of 4 corners*
0 Add a 4 corners polygon primitive as box body*
4,1,4,$2,$3,$4,$5,$6,$7,$8,$9,$2,$3,0*
0 Add four circle primitives for the rounded corners*
1,1,$1+$1,$2,$3*
1,1,$1+$1,$4,$5*
1,1,$1+$1,$6,$7*
1,1,$1+$1,$8,$9*
0 Add four rect primitives between the rounded corners*
20,1,$1+$1,$2,$3,$4,$5,0*
20,1,$1+$1,$4,$5,$6,$7,0*
20,1,$1+$1,$6,$7,$8,$9,0*
20,1,$1+$1,$8,$9,$2,$3,0*%
G04 Aperture macros list end*
%TA.AperFunction,ComponentPad*%
%ADD10C,1.600000*%
%TD*%
%TA.AperFunction,ComponentPad*%
%ADD11RoundRect,0.249999X-1.550001X0.790001X-1.550001X-0.790001X1.550001X-0.790001X1.550001X0.790001X0*%
%TD*%
%TA.AperFunction,ComponentPad*%
%ADD12O,3.600000X2.080000*%
%TD*%
%TA.AperFunction,ComponentPad*%
%ADD13R,1.700000X1.700000*%
%TD*%
%TA.AperFunction,ComponentPad*%
%ADD14C,1.700000*%
%TD*%
%TA.AperFunction,ComponentPad*%
%ADD15R,1.800000X1.800000*%
%TD*%
%TA.AperFunction,ComponentPad*%
%ADD16C,1.800000*%
%TD*%
%TA.AperFunction,ComponentPad*%
%ADD17C,4.000000*%
%TD*%
%TA.AperFunction,ComponentPad*%
%ADD18R,1.600000X1.600000*%
%TD*%
%TA.AperFunction,ComponentPad*%
%ADD19C,6.400000*%
%TD*%
%TA.AperFunction,ComponentPad*%
%ADD20R,1.500000X1.500000*%
%TD*%
%TA.AperFunction,ComponentPad*%
%ADD21C,1.500000*%
%TD*%
%TA.AperFunction,ComponentPad*%
%ADD22RoundRect,0.250000X0.550000X0.550000X-0.550000X0.550000X-0.550000X-0.550000X0.550000X-0.550000X0*%
%TD*%
%TA.AperFunction,ComponentPad*%
%ADD23C,1.440000*%
%TD*%
%TA.AperFunction,ComponentPad*%
%ADD24RoundRect,0.250000X0.550000X-0.950000X0.550000X0.950000X-0.550000X0.950000X-0.550000X-0.950000X0*%
%TD*%
%TA.AperFunction,ComponentPad*%
%ADD25O,1.600000X2.400000*%
%TD*%
%TA.AperFunction,ComponentPad*%
%ADD26RoundRect,0.250000X0.550000X-0.550000X0.550000X0.550000X-0.550000X0.550000X-0.550000X-0.550000X0*%
%TD*%
%TA.AperFunction,ViaPad*%
%ADD27C,2.500000*%
%TD*%
%TA.AperFunction,Conductor*%
%ADD28C,1.000000*%
%TD*%
%TA.AperFunction,Conductor*%
%ADD29C,1.500000*%
%TD*%
G04 APERTURE END LIST*
D10*
%TO.P,Rfilt1,1*%
%TO.N,Net-(U1B--)*%
X140335000Y-117475000D03*
%TO.P,Rfilt1,2*%
%TO.N,Net-(U1C-+)*%
X140335000Y-107315000D03*
%TD*%
D11*
%TO.P,JPWR1,1,Pin_1_1*%
%TO.N,GND*%
X180340000Y-101600000D03*
D12*
%TO.P,JPWR1,2,Pin_2_2*%
%TO.N,+24V*%
X180340000Y-106680000D03*
%TD*%
D13*
%TO.P,JCurrent1,1,Pin_1_1*%
%TO.N,GND*%
X149225000Y-109855000D03*
D14*
%TO.P,JCurrent1,2,Pin_2_2*%
%TO.N,+24V*%
X149225000Y-112395000D03*
%TO.P,JCurrent1,3,Pin_3_3*%
%TO.N,/Vinput*%
X149225000Y-114935000D03*
%TO.P,JCurrent1,4,Pin_4_4*%
%TO.N,/Iinput*%
X149225000Y-117475000D03*
%TD*%
D15*
%TO.P,Dclosed1,1,K_1*%
%TO.N,Net-(Dclosed1-K)*%
X149860000Y-93980000D03*
D16*
%TO.P,Dclosed1,2,A_2*%
%TO.N,/LEDCLOSED*%
X149860000Y-91440000D03*
%TD*%
D15*
%TO.P,Don1,1,K_1*%
%TO.N,Net-(Don1-K)*%
X123190000Y-93980000D03*
D16*
%TO.P,Don1,2,A_2*%
%TO.N,+24V*%
X123190000Y-91440000D03*
%TD*%
D10*
%TO.P,Rpwm1,1*%
%TO.N,Net-(Q1-C)*%
X131445000Y-121920000D03*
%TO.P,Rpwm1,2*%
%TO.N,/Vref*%
X141605000Y-121920000D03*
%TD*%
%TO.P,RIout1,1*%
%TO.N,/AO*%
X114300000Y-104775000D03*
%TO.P,RIout1,2*%
%TO.N,GND*%
X124460000Y-104775000D03*
%TD*%
D17*
%TO.P,JBROOKS1,0,PAD_0*%
%TO.N,GND*%
X97640000Y-100655000D03*
X97640000Y-133955000D03*
D18*
%TO.P,JBROOKS1,1,1_1*%
X99060000Y-127000000D03*
D10*
%TO.P,JBROOKS1,2,2_2*%
%TO.N,unconnected-(JBROOKS1-Pad2)*%
X99060000Y-124230000D03*
%TO.P,JBROOKS1,3,3_3*%
%TO.N,/Alarm*%
X99060000Y-121460000D03*
%TO.P,JBROOKS1,4,4_4*%
%TO.N,/AO*%
X99060000Y-118690000D03*
%TO.P,JBROOKS1,5,5_5*%
%TO.N,+24V*%
X99060000Y-115920000D03*
%TO.P,JBROOKS1,6,6_6*%
%TO.N,unconnected-(JBROOKS1-Pad6)*%
X99060000Y-113150000D03*
%TO.P,JBROOKS1,7,7_7*%
%TO.N,/Iinput*%
X99060000Y-110380000D03*
%TO.P,JBROOKS1,8,8_8*%
%TO.N,unconnected-(JBROOKS1-Pad8)*%
X99060000Y-107610000D03*
%TO.P,JBROOKS1,9,P9_9*%
%TO.N,GND*%
X96220000Y-125615000D03*
%TO.P,JBROOKS1,10,P10_10*%
X96220000Y-122845000D03*
%TO.P,JBROOKS1,11,P111_11*%
%TO.N,+5V*%
X96220000Y-120075000D03*
%TO.P,JBROOKS1,12,P12_12*%
%TO.N,/Vcontrol*%
X96220000Y-117305000D03*
%TO.P,JBROOKS1,13,P13_13*%
%TO.N,unconnected-(JBROOKS1-P13-Pad13)*%
X96220000Y-114535000D03*
%TO.P,JBROOKS1,14,P14_14*%
%TO.N,unconnected-(JBROOKS1-P14-Pad14)*%
X96220000Y-111765000D03*
%TO.P,JBROOKS1,15,P15_15*%
%TO.N,unconnected-(JBROOKS1-P15-Pad15)*%
X96220000Y-108995000D03*
%TD*%
D19*
%TO.P,,1*%
%TO.N,N/C*%
X184150000Y-133350000D03*
%TD*%
D10*
%TO.P,Ron1,1*%
%TO.N,Net-(Don1-K)*%
X128270000Y-98425000D03*
%TO.P,Ron1,2*%
%TO.N,GND*%
X118110000Y-98425000D03*
%TD*%
D13*
%TO.P,JVref1,1,Pin_1_1*%
%TO.N,GND*%
X160655000Y-130175000D03*
D14*
%TO.P,JVref1,2,Pin_2_2*%
%TO.N,/Vref*%
X160655000Y-132715000D03*
%TD*%
D20*
%TO.P,U2,1,REF_1*%
%TO.N,Net-(U2-REF)*%
X160655000Y-120375000D03*
D21*
%TO.P,U2,2,A_2*%
%TO.N,GND*%
X163195000Y-120375000D03*
%TO.P,U2,3,K_3*%
%TO.N,/Vref*%
X165735000Y-120375000D03*
%TD*%
D10*
%TO.P,Ralarm1,1*%
%TO.N,Net-(Dalarm1-K)*%
X104775000Y-98425000D03*
%TO.P,Ralarm1,2*%
%TO.N,GND*%
X114935000Y-98425000D03*
%TD*%
%TO.P,Rref2,1*%
%TO.N,GND*%
X156210000Y-113665000D03*
%TO.P,Rref2,2*%
%TO.N,Net-(RVref1-Pad3)*%
X166370000Y-113665000D03*
%TD*%
%TO.P,C1,1*%
%TO.N,+24V*%
X122555000Y-125730000D03*
%TO.P,C1,2*%
%TO.N,GND*%
X120055000Y-125730000D03*
%TD*%
D22*
%TO.P,Cref1,1*%
%TO.N,/Vref*%
X170815000Y-127000000D03*
D10*
%TO.P,Cref1,2*%
%TO.N,GND*%
X168315000Y-127000000D03*
%TD*%
D19*
%TO.P,REF\u002A\u002A,1*%
%TO.N,N/C*%
X184150000Y-90170000D03*
%TD*%
D10*
%TO.P,Rpwm2,1*%
%TO.N,Net-(U1A--)*%
X116840000Y-121920000D03*
%TO.P,Rpwm2,2*%
%TO.N,Net-(Q1-B)*%
X127000000Y-121920000D03*
%TD*%
D23*
%TO.P,RVref1,1,1_1*%
%TO.N,/Vref*%
X170815000Y-120015000D03*
%TO.P,RVref1,2,2_2*%
%TO.N,Net-(U2-REF)*%
X170815000Y-117475000D03*
%TO.P,RVref1,3,3_3*%
%TO.N,Net-(RVref1-Pad3)*%
X170815000Y-114935000D03*
%TD*%
D10*
%TO.P,Rclosed1,1*%
%TO.N,Net-(Dclosed1-K)*%
X154940000Y-98425000D03*
%TO.P,Rclosed1,2*%
%TO.N,GND*%
X144780000Y-98425000D03*
%TD*%
D13*
%TO.P,JESP1,1,Pin_1_1*%
%TO.N,GND*%
X108585000Y-117475000D03*
D14*
%TO.P,JESP1,2,Pin_2_2*%
%TO.N,/PWM*%
X108585000Y-114935000D03*
%TO.P,JESP1,3,Pin_3_3*%
%TO.N,/Vout*%
X108585000Y-112395000D03*
%TD*%
D15*
%TO.P,Dalarm1,1,K_1*%
%TO.N,Net-(Dalarm1-K)*%
X109855000Y-93980000D03*
D16*
%TO.P,Dalarm1,2,A_2*%
%TO.N,/Alarm*%
X109855000Y-91440000D03*
%TD*%
D11*
%TO.P,JPWR2,1,Pin_1_1*%
%TO.N,GND*%
X180340000Y-116840000D03*
D12*
%TO.P,JPWR2,2,Pin_2_2*%
%TO.N,+24V*%
X180340000Y-121920000D03*
%TD*%
D13*
%TO.P,JAO1,1,Pin_1_1*%
%TO.N,GND*%
X108585000Y-128905000D03*
D14*
%TO.P,JAO1,2,Pin_2_2*%
%TO.N,/Vout*%
X108585000Y-126365000D03*
%TD*%
D20*
%TO.P,Q1,1,C_1*%
%TO.N,Net-(Q1-C)*%
X133350000Y-127275000D03*
D21*
%TO.P,Q1,2,B_2*%
%TO.N,Net-(Q1-B)*%
X130810000Y-127275000D03*
%TO.P,Q1,3,E_3*%
%TO.N,GND*%
X128270000Y-127275000D03*
%TD*%
D10*
%TO.P,Rref1,1*%
%TO.N,+24V*%
X175895000Y-132715000D03*
%TO.P,Rref1,2*%
%TO.N,/Vref*%
X165735000Y-132715000D03*
%TD*%
%TO.P,Ropen1,1*%
%TO.N,Net-(Dopen1-K)*%
X131445000Y-98425000D03*
%TO.P,Ropen1,2*%
%TO.N,GND*%
X141605000Y-98425000D03*
%TD*%
D13*
%TO.P,JControl1,1,Pin_1_1*%
%TO.N,GND*%
X116840000Y-88265000D03*
D14*
%TO.P,JControl1,2,Pin_2_2*%
%TO.N,/Vcontrol*%
X116840000Y-90805000D03*
%TO.P,JControl1,3,Pin_3_3*%
%TO.N,+5V*%
X116840000Y-93345000D03*
%TD*%
D19*
%TO.P,,1*%
%TO.N,N/C*%
X91440000Y-90170000D03*
%TD*%
D24*
%TO.P,U1,1*%
%TO.N,Net-(U1A--)*%
X116840000Y-117475000D03*
D25*
%TO.P,U1,2,-_2*%
X119380000Y-117475000D03*
%TO.P,U1,3,+_3*%
%TO.N,/PWM*%
X121920000Y-117475000D03*
%TO.P,U1,4,V+_4*%
%TO.N,+24V*%
X124460000Y-117475000D03*
%TO.P,U1,5,+_5*%
%TO.N,Net-(Q1-C)*%
X127000000Y-117475000D03*
%TO.P,U1,6,-_6*%
%TO.N,Net-(U1B--)*%
X129540000Y-117475000D03*
%TO.P,U1,7*%
X132080000Y-117475000D03*
%TO.P,U1,8*%
%TO.N,/Vinput*%
X132080000Y-109855000D03*
%TO.P,U1,9,-_9*%
X129540000Y-109855000D03*
%TO.P,U1,10,+_10*%
%TO.N,Net-(U1C-+)*%
X127000000Y-109855000D03*
%TO.P,U1,11,V-_11*%
%TO.N,GND*%
X124460000Y-109855000D03*
%TO.P,U1,12,+_12*%
%TO.N,/AO*%
X121920000Y-109855000D03*
%TO.P,U1,13,-_13*%
%TO.N,/Vout*%
X119380000Y-109855000D03*
%TO.P,U1,14*%
X116840000Y-109855000D03*
%TD*%
D15*
%TO.P,Dopen1,1,K_1*%
%TO.N,Net-(Dopen1-K)*%
X133350000Y-93980000D03*
D16*
%TO.P,Dopen1,2,A_2*%
%TO.N,/LEDOPEN*%
X133350000Y-91440000D03*
%TD*%
D26*
%TO.P,C2,1*%
%TO.N,Net-(U1C-+)*%
X135255000Y-105410000D03*
D10*
%TO.P,C2,2*%
%TO.N,GND*%
X135255000Y-102910000D03*
%TD*%
D13*
%TO.P,JLedControl1,1,Pin_1_1*%
%TO.N,/LEDCLOSED*%
X144780000Y-90805000D03*
D14*
%TO.P,JLedControl1,2,Pin_2_2*%
%TO.N,+24V*%
X142240000Y-90805000D03*
%TO.P,JLedControl1,3,Pin_3_3*%
%TO.N,/LEDOPEN*%
X139700000Y-90805000D03*
%TD*%
D27*
%TO.N,GND*%
X142875000Y-131318000D03*
X128397000Y-132588000D03*
X147574000Y-126746000D03*
X148590000Y-104140000D03*
X156210000Y-109855000D03*
X121031000Y-132588000D03*
%TO.N,+24V*%
X153035000Y-117475000D03*
X102585000Y-115920000D03*
X102870000Y-134620000D03*
X154940000Y-132461000D03*
%TO.N,/Alarm*%
X105235000Y-121460000D03*
X105410000Y-104775000D03*
%TO.N,+5V*%
X95250000Y-95250000D03*
X104775000Y-90215000D03*
%TO.N,/Iinput*%
X103505000Y-101600000D03*
X144780000Y-116205000D03*
%TD*%
%TO.N,GND*%
D28*
X143002000Y-131191000D02*
X142875000Y-131318000D01*
X147574000Y-126746000D02*
X147574000Y-126873000D01*
X128397000Y-132588000D02*
X121031000Y-132588000D01*
X150495000Y-104140000D02*
X156210000Y-109855000D01*
X147574000Y-126873000D02*
X143256000Y-131191000D01*
X148590000Y-104140000D02*
X150495000Y-104140000D01*
X143256000Y-131191000D02*
X143002000Y-131191000D01*
%TO.N,+24V*%
D29*
X154940000Y-119380000D02*
X153035000Y-117475000D01*
D28*
X102585000Y-115920000D02*
X102870000Y-116205000D01*
X102870000Y-116205000D02*
X102870000Y-134620000D01*
D29*
X154940000Y-132461000D02*
X154940000Y-119380000D01*
%TO.N,/Alarm*%
D28*
X105410000Y-121285000D02*
X105410000Y-104775000D01*
X105235000Y-121460000D02*
X105410000Y-121285000D01*
%TO.N,+5V*%
X99740000Y-95250000D02*
X104775000Y-90215000D01*
X104730000Y-90170000D02*
X104775000Y-90215000D01*
X95250000Y-95250000D02*
X99740000Y-95250000D01*
X104775000Y-90170000D02*
X104775000Y-90215000D01*
%TO.N,/Iinput*%
X104140000Y-100965000D02*
X140335000Y-100965000D01*
X103505000Y-101600000D02*
X104140000Y-100965000D01*
X144780000Y-105410000D02*
X144780000Y-116205000D01*
X140335000Y-100965000D02*
X144780000Y-105410000D01*
%TD*%
M02*
