M48
; DRILL file KiCad 10.0.0 date 2026-05-02T17:46:46
; FORMAT={-:-/ absolute / metric / decimal}
; #@! TF.CreationDate,2026-05-02T17:46:46-03:00
; #@! TF.GenerationSoftware,Kicad,Pcbnew,10.0.0
; #@! TF.FileFunction,Plated,1,2,PTH
FMAT,2
METRIC
; #@! TA.AperFunction,Plated,PTH,ComponentDrill
T1C0.800
; #@! TA.AperFunction,Plated,PTH,ComponentDrill
T2C0.900
; #@! TA.AperFunction,Plated,PTH,ViaDrill
T3C1.000
; #@! TA.AperFunction,Plated,PTH,ComponentDrill
T4C1.000
; #@! TA.AperFunction,Plated,PTH,ComponentDrill
T5C1.400
; #@! TA.AperFunction,Plated,PTH,ComponentDrill
T6C3.200
%
G90
G05
T1
X104.775Y-98.425
X114.3Y-104.775
X114.935Y-98.425
X116.84Y-109.855
X116.84Y-117.475
X116.84Y-121.92
X118.11Y-98.425
X119.38Y-109.855
X119.38Y-117.475
X120.055Y-125.73
X121.92Y-109.855
X121.92Y-117.475
X122.555Y-125.73
X124.46Y-104.775
X124.46Y-109.855
X124.46Y-117.475
X127.0Y-109.855
X127.0Y-117.475
X127.0Y-121.92
X128.27Y-98.425
X128.27Y-127.275
X129.54Y-109.855
X129.54Y-117.475
X130.81Y-127.275
X131.445Y-98.425
X131.445Y-121.92
X132.08Y-109.855
X132.08Y-117.475
X133.35Y-127.275
X135.255Y-102.91
X135.255Y-105.41
X140.335Y-107.315
X140.335Y-117.475
X141.605Y-98.425
X141.605Y-121.92
X144.78Y-98.425
X154.94Y-98.425
X156.21Y-113.665
X160.655Y-120.375
X163.195Y-120.375
X165.735Y-120.375
X165.735Y-132.715
X166.37Y-113.665
X168.315Y-127.0
X170.815Y-114.935
X170.815Y-117.475
X170.815Y-120.015
X170.815Y-127.0
X175.895Y-132.715
T2
X109.855Y-91.44
X109.855Y-93.98
X123.19Y-91.44
X123.19Y-93.98
X133.35Y-91.44
X133.35Y-93.98
X149.86Y-91.44
X149.86Y-93.98
T3
X95.25Y-95.25
X102.585Y-115.92
X102.87Y-134.62
X103.505Y-101.6
X104.775Y-90.215
X105.235Y-121.46
X105.41Y-104.775
X121.031Y-132.588
X128.397Y-132.588
X142.875Y-131.318
X144.78Y-116.205
X147.574Y-126.746
X148.59Y-104.14
X153.035Y-117.475
X154.94Y-132.461
X156.21Y-109.855
T4
X96.22Y-108.995
X96.22Y-111.765
X96.22Y-114.535
X96.22Y-117.305
X96.22Y-120.075
X96.22Y-122.845
X96.22Y-125.615
X99.06Y-107.61
X99.06Y-110.38
X99.06Y-113.15
X99.06Y-115.92
X99.06Y-118.69
X99.06Y-121.46
X99.06Y-124.23
X99.06Y-127.0
X108.585Y-112.395
X108.585Y-114.935
X108.585Y-117.475
X108.585Y-126.365
X108.585Y-128.905
X116.84Y-88.265
X116.84Y-90.805
X116.84Y-93.345
X139.7Y-90.805
X142.24Y-90.805
X144.78Y-90.805
X149.225Y-109.855
X149.225Y-112.395
X149.225Y-114.935
X149.225Y-117.475
X160.655Y-130.175
X160.655Y-132.715
T5
X180.34Y-101.6
X180.34Y-106.68
X180.34Y-116.84
X180.34Y-121.92
T6
X91.44Y-90.17
X97.64Y-100.655
X97.64Y-133.955
X184.15Y-90.17
X184.15Y-133.35
M30
