%TF.GenerationSoftware,KiCad,Pcbnew,10.0.0*%
%TF.CreationDate,2026-05-02T17:45:33-03:00*%
%TF.ProjectId,pwmsla5800,70776d73-6c61-4353-9830-302e6b696361,rev?*%
%TF.SameCoordinates,Original*%
%TF.FileFunction,Copper,L2,Bot*%
%TF.FilePolarity,Positive*%
%FSLAX46Y46*%
G04 Gerber Fmt 4.6, Leading zero omitted, Abs format (unit mm)*
G04 Created by KiCad (PCBNEW 10.0.0) date 2026-05-02 17:45:33*
%MOMM*%
%LPD*%
G01*
G04 APERTURE LIST*
G04 Aperture macros list*
%AMRoundRect*
0 Rectangle with rounded corners*
0 $1 Rounding radius*
0 $2 $3 $4 $5 $6 $7 $8 $9 X,Y pos of 4 corners*
0 Add a 4 corners polygon primitive as box body*
4,1,4,$2,$3,$4,$5,$6,$7,$8,$9,$2,$3,0*
0 Add four circle primitives for the rounded corners*
1,1,$1+$1,$2,$3*
1,1,$1+$1,$4,$5*
1,1,$1+$1,$6,$7*
1,1,$1+$1,$8,$9*
0 Add four rect primitives between the rounded corners*
20,1,$1+$1,$2,$3,$4,$5,0*
20,1,$1+$1,$4,$5,$6,$7,0*
20,1,$1+$1,$6,$7,$8,$9,0*
20,1,$1+$1,$8,$9,$2,$3,0*%
G04 Aperture macros list end*
%TA.AperFunction,ComponentPad*%
%ADD10C,1.600000*%
%TD*%
%TA.AperFunction,ComponentPad*%
%ADD11RoundRect,0.249999X-1.550001X0.790001X-1.550001X-0.790001X1.550001X-0.790001X1.550001X0.790001X0*%
%TD*%
%TA.AperFunction,ComponentPad*%
%ADD12O,3.600000X2.080000*%
%TD*%
%TA.AperFunction,ComponentPad*%
%ADD13R,1.700000X1.700000*%
%TD*%
%TA.AperFunction,ComponentPad*%
%ADD14C,1.700000*%
%TD*%
%TA.AperFunction,ComponentPad*%
%ADD15R,1.800000X1.800000*%
%TD*%
%TA.AperFunction,ComponentPad*%
%ADD16C,1.800000*%
%TD*%
%TA.AperFunction,ComponentPad*%
%ADD17C,4.000000*%
%TD*%
%TA.AperFunction,ComponentPad*%
%ADD18R,1.600000X1.600000*%
%TD*%
%TA.AperFunction,ComponentPad*%
%ADD19C,6.400000*%
%TD*%
%TA.AperFunction,ComponentPad*%
%ADD20R,1.500000X1.500000*%
%TD*%
%TA.AperFunction,ComponentPad*%
%ADD21C,1.500000*%
%TD*%
%TA.AperFunction,ComponentPad*%
%ADD22RoundRect,0.250000X0.550000X0.550000X-0.550000X0.550000X-0.550000X-0.550000X0.550000X-0.550000X0*%
%TD*%
%TA.AperFunction,ComponentPad*%
%ADD23C,1.440000*%
%TD*%
%TA.AperFunction,ComponentPad*%
%ADD24RoundRect,0.250000X0.550000X-0.950000X0.550000X0.950000X-0.550000X0.950000X-0.550000X-0.950000X0*%
%TD*%
%TA.AperFunction,ComponentPad*%
%ADD25O,1.600000X2.400000*%
%TD*%
%TA.AperFunction,ComponentPad*%
%ADD26RoundRect,0.250000X0.550000X-0.550000X0.550000X0.550000X-0.550000X0.550000X-0.550000X-0.550000X0*%
%TD*%
%TA.AperFunction,ViaPad*%
%ADD27C,2.500000*%
%TD*%
%TA.AperFunction,Conductor*%
%ADD28C,1.000000*%
%TD*%
%TA.AperFunction,Conductor*%
%ADD29C,1.500000*%
%TD*%
G04 APERTURE END LIST*
D10*
%TO.P,Rfilt1,1*%
%TO.N,Net-(U1B--)*%
X140335000Y-117475000D03*
%TO.P,Rfilt1,2*%
%TO.N,Net-(U1C-+)*%
X140335000Y-107315000D03*
%TD*%
D11*
%TO.P,JPWR1,1,Pin_1_1*%
%TO.N,GND*%
X180340000Y-101600000D03*
D12*
%TO.P,JPWR1,2,Pin_2_2*%
%TO.N,+24V*%
X180340000Y-106680000D03*
%TD*%
D13*
%TO.P,JCurrent1,1,Pin_1_1*%
%TO.N,GND*%
X149225000Y-109855000D03*
D14*
%TO.P,JCurrent1,2,Pin_2_2*%
%TO.N,+24V*%
X149225000Y-112395000D03*
%TO.P,JCurrent1,3,Pin_3_3*%
%TO.N,/Vinput*%
X149225000Y-114935000D03*
%TO.P,JCurrent1,4,Pin_4_4*%
%TO.N,/Iinput*%
X149225000Y-117475000D03*
%TD*%
D15*
%TO.P,Dclosed1,1,K_1*%
%TO.N,Net-(Dclosed1-K)*%
X149860000Y-93980000D03*
D16*
%TO.P,Dclosed1,2,A_2*%
%TO.N,/LEDCLOSED*%
X149860000Y-91440000D03*
%TD*%
D15*
%TO.P,Don1,1,K_1*%
%TO.N,Net-(Don1-K)*%
X123190000Y-93980000D03*
D16*
%TO.P,Don1,2,A_2*%
%TO.N,+24V*%
X123190000Y-91440000D03*
%TD*%
D10*
%TO.P,Rpwm1,1*%
%TO.N,Net-(Q1-C)*%
X131445000Y-121920000D03*
%TO.P,Rpwm1,2*%
%TO.N,/Vref*%
X141605000Y-121920000D03*
%TD*%
%TO.P,RIout1,1*%
%TO.N,/AO*%
X114300000Y-104775000D03*
%TO.P,RIout1,2*%
%TO.N,GND*%
X124460000Y-104775000D03*
%TD*%
D17*
%TO.P,JBROOKS1,0,PAD_0*%
%TO.N,GND*%
X97640000Y-100655000D03*
X97640000Y-133955000D03*
D18*
%TO.P,JBROOKS1,1,1_1*%
X99060000Y-127000000D03*
D10*
%TO.P,JBROOKS1,2,2_2*%
%TO.N,unconnected-(JBROOKS1-Pad2)*%
X99060000Y-124230000D03*
%TO.P,JBROOKS1,3,3_3*%
%TO.N,/Alarm*%
X99060000Y-121460000D03*
%TO.P,JBROOKS1,4,4_4*%
%TO.N,/AO*%
X99060000Y-118690000D03*
%TO.P,JBROOKS1,5,5_5*%
%TO.N,+24V*%
X99060000Y-115920000D03*
%TO.P,JBROOKS1,6,6_6*%
%TO.N,unconnected-(JBROOKS1-Pad6)*%
X99060000Y-113150000D03*
%TO.P,JBROOKS1,7,7_7*%
%TO.N,/Iinput*%
X99060000Y-110380000D03*
%TO.P,JBROOKS1,8,8_8*%
%TO.N,unconnected-(JBROOKS1-Pad8)*%
X99060000Y-107610000D03*
%TO.P,JBROOKS1,9,P9_9*%
%TO.N,GND*%
X96220000Y-125615000D03*
%TO.P,JBROOKS1,10,P10_10*%
X96220000Y-122845000D03*
%TO.P,JBROOKS1,11,P111_11*%
%TO.N,+5V*%
X96220000Y-120075000D03*
%TO.P,JBROOKS1,12,P12_12*%
%TO.N,/Vcontrol*%
X96220000Y-117305000D03*
%TO.P,JBROOKS1,13,P13_13*%
%TO.N,unconnected-(JBROOKS1-P13-Pad13)*%
X96220000Y-114535000D03*
%TO.P,JBROOKS1,14,P14_14*%
%TO.N,unconnected-(JBROOKS1-P14-Pad14)*%
X96220000Y-111765000D03*
%TO.P,JBROOKS1,15,P15_15*%
%TO.N,unconnected-(JBROOKS1-P15-Pad15)*%
X96220000Y-108995000D03*
%TD*%
D19*
%TO.P,,1*%
%TO.N,N/C*%
X184150000Y-133350000D03*
%TD*%
D10*
%TO.P,Ron1,1*%
%TO.N,Net-(Don1-K)*%
X128270000Y-98425000D03*
%TO.P,Ron1,2*%
%TO.N,GND*%
X118110000Y-98425000D03*
%TD*%
D13*
%TO.P,JVref1,1,Pin_1_1*%
%TO.N,GND*%
X160655000Y-130175000D03*
D14*
%TO.P,JVref1,2,Pin_2_2*%
%TO.N,/Vref*%
X160655000Y-132715000D03*
%TD*%
D20*
%TO.P,U2,1,REF_1*%
%TO.N,Net-(U2-REF)*%
X160655000Y-120375000D03*
D21*
%TO.P,U2,2,A_2*%
%TO.N,GND*%
X163195000Y-120375000D03*
%TO.P,U2,3,K_3*%
%TO.N,/Vref*%
X165735000Y-120375000D03*
%TD*%
D10*
%TO.P,Ralarm1,1*%
%TO.N,Net-(Dalarm1-K)*%
X104775000Y-98425000D03*
%TO.P,Ralarm1,2*%
%TO.N,GND*%
X114935000Y-98425000D03*
%TD*%
%TO.P,Rref2,1*%
%TO.N,GND*%
X156210000Y-113665000D03*
%TO.P,Rref2,2*%
%TO.N,Net-(RVref1-Pad3)*%
X166370000Y-113665000D03*
%TD*%
%TO.P,C1,1*%
%TO.N,+24V*%
X122555000Y-125730000D03*
%TO.P,C1,2*%
%TO.N,GND*%
X120055000Y-125730000D03*
%TD*%
D22*
%TO.P,Cref1,1*%
%TO.N,/Vref*%
X170815000Y-127000000D03*
D10*
%TO.P,Cref1,2*%
%TO.N,GND*%
X168315000Y-127000000D03*
%TD*%
D19*
%TO.P,REF\u002A\u002A,1*%
%TO.N,N/C*%
X184150000Y-90170000D03*
%TD*%
D10*
%TO.P,Rpwm2,1*%
%TO.N,Net-(U1A--)*%
X116840000Y-121920000D03*
%TO.P,Rpwm2,2*%
%TO.N,Net-(Q1-B)*%
X127000000Y-121920000D03*
%TD*%
D23*
%TO.P,RVref1,1,1_1*%
%TO.N,/Vref*%
X170815000Y-120015000D03*
%TO.P,RVref1,2,2_2*%
%TO.N,Net-(U2-REF)*%
X170815000Y-117475000D03*
%TO.P,RVref1,3,3_3*%
%TO.N,Net-(RVref1-Pad3)*%
X170815000Y-114935000D03*
%TD*%
D10*
%TO.P,Rclosed1,1*%
%TO.N,Net-(Dclosed1-K)*%
X154940000Y-98425000D03*
%TO.P,Rclosed1,2*%
%TO.N,GND*%
X144780000Y-98425000D03*
%TD*%
D13*
%TO.P,JESP1,1,Pin_1_1*%
%TO.N,GND*%
X108585000Y-117475000D03*
D14*
%TO.P,JESP1,2,Pin_2_2*%
%TO.N,/PWM*%
X108585000Y-114935000D03*
%TO.P,JESP1,3,Pin_3_3*%
%TO.N,/Vout*%
X108585000Y-112395000D03*
%TD*%
D15*
%TO.P,Dalarm1,1,K_1*%
%TO.N,Net-(Dalarm1-K)*%
X109855000Y-93980000D03*
D16*
%TO.P,Dalarm1,2,A_2*%
%TO.N,/Alarm*%
X109855000Y-91440000D03*
%TD*%
D11*
%TO.P,JPWR2,1,Pin_1_1*%
%TO.N,GND*%
X180340000Y-116840000D03*
D12*
%TO.P,JPWR2,2,Pin_2_2*%
%TO.N,+24V*%
X180340000Y-121920000D03*
%TD*%
D13*
%TO.P,JAO1,1,Pin_1_1*%
%TO.N,GND*%
X108585000Y-128905000D03*
D14*
%TO.P,JAO1,2,Pin_2_2*%
%TO.N,/Vout*%
X108585000Y-126365000D03*
%TD*%
D20*
%TO.P,Q1,1,C_1*%
%TO.N,Net-(Q1-C)*%
X133350000Y-127275000D03*
D21*
%TO.P,Q1,2,B_2*%
%TO.N,Net-(Q1-B)*%
X130810000Y-127275000D03*
%TO.P,Q1,3,E_3*%
%TO.N,GND*%
X128270000Y-127275000D03*
%TD*%
D10*
%TO.P,Rref1,1*%
%TO.N,+24V*%
X175895000Y-132715000D03*
%TO.P,Rref1,2*%
%TO.N,/Vref*%
X165735000Y-132715000D03*
%TD*%
%TO.P,Ropen1,1*%
%TO.N,Net-(Dopen1-K)*%
X131445000Y-98425000D03*
%TO.P,Ropen1,2*%
%TO.N,GND*%
X141605000Y-98425000D03*
%TD*%
D13*
%TO.P,JControl1,1,Pin_1_1*%
%TO.N,GND*%
X116840000Y-88265000D03*
D14*
%TO.P,JControl1,2,Pin_2_2*%
%TO.N,/Vcontrol*%
X116840000Y-90805000D03*
%TO.P,JControl1,3,Pin_3_3*%
%TO.N,+5V*%
X116840000Y-93345000D03*
%TD*%
D19*
%TO.P,,1*%
%TO.N,N/C*%
X91440000Y-90170000D03*
%TD*%
D24*
%TO.P,U1,1*%
%TO.N,Net-(U1A--)*%
X116840000Y-117475000D03*
D25*
%TO.P,U1,2,-_2*%
X119380000Y-117475000D03*
%TO.P,U1,3,+_3*%
%TO.N,/PWM*%
X121920000Y-117475000D03*
%TO.P,U1,4,V+_4*%
%TO.N,+24V*%
X124460000Y-117475000D03*
%TO.P,U1,5,+_5*%
%TO.N,Net-(Q1-C)*%
X127000000Y-117475000D03*
%TO.P,U1,6,-_6*%
%TO.N,Net-(U1B--)*%
X129540000Y-117475000D03*
%TO.P,U1,7*%
X132080000Y-117475000D03*
%TO.P,U1,8*%
%TO.N,/Vinput*%
X132080000Y-109855000D03*
%TO.P,U1,9,-_9*%
X129540000Y-109855000D03*
%TO.P,U1,10,+_10*%
%TO.N,Net-(U1C-+)*%
X127000000Y-109855000D03*
%TO.P,U1,11,V-_11*%
%TO.N,GND*%
X124460000Y-109855000D03*
%TO.P,U1,12,+_12*%
%TO.N,/AO*%
X121920000Y-109855000D03*
%TO.P,U1,13,-_13*%
%TO.N,/Vout*%
X119380000Y-109855000D03*
%TO.P,U1,14*%
X116840000Y-109855000D03*
%TD*%
D15*
%TO.P,Dopen1,1,K_1*%
%TO.N,Net-(Dopen1-K)*%
X133350000Y-93980000D03*
D16*
%TO.P,Dopen1,2,A_2*%
%TO.N,/LEDOPEN*%
X133350000Y-91440000D03*
%TD*%
D26*
%TO.P,C2,1*%
%TO.N,Net-(U1C-+)*%
X135255000Y-105410000D03*
D10*
%TO.P,C2,2*%
%TO.N,GND*%
X135255000Y-102910000D03*
%TD*%
D13*
%TO.P,JLedControl1,1,Pin_1_1*%
%TO.N,/LEDCLOSED*%
X144780000Y-90805000D03*
D14*
%TO.P,JLedControl1,2,Pin_2_2*%
%TO.N,+24V*%
X142240000Y-90805000D03*
%TO.P,JLedControl1,3,Pin_3_3*%
%TO.N,/LEDOPEN*%
X139700000Y-90805000D03*
%TD*%
D27*
%TO.N,GND*%
X142875000Y-131318000D03*
X128397000Y-132588000D03*
X147574000Y-126746000D03*
X148590000Y-104140000D03*
X156210000Y-109855000D03*
X121031000Y-132588000D03*
%TO.N,+24V*%
X153035000Y-117475000D03*
X102585000Y-115920000D03*
X102870000Y-134620000D03*
X154940000Y-132461000D03*
%TO.N,/Alarm*%
X105235000Y-121460000D03*
X105410000Y-104775000D03*
%TO.N,+5V*%
X95250000Y-95250000D03*
X104775000Y-90215000D03*
%TO.N,/Iinput*%
X103505000Y-101600000D03*
X144780000Y-116205000D03*
%TD*%
%TO.N,GND*%
D28*
X108585000Y-128905000D02*
X113792000Y-128905000D01*
X160655000Y-130175000D02*
X160655000Y-127635000D01*
X97640000Y-100655000D02*
X97640000Y-92225000D01*
X95250000Y-92075000D02*
X88631000Y-98694000D01*
X97640000Y-133955000D02*
X101600000Y-129995000D01*
X129667000Y-131318000D02*
X128270000Y-129921000D01*
D29*
X179070000Y-116840000D02*
X176530000Y-114300000D01*
D28*
X128270000Y-129921000D02*
X128270000Y-127275000D01*
X148590000Y-104140000D02*
X147320000Y-104140000D01*
X175895000Y-109855000D02*
X176530000Y-109220000D01*
X121031000Y-132588000D02*
X117431500Y-128988500D01*
X113792000Y-122682000D02*
X113792000Y-128905000D01*
X114935000Y-98425000D02*
X118110000Y-98425000D01*
X144780000Y-98425000D02*
X144780000Y-101600000D01*
X156210000Y-113665000D02*
X156210000Y-123190000D01*
X119380000Y-95885000D02*
X119380000Y-88265000D01*
X117431500Y-128353500D02*
X120055000Y-125730000D01*
X118110000Y-98425000D02*
X118110000Y-97155000D01*
X101600000Y-129995000D02*
X101600000Y-128905000D01*
X131699000Y-131318000D02*
X129667000Y-131318000D01*
X156210000Y-109855000D02*
X175895000Y-109855000D01*
X135255000Y-102910000D02*
X137120000Y-102910000D01*
X156210000Y-123190000D02*
X160655000Y-127635000D01*
X117431500Y-128988500D02*
X117431500Y-128353500D01*
X179070000Y-100330000D02*
X180340000Y-101600000D01*
X116840000Y-88265000D02*
X119380000Y-88265000D01*
X141605000Y-98425000D02*
X144780000Y-98425000D01*
X88631000Y-98694000D02*
X88631000Y-124946000D01*
X99060000Y-127000000D02*
X99695000Y-127000000D01*
X156210000Y-113665000D02*
X156210000Y-109855000D01*
D29*
X179070000Y-101600000D02*
X180340000Y-101600000D01*
D28*
X121920000Y-88265000D02*
X122824000Y-87361000D01*
X129667000Y-131318000D02*
X128397000Y-132588000D01*
X88631000Y-124946000D02*
X97640000Y-133955000D01*
D29*
X176530000Y-109220000D02*
X176530000Y-104140000D01*
D28*
X174991000Y-87361000D02*
X179070000Y-91440000D01*
X160655000Y-127635000D02*
X161290000Y-127000000D01*
X144780000Y-105410000D02*
X149225000Y-109855000D01*
X116880000Y-128905000D02*
X117431500Y-128353500D01*
D29*
X180340000Y-116840000D02*
X179070000Y-116840000D01*
D28*
X137120000Y-102910000D02*
X141605000Y-98425000D01*
X163195000Y-127000000D02*
X168315000Y-127000000D01*
X124460000Y-109855000D02*
X124460000Y-104775000D01*
X101600000Y-128905000D02*
X108585000Y-128905000D01*
X97790000Y-92075000D02*
X95250000Y-92075000D01*
X163195000Y-120375000D02*
X163195000Y-127000000D01*
X96220000Y-125615000D02*
X96220000Y-122845000D01*
X144780000Y-101600000D02*
X144780000Y-105410000D01*
X108585000Y-117475000D02*
X113792000Y-122682000D01*
X118110000Y-97155000D02*
X119380000Y-95885000D01*
X161290000Y-127000000D02*
X163195000Y-127000000D01*
X96220000Y-125615000D02*
X97675000Y-125615000D01*
X179070000Y-91440000D02*
X179070000Y-100330000D01*
X142875000Y-131318000D02*
X131699000Y-131318000D01*
X99695000Y-127000000D02*
X101600000Y-128905000D01*
X118110000Y-98425000D02*
X124460000Y-104775000D01*
X147320000Y-104140000D02*
X144780000Y-101600000D01*
X97640000Y-92225000D02*
X97790000Y-92075000D01*
X97675000Y-125615000D02*
X99060000Y-127000000D01*
X122824000Y-87361000D02*
X174991000Y-87361000D01*
X151130000Y-123190000D02*
X156210000Y-123190000D01*
D29*
X176530000Y-104140000D02*
X179070000Y-101600000D01*
D28*
X113792000Y-128905000D02*
X116880000Y-128905000D01*
X151130000Y-123190000D02*
X147574000Y-126746000D01*
D29*
X176530000Y-114300000D02*
X176530000Y-109220000D01*
D28*
X119380000Y-88265000D02*
X121920000Y-88265000D01*
%TO.N,+24V*%
D29*
X180340000Y-106680000D02*
X182245000Y-106680000D01*
D28*
X102870000Y-116205000D02*
X102585000Y-115920000D01*
X124460000Y-117475000D02*
X124460000Y-123825000D01*
D29*
X175895000Y-133985000D02*
X175260000Y-134620000D01*
X180340000Y-128270000D02*
X175895000Y-132715000D01*
X182245000Y-107315000D02*
X181610000Y-106680000D01*
D28*
X123190000Y-91440000D02*
X125095000Y-89535000D01*
X125095000Y-89535000D02*
X130175000Y-89535000D01*
X103505000Y-135255000D02*
X124460000Y-135255000D01*
D29*
X154940000Y-132461000D02*
X154940000Y-134620000D01*
X175260000Y-134620000D02*
X154940000Y-134620000D01*
D28*
X99060000Y-115920000D02*
X102585000Y-115920000D01*
D29*
X153035000Y-112395000D02*
X153035000Y-102870000D01*
D28*
X124460000Y-135255000D02*
X130175000Y-135255000D01*
D29*
X184150000Y-120650000D02*
X184150000Y-109220000D01*
X142240000Y-92075000D02*
X142240000Y-90805000D01*
X180340000Y-121920000D02*
X180340000Y-128270000D01*
D28*
X141605000Y-88900000D02*
X142240000Y-89535000D01*
X149225000Y-112395000D02*
X153035000Y-112395000D01*
X122555000Y-125730000D02*
X124460000Y-127635000D01*
X130175000Y-135255000D02*
X130810000Y-134620000D01*
X130810000Y-88900000D02*
X141605000Y-88900000D01*
D29*
X175895000Y-132715000D02*
X175895000Y-133985000D01*
X181610000Y-106680000D02*
X180340000Y-106680000D01*
D28*
X102870000Y-134620000D02*
X103505000Y-135255000D01*
D29*
X142240000Y-90805000D02*
X142240000Y-89535000D01*
X180340000Y-121920000D02*
X182880000Y-121920000D01*
X153035000Y-102870000D02*
X142240000Y-92075000D01*
D28*
X130175000Y-89535000D02*
X130810000Y-88900000D01*
X124460000Y-127635000D02*
X124460000Y-135255000D01*
D29*
X153035000Y-117475000D02*
X153035000Y-112395000D01*
X182880000Y-121920000D02*
X184150000Y-120650000D01*
D28*
X124460000Y-123825000D02*
X122555000Y-125730000D01*
D29*
X184150000Y-109220000D02*
X182245000Y-107315000D01*
X154940000Y-134620000D02*
X130810000Y-134620000D01*
%TO.N,/Alarm*%
D28*
X99060000Y-121460000D02*
X105235000Y-121460000D01*
X112395000Y-91440000D02*
X109855000Y-91440000D01*
X113030000Y-92075000D02*
X112395000Y-91440000D01*
X105410000Y-104775000D02*
X105410000Y-102870000D01*
X105410000Y-121285000D02*
X105235000Y-121460000D01*
X113030000Y-95250000D02*
X113030000Y-92075000D01*
X105410000Y-102870000D02*
X113030000Y-95250000D01*
%TO.N,Net-(Dalarm1-K)*%
X104775000Y-95885000D02*
X106680000Y-93980000D01*
X104775000Y-98425000D02*
X104775000Y-95885000D01*
X106680000Y-93980000D02*
X109855000Y-93980000D01*
%TO.N,/LEDCLOSED*%
X149860000Y-91440000D02*
X149225000Y-90805000D01*
X149225000Y-90805000D02*
X144780000Y-90805000D01*
%TO.N,Net-(Dclosed1-K)*%
X152400000Y-93980000D02*
X154940000Y-96520000D01*
X149860000Y-93980000D02*
X152400000Y-93980000D01*
X154940000Y-96520000D02*
X154940000Y-98425000D01*
%TO.N,Net-(Don1-K)*%
X123190000Y-93980000D02*
X123825000Y-93980000D01*
X123825000Y-93980000D02*
X128270000Y-98425000D01*
%TO.N,Net-(Dopen1-K)*%
X131445000Y-98425000D02*
X131445000Y-95885000D01*
X131445000Y-95885000D02*
X133350000Y-93980000D01*
%TO.N,/LEDOPEN*%
X139065000Y-91440000D02*
X139700000Y-90805000D01*
X133350000Y-91440000D02*
X139065000Y-91440000D01*
%TO.N,/Vout*%
X107950000Y-112395000D02*
X106680000Y-113665000D01*
X116840000Y-109855000D02*
X119380000Y-109855000D01*
X106680000Y-113665000D02*
X106680000Y-119380000D01*
X111125000Y-109855000D02*
X116840000Y-109855000D01*
X108585000Y-112395000D02*
X111125000Y-109855000D01*
X108585000Y-112395000D02*
X107950000Y-112395000D01*
X106680000Y-119380000D02*
X108585000Y-121285000D01*
X108585000Y-121285000D02*
X108585000Y-126365000D01*
%TO.N,/Vcontrol*%
X93345000Y-106680000D02*
X95885000Y-104140000D01*
X96220000Y-117305000D02*
X94445000Y-117305000D01*
X100965000Y-100330000D02*
X102235000Y-99060000D01*
X102235000Y-88265000D02*
X113738000Y-88265000D01*
X93345000Y-116205000D02*
X93345000Y-106680000D01*
X116278000Y-90805000D02*
X116840000Y-90805000D01*
X100965000Y-102235000D02*
X100965000Y-100330000D01*
X113738000Y-88265000D02*
X116278000Y-90805000D01*
X99060000Y-104140000D02*
X100965000Y-102235000D01*
X94445000Y-117305000D02*
X93345000Y-116205000D01*
X102235000Y-99060000D02*
X102235000Y-88265000D01*
X95885000Y-104140000D02*
X99060000Y-104140000D01*
%TO.N,/AO*%
X114300000Y-104775000D02*
X118110000Y-104775000D01*
X109855000Y-104775000D02*
X114300000Y-104775000D01*
X118110000Y-104775000D02*
X121920000Y-108585000D01*
X121920000Y-108585000D02*
X121920000Y-109855000D01*
X104195000Y-118690000D02*
X105410000Y-117475000D01*
X105410000Y-109220000D02*
X109855000Y-104775000D01*
X105410000Y-117475000D02*
X105410000Y-109220000D01*
X99060000Y-118690000D02*
X104195000Y-118690000D01*
%TO.N,+5V*%
X114935000Y-92710000D02*
X115570000Y-93345000D01*
X115570000Y-93345000D02*
X116840000Y-93345000D01*
X104775000Y-90215000D02*
X105455000Y-89535000D01*
X114935000Y-91440000D02*
X114935000Y-92710000D01*
X96220000Y-120075000D02*
X93405000Y-120075000D01*
X105455000Y-89535000D02*
X113030000Y-89535000D01*
X91440000Y-99060000D02*
X95250000Y-95250000D01*
X113030000Y-89535000D02*
X114935000Y-91440000D01*
X93405000Y-120075000D02*
X91440000Y-118110000D01*
X91440000Y-118110000D02*
X91440000Y-99060000D01*
%TO.N,/Iinput*%
X144780000Y-116205000D02*
X146050000Y-116205000D01*
X101710000Y-110380000D02*
X102235000Y-109855000D01*
X102235000Y-102870000D02*
X103505000Y-101600000D01*
X147320000Y-117475000D02*
X149225000Y-117475000D01*
X99060000Y-110380000D02*
X101710000Y-110380000D01*
X146050000Y-116205000D02*
X147320000Y-117475000D01*
X102235000Y-109855000D02*
X102235000Y-102870000D01*
%TO.N,/PWM*%
X121920000Y-117475000D02*
X121920000Y-115570000D01*
X121285000Y-114935000D02*
X108585000Y-114935000D01*
X121920000Y-115570000D02*
X121285000Y-114935000D01*
%TO.N,Net-(Q1-B)*%
X130810000Y-125730000D02*
X127000000Y-121920000D01*
X130810000Y-127275000D02*
X130810000Y-125730000D01*
%TO.N,Net-(Q1-C)*%
X127000000Y-118745000D02*
X128270000Y-120015000D01*
X131445000Y-120650000D02*
X131445000Y-121920000D01*
X131445000Y-121920000D02*
X133350000Y-123825000D01*
X130810000Y-120015000D02*
X131445000Y-120650000D01*
X128270000Y-120015000D02*
X130810000Y-120015000D01*
X127000000Y-117475000D02*
X127000000Y-118745000D01*
X133350000Y-123825000D02*
X133350000Y-127275000D01*
%TO.N,Net-(U1B--)*%
X129540000Y-117475000D02*
X132080000Y-117475000D01*
X132080000Y-117475000D02*
X140335000Y-117475000D01*
%TO.N,Net-(U1A--)*%
X119380000Y-117475000D02*
X116840000Y-117475000D01*
X116840000Y-117475000D02*
X116840000Y-121920000D01*
%TO.N,/Vref*%
X170815000Y-130175000D02*
X170815000Y-127000000D01*
X141605000Y-121920000D02*
X141605000Y-125730000D01*
X145034000Y-129159000D02*
X155829000Y-129159000D01*
X159385000Y-132715000D02*
X160655000Y-132715000D01*
X155829000Y-129159000D02*
X159385000Y-132715000D01*
X168275000Y-132715000D02*
X170815000Y-130175000D01*
X165735000Y-132715000D02*
X168275000Y-132715000D01*
X165735000Y-120375000D02*
X170455000Y-120375000D01*
X160655000Y-132715000D02*
X165735000Y-132715000D01*
X170815000Y-120015000D02*
X170815000Y-127000000D01*
X141605000Y-125730000D02*
X145034000Y-129159000D01*
X170455000Y-120375000D02*
X170815000Y-120015000D01*
%TO.N,/Vinput*%
X144145000Y-109855000D02*
X132080000Y-109855000D01*
X129540000Y-109855000D02*
X132080000Y-109855000D01*
X149225000Y-114935000D02*
X144145000Y-109855000D01*
%TO.N,Net-(RVref1-Pad3)*%
X166370000Y-113665000D02*
X169545000Y-113665000D01*
X169545000Y-113665000D02*
X170815000Y-114935000D01*
%TO.N,Net-(U2-REF)*%
X160655000Y-120375000D02*
X160655000Y-118745000D01*
X161925000Y-117475000D02*
X170815000Y-117475000D01*
X160655000Y-118745000D02*
X161925000Y-117475000D01*
%TO.N,Net-(U1C-+)*%
X127000000Y-107950000D02*
X127000000Y-109855000D01*
X135255000Y-105410000D02*
X138430000Y-105410000D01*
X135255000Y-105410000D02*
X129540000Y-105410000D01*
X138430000Y-105410000D02*
X140335000Y-107315000D01*
X129540000Y-105410000D02*
X127000000Y-107950000D01*
%TD*%
%TA.AperFunction,Conductor*%
%TO.N,GND*%
G36*
X115599835Y-86880185D02*
G01*
X115645590Y-86932989D01*
X115655534Y-87002147D01*
X115632062Y-87058811D01*
X115546649Y-87172906D01*
X115546645Y-87172913D01*
X115496403Y-87307620D01*
X115496401Y-87307627D01*
X115490000Y-87367155D01*
X115490000Y-88015000D01*
X116406988Y-88015000D01*
X116374075Y-88072007D01*
X116340000Y-88199174D01*
X116340000Y-88330826D01*
X116374075Y-88457993D01*
X116406988Y-88515000D01*
X115454283Y-88515000D01*
X115387244Y-88495315D01*
X115366602Y-88478681D01*
X114522209Y-87634289D01*
X114522206Y-87634285D01*
X114522206Y-87634286D01*
X114515139Y-87627219D01*
X114515139Y-87627218D01*
X114375782Y-87487861D01*
X114375781Y-87487860D01*
X114375780Y-87487859D01*
X114211920Y-87378371D01*
X114211911Y-87378366D01*
X114139315Y-87348296D01*
X114083165Y-87325038D01*
X114029836Y-87302949D01*
X114029832Y-87302948D01*
X114029828Y-87302946D01*
X113933188Y-87283724D01*
X113836544Y-87264500D01*
X113836541Y-87264500D01*
X102333541Y-87264500D01*
X102136459Y-87264500D01*
X102136457Y-87264500D01*
X101943170Y-87302947D01*
X101943160Y-87302950D01*
X101761092Y-87378364D01*
X101761079Y-87378371D01*
X101597218Y-87487860D01*
X101597214Y-87487863D01*
X101457863Y-87627214D01*
X101457860Y-87627218D01*
X101348371Y-87791079D01*
X101348364Y-87791092D01*
X101272950Y-87973160D01*
X101272947Y-87973170D01*
X101234500Y-88166456D01*
X101234500Y-98594217D01*
X101214815Y-98661256D01*
X101198181Y-98681898D01*
X100773730Y-99106349D01*
X100327221Y-99552858D01*
X100327218Y-99552861D01*
X100267409Y-99612670D01*
X100187860Y-99692218D01*
X100170802Y-99717747D01*
X100117188Y-99762551D01*
X100047863Y-99771257D01*
X99984836Y-99741101D01*
X99955485Y-99699611D01*
X99954848Y-99699919D01*
X99831507Y-99443799D01*
X99682115Y-99206043D01*
X99575810Y-99072741D01*
X98934251Y-99714300D01*
X98860412Y-99612670D01*
X98682330Y-99434588D01*
X98580697Y-99360747D01*
X99222257Y-98719187D01*
X99088956Y-98612884D01*
X98851200Y-98463492D01*
X98598217Y-98341662D01*
X98333180Y-98248922D01*
X98333178Y-98248921D01*
X98059424Y-98186439D01*
X98059412Y-98186437D01*
X97780401Y-98155000D01*
X97499598Y-98155000D01*
X97220587Y-98186437D01*
X97220575Y-98186439D01*
X96946821Y-98248921D01*
X96946819Y-98248922D01*
X96681782Y-98341662D01*
X96428799Y-98463492D01*
X96191043Y-98612884D01*
X96057741Y-98719187D01*
X96699301Y-99360747D01*
X96597670Y-99434588D01*
X96419588Y-99612670D01*
X96345748Y-99714301D01*
X95704187Y-99072741D01*
X95597884Y-99206043D01*
X95448492Y-99443799D01*
X95326662Y-99696782D01*
X95233922Y-99961819D01*
X95233921Y-99961821D01*
X95171439Y-100235575D01*
X95171437Y-100235587D01*
X95140000Y-100514598D01*
X95140000Y-100795401D01*
X95171437Y-101074412D01*
X95171439Y-101074424D01*
X95233921Y-101348178D01*
X95233922Y-101348180D01*
X95326662Y-101613217D01*
X95448492Y-101866200D01*
X95597884Y-102103956D01*
X95704187Y-102237257D01*
X96345747Y-101595697D01*
X96419588Y-101697330D01*
X96597670Y-101875412D01*
X96699300Y-101949251D01*
X96057741Y-102590810D01*
X96057741Y-102590811D01*
X96191043Y-102697115D01*
X96428799Y-102846507D01*
X96547727Y-102903780D01*
X96599586Y-102950602D01*
X96617899Y-103018029D01*
X96596851Y-103084653D01*
X96543125Y-103129322D01*
X96493925Y-103139500D01*
X95786456Y-103139500D01*
X95593171Y-103177947D01*
X95593163Y-103177949D01*
X95547048Y-103197051D01*
X95547047Y-103197051D01*
X95411092Y-103253364D01*
X95411079Y-103253371D01*
X95326330Y-103310000D01*
X95310544Y-103320548D01*
X95294818Y-103331055D01*
X95247215Y-103362862D01*
X95247214Y-103362863D01*
X92707220Y-105902859D01*
X92707217Y-105902862D01*
X92652180Y-105957898D01*
X92590857Y-105991382D01*
X92521165Y-105986397D01*
X92465232Y-105944526D01*
X92440816Y-105879061D01*
X92440500Y-105870216D01*
X92440500Y-99525782D01*
X92460185Y-99458743D01*
X92476819Y-99438101D01*
X93234967Y-98679953D01*
X94059047Y-97855873D01*
X94896875Y-97018044D01*
X94958196Y-96984561D01*
X95000734Y-96982788D01*
X95135266Y-97000500D01*
X95135273Y-97000500D01*
X95364727Y-97000500D01*
X95364734Y-97000500D01*
X95592238Y-96970548D01*
X95813887Y-96911158D01*
X96025888Y-96823344D01*
X96224612Y-96708611D01*
X96406661Y-96568919D01*
X96406665Y-96568914D01*
X96406670Y-96568911D01*
X96568911Y-96406670D01*
X96568914Y-96406665D01*
X96568919Y-96406661D01*
X96708611Y-96224612D01*
X96823344Y-96025888D01*
X96911158Y-95813887D01*
X96970548Y-95592238D01*
X97000500Y-95364734D01*
X97000500Y-95135266D01*
X96970548Y-94907762D01*
X96911158Y-94686113D01*
X96861190Y-94565480D01*
X96823349Y-94474123D01*
X96823346Y-94474117D01*
X96823344Y-94474112D01*
X96708611Y-94275388D01*
X96708608Y-94275385D01*
X96708607Y-94275382D01*
X96568918Y-94093338D01*
X96568911Y-94093330D01*
X96406670Y-93931089D01*
X96406661Y-93931081D01*
X96224617Y-93791392D01*
X96025890Y-93676657D01*
X96025876Y-93676650D01*
X95813887Y-93588842D01*
X95592238Y-93529452D01*
X95554215Y-93524446D01*
X95364741Y-93499500D01*
X95364734Y-93499500D01*
X95135266Y-93499500D01*
X95135258Y-93499500D01*
X94918715Y-93528009D01*
X94907762Y-93529452D01*
X94814076Y-93554554D01*
X94686112Y-93588842D01*
X94474123Y-93676650D01*
X94474109Y-93676657D01*
X94275382Y-93791392D01*
X94093338Y-93931081D01*
X93931081Y-94093338D01*
X93791392Y-94275382D01*
X93676657Y-94474109D01*
X93676650Y-94474123D01*
X93588842Y-94686112D01*
X93529453Y-94907759D01*
X93529451Y-94907770D01*
X93499500Y-95135258D01*
X93499500Y-95364727D01*
X93499501Y-95364744D01*
X93517210Y-95499259D01*
X93506444Y-95568294D01*
X93481952Y-95603125D01*
X91468803Y-97616276D01*
X90802220Y-98282859D01*
X90802218Y-98282861D01*
X90762431Y-98322648D01*
X90662859Y-98422219D01*
X90553371Y-98586079D01*
X90553364Y-98586092D01*
X90477950Y-98768160D01*
X90477947Y-98768170D01*
X90439500Y-98961456D01*
X90439500Y-118208542D01*
X90451137Y-118267048D01*
X90451745Y-118270102D01*
X90477949Y-118401836D01*
X90489130Y-118428828D01*
X90492771Y-118437618D01*
X90492772Y-118437622D01*
X90553364Y-118583906D01*
X90553371Y-118583919D01*
X90587695Y-118635288D01*
X90662861Y-118747782D01*
X90802218Y-118887139D01*
X90802220Y-118887140D01*
X90809286Y-118894206D01*
X90809285Y-118894206D01*
X90809289Y-118894209D01*
X92767215Y-120852137D01*
X92767219Y-120852140D01*
X92931079Y-120961628D01*
X92931085Y-120961631D01*
X92931086Y-120961632D01*
X93113165Y-121037052D01*
X93263556Y-121066966D01*
X93292158Y-121072655D01*
X93306458Y-121075500D01*
X93306459Y-121075500D01*
X93306460Y-121075500D01*
X93503541Y-121075500D01*
X95344238Y-121075500D01*
X95411277Y-121095185D01*
X95417119Y-121099179D01*
X95538390Y-121187287D01*
X95720781Y-121280220D01*
X95866807Y-121327666D01*
X95911938Y-121342331D01*
X95969614Y-121381769D01*
X95996812Y-121446127D01*
X95984897Y-121514974D01*
X95937653Y-121566449D01*
X95911939Y-121578193D01*
X95720968Y-121640244D01*
X95538644Y-121733143D01*
X95494077Y-121765523D01*
X95494077Y-121765524D01*
X96090591Y-122362037D01*
X96027007Y-122379075D01*
X95912993Y-122444901D01*
X95819901Y-122537993D01*
X95754075Y-122652007D01*
X95737037Y-122715590D01*
X95140524Y-122119077D01*
X95140523Y-122119077D01*
X95108143Y-122163644D01*
X95015244Y-122345968D01*
X94952009Y-122540582D01*
X94920000Y-122742682D01*
X94920000Y-122947317D01*
X94952009Y-123149417D01*
X95015244Y-123344031D01*
X95108141Y-123526350D01*
X95108147Y-123526359D01*
X95140523Y-123570921D01*
X95140524Y-123570922D01*
X95737037Y-122974408D01*
X95754075Y-123037993D01*
X95819901Y-123152007D01*
X95912993Y-123245099D01*
X96027007Y-123310925D01*
X96090590Y-123327962D01*
X95494076Y-123924474D01*
X95538650Y-123956859D01*
X95720968Y-124049755D01*
X95912747Y-124112069D01*
X95970422Y-124151507D01*
X95997620Y-124215866D01*
X95985705Y-124284712D01*
X95938461Y-124336188D01*
X95912747Y-124347931D01*
X95720968Y-124410244D01*
X95538644Y-124503143D01*
X95494077Y-124535523D01*
X95494077Y-124535524D01*
X96090591Y-125132037D01*
X96027007Y-125149075D01*
X95912993Y-125214901D01*
X95819901Y-125307993D01*
X95754075Y-125422007D01*
X95737037Y-125485590D01*
X95140524Y-124889077D01*
X95140523Y-124889077D01*
X95108143Y-124933644D01*
X95015244Y-125115968D01*
X94952009Y-125310582D01*
X94920000Y-125512682D01*
X94920000Y-125717317D01*
X94952009Y-125919417D01*
X95015244Y-126114031D01*
X95108141Y-126296350D01*
X95108147Y-126296359D01*
X95140523Y-126340921D01*
X95140524Y-126340922D01*
X95737037Y-125744408D01*
X95754075Y-125807993D01*
X95819901Y-125922007D01*
X95912993Y-126015099D01*
X96027007Y-126080925D01*
X96090590Y-126097962D01*
X95494076Y-126694474D01*
X95538650Y-126726859D01*
X95720968Y-126819755D01*
X95915582Y-126882990D01*
X96117683Y-126915000D01*
X96322317Y-126915000D01*
X96524417Y-126882990D01*
X96719031Y-126819755D01*
X96901349Y-126726859D01*
X96945921Y-126694474D01*
X96349409Y-126097962D01*
X96412993Y-126080925D01*
X96527007Y-126015099D01*
X96620099Y-125922007D01*
X96685925Y-125807993D01*
X96702962Y-125744409D01*
X97299474Y-126340921D01*
X97331859Y-126296349D01*
X97424755Y-126114031D01*
X97487990Y-125919417D01*
X97520000Y-125717317D01*
X97520000Y-125512682D01*
X97487990Y-125310582D01*
X97424755Y-125115968D01*
X97331859Y-124933650D01*
X97299474Y-124889077D01*
X97299474Y-124889076D01*
X96702962Y-125485589D01*
X96685925Y-125422007D01*
X96620099Y-125307993D01*
X96527007Y-125214901D01*
X96412993Y-125149075D01*
X96349408Y-125132037D01*
X96945922Y-124535524D01*
X96945921Y-124535523D01*
X96901359Y-124503147D01*
X96901350Y-124503141D01*
X96719031Y-124410244D01*
X96527252Y-124347931D01*
X96469577Y-124308493D01*
X96442379Y-124244134D01*
X96454294Y-124175288D01*
X96501538Y-124123812D01*
X96527252Y-124112069D01*
X96719031Y-124049755D01*
X96901349Y-123956859D01*
X96945921Y-123924474D01*
X96349409Y-123327962D01*
X96412993Y-123310925D01*
X96527007Y-123245099D01*
X96620099Y-123152007D01*
X96685925Y-123037993D01*
X96702962Y-122974409D01*
X97299474Y-123570921D01*
X97331859Y-123526349D01*
X97424755Y-123344031D01*
X97487990Y-123149417D01*
X97520000Y-122947317D01*
X97520000Y-122742682D01*
X97487990Y-122540582D01*
X97424755Y-122345968D01*
X97331859Y-122163650D01*
X97299474Y-122119077D01*
X97299474Y-122119076D01*
X96702962Y-122715589D01*
X96685925Y-122652007D01*
X96620099Y-122537993D01*
X96527007Y-122444901D01*
X96412993Y-122379075D01*
X96349408Y-122362037D01*
X96945922Y-121765524D01*
X96945921Y-121765523D01*
X96901359Y-121733147D01*
X96901350Y-121733141D01*
X96719031Y-121640244D01*
X96528060Y-121578193D01*
X96470385Y-121538755D01*
X96443187Y-121474396D01*
X96455102Y-121405550D01*
X96502347Y-121354074D01*
X96528061Y-121342331D01*
X96719219Y-121280220D01*
X96901610Y-121187287D01*
X97004406Y-121112602D01*
X97067213Y-121066971D01*
X97067220Y-121066965D01*
X97138564Y-120995621D01*
X97211966Y-120922219D01*
X97211968Y-120922215D01*
X97211971Y-120922213D01*
X97292708Y-120811086D01*
X97332287Y-120756610D01*
X97425220Y-120574219D01*
X97488477Y-120379534D01*
X97520500Y-120177352D01*
X97520500Y-119972648D01*
X97519892Y-119968812D01*
X97488477Y-119770465D01*
X97442824Y-119629961D01*
X97425220Y-119575781D01*
X97425218Y-119575778D01*
X97425218Y-119575776D01*
X97391247Y-119509106D01*
X97332287Y-119393390D01*
X97287191Y-119331320D01*
X97211971Y-119227786D01*
X97067213Y-119083028D01*
X96901613Y-118962715D01*
X96901612Y-118962714D01*
X96901610Y-118962713D01*
X96844486Y-118933607D01*
X96719223Y-118869781D01*
X96528868Y-118807931D01*
X96471193Y-118768493D01*
X96443995Y-118704134D01*
X96455910Y-118635288D01*
X96503154Y-118583812D01*
X96528868Y-118572069D01*
X96576445Y-118556610D01*
X96719219Y-118510220D01*
X96901610Y-118417287D01*
X97032461Y-118322219D01*
X97067213Y-118296971D01*
X97067215Y-118296968D01*
X97067219Y-118296966D01*
X97211966Y-118152219D01*
X97211968Y-118152215D01*
X97211971Y-118152213D01*
X97264732Y-118079590D01*
X97332287Y-117986610D01*
X97425220Y-117804219D01*
X97488477Y-117609534D01*
X97520500Y-117407352D01*
X97520500Y-117202648D01*
X97518370Y-117189197D01*
X97488477Y-117000465D01*
X97435435Y-116837221D01*
X97425220Y-116805781D01*
X97425218Y-116805778D01*
X97425218Y-116805776D01*
X97370869Y-116699112D01*
X97332287Y-116623390D01*
X97316463Y-116601610D01*
X97211971Y-116457786D01*
X97067213Y-116313028D01*
X96901613Y-116192715D01*
X96901612Y-116192714D01*
X96901610Y-116192713D01*
X96844653Y-116163691D01*
X96719223Y-116099781D01*
X96528868Y-116037931D01*
X96471193Y-115998493D01*
X96443995Y-115934134D01*
X96455910Y-115865288D01*
X96503154Y-115813812D01*
X96528868Y-115802069D01*
X96571508Y-115788213D01*
X96719219Y-115740220D01*
X96901610Y-115647287D01*
X97005872Y-115571537D01*
X97067213Y-115526971D01*
X97067215Y-115526968D01*
X97067219Y-115526966D01*
X97211966Y-115382219D01*
X97211968Y-115382215D01*
X97211971Y-115382213D01*
X97287565Y-115278165D01*
X97332287Y-115216610D01*
X97425220Y-115034219D01*
X97488477Y-114839534D01*
X97520500Y-114637352D01*
X97520500Y-114432648D01*
X97519892Y-114428812D01*
X97488477Y-114230465D01*
X97431532Y-114055208D01*
X97425220Y-114035781D01*
X97425218Y-114035778D01*
X97425218Y-114035776D01*
X97383410Y-113953724D01*
X97332287Y-113853390D01*
X97296344Y-113803918D01*
X97211971Y-113687786D01*
X97067213Y-113543028D01*
X96901613Y-113422715D01*
X96901612Y-113422714D01*
X96901610Y-113422713D01*
X96844653Y-113393691D01*
X96719223Y-113329781D01*
X96528868Y-113267931D01*
X96471193Y-113228493D01*
X96443995Y-113164134D01*
X96455910Y-113095288D01*
X96503154Y-113043812D01*
X96528868Y-113032069D01*
X96571508Y-113018213D01*
X96719219Y-112970220D01*
X96901610Y-112877287D01*
X96994590Y-112809732D01*
X97067213Y-112756971D01*
X97067215Y-112756968D01*
X97067219Y-112756966D01*
X97211966Y-112612219D01*
X97211968Y-112612215D01*
X97211971Y-112612213D01*
X97264732Y-112539590D01*
X97332287Y-112446610D01*
X97425220Y-112264219D01*
X97488477Y-112069534D01*
X97520500Y-111867352D01*
X97520500Y-111662648D01*
X97519892Y-111658812D01*
X97488477Y-111460465D01*
X97450002Y-111342051D01*
X97425220Y-111265781D01*
X97425218Y-111265778D01*
X97425218Y-111265776D01*
X97369864Y-111157139D01*
X97332287Y-111083390D01*
X97324556Y-111072749D01*
X97211971Y-110917786D01*
X97067213Y-110773028D01*
X96901613Y-110652715D01*
X96901612Y-110652714D01*
X96901610Y-110652713D01*
X96844653Y-110623691D01*
X96719223Y-110559781D01*
X96528868Y-110497931D01*
X96471193Y-110458493D01*
X96443995Y-110394134D01*
X96455910Y-110325288D01*
X96503154Y-110273812D01*
X96528868Y-110262069D01*
X96571508Y-110248213D01*
X96719219Y-110200220D01*
X96901610Y-110107287D01*
X96994590Y-110039732D01*
X97067213Y-109986971D01*
X97067215Y-109986968D01*
X97067219Y-109986966D01*
X97211966Y-109842219D01*
X97211968Y-109842215D01*
X97211971Y-109842213D01*
X97287704Y-109737974D01*
X97332287Y-109676610D01*
X97425220Y-109494219D01*
X97488477Y-109299534D01*
X97520500Y-109097352D01*
X97520500Y-108892648D01*
X97519892Y-108888812D01*
X97488477Y-108690465D01*
X97453305Y-108582218D01*
X97425220Y-108495781D01*
X97425218Y-108495778D01*
X97425218Y-108495776D01*
X97391503Y-108429607D01*
X97332287Y-108313390D01*
X97316463Y-108291610D01*
X97211971Y-108147786D01*
X97067213Y-108003028D01*
X96901613Y-107882715D01*
X96901612Y-107882714D01*
X96901610Y-107882713D01*
X96840261Y-107851454D01*
X96719223Y-107789781D01*
X96524534Y-107726522D01*
X96349995Y-107698878D01*
X96322352Y-107694500D01*
X96117648Y-107694500D01*
X96093329Y-107698351D01*
X95915465Y-107726522D01*
X95720776Y-107789781D01*
X95538386Y-107882715D01*
X95372786Y-108003028D01*
X95228028Y-108147786D01*
X95107715Y-108313386D01*
X95014781Y-108495776D01*
X94951522Y-108690465D01*
X94919500Y-108892648D01*
X94919500Y-109097351D01*
X94951522Y-109299534D01*
X95014781Y-109494223D01*
X95071226Y-109605000D01*
X95100272Y-109662007D01*
X95107715Y-109676613D01*
X95228028Y-109842213D01*
X95372786Y-109986971D01*
X95527749Y-110099556D01*
X95538390Y-110107287D01*
X95645784Y-110162007D01*
X95720776Y-110200218D01*
X95720778Y-110200218D01*
X95720781Y-110200220D01*
X95799956Y-110225945D01*
X95911131Y-110262069D01*
X95968806Y-110301507D01*
X95996004Y-110365866D01*
X95984089Y-110434712D01*
X95936845Y-110486188D01*
X95911131Y-110497931D01*
X95720776Y-110559781D01*
X95538386Y-110652715D01*
X95372786Y-110773028D01*
X95228028Y-110917786D01*
X95107715Y-111083386D01*
X95014781Y-111265776D01*
X94951522Y-111460465D01*
X94919500Y-111662648D01*
X94919500Y-111867351D01*
X94951522Y-112069534D01*
X95014781Y-112264223D01*
X95107715Y-112446613D01*
X95228028Y-112612213D01*
X95372786Y-112756971D01*
X95527749Y-112869556D01*
X95538390Y-112877287D01*
X95654607Y-112936503D01*
X95720776Y-112970218D01*
X95720778Y-112970218D01*
X95720781Y-112970220D01*
X95799956Y-112995945D01*
X95911131Y-113032069D01*
X95968806Y-113071507D01*
X95996004Y-113135866D01*
X95984089Y-113204712D01*
X95936845Y-113256188D01*
X95911131Y-113267931D01*
X95720776Y-113329781D01*
X95538386Y-113422715D01*
X95372786Y-113543028D01*
X95228028Y-113687786D01*
X95107715Y-113853386D01*
X95014781Y-114035776D01*
X94951522Y-114230465D01*
X94920108Y-114428812D01*
X94919500Y-114432648D01*
X94919500Y-114637352D01*
X94921745Y-114651523D01*
X94951522Y-114839534D01*
X95014781Y-115034223D01*
X95058203Y-115119441D01*
X95092993Y-115187721D01*
X95107715Y-115216613D01*
X95228028Y-115382213D01*
X95372786Y-115526971D01*
X95527749Y-115639556D01*
X95538390Y-115647287D01*
X95654607Y-115706503D01*
X95720776Y-115740218D01*
X95720778Y-115740218D01*
X95720781Y-115740220D01*
X95798819Y-115765576D01*
X95911131Y-115802069D01*
X95968806Y-115841507D01*
X95996004Y-115905866D01*
X95984089Y-115974712D01*
X95936845Y-116026188D01*
X95911131Y-116037931D01*
X95720776Y-116099781D01*
X95538386Y-116192715D01*
X95417123Y-116280818D01*
X95351317Y-116304298D01*
X95344238Y-116304500D01*
X94910782Y-116304500D01*
X94843743Y-116284815D01*
X94823101Y-116268181D01*
X94381819Y-115826899D01*
X94348334Y-115765576D01*
X94345500Y-115739218D01*
X94345500Y-107145782D01*
X94365185Y-107078743D01*
X94381819Y-107058101D01*
X96263102Y-105176819D01*
X96324425Y-105143334D01*
X96350783Y-105140500D01*
X99158542Y-105140500D01*
X99218600Y-105128553D01*
X99255188Y-105121275D01*
X99351836Y-105102051D01*
X99436852Y-105066836D01*
X99533914Y-105026632D01*
X99697782Y-104917139D01*
X99837139Y-104777782D01*
X99837140Y-104777779D01*
X99844206Y-104770714D01*
X99844208Y-104770710D01*
X101022820Y-103592098D01*
X101084142Y-103558615D01*
X101153834Y-103563599D01*
X101209767Y-103605471D01*
X101234184Y-103670935D01*
X101234500Y-103679781D01*
X101234500Y-109255500D01*
X101214815Y-109322539D01*
X101162011Y-109368294D01*
X101110500Y-109379500D01*
X99935762Y-109379500D01*
X99868723Y-109359815D01*
X99862877Y-109355818D01*
X99741613Y-109267715D01*
X99741612Y-109267714D01*
X99741610Y-109267713D01*
X99650985Y-109221537D01*
X99559223Y-109174781D01*
X99368868Y-109112931D01*
X99311193Y-109073493D01*
X99283995Y-109009134D01*
X99295910Y-108940288D01*
X99343154Y-108888812D01*
X99368868Y-108877069D01*
X99411508Y-108863213D01*
X99559219Y-108815220D01*
X99741610Y-108722287D01*
X99857683Y-108637956D01*
X99907213Y-108601971D01*
X99907215Y-108601968D01*
X99907219Y-108601966D01*
X100051966Y-108457219D01*
X100051968Y-108457215D01*
X100051971Y-108457213D01*
X100119388Y-108364420D01*
X100172287Y-108291610D01*
X100265220Y-108109219D01*
X100328477Y-107914534D01*
X100360500Y-107712352D01*
X100360500Y-107507648D01*
X100329547Y-107312219D01*
X100328477Y-107305465D01*
X100285390Y-107172859D01*
X100265220Y-107110781D01*
X100265218Y-107110778D01*
X100265218Y-107110776D01*
X100214106Y-107010465D01*
X100172287Y-106928390D01*
X100164556Y-106917749D01*
X100051971Y-106762786D01*
X99907213Y-106618028D01*
X99741613Y-106497715D01*
X99741612Y-106497714D01*
X99741610Y-106497713D01*
X99682865Y-106467781D01*
X99559223Y-106404781D01*
X99364534Y-106341522D01*
X99189995Y-106313878D01*
X99162352Y-106309500D01*
X98957648Y-106309500D01*
X98933329Y-106313351D01*
X98755465Y-106341522D01*
X98560776Y-106404781D01*
X98378386Y-106497715D01*
X98212786Y-106618028D01*
X98068028Y-106762786D01*
X97947715Y-106928386D01*
X97854781Y-107110776D01*
X97791522Y-107305465D01*
X97759500Y-107507648D01*
X97759500Y-107712351D01*
X97791522Y-107914534D01*
X97854781Y-108109223D01*
X97947715Y-108291613D01*
X98068028Y-108457213D01*
X98212786Y-108601971D01*
X98343954Y-108697268D01*
X98378390Y-108722287D01*
X98494607Y-108781503D01*
X98560776Y-108815218D01*
X98560778Y-108815218D01*
X98560781Y-108815220D01*
X98621088Y-108834815D01*
X98751131Y-108877069D01*
X98808806Y-108916507D01*
X98836004Y-108980866D01*
X98824089Y-109049712D01*
X98776845Y-109101188D01*
X98751131Y-109112931D01*
X98560776Y-109174781D01*
X98378386Y-109267715D01*
X98212786Y-109388028D01*
X98068028Y-109532786D01*
X97947715Y-109698386D01*
X97854781Y-109880776D01*
X97791522Y-110075465D01*
X97759500Y-110277648D01*
X97759500Y-110482351D01*
X97791522Y-110684534D01*
X97854781Y-110879223D01*
X97918691Y-111004653D01*
X97937752Y-111042061D01*
X97947715Y-111061613D01*
X98068028Y-111227213D01*
X98212786Y-111371971D01*
X98367749Y-111484556D01*
X98378390Y-111492287D01*
X98455558Y-111531606D01*
X98560776Y-111585218D01*
X98560778Y-111585218D01*
X98560781Y-111585220D01*
X98639956Y-111610945D01*
X98751131Y-111647069D01*
X98808806Y-111686507D01*
X98836004Y-111750866D01*
X98824089Y-111819712D01*
X98776845Y-111871188D01*
X98751131Y-111882931D01*
X98560776Y-111944781D01*
X98378386Y-112037715D01*
X98212786Y-112158028D01*
X98068028Y-112302786D01*
X97947715Y-112468386D01*
X97854781Y-112650776D01*
X97791522Y-112845465D01*
X97759500Y-113047648D01*
X97759500Y-113252351D01*
X97791522Y-113454534D01*
X97854781Y-113649223D01*
X97947715Y-113831613D01*
X98068028Y-113997213D01*
X98212786Y-114141971D01*
X98367749Y-114254556D01*
X98378390Y-114262287D01*
X98494607Y-114321503D01*
X98560776Y-114355218D01*
X98560778Y-114355218D01*
X98560781Y-114355220D01*
X98639956Y-114380945D01*
X98751131Y-114417069D01*
X98808806Y-114456507D01*
X98836004Y-114520866D01*
X98824089Y-114589712D01*
X98776845Y-114641188D01*
X98751131Y-114652931D01*
X98560776Y-114714781D01*
X98378386Y-114807715D01*
X98212786Y-114928028D01*
X98068028Y-115072786D01*
X97947715Y-115238386D01*
X97854781Y-115420776D01*
X97791522Y-115615465D01*
X97759500Y-115817648D01*
X97759500Y-116022351D01*
X97791522Y-116224534D01*
X97854781Y-116419223D01*
X97900233Y-116508426D01*
X97941797Y-116590000D01*
X97947715Y-116601613D01*
X98068028Y-116767213D01*
X98212786Y-116911971D01*
X98354299Y-117014784D01*
X98378390Y-117032287D01*
X98466058Y-117076956D01*
X98560776Y-117125218D01*
X98560778Y-117125218D01*
X98560781Y-117125220D01*
X98584018Y-117132770D01*
X98751131Y-117187069D01*
X98808806Y-117226507D01*
X98836004Y-117290866D01*
X98824089Y-117359712D01*
X98776845Y-117411188D01*
X98751131Y-117422931D01*
X98560776Y-117484781D01*
X98378386Y-117577715D01*
X98212786Y-117698028D01*
X98068028Y-117842786D01*
X97947715Y-118008386D01*
X97854781Y-118190776D01*
X97791522Y-118385465D01*
X97759500Y-118587648D01*
X97759500Y-118792351D01*
X97791522Y-118994534D01*
X97854781Y-119189223D01*
X97914233Y-119305902D01*
X97944304Y-119364920D01*
X97947715Y-119371613D01*
X98068028Y-119537213D01*
X98212786Y-119681971D01*
X98361895Y-119790303D01*
X98378390Y-119802287D01*
X98494607Y-119861503D01*
X98560776Y-119895218D01*
X98560778Y-119895218D01*
X98560781Y-119895220D01*
X98633799Y-119918945D01*
X98751131Y-119957069D01*
X98808806Y-119996507D01*
X98836004Y-120060866D01*
X98824089Y-120129712D01*
X98776845Y-120181188D01*
X98751131Y-120192931D01*
X98560776Y-120254781D01*
X98378386Y-120347715D01*
X98212786Y-120468028D01*
X98068028Y-120612786D01*
X97947715Y-120778386D01*
X97854781Y-120960776D01*
X97791522Y-121155465D01*
X97759500Y-121357648D01*
X97759500Y-121562351D01*
X97791522Y-121764534D01*
X97854781Y-121959223D01*
X97896574Y-122041245D01*
X97936231Y-122119076D01*
X97947715Y-122141613D01*
X98068028Y-122307213D01*
X98212786Y-122451971D01*
X98331188Y-122537993D01*
X98378390Y-122572287D01*
X98494607Y-122631503D01*
X98560776Y-122665218D01*
X98560778Y-122665218D01*
X98560781Y-122665220D01*
X98639956Y-122690945D01*
X98751131Y-122727069D01*
X98808806Y-122766507D01*
X98836004Y-122830866D01*
X98824089Y-122899712D01*
X98776845Y-122951188D01*
X98751131Y-122962931D01*
X98560776Y-123024781D01*
X98378386Y-123117715D01*
X98212786Y-123238028D01*
X98068028Y-123382786D01*
X97947715Y-123548386D01*
X97854781Y-123730776D01*
X97791522Y-123925465D01*
X97759500Y-124127648D01*
X97759500Y-124332351D01*
X97791522Y-124534534D01*
X97854781Y-124729223D01*
X97859271Y-124738034D01*
X97936231Y-124889076D01*
X97947715Y-124911613D01*
X98068028Y-125077213D01*
X98212786Y-125221971D01*
X98331188Y-125307993D01*
X98378390Y-125342287D01*
X98494607Y-125401503D01*
X98560776Y-125435218D01*
X98560778Y-125435218D01*
X98560781Y-125435220D01*
X98631104Y-125458069D01*
X98688779Y-125497507D01*
X98715977Y-125561866D01*
X98704062Y-125630712D01*
X98656818Y-125682188D01*
X98592785Y-125700000D01*
X98212155Y-125700000D01*
X98152627Y-125706401D01*
X98152620Y-125706403D01*
X98017913Y-125756645D01*
X98017906Y-125756649D01*
X97902812Y-125842809D01*
X97902809Y-125842812D01*
X97816649Y-125957906D01*
X97816645Y-125957913D01*
X97766403Y-126092620D01*
X97766401Y-126092627D01*
X97760000Y-126152155D01*
X97760000Y-126750000D01*
X98626988Y-126750000D01*
X98594075Y-126807007D01*
X98560000Y-126934174D01*
X98560000Y-127065826D01*
X98594075Y-127192993D01*
X98626988Y-127250000D01*
X97760000Y-127250000D01*
X97760000Y-127847844D01*
X97766401Y-127907372D01*
X97766403Y-127907379D01*
X97816645Y-128042086D01*
X97816649Y-128042093D01*
X97902809Y-128157187D01*
X97902812Y-128157190D01*
X98017906Y-128243350D01*
X98017913Y-128243354D01*
X98152620Y-128293596D01*
X98152627Y-128293598D01*
X98212155Y-128299999D01*
X98212172Y-128300000D01*
X98810000Y-128300000D01*
X98810000Y-127433012D01*
X98867007Y-127465925D01*
X98994174Y-127500000D01*
X99125826Y-127500000D01*
X99252993Y-127465925D01*
X99310000Y-127433012D01*
X99310000Y-128300000D01*
X99907828Y-128300000D01*
X99907844Y-128299999D01*
X99967372Y-128293598D01*
X99967379Y-128293596D01*
X100102086Y-128243354D01*
X100102093Y-128243350D01*
X100217187Y-128157190D01*
X100217190Y-128157187D01*
X100303350Y-128042093D01*
X100303354Y-128042086D01*
X100353596Y-127907379D01*
X100353598Y-127907372D01*
X100359999Y-127847844D01*
X100360000Y-127847827D01*
X100360000Y-127250000D01*
X99493012Y-127250000D01*
X99525925Y-127192993D01*
X99560000Y-127065826D01*
X99560000Y-126934174D01*
X99525925Y-126807007D01*
X99493012Y-126750000D01*
X100360000Y-126750000D01*
X100360000Y-126152172D01*
X100359999Y-126152155D01*
X100353598Y-126092627D01*
X100353596Y-126092620D01*
X100303354Y-125957913D01*
X100303350Y-125957906D01*
X100217190Y-125842812D01*
X100217187Y-125842809D01*
X100102093Y-125756649D01*
X100102086Y-125756645D01*
X99967379Y-125706403D01*
X99967372Y-125706401D01*
X99907844Y-125700000D01*
X99527215Y-125700000D01*
X99460176Y-125680315D01*
X99414421Y-125627511D01*
X99404477Y-125558353D01*
X99433502Y-125494797D01*
X99488895Y-125458069D01*
X99559219Y-125435220D01*
X99741610Y-125342287D01*
X99860254Y-125256088D01*
X99907213Y-125221971D01*
X99907215Y-125221968D01*
X99907219Y-125221966D01*
X100051966Y-125077219D01*
X100051968Y-125077215D01*
X100051971Y-125077213D01*
X100156278Y-124933644D01*
X100172287Y-124911610D01*
X100265220Y-124729219D01*
X100328477Y-124534534D01*
X100360500Y-124332352D01*
X100360500Y-124127648D01*
X100358786Y-124116829D01*
X100328477Y-123925465D01*
X100265218Y-123730776D01*
X100198142Y-123599134D01*
X100172287Y-123548390D01*
X100156274Y-123526350D01*
X100051971Y-123382786D01*
X99907213Y-123238028D01*
X99741613Y-123117715D01*
X99741612Y-123117714D01*
X99741610Y-123117713D01*
X99665400Y-123078882D01*
X99559223Y-123024781D01*
X99368868Y-122962931D01*
X99311193Y-122923493D01*
X99283995Y-122859134D01*
X99295910Y-122790288D01*
X99343154Y-122738812D01*
X99368868Y-122727069D01*
X99411508Y-122713213D01*
X99559219Y-122665220D01*
X99741610Y-122572287D01*
X99862877Y-122484181D01*
X99928683Y-122460702D01*
X99935762Y-122460500D01*
X103735104Y-122460500D01*
X103802143Y-122480185D01*
X103833480Y-122509014D01*
X103916079Y-122616659D01*
X103916085Y-122616666D01*
X104078330Y-122778911D01*
X104078338Y-122778918D01*
X104078339Y-122778919D01*
X104091061Y-122788681D01*
X104260382Y-122918607D01*
X104260385Y-122918608D01*
X104260388Y-122918611D01*
X104459112Y-123033344D01*
X104459117Y-123033346D01*
X104459123Y-123033349D01*
X104550480Y-123071190D01*
X104671113Y-123121158D01*
X104892762Y-123180548D01*
X105120266Y-123210500D01*
X105120273Y-123210500D01*
X105349727Y-123210500D01*
X105349734Y-123210500D01*
X105577238Y-123180548D01*
X105798887Y-123121158D01*
X106010888Y-123033344D01*
X106209612Y-122918611D01*
X106391661Y-122778919D01*
X106391665Y-122778914D01*
X106391670Y-122778911D01*
X106553911Y-122616670D01*
X106553914Y-122616665D01*
X106553919Y-122616661D01*
X106693611Y-122434612D01*
X106808344Y-122235888D01*
X106896158Y-122023887D01*
X106955548Y-121802238D01*
X106985500Y-121574734D01*
X106985500Y-121399782D01*
X107005185Y-121332743D01*
X107057989Y-121286988D01*
X107127147Y-121277044D01*
X107190703Y-121306069D01*
X107197181Y-121312101D01*
X107548181Y-121663101D01*
X107581666Y-121724424D01*
X107584500Y-121750782D01*
X107584500Y-125404800D01*
X107564815Y-125471839D01*
X107555506Y-125484365D01*
X107429951Y-125657179D01*
X107333444Y-125846585D01*
X107333443Y-125846587D01*
X107333443Y-125846588D01*
X107267754Y-126048757D01*
X107234500Y-126258713D01*
X107234500Y-126471287D01*
X107240179Y-126507140D01*
X107262242Y-126646446D01*
X107267754Y-126681243D01*
X107324125Y-126854735D01*
X107333444Y-126883414D01*
X107429951Y-127072820D01*
X107554890Y-127244786D01*
X107668818Y-127358714D01*
X107702303Y-127420037D01*
X107697319Y-127489729D01*
X107655447Y-127545662D01*
X107624471Y-127562577D01*
X107492912Y-127611646D01*
X107492906Y-127611649D01*
X107377812Y-127697809D01*
X107377809Y-127697812D01*
X107291649Y-127812906D01*
X107291645Y-127812913D01*
X107241403Y-127947620D01*
X107241401Y-127947627D01*
X107235000Y-128007155D01*
X107235000Y-128655000D01*
X108151988Y-128655000D01*
X108119075Y-128712007D01*
X108085000Y-128839174D01*
X108085000Y-128970826D01*
X108119075Y-129097993D01*
X108151988Y-129155000D01*
X107235000Y-129155000D01*
X107235000Y-129802844D01*
X107241401Y-129862372D01*
X107241403Y-129862379D01*
X107291645Y-129997086D01*
X107291649Y-129997093D01*
X107377809Y-130112187D01*
X107377812Y-130112190D01*
X107492906Y-130198350D01*
X107492913Y-130198354D01*
X107627620Y-130248596D01*
X107627627Y-130248598D01*
X107687155Y-130254999D01*
X107687172Y-130255000D01*
X108335000Y-130255000D01*
X108335000Y-129338012D01*
X108392007Y-129370925D01*
X108519174Y-129405000D01*
X108650826Y-129405000D01*
X108777993Y-129370925D01*
X108835000Y-129338012D01*
X108835000Y-130255000D01*
X109482828Y-130255000D01*
X109482844Y-130254999D01*
X109542372Y-130248598D01*
X109542379Y-130248596D01*
X109677086Y-130198354D01*
X109677093Y-130198350D01*
X109792187Y-130112190D01*
X109792190Y-130112187D01*
X109878350Y-129997093D01*
X109878354Y-129997086D01*
X109928596Y-129862379D01*
X109928598Y-129862372D01*
X109934999Y-129802844D01*
X109935000Y-129802827D01*
X109935000Y-129155000D01*
X109018012Y-129155000D01*
X109050925Y-129097993D01*
X109085000Y-128970826D01*
X109085000Y-128839174D01*
X109050925Y-128712007D01*
X109018012Y-128655000D01*
X109935000Y-128655000D01*
X109935000Y-128007172D01*
X109934999Y-128007155D01*
X109928598Y-127947627D01*
X109928596Y-127947620D01*
X109878354Y-127812913D01*
X109878350Y-127812906D01*
X109792190Y-127697812D01*
X109792187Y-127697809D01*
X109677093Y-127611649D01*
X109677088Y-127611646D01*
X109545528Y-127562577D01*
X109489595Y-127520705D01*
X109465178Y-127455241D01*
X109480030Y-127386968D01*
X109501175Y-127358720D01*
X109615104Y-127244792D01*
X109740051Y-127072816D01*
X109836557Y-126883412D01*
X109902246Y-126681243D01*
X109935500Y-126471287D01*
X109935500Y-126258713D01*
X109902246Y-126048757D01*
X109836557Y-125846588D01*
X109740051Y-125657184D01*
X109740050Y-125657182D01*
X109612241Y-125481266D01*
X109613108Y-125480635D01*
X109586641Y-125421581D01*
X109585500Y-125404800D01*
X109585500Y-121186458D01*
X109585499Y-121186455D01*
X109554459Y-121030405D01*
X109547051Y-120993164D01*
X109509137Y-120901632D01*
X109471632Y-120811086D01*
X109445904Y-120772581D01*
X109362139Y-120647217D01*
X109219686Y-120504764D01*
X109219655Y-120504735D01*
X107751601Y-119036681D01*
X107718116Y-118975358D01*
X107723100Y-118905666D01*
X107764972Y-118849733D01*
X107830436Y-118825316D01*
X107839282Y-118825000D01*
X108335000Y-118825000D01*
X108335000Y-117908012D01*
X108392007Y-117940925D01*
X108519174Y-117975000D01*
X108650826Y-117975000D01*
X108777993Y-117940925D01*
X108835000Y-117908012D01*
X108835000Y-118825000D01*
X109482828Y-118825000D01*
X109482844Y-118824999D01*
X109542372Y-118818598D01*
X109542379Y-118818596D01*
X109677086Y-118768354D01*
X109677093Y-118768350D01*
X109792187Y-118682190D01*
X109792190Y-118682187D01*
X109878350Y-118567093D01*
X109878354Y-118567086D01*
X109928596Y-118432379D01*
X109928598Y-118432372D01*
X109934999Y-118372844D01*
X109935000Y-118372827D01*
X109935000Y-117725000D01*
X109018012Y-117725000D01*
X109050925Y-117667993D01*
X109085000Y-117540826D01*
X109085000Y-117409174D01*
X109050925Y-117282007D01*
X109018012Y-117225000D01*
X109935000Y-117225000D01*
X109935000Y-116577172D01*
X109934999Y-116577155D01*
X109928598Y-116517627D01*
X109928596Y-116517620D01*
X109878354Y-116382913D01*
X109878350Y-116382906D01*
X109792190Y-116267812D01*
X109792187Y-116267809D01*
X109677093Y-116181649D01*
X109677086Y-116181645D01*
X109661097Y-116175682D01*
X109605163Y-116133811D01*
X109580746Y-116068347D01*
X109595597Y-116000074D01*
X109645002Y-115950668D01*
X109704430Y-115935500D01*
X115549651Y-115935500D01*
X115616690Y-115955185D01*
X115662445Y-116007989D01*
X115672389Y-116077147D01*
X115655190Y-116124594D01*
X115641260Y-116147181D01*
X115605187Y-116205663D01*
X115605185Y-116205668D01*
X115583941Y-116269780D01*
X115550001Y-116372203D01*
X115550001Y-116372204D01*
X115550000Y-116372204D01*
X115539500Y-116474983D01*
X115539500Y-118475001D01*
X115539501Y-118475018D01*
X115550000Y-118577796D01*
X115550001Y-118577799D01*
X115605185Y-118744331D01*
X115605187Y-118744336D01*
X115620087Y-118768493D01*
X115693268Y-118887139D01*
X115697289Y-118893657D01*
X115803181Y-118999549D01*
X115836666Y-119060872D01*
X115839500Y-119087230D01*
X115839500Y-121044237D01*
X115819815Y-121111276D01*
X115815818Y-121117122D01*
X115727715Y-121238386D01*
X115634781Y-121420776D01*
X115571522Y-121615465D01*
X115539500Y-121817648D01*
X115539500Y-122022351D01*
X115571522Y-122224534D01*
X115634781Y-122419223D01*
X115727715Y-122601613D01*
X115848028Y-122767213D01*
X115992786Y-122911971D01*
X116099531Y-122989524D01*
X116158390Y-123032287D01*
X116249838Y-123078882D01*
X116340776Y-123125218D01*
X116340778Y-123125218D01*
X116340781Y-123125220D01*
X116385374Y-123139709D01*
X116535465Y-123188477D01*
X116571485Y-123194182D01*
X116737648Y-123220500D01*
X116737649Y-123220500D01*
X116942351Y-123220500D01*
X116942352Y-123220500D01*
X117144534Y-123188477D01*
X117339219Y-123125220D01*
X117521610Y-123032287D01*
X117638562Y-122947317D01*
X117687213Y-122911971D01*
X117687215Y-122911968D01*
X117687219Y-122911966D01*
X117831966Y-122767219D01*
X117831968Y-122767215D01*
X117831971Y-122767213D01*
X117906073Y-122665218D01*
X117952287Y-122601610D01*
X118045220Y-122419219D01*
X118108477Y-122224534D01*
X118140500Y-122022352D01*
X118140500Y-121817648D01*
X118108477Y-121615466D01*
X118095242Y-121574734D01*
X118065288Y-121482544D01*
X118045220Y-121420781D01*
X118045218Y-121420778D01*
X118045218Y-121420776D01*
X118006743Y-121345266D01*
X117952287Y-121238390D01*
X117916874Y-121189648D01*
X117864182Y-121117122D01*
X117840702Y-121051316D01*
X117840500Y-121044237D01*
X117840500Y-119087230D01*
X117860185Y-119020191D01*
X117876819Y-118999549D01*
X117913655Y-118962713D01*
X117982712Y-118893656D01*
X118074814Y-118744334D01*
X118101955Y-118662427D01*
X118141726Y-118604984D01*
X118206242Y-118578161D01*
X118275018Y-118590476D01*
X118319977Y-118628547D01*
X118360065Y-118683722D01*
X118388034Y-118722219D01*
X118532786Y-118866971D01*
X118676158Y-118971135D01*
X118698390Y-118987287D01*
X118798275Y-119038181D01*
X118880776Y-119080218D01*
X118880778Y-119080218D01*
X118880781Y-119080220D01*
X118941470Y-119099939D01*
X119075465Y-119143477D01*
X119150049Y-119155290D01*
X119277648Y-119175500D01*
X119277649Y-119175500D01*
X119482351Y-119175500D01*
X119482352Y-119175500D01*
X119684534Y-119143477D01*
X119879219Y-119080220D01*
X120061610Y-118987287D01*
X120154590Y-118919732D01*
X120227213Y-118866971D01*
X120227215Y-118866968D01*
X120227219Y-118866966D01*
X120371966Y-118722219D01*
X120371968Y-118722215D01*
X120371971Y-118722213D01*
X120476913Y-118577770D01*
X120492287Y-118556610D01*
X120539516Y-118463917D01*
X120587489Y-118413123D01*
X120655310Y-118396328D01*
X120721445Y-118418865D01*
X120760483Y-118463917D01*
X120788481Y-118518865D01*
X120807715Y-118556614D01*
X120928028Y-118722213D01*
X121072786Y-118866971D01*
X121216158Y-118971135D01*
X121238390Y-118987287D01*
X121338275Y-119038181D01*
X121420776Y-119080218D01*
X121420778Y-119080218D01*
X121420781Y-119080220D01*
X121481470Y-119099939D01*
X121615465Y-119143477D01*
X121690049Y-119155290D01*
X121817648Y-119175500D01*
X121817649Y-119175500D01*
X122022351Y-119175500D01*
X122022352Y-119175500D01*
X122224534Y-119143477D01*
X122419219Y-119080220D01*
X122601610Y-118987287D01*
X122694590Y-118919732D01*
X122767213Y-118866971D01*
X122767215Y-118866968D01*
X122767219Y-118866966D01*
X122911966Y-118722219D01*
X122911968Y-118722215D01*
X122911971Y-118722213D01*
X123016913Y-118577770D01*
X123032287Y-118556610D01*
X123079516Y-118463917D01*
X123127489Y-118413123D01*
X123195310Y-118396328D01*
X123261445Y-118418865D01*
X123300483Y-118463917D01*
X123347713Y-118556610D01*
X123435819Y-118677877D01*
X123459298Y-118743681D01*
X123459500Y-118750761D01*
X123459500Y-123359217D01*
X123439815Y-123426256D01*
X123423181Y-123446898D01*
X122466797Y-124403281D01*
X122405474Y-124436766D01*
X122398515Y-124438073D01*
X122250468Y-124461522D01*
X122055778Y-124524781D01*
X121873386Y-124617715D01*
X121707786Y-124738028D01*
X121563028Y-124882786D01*
X121442714Y-125048386D01*
X121415203Y-125102379D01*
X121367227Y-125153174D01*
X121299406Y-125169968D01*
X121233272Y-125147429D01*
X121194234Y-125102376D01*
X121166861Y-125048652D01*
X121134474Y-125004077D01*
X121134474Y-125004076D01*
X120455000Y-125683551D01*
X120455000Y-125677339D01*
X120427741Y-125575606D01*
X120375080Y-125484394D01*
X120300606Y-125409920D01*
X120209394Y-125357259D01*
X120107661Y-125330000D01*
X120101446Y-125330000D01*
X120780922Y-124650524D01*
X120780921Y-124650523D01*
X120736359Y-124618147D01*
X120736350Y-124618141D01*
X120554031Y-124525244D01*
X120359417Y-124462009D01*
X120157317Y-124430000D01*
X119952683Y-124430000D01*
X119750582Y-124462009D01*
X119555968Y-124525244D01*
X119373644Y-124618143D01*
X119329077Y-124650523D01*
X119329077Y-124650524D01*
X120008554Y-125330000D01*
X120002339Y-125330000D01*
X119900606Y-125357259D01*
X119809394Y-125409920D01*
X119734920Y-125484394D01*
X119682259Y-125575606D01*
X119655000Y-125677339D01*
X119655000Y-125683553D01*
X118975524Y-125004077D01*
X118975523Y-125004077D01*
X118943143Y-125048644D01*
X118850244Y-125230968D01*
X118787009Y-125425582D01*
X118755000Y-125627682D01*
X118755000Y-125832317D01*
X118787009Y-126034417D01*
X118850244Y-126229031D01*
X118943141Y-126411350D01*
X118943147Y-126411359D01*
X118975523Y-126455921D01*
X118975524Y-126455922D01*
X119655000Y-125776446D01*
X119655000Y-125782661D01*
X119682259Y-125884394D01*
X119734920Y-125975606D01*
X119809394Y-126050080D01*
X119900606Y-126102741D01*
X120002339Y-126130000D01*
X120008553Y-126130000D01*
X119329076Y-126809474D01*
X119373650Y-126841859D01*
X119555968Y-126934755D01*
X119750582Y-126997990D01*
X119952683Y-127030000D01*
X120157317Y-127030000D01*
X120359417Y-126997990D01*
X120554031Y-126934755D01*
X120736349Y-126841859D01*
X120780921Y-126809474D01*
X120101447Y-126130000D01*
X120107661Y-126130000D01*
X120209394Y-126102741D01*
X120300606Y-126050080D01*
X120375080Y-125975606D01*
X120427741Y-125884394D01*
X120455000Y-125782661D01*
X120455000Y-125776448D01*
X121134474Y-126455922D01*
X121134474Y-126455921D01*
X121166859Y-126411349D01*
X121194233Y-126357624D01*
X121242207Y-126306827D01*
X121310028Y-126290031D01*
X121376163Y-126312567D01*
X121415203Y-126357621D01*
X121442713Y-126411611D01*
X121563028Y-126577213D01*
X121707786Y-126721971D01*
X121828226Y-126809474D01*
X121873390Y-126842287D01*
X121982109Y-126897682D01*
X122055776Y-126935218D01*
X122055778Y-126935218D01*
X122055781Y-126935220D01*
X122160137Y-126969127D01*
X122250465Y-126998477D01*
X122327966Y-127010751D01*
X122398513Y-127021925D01*
X122461648Y-127051854D01*
X122466797Y-127056717D01*
X123423181Y-128013101D01*
X123456666Y-128074424D01*
X123459500Y-128100782D01*
X123459500Y-134130500D01*
X123439815Y-134197539D01*
X123387011Y-134243294D01*
X123335500Y-134254500D01*
X104679464Y-134254500D01*
X104612425Y-134234815D01*
X104566670Y-134182011D01*
X104559689Y-134162594D01*
X104553628Y-134139974D01*
X104531158Y-134056113D01*
X104443344Y-133844112D01*
X104328611Y-133645388D01*
X104328608Y-133645385D01*
X104328607Y-133645382D01*
X104188918Y-133463338D01*
X104188911Y-133463330D01*
X104026670Y-133301089D01*
X104026661Y-133301081D01*
X103844617Y-133161392D01*
X103838428Y-133157819D01*
X103760620Y-133112896D01*
X103645890Y-133046657D01*
X103645876Y-133046650D01*
X103433887Y-132958842D01*
X103212238Y-132899452D01*
X103174215Y-132894446D01*
X102984741Y-132869500D01*
X102984734Y-132869500D01*
X102755266Y-132869500D01*
X102755258Y-132869500D01*
X102538715Y-132898009D01*
X102527762Y-132899452D01*
X102434076Y-132924554D01*
X102306112Y-132958842D01*
X102094123Y-133046650D01*
X102094109Y-133046657D01*
X101895382Y-133161392D01*
X101713338Y-133301081D01*
X101551081Y-133463338D01*
X101411392Y-133645382D01*
X101296657Y-133844109D01*
X101296650Y-133844123D01*
X101208843Y-134056110D01*
X101208842Y-134056113D01*
X101155902Y-134253692D01*
X101149453Y-134277759D01*
X101149451Y-134277770D01*
X101119500Y-134505258D01*
X101119500Y-134734741D01*
X101128046Y-134799647D01*
X101149452Y-134962238D01*
X101149453Y-134962240D01*
X101208842Y-135183887D01*
X101296650Y-135395876D01*
X101296657Y-135395890D01*
X101411392Y-135594617D01*
X101551081Y-135776661D01*
X101551089Y-135776670D01*
X101713330Y-135938911D01*
X101713338Y-135938918D01*
X101895382Y-136078607D01*
X101895385Y-136078608D01*
X101895388Y-136078611D01*
X102094112Y-136193344D01*
X102094117Y-136193346D01*
X102094123Y-136193349D01*
X102185480Y-136231190D01*
X102306113Y-136281158D01*
X102527762Y-136340548D01*
X102755266Y-136370500D01*
X102755273Y-136370500D01*
X102984727Y-136370500D01*
X102984734Y-136370500D01*
X103212238Y-136340548D01*
X103433887Y-136281158D01*
X103473040Y-136264939D01*
X103520492Y-136255501D01*
X103603541Y-136255501D01*
X103603545Y-136255500D01*
X103609674Y-136255500D01*
X130273542Y-136255500D01*
X130296259Y-136250980D01*
X130370188Y-136236275D01*
X130466836Y-136217051D01*
X130524069Y-136193344D01*
X130648914Y-136141632D01*
X130812782Y-136032139D01*
X130938103Y-135906817D01*
X130999424Y-135873334D01*
X131025783Y-135870500D01*
X175358422Y-135870500D01*
X175552826Y-135839709D01*
X175740026Y-135778884D01*
X175915405Y-135689524D01*
X176074646Y-135573828D01*
X176848829Y-134799645D01*
X176964524Y-134640405D01*
X177053884Y-134465026D01*
X177114709Y-134277826D01*
X177114720Y-134277759D01*
X177145500Y-134083421D01*
X177145500Y-133284336D01*
X177165185Y-133217297D01*
X177181819Y-133196655D01*
X179236393Y-131142081D01*
X181293828Y-129084646D01*
X181409524Y-128925405D01*
X181498884Y-128750025D01*
X181559709Y-128562826D01*
X181566636Y-128519091D01*
X181590500Y-128368422D01*
X181590500Y-123470496D01*
X181610185Y-123403457D01*
X181662989Y-123357702D01*
X181676181Y-123352565D01*
X181691347Y-123347638D01*
X181907398Y-123237554D01*
X181967094Y-123194181D01*
X182032901Y-123170702D01*
X182039980Y-123170500D01*
X182978422Y-123170500D01*
X183172826Y-123139709D01*
X183360026Y-123078884D01*
X183535405Y-122989524D01*
X183694646Y-122873828D01*
X185103828Y-121464646D01*
X185219524Y-121305405D01*
X185308884Y-121130026D01*
X185369709Y-120942827D01*
X185373889Y-120916437D01*
X185400500Y-120748422D01*
X185400500Y-109121577D01*
X185369709Y-108927173D01*
X185339700Y-108834815D01*
X185333333Y-108815220D01*
X185308884Y-108739974D01*
X185308882Y-108739971D01*
X185308882Y-108739969D01*
X185241693Y-108608104D01*
X185219524Y-108564595D01*
X185103828Y-108405354D01*
X183531819Y-106833345D01*
X183498334Y-106772022D01*
X183495500Y-106745664D01*
X183495500Y-106581577D01*
X183464709Y-106387173D01*
X183414812Y-106233607D01*
X183403884Y-106199975D01*
X183403882Y-106199972D01*
X183403882Y-106199970D01*
X183340206Y-106075000D01*
X183314524Y-106024595D01*
X183198828Y-105865354D01*
X183059646Y-105726172D01*
X182900405Y-105610476D01*
X182725029Y-105521117D01*
X182537826Y-105460290D01*
X182343422Y-105429500D01*
X182343417Y-105429500D01*
X182039980Y-105429500D01*
X181972941Y-105409815D01*
X181967094Y-105405818D01*
X181907398Y-105362446D01*
X181691344Y-105252360D01*
X181460736Y-105177432D01*
X181221245Y-105139500D01*
X181221240Y-105139500D01*
X179458760Y-105139500D01*
X179458755Y-105139500D01*
X179219263Y-105177432D01*
X178988655Y-105252360D01*
X178772598Y-105362448D01*
X178576437Y-105504966D01*
X178576432Y-105504970D01*
X178404970Y-105676432D01*
X178404966Y-105676437D01*
X178262448Y-105872598D01*
X178152360Y-106088655D01*
X178077432Y-106319263D01*
X178039500Y-106558754D01*
X178039500Y-106801245D01*
X178077432Y-107040736D01*
X178152360Y-107271344D01*
X178173187Y-107312218D01*
X178256682Y-107476086D01*
X178262448Y-107487401D01*
X178404966Y-107683562D01*
X178404970Y-107683567D01*
X178576432Y-107855029D01*
X178576437Y-107855033D01*
X178747539Y-107979345D01*
X178772602Y-107997554D01*
X178945737Y-108085771D01*
X178988655Y-108107639D01*
X179103959Y-108145103D01*
X179219265Y-108182568D01*
X179330186Y-108200136D01*
X179458755Y-108220500D01*
X179458760Y-108220500D01*
X181221244Y-108220500D01*
X181297638Y-108208400D01*
X181366932Y-108217354D01*
X181404718Y-108243192D01*
X182863181Y-109701655D01*
X182896666Y-109762978D01*
X182899500Y-109789336D01*
X182899500Y-120080664D01*
X182879815Y-120147703D01*
X182863181Y-120168345D01*
X182398345Y-120633181D01*
X182337022Y-120666666D01*
X182310664Y-120669500D01*
X182039980Y-120669500D01*
X181972941Y-120649815D01*
X181967094Y-120645818D01*
X181907398Y-120602446D01*
X181691344Y-120492360D01*
X181460736Y-120417432D01*
X181221245Y-120379500D01*
X181221240Y-120379500D01*
X179458760Y-120379500D01*
X179458755Y-120379500D01*
X179219263Y-120417432D01*
X178988655Y-120492360D01*
X178772598Y-120602448D01*
X178576437Y-120744966D01*
X178576432Y-120744970D01*
X178404970Y-120916432D01*
X178404966Y-120916437D01*
X178262448Y-121112598D01*
X178152360Y-121328655D01*
X178077432Y-121559263D01*
X178039500Y-121798754D01*
X178039500Y-122041245D01*
X178077432Y-122280736D01*
X178152360Y-122511344D01*
X178198355Y-122601613D01*
X178262278Y-122727069D01*
X178262448Y-122727401D01*
X178404966Y-122923562D01*
X178404970Y-122923567D01*
X178576432Y-123095029D01*
X178576437Y-123095033D01*
X178735364Y-123210499D01*
X178772602Y-123237554D01*
X178988653Y-123347638D01*
X179003813Y-123352563D01*
X179061490Y-123391998D01*
X179088691Y-123456355D01*
X179089500Y-123470496D01*
X179089500Y-127700663D01*
X179069815Y-127767702D01*
X179053181Y-127788344D01*
X175279110Y-131562414D01*
X175247727Y-131585216D01*
X175213386Y-131602714D01*
X175047786Y-131723028D01*
X174903028Y-131867786D01*
X174782715Y-132033386D01*
X174689781Y-132215776D01*
X174626522Y-132410465D01*
X174594500Y-132612648D01*
X174594500Y-132817351D01*
X174626522Y-133019530D01*
X174626522Y-133019531D01*
X174638431Y-133056182D01*
X174644500Y-133094500D01*
X174644500Y-133245500D01*
X174624815Y-133312539D01*
X174572011Y-133358294D01*
X174520500Y-133369500D01*
X169334781Y-133369500D01*
X169267742Y-133349815D01*
X169221987Y-133297011D01*
X169212043Y-133227853D01*
X169241068Y-133164297D01*
X169247100Y-133157819D01*
X169792272Y-132612648D01*
X171592139Y-130812782D01*
X171640468Y-130740452D01*
X171701632Y-130648914D01*
X171777051Y-130466835D01*
X171815500Y-130273541D01*
X171815500Y-128212230D01*
X171835185Y-128145191D01*
X171851819Y-128124549D01*
X171903504Y-128072864D01*
X171957712Y-128018656D01*
X172049814Y-127869334D01*
X172104999Y-127702797D01*
X172115500Y-127600009D01*
X172115499Y-126399992D01*
X172104999Y-126297203D01*
X172049814Y-126130666D01*
X171957712Y-125981344D01*
X171851818Y-125875450D01*
X171818334Y-125814127D01*
X171815500Y-125787769D01*
X171815500Y-120754657D01*
X171835185Y-120687618D01*
X171839182Y-120681772D01*
X171850157Y-120666666D01*
X171858865Y-120654681D01*
X171946082Y-120483509D01*
X172005447Y-120300801D01*
X172035500Y-120111055D01*
X172035500Y-119918945D01*
X172005447Y-119729199D01*
X171956037Y-119577129D01*
X171946083Y-119546493D01*
X171927033Y-119509106D01*
X171858865Y-119375319D01*
X171745945Y-119219898D01*
X171610102Y-119084055D01*
X171454681Y-118971135D01*
X171438152Y-118962713D01*
X171283504Y-118883915D01*
X171218919Y-118862931D01*
X171161243Y-118823494D01*
X171134044Y-118759136D01*
X171145958Y-118690289D01*
X171193202Y-118638813D01*
X171218919Y-118627069D01*
X171283504Y-118606084D01*
X171283506Y-118606082D01*
X171283509Y-118606082D01*
X171454681Y-118518865D01*
X171610102Y-118405945D01*
X171745945Y-118270102D01*
X171858865Y-118114681D01*
X171946082Y-117943509D01*
X172005447Y-117760801D01*
X172035500Y-117571055D01*
X172035500Y-117378945D01*
X172005447Y-117189199D01*
X171984659Y-117125220D01*
X171968978Y-117076956D01*
X171946083Y-117006493D01*
X171933674Y-116982139D01*
X171858865Y-116835319D01*
X171745945Y-116679898D01*
X171610102Y-116544055D01*
X171454681Y-116431135D01*
X171431295Y-116419219D01*
X171283504Y-116343915D01*
X171218919Y-116322931D01*
X171161243Y-116283494D01*
X171134044Y-116219136D01*
X171145958Y-116150289D01*
X171193202Y-116098813D01*
X171218919Y-116087069D01*
X171283504Y-116066084D01*
X171283506Y-116066082D01*
X171283509Y-116066082D01*
X171413176Y-116000013D01*
X178040000Y-116000013D01*
X178040000Y-116590000D01*
X179685879Y-116590000D01*
X179666901Y-116635818D01*
X179640000Y-116771056D01*
X179640000Y-116908944D01*
X179666901Y-117044182D01*
X179685879Y-117090000D01*
X178040001Y-117090000D01*
X178040001Y-117679986D01*
X178050494Y-117782696D01*
X178050494Y-117782698D01*
X178105640Y-117949119D01*
X178105645Y-117949130D01*
X178197680Y-118098340D01*
X178197683Y-118098344D01*
X178321655Y-118222316D01*
X178321659Y-118222319D01*
X178470869Y-118314354D01*
X178470880Y-118314359D01*
X178637302Y-118369505D01*
X178740020Y-118379999D01*
X180089999Y-118379999D01*
X180090000Y-118379998D01*
X180090000Y-117494120D01*
X180135818Y-117513099D01*
X180271056Y-117540000D01*
X180408944Y-117540000D01*
X180544182Y-117513099D01*
X180590000Y-117494120D01*
X180590000Y-118379999D01*
X181939972Y-118379999D01*
X181939986Y-118379998D01*
X182042696Y-118369505D01*
X182042698Y-118369505D01*
X182209119Y-118314359D01*
X182209130Y-118314354D01*
X182358340Y-118222319D01*
X182358344Y-118222316D01*
X182482316Y-118098344D01*
X182482319Y-118098340D01*
X182574354Y-117949130D01*
X182574359Y-117949119D01*
X182629505Y-117782697D01*
X182639999Y-117679986D01*
X182640000Y-117679973D01*
X182640000Y-117090000D01*
X180994121Y-117090000D01*
X181013099Y-117044182D01*
X181040000Y-116908944D01*
X181040000Y-116771056D01*
X181013099Y-116635818D01*
X180994121Y-116590000D01*
X182639999Y-116590000D01*
X182639999Y-116000028D01*
X182639998Y-116000013D01*
X182629505Y-115897303D01*
X182629505Y-115897301D01*
X182574359Y-115730880D01*
X182574354Y-115730869D01*
X182482319Y-115581659D01*
X182482316Y-115581655D01*
X182358344Y-115457683D01*
X182358340Y-115457680D01*
X182209130Y-115365645D01*
X182209119Y-115365640D01*
X182042697Y-115310494D01*
X181939986Y-115300000D01*
X180590000Y-115300000D01*
X180590000Y-116185879D01*
X180544182Y-116166901D01*
X180408944Y-116140000D01*
X180271056Y-116140000D01*
X180135818Y-116166901D01*
X180090000Y-116185879D01*
X180090000Y-115300000D01*
X178740028Y-115300000D01*
X178740012Y-115300001D01*
X178637303Y-115310494D01*
X178637301Y-115310494D01*
X178470880Y-115365640D01*
X178470869Y-115365645D01*
X178321659Y-115457680D01*
X178321655Y-115457683D01*
X178197683Y-115581655D01*
X178197680Y-115581659D01*
X178105645Y-115730869D01*
X178105640Y-115730880D01*
X178050494Y-115897302D01*
X178040000Y-116000013D01*
X171413176Y-116000013D01*
X171454681Y-115978865D01*
X171610102Y-115865945D01*
X171745945Y-115730102D01*
X171858865Y-115574681D01*
X171946082Y-115403509D01*
X172005447Y-115220801D01*
X172035500Y-115031055D01*
X172035500Y-114838945D01*
X172005447Y-114649199D01*
X171971215Y-114543842D01*
X171946083Y-114466493D01*
X171926883Y-114428812D01*
X171858865Y-114295319D01*
X171745945Y-114139898D01*
X171610102Y-114004055D01*
X171454681Y-113891135D01*
X171380595Y-113853386D01*
X171283506Y-113803916D01*
X171100806Y-113744554D01*
X171100802Y-113744553D01*
X171100801Y-113744553D01*
X171089560Y-113742772D01*
X171067721Y-113739313D01*
X171004587Y-113709382D01*
X170999441Y-113704521D01*
X170326479Y-113031559D01*
X170326459Y-113031537D01*
X170182785Y-112887863D01*
X170182781Y-112887860D01*
X170018920Y-112778371D01*
X170018907Y-112778364D01*
X169866063Y-112715055D01*
X169866060Y-112715054D01*
X169856859Y-112711243D01*
X169836836Y-112702949D01*
X169701787Y-112676086D01*
X169699588Y-112675648D01*
X169699573Y-112675645D01*
X169643543Y-112664500D01*
X169643541Y-112664500D01*
X167245762Y-112664500D01*
X167178723Y-112644815D01*
X167172877Y-112640818D01*
X167051613Y-112552715D01*
X167051612Y-112552714D01*
X167051610Y-112552713D01*
X166986583Y-112519580D01*
X166869223Y-112459781D01*
X166674534Y-112396522D01*
X166499995Y-112368878D01*
X166472352Y-112364500D01*
X166267648Y-112364500D01*
X166243329Y-112368351D01*
X166065465Y-112396522D01*
X165870776Y-112459781D01*
X165688386Y-112552715D01*
X165522786Y-112673028D01*
X165378028Y-112817786D01*
X165257715Y-112983386D01*
X165164781Y-113165776D01*
X165101522Y-113360465D01*
X165069500Y-113562648D01*
X165069500Y-113767351D01*
X165101522Y-113969534D01*
X165164781Y-114164223D01*
X165214748Y-114262287D01*
X165257585Y-114346359D01*
X165257715Y-114346613D01*
X165378028Y-114512213D01*
X165522786Y-114656971D01*
X165643226Y-114744474D01*
X165688390Y-114777287D01*
X165789319Y-114828713D01*
X165870776Y-114870218D01*
X165870778Y-114870218D01*
X165870781Y-114870220D01*
X165919621Y-114886089D01*
X166065465Y-114933477D01*
X166140630Y-114945382D01*
X166267648Y-114965500D01*
X166267649Y-114965500D01*
X166472351Y-114965500D01*
X166472352Y-114965500D01*
X166674534Y-114933477D01*
X166869219Y-114870220D01*
X167051610Y-114777287D01*
X167172877Y-114689181D01*
X167238683Y-114665702D01*
X167245762Y-114665500D01*
X169079218Y-114665500D01*
X169146257Y-114685185D01*
X169166899Y-114701819D01*
X169584521Y-115119441D01*
X169618006Y-115180764D01*
X169619313Y-115187721D01*
X169622772Y-115209560D01*
X169624549Y-115220778D01*
X169624554Y-115220806D01*
X169683916Y-115403506D01*
X169711521Y-115457683D01*
X169771135Y-115574681D01*
X169884055Y-115730102D01*
X170019898Y-115865945D01*
X170175319Y-115978865D01*
X170288479Y-116036523D01*
X170346493Y-116066083D01*
X170411081Y-116087069D01*
X170468756Y-116126506D01*
X170495955Y-116190865D01*
X170484041Y-116259711D01*
X170436797Y-116311187D01*
X170411081Y-116322931D01*
X170346493Y-116343916D01*
X170175318Y-116431135D01*
X170148228Y-116450818D01*
X170082422Y-116474298D01*
X170075342Y-116474500D01*
X161826458Y-116474500D01*
X161802863Y-116479193D01*
X161779268Y-116483887D01*
X161779267Y-116483887D01*
X161633171Y-116512947D01*
X161633159Y-116512950D01*
X161597162Y-116527860D01*
X161597163Y-116527861D01*
X161451088Y-116588366D01*
X161451079Y-116588371D01*
X161287219Y-116697859D01*
X161217900Y-116767179D01*
X161147861Y-116837218D01*
X161147858Y-116837221D01*
X160017221Y-117967858D01*
X160017218Y-117967861D01*
X159976693Y-118008386D01*
X159877859Y-118107219D01*
X159768371Y-118271080D01*
X159768366Y-118271089D01*
X159732669Y-118357270D01*
X159732666Y-118357279D01*
X159730863Y-118361632D01*
X159692949Y-118453164D01*
X159681600Y-118510220D01*
X159680142Y-118517547D01*
X159680141Y-118517552D01*
X159654500Y-118646456D01*
X159654500Y-119125249D01*
X159634815Y-119192288D01*
X159604812Y-119224515D01*
X159547457Y-119267451D01*
X159547451Y-119267457D01*
X159461206Y-119382664D01*
X159461202Y-119382671D01*
X159410908Y-119517517D01*
X159406303Y-119560354D01*
X159404501Y-119577123D01*
X159404500Y-119577135D01*
X159404500Y-121172870D01*
X159404501Y-121172876D01*
X159410908Y-121232483D01*
X159461202Y-121367328D01*
X159461206Y-121367335D01*
X159547452Y-121482544D01*
X159547455Y-121482547D01*
X159662664Y-121568793D01*
X159662671Y-121568797D01*
X159797517Y-121619091D01*
X159797516Y-121619091D01*
X159804444Y-121619835D01*
X159857127Y-121625500D01*
X161452872Y-121625499D01*
X161512483Y-121619091D01*
X161647331Y-121568796D01*
X161762546Y-121482546D01*
X161848796Y-121367331D01*
X161857693Y-121343477D01*
X161863434Y-121328086D01*
X161899091Y-121232482D01*
X161905500Y-121172873D01*
X161905499Y-121108413D01*
X161925183Y-121041377D01*
X161977986Y-120995621D01*
X162047144Y-120985677D01*
X162110700Y-121014701D01*
X162129818Y-121035531D01*
X162151319Y-121065125D01*
X162151320Y-121065125D01*
X162795000Y-120421445D01*
X162795000Y-120427661D01*
X162822259Y-120529394D01*
X162874920Y-120620606D01*
X162949394Y-120695080D01*
X163040606Y-120747741D01*
X163142339Y-120775000D01*
X163148553Y-120775000D01*
X162504873Y-121418677D01*
X162504873Y-121418678D01*
X162539858Y-121444096D01*
X162715164Y-121533418D01*
X162902294Y-121594221D01*
X163096618Y-121625000D01*
X163293382Y-121625000D01*
X163487705Y-121594221D01*
X163674835Y-121533418D01*
X163850143Y-121444095D01*
X163885125Y-121418678D01*
X163885126Y-121418678D01*
X163241448Y-120775000D01*
X163247661Y-120775000D01*
X163349394Y-120747741D01*
X163440606Y-120695080D01*
X163515080Y-120620606D01*
X163567741Y-120529394D01*
X163595000Y-120427661D01*
X163595000Y-120421447D01*
X164238678Y-121065126D01*
X164238678Y-121065125D01*
X164264097Y-121030141D01*
X164354234Y-120853236D01*
X164402208Y-120802439D01*
X164470029Y-120785644D01*
X164536164Y-120808181D01*
X164575204Y-120853235D01*
X164576115Y-120855024D01*
X164576116Y-120855025D01*
X164665476Y-121030405D01*
X164781172Y-121189646D01*
X164920354Y-121328828D01*
X165079595Y-121444524D01*
X165154214Y-121482544D01*
X165254970Y-121533882D01*
X165254972Y-121533882D01*
X165254975Y-121533884D01*
X165333083Y-121559263D01*
X165442173Y-121594709D01*
X165636578Y-121625500D01*
X165636583Y-121625500D01*
X165833422Y-121625500D01*
X166027826Y-121594709D01*
X166029328Y-121594221D01*
X166215025Y-121533884D01*
X166390405Y-121444524D01*
X166425980Y-121418677D01*
X166452814Y-121399182D01*
X166518620Y-121375702D01*
X166525699Y-121375500D01*
X169690500Y-121375500D01*
X169757539Y-121395185D01*
X169803294Y-121447989D01*
X169814500Y-121499500D01*
X169814500Y-125787769D01*
X169794815Y-125854808D01*
X169778182Y-125875450D01*
X169672287Y-125981345D01*
X169580187Y-126130663D01*
X169580185Y-126130668D01*
X169559717Y-126192438D01*
X169519944Y-126249883D01*
X169455428Y-126276706D01*
X169432283Y-126277052D01*
X169394474Y-126274076D01*
X168715000Y-126953551D01*
X168715000Y-126947339D01*
X168687741Y-126845606D01*
X168635080Y-126754394D01*
X168560606Y-126679920D01*
X168469394Y-126627259D01*
X168367661Y-126600000D01*
X168361446Y-126600000D01*
X169040922Y-125920524D01*
X169040921Y-125920523D01*
X168996359Y-125888147D01*
X168996350Y-125888141D01*
X168814031Y-125795244D01*
X168619417Y-125732009D01*
X168417317Y-125700000D01*
X168212683Y-125700000D01*
X168010582Y-125732009D01*
X167815968Y-125795244D01*
X167633644Y-125888143D01*
X167589077Y-125920523D01*
X167589077Y-125920524D01*
X168268554Y-126600000D01*
X168262339Y-126600000D01*
X168160606Y-126627259D01*
X168069394Y-126679920D01*
X167994920Y-126754394D01*
X167942259Y-126845606D01*
X167915000Y-126947339D01*
X167915000Y-126953553D01*
X167235524Y-126274077D01*
X167235523Y-126274077D01*
X167203143Y-126318644D01*
X167110244Y-126500968D01*
X167047009Y-126695582D01*
X167015000Y-126897682D01*
X167015000Y-127102317D01*
X167047009Y-127304417D01*
X167110244Y-127499031D01*
X167203141Y-127681350D01*
X167203147Y-127681359D01*
X167235523Y-127725921D01*
X167235524Y-127725922D01*
X167915000Y-127046446D01*
X167915000Y-127052661D01*
X167942259Y-127154394D01*
X167994920Y-127245606D01*
X168069394Y-127320080D01*
X168160606Y-127372741D01*
X168262339Y-127400000D01*
X168268553Y-127400000D01*
X167589076Y-128079474D01*
X167633650Y-128111859D01*
X167815968Y-128204755D01*
X168010582Y-128267990D01*
X168212683Y-128300000D01*
X168417317Y-128300000D01*
X168619417Y-128267990D01*
X168814031Y-128204755D01*
X168996349Y-128111859D01*
X169040921Y-128079474D01*
X168361447Y-127400000D01*
X168367661Y-127400000D01*
X168469394Y-127372741D01*
X168560606Y-127320080D01*
X168635080Y-127245606D01*
X168687741Y-127154394D01*
X168715000Y-127052661D01*
X168715000Y-127046448D01*
X169394473Y-127725921D01*
X169432280Y-127722946D01*
X169500658Y-127737310D01*
X169550415Y-127786361D01*
X169559714Y-127807556D01*
X169573059Y-127847827D01*
X169580186Y-127869333D01*
X169580187Y-127869336D01*
X169603648Y-127907372D01*
X169666494Y-128009263D01*
X169672289Y-128018657D01*
X169778181Y-128124549D01*
X169811666Y-128185872D01*
X169814500Y-128212230D01*
X169814500Y-129709217D01*
X169794815Y-129776256D01*
X169778181Y-129796898D01*
X167896899Y-131678181D01*
X167835576Y-131711666D01*
X167809218Y-131714500D01*
X166610762Y-131714500D01*
X166543723Y-131694815D01*
X166537877Y-131690818D01*
X166533435Y-131687591D01*
X166416610Y-131602713D01*
X166332681Y-131559949D01*
X166234223Y-131509781D01*
X166039534Y-131446522D01*
X165864995Y-131418878D01*
X165837352Y-131414500D01*
X165632648Y-131414500D01*
X165608329Y-131418351D01*
X165430465Y-131446522D01*
X165235776Y-131509781D01*
X165053386Y-131602715D01*
X164999300Y-131642011D01*
X164936565Y-131687591D01*
X164932123Y-131690818D01*
X164866317Y-131714298D01*
X164859238Y-131714500D01*
X161774430Y-131714500D01*
X161707391Y-131694815D01*
X161661636Y-131642011D01*
X161651692Y-131572853D01*
X161680717Y-131509297D01*
X161731097Y-131474318D01*
X161747086Y-131468354D01*
X161747093Y-131468350D01*
X161862187Y-131382190D01*
X161862190Y-131382187D01*
X161948350Y-131267093D01*
X161948354Y-131267086D01*
X161998596Y-131132379D01*
X161998598Y-131132372D01*
X162004999Y-131072844D01*
X162005000Y-131072827D01*
X162005000Y-130425000D01*
X161088012Y-130425000D01*
X161120925Y-130367993D01*
X161155000Y-130240826D01*
X161155000Y-130109174D01*
X161120925Y-129982007D01*
X161088012Y-129925000D01*
X162005000Y-129925000D01*
X162005000Y-129277172D01*
X162004999Y-129277155D01*
X161998598Y-129217627D01*
X161998596Y-129217620D01*
X161948354Y-129082913D01*
X161948350Y-129082906D01*
X161862190Y-128967812D01*
X161862187Y-128967809D01*
X161747093Y-128881649D01*
X161747086Y-128881645D01*
X161612379Y-128831403D01*
X161612372Y-128831401D01*
X161552844Y-128825000D01*
X160905000Y-128825000D01*
X160905000Y-129741988D01*
X160847993Y-129709075D01*
X160720826Y-129675000D01*
X160589174Y-129675000D01*
X160462007Y-129709075D01*
X160405000Y-129741988D01*
X160405000Y-128825000D01*
X159757155Y-128825000D01*
X159697627Y-128831401D01*
X159697620Y-128831403D01*
X159562913Y-128881645D01*
X159562906Y-128881649D01*
X159447812Y-128967809D01*
X159447809Y-128967812D01*
X159361649Y-129082906D01*
X159361645Y-129082913D01*
X159311403Y-129217620D01*
X159311401Y-129217627D01*
X159305000Y-129277155D01*
X159305000Y-129925000D01*
X160221988Y-129925000D01*
X160189075Y-129982007D01*
X160155000Y-130109174D01*
X160155000Y-130240826D01*
X160189075Y-130367993D01*
X160221988Y-130425000D01*
X159305000Y-130425000D01*
X159305000Y-130920717D01*
X159285315Y-130987756D01*
X159232511Y-131033511D01*
X159163353Y-131043455D01*
X159099797Y-131014430D01*
X159093319Y-131008398D01*
X158280740Y-130195819D01*
X156613208Y-128528288D01*
X156613206Y-128528285D01*
X156613206Y-128528286D01*
X156606139Y-128521219D01*
X156606139Y-128521218D01*
X156466782Y-128381861D01*
X156466781Y-128381860D01*
X156466780Y-128381859D01*
X156302920Y-128272371D01*
X156302911Y-128272366D01*
X156219683Y-128237892D01*
X156174165Y-128219038D01*
X156139682Y-128204755D01*
X156120837Y-128196949D01*
X156120833Y-128196947D01*
X155943286Y-128161632D01*
X155943283Y-128161630D01*
X155943283Y-128161631D01*
X155927541Y-128158500D01*
X155927540Y-128158500D01*
X145499783Y-128158500D01*
X145432744Y-128138815D01*
X145412102Y-128122181D01*
X142641819Y-125351898D01*
X142608334Y-125290575D01*
X142605500Y-125264217D01*
X142605500Y-122795761D01*
X142625185Y-122728722D01*
X142629165Y-122722899D01*
X142717287Y-122601610D01*
X142810220Y-122419219D01*
X142873477Y-122224534D01*
X142905500Y-122022352D01*
X142905500Y-121817648D01*
X142873477Y-121615466D01*
X142860242Y-121574734D01*
X142830288Y-121482544D01*
X142810220Y-121420781D01*
X142810218Y-121420778D01*
X142810218Y-121420776D01*
X142771743Y-121345266D01*
X142717287Y-121238390D01*
X142709556Y-121227749D01*
X142596971Y-121072786D01*
X142452213Y-120928028D01*
X142286613Y-120807715D01*
X142286612Y-120807714D01*
X142286610Y-120807713D01*
X142186321Y-120756613D01*
X142104223Y-120714781D01*
X141909534Y-120651522D01*
X141734995Y-120623878D01*
X141707352Y-120619500D01*
X141502648Y-120619500D01*
X141478329Y-120623351D01*
X141300465Y-120651522D01*
X141105776Y-120714781D01*
X140923386Y-120807715D01*
X140757786Y-120928028D01*
X140613028Y-121072786D01*
X140492715Y-121238386D01*
X140399781Y-121420776D01*
X140336522Y-121615465D01*
X140304500Y-121817648D01*
X140304500Y-122022351D01*
X140336522Y-122224534D01*
X140399781Y-122419223D01*
X140477772Y-122572287D01*
X140492713Y-122601610D01*
X140580819Y-122722877D01*
X140604298Y-122788681D01*
X140604500Y-122795761D01*
X140604500Y-125828544D01*
X140642947Y-126021828D01*
X140642950Y-126021840D01*
X140654100Y-126048757D01*
X140718366Y-126203911D01*
X140718371Y-126203920D01*
X140827859Y-126367780D01*
X140827860Y-126367781D01*
X140827861Y-126367782D01*
X140967218Y-126507139D01*
X140967219Y-126507139D01*
X140974286Y-126514206D01*
X140974285Y-126514206D01*
X140974288Y-126514208D01*
X144256860Y-129796781D01*
X144256861Y-129796782D01*
X144328072Y-129867993D01*
X144396219Y-129936140D01*
X144560079Y-130045628D01*
X144560092Y-130045635D01*
X144688833Y-130098961D01*
X144731744Y-130116735D01*
X144742164Y-130121051D01*
X144838812Y-130140275D01*
X144887135Y-130149887D01*
X144935458Y-130159500D01*
X144935459Y-130159500D01*
X144935460Y-130159500D01*
X145132540Y-130159500D01*
X155363218Y-130159500D01*
X155430257Y-130179185D01*
X155450899Y-130195819D01*
X156059817Y-130804737D01*
X156093302Y-130866060D01*
X156088318Y-130935752D01*
X156046446Y-130991685D01*
X155980982Y-131016102D01*
X155912709Y-131001250D01*
X155910136Y-130999805D01*
X155715890Y-130887657D01*
X155715876Y-130887650D01*
X155503887Y-130799842D01*
X155282238Y-130740452D01*
X155244215Y-130735446D01*
X155054741Y-130710500D01*
X155054734Y-130710500D01*
X154825266Y-130710500D01*
X154825258Y-130710500D01*
X154608715Y-130739009D01*
X154597762Y-130740452D01*
X154504076Y-130765554D01*
X154376112Y-130799842D01*
X154164123Y-130887650D01*
X154164109Y-130887657D01*
X153965382Y-131002392D01*
X153783338Y-131142081D01*
X153621081Y-131304338D01*
X153481392Y-131486382D01*
X153366657Y-131685109D01*
X153366650Y-131685123D01*
X153278842Y-131897112D01*
X153219453Y-132118759D01*
X153219451Y-132118770D01*
X153189500Y-132346258D01*
X153189500Y-132575741D01*
X153214446Y-132765215D01*
X153219452Y-132803238D01*
X153271311Y-132996782D01*
X153278842Y-133024887D01*
X153278842Y-133024888D01*
X153350567Y-133198048D01*
X153358036Y-133267517D01*
X153326761Y-133329996D01*
X153266671Y-133365648D01*
X153236006Y-133369500D01*
X130711578Y-133369500D01*
X130517173Y-133400290D01*
X130329970Y-133461117D01*
X130154594Y-133550476D01*
X130084441Y-133601446D01*
X129995354Y-133666172D01*
X129995352Y-133666174D01*
X129995351Y-133666174D01*
X129856174Y-133805351D01*
X129856174Y-133805352D01*
X129856172Y-133805354D01*
X129838936Y-133829077D01*
X129740476Y-133964594D01*
X129651115Y-134139974D01*
X129641743Y-134168820D01*
X129602305Y-134226495D01*
X129537946Y-134253692D01*
X129523813Y-134254500D01*
X125584500Y-134254500D01*
X125517461Y-134234815D01*
X125471706Y-134182011D01*
X125460500Y-134130500D01*
X125460500Y-127536456D01*
X125451205Y-127489729D01*
X125438637Y-127426547D01*
X125422051Y-127343164D01*
X125381304Y-127244792D01*
X125368844Y-127214710D01*
X125346635Y-127161092D01*
X125346628Y-127161079D01*
X125237139Y-126997218D01*
X125237136Y-126997214D01*
X125094686Y-126854764D01*
X125094655Y-126854735D01*
X124057600Y-125817680D01*
X124024115Y-125756357D01*
X124029099Y-125686665D01*
X124057596Y-125642323D01*
X125097778Y-124602141D01*
X125097782Y-124602139D01*
X125237139Y-124462782D01*
X125346632Y-124298914D01*
X125422051Y-124116835D01*
X125460117Y-123925466D01*
X125460500Y-123923543D01*
X125460500Y-122088931D01*
X125480185Y-122021892D01*
X125532989Y-121976137D01*
X125602147Y-121966193D01*
X125665703Y-121995218D01*
X125703477Y-122053996D01*
X125706973Y-122069533D01*
X125731522Y-122224534D01*
X125794781Y-122419223D01*
X125887715Y-122601613D01*
X126008028Y-122767213D01*
X126152786Y-122911971D01*
X126259531Y-122989524D01*
X126318390Y-123032287D01*
X126409838Y-123078882D01*
X126500776Y-123125218D01*
X126500778Y-123125218D01*
X126500781Y-123125220D01*
X126545374Y-123139709D01*
X126695465Y-123188477D01*
X126731486Y-123194182D01*
X126843513Y-123211925D01*
X126906648Y-123241854D01*
X126911797Y-123246717D01*
X129773181Y-126108101D01*
X129806666Y-126169424D01*
X129809500Y-126195782D01*
X129809500Y-126484301D01*
X129789815Y-126551340D01*
X129785818Y-126557186D01*
X129740478Y-126619591D01*
X129650204Y-126796764D01*
X129602229Y-126847560D01*
X129534408Y-126864355D01*
X129468274Y-126841818D01*
X129429234Y-126796764D01*
X129339096Y-126619858D01*
X129313678Y-126584873D01*
X129313677Y-126584873D01*
X128670000Y-127228551D01*
X128670000Y-127222339D01*
X128642741Y-127120606D01*
X128590080Y-127029394D01*
X128515606Y-126954920D01*
X128424394Y-126902259D01*
X128322661Y-126875000D01*
X128316447Y-126875000D01*
X128960125Y-126231320D01*
X128960125Y-126231319D01*
X128925145Y-126205905D01*
X128749835Y-126116581D01*
X128562705Y-126055778D01*
X128368382Y-126025000D01*
X128171618Y-126025000D01*
X127977294Y-126055778D01*
X127790161Y-126116582D01*
X127614863Y-126205899D01*
X127614859Y-126205902D01*
X127579873Y-126231320D01*
X127579872Y-126231320D01*
X128223554Y-126875000D01*
X128217339Y-126875000D01*
X128115606Y-126902259D01*
X128024394Y-126954920D01*
X127949920Y-127029394D01*
X127897259Y-127120606D01*
X127870000Y-127222339D01*
X127870000Y-127228552D01*
X127226320Y-126584872D01*
X127226320Y-126584873D01*
X127200902Y-126619859D01*
X127200899Y-126619863D01*
X127111582Y-126795161D01*
X127050778Y-126982294D01*
X127020000Y-127176617D01*
X127020000Y-127373382D01*
X127050778Y-127567705D01*
X127111581Y-127754835D01*
X127200905Y-127930145D01*
X127226319Y-127965125D01*
X127226320Y-127965125D01*
X127870000Y-127321445D01*
X127870000Y-127327661D01*
X127897259Y-127429394D01*
X127949920Y-127520606D01*
X128024394Y-127595080D01*
X128115606Y-127647741D01*
X128217339Y-127675000D01*
X128223553Y-127675000D01*
X127579873Y-128318677D01*
X127579873Y-128318678D01*
X127614858Y-128344096D01*
X127790164Y-128433418D01*
X127977294Y-128494221D01*
X128171618Y-128525000D01*
X128368382Y-128525000D01*
X128562705Y-128494221D01*
X128749835Y-128433418D01*
X128925143Y-128344095D01*
X128960125Y-128318678D01*
X128960126Y-128318678D01*
X128316448Y-127675000D01*
X128322661Y-127675000D01*
X128424394Y-127647741D01*
X128515606Y-127595080D01*
X128590080Y-127520606D01*
X128642741Y-127429394D01*
X128670000Y-127327661D01*
X128670000Y-127321448D01*
X129313678Y-127965126D01*
X129313678Y-127965125D01*
X129339097Y-127930141D01*
X129429234Y-127753236D01*
X129477208Y-127702439D01*
X129545029Y-127685644D01*
X129611164Y-127708181D01*
X129650204Y-127753235D01*
X129651115Y-127755024D01*
X129651116Y-127755025D01*
X129740476Y-127930405D01*
X129856172Y-128089646D01*
X129995354Y-128228828D01*
X130154595Y-128344524D01*
X130229214Y-128382544D01*
X130329970Y-128433882D01*
X130329972Y-128433882D01*
X130329975Y-128433884D01*
X130430317Y-128466487D01*
X130517173Y-128494709D01*
X130711578Y-128525500D01*
X130711583Y-128525500D01*
X130908422Y-128525500D01*
X131102826Y-128494709D01*
X131182574Y-128468797D01*
X131290025Y-128433884D01*
X131465405Y-128344524D01*
X131624646Y-128228828D01*
X131763828Y-128089646D01*
X131875184Y-127936378D01*
X131930512Y-127893714D01*
X132000125Y-127887735D01*
X132061920Y-127920341D01*
X132096277Y-127981179D01*
X132099500Y-128009263D01*
X132099500Y-128072869D01*
X132099501Y-128072876D01*
X132105908Y-128132483D01*
X132156202Y-128267328D01*
X132156206Y-128267335D01*
X132242452Y-128382544D01*
X132242455Y-128382547D01*
X132357664Y-128468793D01*
X132357671Y-128468797D01*
X132492517Y-128519091D01*
X132492516Y-128519091D01*
X132499444Y-128519835D01*
X132552127Y-128525500D01*
X134147872Y-128525499D01*
X134207483Y-128519091D01*
X134342331Y-128468796D01*
X134457546Y-128382546D01*
X134543796Y-128267331D01*
X134594091Y-128132483D01*
X134600500Y-128072873D01*
X134600499Y-126477128D01*
X134594091Y-126417517D01*
X134591888Y-126411611D01*
X134543797Y-126282671D01*
X134543793Y-126282664D01*
X134457548Y-126167457D01*
X134457546Y-126167454D01*
X134437132Y-126152172D01*
X134400188Y-126124515D01*
X134358318Y-126068581D01*
X134350500Y-126025249D01*
X134350500Y-123726458D01*
X134350499Y-123726455D01*
X134323798Y-123592218D01*
X134312051Y-123533164D01*
X134278788Y-123452861D01*
X134258324Y-123403457D01*
X134236635Y-123351093D01*
X134236634Y-123351092D01*
X134236632Y-123351086D01*
X134234328Y-123347638D01*
X134127139Y-123187217D01*
X133984686Y-123044764D01*
X133984655Y-123044735D01*
X132771717Y-121831797D01*
X132738232Y-121770474D01*
X132736925Y-121763513D01*
X132713477Y-121615466D01*
X132713477Y-121615465D01*
X132670288Y-121482544D01*
X132650220Y-121420781D01*
X132650218Y-121420778D01*
X132650218Y-121420776D01*
X132611743Y-121345266D01*
X132557287Y-121238390D01*
X132521874Y-121189648D01*
X132469182Y-121117122D01*
X132445702Y-121051316D01*
X132445500Y-121044237D01*
X132445500Y-120754675D01*
X132445501Y-120754654D01*
X132445501Y-120551457D01*
X132445500Y-120551455D01*
X132441112Y-120529394D01*
X132407052Y-120358165D01*
X132348717Y-120217334D01*
X132331633Y-120176088D01*
X132331628Y-120176079D01*
X132222140Y-120012219D01*
X132222137Y-120012215D01*
X131594209Y-119384289D01*
X131587140Y-119377220D01*
X131587139Y-119377218D01*
X131515472Y-119305551D01*
X131498425Y-119274331D01*
X131481987Y-119244227D01*
X131486973Y-119174535D01*
X131509096Y-119144983D01*
X131528844Y-119118602D01*
X131594309Y-119094186D01*
X131594311Y-119094186D01*
X131641467Y-119099938D01*
X131743308Y-119133028D01*
X131775465Y-119143477D01*
X131850049Y-119155290D01*
X131977648Y-119175500D01*
X131977649Y-119175500D01*
X132182351Y-119175500D01*
X132182352Y-119175500D01*
X132384534Y-119143477D01*
X132579219Y-119080220D01*
X132761610Y-118987287D01*
X132854590Y-118919732D01*
X132927213Y-118866971D01*
X132927215Y-118866968D01*
X132927219Y-118866966D01*
X133071966Y-118722219D01*
X133071968Y-118722215D01*
X133071971Y-118722213D01*
X133176913Y-118577770D01*
X133192287Y-118556610D01*
X133199117Y-118543204D01*
X133247091Y-118492409D01*
X133309602Y-118475500D01*
X139459238Y-118475500D01*
X139526277Y-118495185D01*
X139532119Y-118499179D01*
X139653390Y-118587287D01*
X139769516Y-118646456D01*
X139835776Y-118680218D01*
X139835778Y-118680218D01*
X139835781Y-118680220D01*
X139909381Y-118704134D01*
X140030465Y-118743477D01*
X140129331Y-118759136D01*
X140232648Y-118775500D01*
X140232649Y-118775500D01*
X140437351Y-118775500D01*
X140437352Y-118775500D01*
X140639534Y-118743477D01*
X140834219Y-118680220D01*
X141016610Y-118587287D01*
X141120484Y-118511819D01*
X141182213Y-118466971D01*
X141182215Y-118466968D01*
X141182219Y-118466966D01*
X141326966Y-118322219D01*
X141326968Y-118322215D01*
X141326971Y-118322213D01*
X141399549Y-118222316D01*
X141447287Y-118156610D01*
X141540220Y-117974219D01*
X141603477Y-117779534D01*
X141635500Y-117577352D01*
X141635500Y-117372648D01*
X141612353Y-117226507D01*
X141603477Y-117170465D01*
X141572426Y-117074901D01*
X141540220Y-116975781D01*
X141540218Y-116975778D01*
X141540218Y-116975776D01*
X141504640Y-116905951D01*
X141447287Y-116793390D01*
X141428273Y-116767219D01*
X141326971Y-116627786D01*
X141182213Y-116483028D01*
X141016613Y-116362715D01*
X141016612Y-116362714D01*
X141016610Y-116362713D01*
X140932273Y-116319741D01*
X140834223Y-116269781D01*
X140639534Y-116206522D01*
X140464995Y-116178878D01*
X140437352Y-116174500D01*
X140232648Y-116174500D01*
X140208329Y-116178351D01*
X140030465Y-116206522D01*
X139835776Y-116269781D01*
X139653386Y-116362715D01*
X139532123Y-116450818D01*
X139466317Y-116474298D01*
X139459238Y-116474500D01*
X133309602Y-116474500D01*
X133242563Y-116454815D01*
X133199117Y-116406795D01*
X133192287Y-116393390D01*
X133192285Y-116393387D01*
X133192284Y-116393385D01*
X133071971Y-116227786D01*
X132927213Y-116083028D01*
X132761613Y-115962715D01*
X132761612Y-115962714D01*
X132761610Y-115962713D01*
X132704653Y-115933691D01*
X132579223Y-115869781D01*
X132384534Y-115806522D01*
X132209995Y-115778878D01*
X132182352Y-115774500D01*
X131977648Y-115774500D01*
X131953329Y-115778351D01*
X131775465Y-115806522D01*
X131580776Y-115869781D01*
X131398386Y-115962715D01*
X131232786Y-116083028D01*
X131088028Y-116227786D01*
X130967715Y-116393385D01*
X130960883Y-116406795D01*
X130912909Y-116457591D01*
X130850398Y-116474500D01*
X130769602Y-116474500D01*
X130702563Y-116454815D01*
X130659117Y-116406795D01*
X130652287Y-116393390D01*
X130652285Y-116393387D01*
X130652284Y-116393385D01*
X130531971Y-116227786D01*
X130387213Y-116083028D01*
X130221613Y-115962715D01*
X130221612Y-115962714D01*
X130221610Y-115962713D01*
X130164653Y-115933691D01*
X130039223Y-115869781D01*
X129844534Y-115806522D01*
X129669995Y-115778878D01*
X129642352Y-115774500D01*
X129437648Y-115774500D01*
X129413329Y-115778351D01*
X129235465Y-115806522D01*
X129040776Y-115869781D01*
X128858386Y-115962715D01*
X128692786Y-116083028D01*
X128548028Y-116227786D01*
X128427715Y-116393386D01*
X128380485Y-116486080D01*
X128332510Y-116536876D01*
X128264689Y-116553671D01*
X128198554Y-116531134D01*
X128159515Y-116486080D01*
X128144999Y-116457591D01*
X128112287Y-116393390D01*
X128091019Y-116364117D01*
X127991971Y-116227786D01*
X127847213Y-116083028D01*
X127681613Y-115962715D01*
X127681612Y-115962714D01*
X127681610Y-115962713D01*
X127624653Y-115933691D01*
X127499223Y-115869781D01*
X127304534Y-115806522D01*
X127129995Y-115778878D01*
X127102352Y-115774500D01*
X126897648Y-115774500D01*
X126873329Y-115778351D01*
X126695465Y-115806522D01*
X126500776Y-115869781D01*
X126318386Y-115962715D01*
X126152786Y-116083028D01*
X126008028Y-116227786D01*
X125887715Y-116393386D01*
X125840485Y-116486080D01*
X125792510Y-116536876D01*
X125724689Y-116553671D01*
X125658554Y-116531134D01*
X125619515Y-116486080D01*
X125604999Y-116457591D01*
X125572287Y-116393390D01*
X125551019Y-116364117D01*
X125451971Y-116227786D01*
X125307213Y-116083028D01*
X125141613Y-115962715D01*
X125141612Y-115962714D01*
X125141610Y-115962713D01*
X125084653Y-115933691D01*
X124959223Y-115869781D01*
X124764534Y-115806522D01*
X124589995Y-115778878D01*
X124562352Y-115774500D01*
X124357648Y-115774500D01*
X124333329Y-115778351D01*
X124155465Y-115806522D01*
X123960776Y-115869781D01*
X123778386Y-115962715D01*
X123612786Y-116083028D01*
X123468028Y-116227786D01*
X123347715Y-116393386D01*
X123300485Y-116486080D01*
X123252510Y-116536876D01*
X123184689Y-116553671D01*
X123118554Y-116531134D01*
X123079515Y-116486080D01*
X123064999Y-116457591D01*
X123032287Y-116393390D01*
X122996344Y-116343918D01*
X122944182Y-116272122D01*
X122920702Y-116206316D01*
X122920500Y-116199237D01*
X122920500Y-115674675D01*
X122920501Y-115674654D01*
X122920501Y-115471457D01*
X122920500Y-115471455D01*
X122911829Y-115427863D01*
X122882052Y-115278165D01*
X122806632Y-115096086D01*
X122806631Y-115096085D01*
X122806628Y-115096079D01*
X122697140Y-114932219D01*
X122697137Y-114932215D01*
X122069209Y-114304289D01*
X122069206Y-114304285D01*
X122069206Y-114304286D01*
X122062139Y-114297219D01*
X122062139Y-114297218D01*
X121922782Y-114157861D01*
X121922781Y-114157860D01*
X121922780Y-114157859D01*
X121758920Y-114048371D01*
X121758911Y-114048366D01*
X121686315Y-114018296D01*
X121630165Y-113995038D01*
X121576836Y-113972949D01*
X121576832Y-113972948D01*
X121576828Y-113972946D01*
X121480188Y-113953724D01*
X121383544Y-113934500D01*
X121383541Y-113934500D01*
X109545200Y-113934500D01*
X109478161Y-113914815D01*
X109465634Y-113905506D01*
X109292820Y-113779951D01*
X109292115Y-113779591D01*
X109284054Y-113775485D01*
X109233259Y-113727512D01*
X109216463Y-113659692D01*
X109238999Y-113593556D01*
X109284054Y-113554515D01*
X109292816Y-113550051D01*
X109347108Y-113510606D01*
X109464786Y-113425109D01*
X109464788Y-113425106D01*
X109464792Y-113425104D01*
X109615104Y-113274792D01*
X109615106Y-113274788D01*
X109615109Y-113274786D01*
X109740048Y-113102820D01*
X109740047Y-113102820D01*
X109740051Y-113102816D01*
X109836557Y-112913412D01*
X109902246Y-112711243D01*
X109935500Y-112501287D01*
X109935500Y-112501285D01*
X109936262Y-112496475D01*
X109937321Y-112496642D01*
X109960361Y-112436172D01*
X109971415Y-112423504D01*
X111503102Y-110891819D01*
X111564425Y-110858334D01*
X111590783Y-110855500D01*
X115610398Y-110855500D01*
X115677437Y-110875185D01*
X115720883Y-110923205D01*
X115727715Y-110936614D01*
X115848028Y-111102213D01*
X115992786Y-111246971D01*
X116096072Y-111322011D01*
X116158390Y-111367287D01*
X116274607Y-111426503D01*
X116340776Y-111460218D01*
X116340778Y-111460218D01*
X116340781Y-111460220D01*
X116439464Y-111492284D01*
X116535465Y-111523477D01*
X116636557Y-111539488D01*
X116737648Y-111555500D01*
X116737649Y-111555500D01*
X116942351Y-111555500D01*
X116942352Y-111555500D01*
X117144534Y-111523477D01*
X117339219Y-111460220D01*
X117521610Y-111367287D01*
X117660151Y-111266632D01*
X117687213Y-111246971D01*
X117687215Y-111246968D01*
X117687219Y-111246966D01*
X117831966Y-111102219D01*
X117831968Y-111102215D01*
X117831971Y-111102213D01*
X117952284Y-110936614D01*
X117952286Y-110936611D01*
X117952287Y-110936610D01*
X117959117Y-110923204D01*
X118007091Y-110872409D01*
X118069602Y-110855500D01*
X118150398Y-110855500D01*
X118217437Y-110875185D01*
X118260883Y-110923205D01*
X118267715Y-110936614D01*
X118388028Y-111102213D01*
X118532786Y-111246971D01*
X118636072Y-111322011D01*
X118698390Y-111367287D01*
X118814607Y-111426503D01*
X118880776Y-111460218D01*
X118880778Y-111460218D01*
X118880781Y-111460220D01*
X118979464Y-111492284D01*
X119075465Y-111523477D01*
X119176557Y-111539488D01*
X119277648Y-111555500D01*
X119277649Y-111555500D01*
X119482351Y-111555500D01*
X119482352Y-111555500D01*
X119684534Y-111523477D01*
X119879219Y-111460220D01*
X120061610Y-111367287D01*
X120200151Y-111266632D01*
X120227213Y-111246971D01*
X120227215Y-111246968D01*
X120227219Y-111246966D01*
X120371966Y-111102219D01*
X120371968Y-111102215D01*
X120371971Y-111102213D01*
X120492284Y-110936614D01*
X120492286Y-110936611D01*
X120492287Y-110936610D01*
X120539516Y-110843917D01*
X120587489Y-110793123D01*
X120655310Y-110776328D01*
X120721445Y-110798865D01*
X120760483Y-110843917D01*
X120778471Y-110879219D01*
X120807715Y-110936614D01*
X120928028Y-111102213D01*
X121072786Y-111246971D01*
X121176072Y-111322011D01*
X121238390Y-111367287D01*
X121354607Y-111426503D01*
X121420776Y-111460218D01*
X121420778Y-111460218D01*
X121420781Y-111460220D01*
X121519464Y-111492284D01*
X121615465Y-111523477D01*
X121716557Y-111539488D01*
X121817648Y-111555500D01*
X121817649Y-111555500D01*
X122022351Y-111555500D01*
X122022352Y-111555500D01*
X122224534Y-111523477D01*
X122419219Y-111460220D01*
X122601610Y-111367287D01*
X122740151Y-111266632D01*
X122767213Y-111246971D01*
X122767215Y-111246968D01*
X122767219Y-111246966D01*
X122911966Y-111102219D01*
X122911968Y-111102215D01*
X122911971Y-111102213D01*
X123032284Y-110936614D01*
X123032286Y-110936611D01*
X123032287Y-110936610D01*
X123079795Y-110843369D01*
X123127770Y-110792574D01*
X123195591Y-110775779D01*
X123261725Y-110798316D01*
X123300765Y-110843370D01*
X123348140Y-110936349D01*
X123468417Y-111101894D01*
X123468417Y-111101895D01*
X123613104Y-111246582D01*
X123778650Y-111366859D01*
X123960968Y-111459754D01*
X124155578Y-111522988D01*
X124210000Y-111531607D01*
X124210000Y-110170686D01*
X124214394Y-110175080D01*
X124305606Y-110227741D01*
X124407339Y-110255000D01*
X124512661Y-110255000D01*
X124614394Y-110227741D01*
X124705606Y-110175080D01*
X124710000Y-110170686D01*
X124710000Y-111531606D01*
X124764421Y-111522988D01*
X124959031Y-111459754D01*
X125141349Y-111366859D01*
X125306894Y-111246582D01*
X125306895Y-111246582D01*
X125451582Y-111101895D01*
X125451582Y-111101894D01*
X125571861Y-110936347D01*
X125619234Y-110843371D01*
X125667208Y-110792575D01*
X125735028Y-110775779D01*
X125801164Y-110798316D01*
X125840203Y-110843369D01*
X125887713Y-110936611D01*
X126008028Y-111102213D01*
X126152786Y-111246971D01*
X126256072Y-111322011D01*
X126318390Y-111367287D01*
X126434607Y-111426503D01*
X126500776Y-111460218D01*
X126500778Y-111460218D01*
X126500781Y-111460220D01*
X126599464Y-111492284D01*
X126695465Y-111523477D01*
X126796557Y-111539488D01*
X126897648Y-111555500D01*
X126897649Y-111555500D01*
X127102351Y-111555500D01*
X127102352Y-111555500D01*
X127304534Y-111523477D01*
X127499219Y-111460220D01*
X127681610Y-111367287D01*
X127820151Y-111266632D01*
X127847213Y-111246971D01*
X127847215Y-111246968D01*
X127847219Y-111246966D01*
X127991966Y-111102219D01*
X127991968Y-111102215D01*
X127991971Y-111102213D01*
X128112284Y-110936614D01*
X128112286Y-110936611D01*
X128112287Y-110936610D01*
X128159516Y-110843917D01*
X128207489Y-110793123D01*
X128275310Y-110776328D01*
X128341445Y-110798865D01*
X128380483Y-110843917D01*
X128398471Y-110879219D01*
X128427715Y-110936614D01*
X128548028Y-111102213D01*
X128692786Y-111246971D01*
X128796072Y-111322011D01*
X128858390Y-111367287D01*
X128974607Y-111426503D01*
X129040776Y-111460218D01*
X129040778Y-111460218D01*
X129040781Y-111460220D01*
X129139464Y-111492284D01*
X129235465Y-111523477D01*
X129336557Y-111539488D01*
X129437648Y-111555500D01*
X129437649Y-111555500D01*
X129642351Y-111555500D01*
X129642352Y-111555500D01*
X129844534Y-111523477D01*
X130039219Y-111460220D01*
X130221610Y-111367287D01*
X130360151Y-111266632D01*
X130387213Y-111246971D01*
X130387215Y-111246968D01*
X130387219Y-111246966D01*
X130531966Y-111102219D01*
X130531968Y-111102215D01*
X130531971Y-111102213D01*
X130652284Y-110936614D01*
X130652286Y-110936611D01*
X130652287Y-110936610D01*
X130659117Y-110923204D01*
X130707091Y-110872409D01*
X130769602Y-110855500D01*
X130850398Y-110855500D01*
X130917437Y-110875185D01*
X130960883Y-110923205D01*
X130967715Y-110936614D01*
X131088028Y-111102213D01*
X131232786Y-111246971D01*
X131336072Y-111322011D01*
X131398390Y-111367287D01*
X131514607Y-111426503D01*
X131580776Y-111460218D01*
X131580778Y-111460218D01*
X131580781Y-111460220D01*
X131679464Y-111492284D01*
X131775465Y-111523477D01*
X131876557Y-111539488D01*
X131977648Y-111555500D01*
X131977649Y-111555500D01*
X132182351Y-111555500D01*
X132182352Y-111555500D01*
X132384534Y-111523477D01*
X132579219Y-111460220D01*
X132761610Y-111367287D01*
X132900151Y-111266632D01*
X132927213Y-111246971D01*
X132927215Y-111246968D01*
X132927219Y-111246966D01*
X133071966Y-111102219D01*
X133071968Y-111102215D01*
X133071971Y-111102213D01*
X133192284Y-110936614D01*
X133192286Y-110936611D01*
X133192287Y-110936610D01*
X133199117Y-110923204D01*
X133247091Y-110872409D01*
X133309602Y-110855500D01*
X143679218Y-110855500D01*
X143746257Y-110875185D01*
X143766899Y-110891819D01*
X147838576Y-114963496D01*
X147872061Y-115024819D01*
X147874350Y-115040344D01*
X147905718Y-115238390D01*
X147907754Y-115251243D01*
X147965547Y-115429112D01*
X147973444Y-115453414D01*
X148069951Y-115642820D01*
X148194890Y-115814786D01*
X148345213Y-115965109D01*
X148517182Y-116090050D01*
X148525946Y-116094516D01*
X148576742Y-116142491D01*
X148593536Y-116210312D01*
X148570998Y-116276447D01*
X148525946Y-116315484D01*
X148517182Y-116319949D01*
X148341266Y-116447759D01*
X148340635Y-116446891D01*
X148281581Y-116473359D01*
X148264800Y-116474500D01*
X147785782Y-116474500D01*
X147718743Y-116454815D01*
X147698101Y-116438181D01*
X146831479Y-115571559D01*
X146831459Y-115571537D01*
X146687785Y-115427863D01*
X146687781Y-115427860D01*
X146523920Y-115318371D01*
X146523907Y-115318364D01*
X146369723Y-115254500D01*
X146369720Y-115254499D01*
X146361859Y-115251243D01*
X146341836Y-115242949D01*
X146273575Y-115229370D01*
X146270002Y-115228437D01*
X146243084Y-115212256D01*
X146215254Y-115197698D01*
X146211070Y-115193012D01*
X146210118Y-115192440D01*
X146209573Y-115191335D01*
X146202982Y-115183954D01*
X146098918Y-115048338D01*
X146098911Y-115048330D01*
X145936670Y-114886089D01*
X145936661Y-114886081D01*
X145754617Y-114746392D01*
X145555890Y-114631657D01*
X145555876Y-114631650D01*
X145343887Y-114543842D01*
X145258138Y-114520866D01*
X145122238Y-114484452D01*
X145084215Y-114479446D01*
X144894741Y-114454500D01*
X144894734Y-114454500D01*
X144665266Y-114454500D01*
X144665258Y-114454500D01*
X144448715Y-114483009D01*
X144437762Y-114484452D01*
X144344076Y-114509554D01*
X144216112Y-114543842D01*
X144004123Y-114631650D01*
X144004109Y-114631657D01*
X143805382Y-114746392D01*
X143623338Y-114886081D01*
X143461081Y-115048338D01*
X143321392Y-115230382D01*
X143206657Y-115429109D01*
X143206650Y-115429123D01*
X143118842Y-115641112D01*
X143111493Y-115668541D01*
X143075715Y-115802069D01*
X143059453Y-115862759D01*
X143059451Y-115862770D01*
X143029500Y-116090258D01*
X143029500Y-116319741D01*
X143051400Y-116486080D01*
X143059452Y-116547238D01*
X143083187Y-116635818D01*
X143118842Y-116768887D01*
X143206650Y-116980876D01*
X143206656Y-116980888D01*
X143294338Y-117132759D01*
X143321392Y-117179617D01*
X143461081Y-117361661D01*
X143461089Y-117361670D01*
X143623330Y-117523911D01*
X143623338Y-117523918D01*
X143623339Y-117523919D01*
X143654530Y-117547853D01*
X143805382Y-117663607D01*
X143805385Y-117663608D01*
X143805388Y-117663611D01*
X144004112Y-117778344D01*
X144004117Y-117778346D01*
X144004123Y-117778349D01*
X144066589Y-117804223D01*
X144216113Y-117866158D01*
X144437762Y-117925548D01*
X144665266Y-117955500D01*
X144665273Y-117955500D01*
X144894727Y-117955500D01*
X144894734Y-117955500D01*
X145122238Y-117925548D01*
X145343887Y-117866158D01*
X145555888Y-117778344D01*
X145754612Y-117663611D01*
X145860201Y-117582588D01*
X145925365Y-117557396D01*
X145993810Y-117571434D01*
X146023365Y-117593285D01*
X146539735Y-118109655D01*
X146539764Y-118109686D01*
X146682217Y-118252139D01*
X146787091Y-118322213D01*
X146846086Y-118361632D01*
X146943148Y-118401836D01*
X147028164Y-118437051D01*
X147124812Y-118456275D01*
X147196681Y-118470571D01*
X147221458Y-118475500D01*
X147221459Y-118475500D01*
X147221460Y-118475500D01*
X147418540Y-118475500D01*
X148264800Y-118475500D01*
X148331839Y-118495185D01*
X148344365Y-118504493D01*
X148517179Y-118630048D01*
X148517181Y-118630049D01*
X148517184Y-118630051D01*
X148706588Y-118726557D01*
X148908757Y-118792246D01*
X149118713Y-118825500D01*
X149118714Y-118825500D01*
X149331286Y-118825500D01*
X149331287Y-118825500D01*
X149541243Y-118792246D01*
X149743412Y-118726557D01*
X149932816Y-118630051D01*
X150004237Y-118578161D01*
X150104786Y-118505109D01*
X150104788Y-118505106D01*
X150104792Y-118505104D01*
X150255104Y-118354792D01*
X150255106Y-118354788D01*
X150255109Y-118354786D01*
X150380048Y-118182820D01*
X150380047Y-118182820D01*
X150380051Y-118182816D01*
X150476557Y-117993412D01*
X150542246Y-117791243D01*
X150575500Y-117581287D01*
X150575500Y-117368713D01*
X150542246Y-117158757D01*
X150476557Y-116956588D01*
X150380051Y-116767184D01*
X150380049Y-116767181D01*
X150380048Y-116767179D01*
X150255109Y-116595213D01*
X150104786Y-116444890D01*
X149932820Y-116319951D01*
X149929654Y-116318338D01*
X149924054Y-116315485D01*
X149873259Y-116267512D01*
X149856463Y-116199692D01*
X149878999Y-116133556D01*
X149924054Y-116094515D01*
X149932816Y-116090051D01*
X149987338Y-116050439D01*
X150104786Y-115965109D01*
X150104788Y-115965106D01*
X150104792Y-115965104D01*
X150255104Y-115814792D01*
X150255106Y-115814788D01*
X150255109Y-115814786D01*
X150380048Y-115642820D01*
X150380047Y-115642820D01*
X150380051Y-115642816D01*
X150476557Y-115453412D01*
X150542246Y-115251243D01*
X150575500Y-115041287D01*
X150575500Y-114828713D01*
X150542246Y-114618757D01*
X150476557Y-114416588D01*
X150380051Y-114227184D01*
X150380049Y-114227181D01*
X150380048Y-114227179D01*
X150255109Y-114055213D01*
X150104786Y-113904890D01*
X149932820Y-113779951D01*
X149932115Y-113779591D01*
X149924054Y-113775485D01*
X149873259Y-113727512D01*
X149856463Y-113659692D01*
X149878999Y-113593556D01*
X149924054Y-113554515D01*
X149932816Y-113550051D01*
X149987108Y-113510606D01*
X150108734Y-113422241D01*
X150109364Y-113423108D01*
X150168419Y-113396641D01*
X150185200Y-113395500D01*
X151660500Y-113395500D01*
X151727539Y-113415185D01*
X151773294Y-113467989D01*
X151784500Y-113519500D01*
X151784500Y-116198557D01*
X151764815Y-116265596D01*
X151748181Y-116286238D01*
X151716081Y-116318338D01*
X151576392Y-116500382D01*
X151461657Y-116699109D01*
X151461650Y-116699123D01*
X151373842Y-116911112D01*
X151349900Y-117000465D01*
X151316474Y-117125218D01*
X151314453Y-117132759D01*
X151314451Y-117132770D01*
X151284500Y-117360258D01*
X151284500Y-117589741D01*
X151307022Y-117760801D01*
X151314452Y-117817238D01*
X151373842Y-118038887D01*
X151461650Y-118250876D01*
X151461657Y-118250890D01*
X151472749Y-118270102D01*
X151557724Y-118417284D01*
X151576392Y-118449617D01*
X151716081Y-118631661D01*
X151716089Y-118631670D01*
X151878330Y-118793911D01*
X151878338Y-118793918D01*
X151878339Y-118793919D01*
X151910501Y-118818598D01*
X152060382Y-118933607D01*
X152060385Y-118933608D01*
X152060388Y-118933611D01*
X152259112Y-119048344D01*
X152259117Y-119048346D01*
X152259123Y-119048349D01*
X152350480Y-119086190D01*
X152471113Y-119136158D01*
X152692762Y-119195548D01*
X152920266Y-119225500D01*
X152920273Y-119225500D01*
X153149727Y-119225500D01*
X153149734Y-119225500D01*
X153377238Y-119195548D01*
X153598887Y-119136158D01*
X153810888Y-119048344D01*
X154009612Y-118933611D01*
X154191661Y-118793919D01*
X154191665Y-118793914D01*
X154191670Y-118793911D01*
X154353911Y-118631670D01*
X154353914Y-118631665D01*
X154353919Y-118631661D01*
X154493611Y-118449612D01*
X154608344Y-118250888D01*
X154696158Y-118038887D01*
X154755548Y-117817238D01*
X154785500Y-117589734D01*
X154785500Y-117360266D01*
X154755548Y-117132762D01*
X154696158Y-116911113D01*
X154636555Y-116767219D01*
X154608349Y-116699123D01*
X154608346Y-116699117D01*
X154608344Y-116699112D01*
X154493611Y-116500388D01*
X154493608Y-116500385D01*
X154493607Y-116500382D01*
X154387969Y-116362713D01*
X154353919Y-116318339D01*
X154353918Y-116318338D01*
X154353911Y-116318330D01*
X154321819Y-116286238D01*
X154288334Y-116224915D01*
X154285500Y-116198557D01*
X154285500Y-113562682D01*
X154910000Y-113562682D01*
X154910000Y-113767317D01*
X154942009Y-113969417D01*
X155005244Y-114164031D01*
X155098141Y-114346350D01*
X155098147Y-114346359D01*
X155130523Y-114390921D01*
X155130524Y-114390922D01*
X155810000Y-113711446D01*
X155810000Y-113717661D01*
X155837259Y-113819394D01*
X155889920Y-113910606D01*
X155964394Y-113985080D01*
X156055606Y-114037741D01*
X156157339Y-114065000D01*
X156163553Y-114065000D01*
X155484076Y-114744474D01*
X155528650Y-114776859D01*
X155710968Y-114869755D01*
X155905582Y-114932990D01*
X156107683Y-114965000D01*
X156312317Y-114965000D01*
X156514417Y-114932990D01*
X156709031Y-114869755D01*
X156891349Y-114776859D01*
X156935921Y-114744474D01*
X156256447Y-114065000D01*
X156262661Y-114065000D01*
X156364394Y-114037741D01*
X156455606Y-113985080D01*
X156530080Y-113910606D01*
X156582741Y-113819394D01*
X156610000Y-113717661D01*
X156610000Y-113711448D01*
X157289474Y-114390922D01*
X157289474Y-114390921D01*
X157321859Y-114346349D01*
X157414755Y-114164031D01*
X157477990Y-113969417D01*
X157510000Y-113767317D01*
X157510000Y-113562682D01*
X157477990Y-113360582D01*
X157414755Y-113165968D01*
X157321859Y-112983650D01*
X157289474Y-112939077D01*
X157289474Y-112939076D01*
X156610000Y-113618551D01*
X156610000Y-113612339D01*
X156582741Y-113510606D01*
X156530080Y-113419394D01*
X156455606Y-113344920D01*
X156364394Y-113292259D01*
X156262661Y-113265000D01*
X156256446Y-113265000D01*
X156935922Y-112585524D01*
X156935921Y-112585523D01*
X156891359Y-112553147D01*
X156891350Y-112553141D01*
X156709031Y-112460244D01*
X156514417Y-112397009D01*
X156312317Y-112365000D01*
X156107683Y-112365000D01*
X155905582Y-112397009D01*
X155710968Y-112460244D01*
X155528644Y-112553143D01*
X155484077Y-112585523D01*
X155484077Y-112585524D01*
X156163554Y-113265000D01*
X156157339Y-113265000D01*
X156055606Y-113292259D01*
X155964394Y-113344920D01*
X155889920Y-113419394D01*
X155837259Y-113510606D01*
X155810000Y-113612339D01*
X155810000Y-113618553D01*
X155130524Y-112939077D01*
X155130523Y-112939077D01*
X155098143Y-112983644D01*
X155005244Y-113165968D01*
X154942009Y-113360582D01*
X154910000Y-113562682D01*
X154285500Y-113562682D01*
X154285500Y-102771583D01*
X154275574Y-102708914D01*
X154275574Y-102708913D01*
X154259208Y-102605582D01*
X154254709Y-102577173D01*
X154225290Y-102486632D01*
X154193884Y-102389975D01*
X154193882Y-102389972D01*
X154193882Y-102389970D01*
X154125111Y-102255000D01*
X154104524Y-102214595D01*
X153988828Y-102055354D01*
X153849646Y-101916172D01*
X152693487Y-100760013D01*
X178040000Y-100760013D01*
X178040000Y-101350000D01*
X179685879Y-101350000D01*
X179666901Y-101395818D01*
X179640000Y-101531056D01*
X179640000Y-101668944D01*
X179666901Y-101804182D01*
X179685879Y-101850000D01*
X178040001Y-101850000D01*
X178040001Y-102439986D01*
X178050494Y-102542696D01*
X178050494Y-102542698D01*
X178105640Y-102709119D01*
X178105645Y-102709130D01*
X178197680Y-102858340D01*
X178197683Y-102858344D01*
X178321655Y-102982316D01*
X178321659Y-102982319D01*
X178470869Y-103074354D01*
X178470880Y-103074359D01*
X178637302Y-103129505D01*
X178740020Y-103139999D01*
X180089999Y-103139999D01*
X180090000Y-103139998D01*
X180090000Y-102254120D01*
X180135818Y-102273099D01*
X180271056Y-102300000D01*
X180408944Y-102300000D01*
X180544182Y-102273099D01*
X180590000Y-102254120D01*
X180590000Y-103139999D01*
X181939972Y-103139999D01*
X181939986Y-103139998D01*
X182042696Y-103129505D01*
X182042698Y-103129505D01*
X182209119Y-103074359D01*
X182209130Y-103074354D01*
X182358340Y-102982319D01*
X182358344Y-102982316D01*
X182482316Y-102858344D01*
X182482319Y-102858340D01*
X182574354Y-102709130D01*
X182574359Y-102709119D01*
X182629505Y-102542697D01*
X182639999Y-102439986D01*
X182640000Y-102439973D01*
X182640000Y-101850000D01*
X180994121Y-101850000D01*
X181013099Y-101804182D01*
X181040000Y-101668944D01*
X181040000Y-101531056D01*
X181013099Y-101395818D01*
X180994121Y-101350000D01*
X182639999Y-101350000D01*
X182639999Y-100760028D01*
X182639998Y-100760013D01*
X182629505Y-100657303D01*
X182629505Y-100657301D01*
X182574359Y-100490880D01*
X182574354Y-100490869D01*
X182482319Y-100341659D01*
X182482316Y-100341655D01*
X182358344Y-100217683D01*
X182358340Y-100217680D01*
X182209130Y-100125645D01*
X182209119Y-100125640D01*
X182042697Y-100070494D01*
X181939986Y-100060000D01*
X180590000Y-100060000D01*
X180590000Y-100945879D01*
X180544182Y-100926901D01*
X180408944Y-100900000D01*
X180271056Y-100900000D01*
X180135818Y-100926901D01*
X180090000Y-100945879D01*
X180090000Y-100060000D01*
X178740028Y-100060000D01*
X178740012Y-100060001D01*
X178637303Y-100070494D01*
X178637301Y-100070494D01*
X178470880Y-100125640D01*
X178470869Y-100125645D01*
X178321659Y-100217680D01*
X178321655Y-100217683D01*
X178197683Y-100341655D01*
X178197680Y-100341659D01*
X178105645Y-100490869D01*
X178105640Y-100490880D01*
X178050494Y-100657302D01*
X178040000Y-100760013D01*
X152693487Y-100760013D01*
X144300654Y-92367180D01*
X144267169Y-92305857D01*
X144272153Y-92236165D01*
X144314025Y-92180232D01*
X144379489Y-92155815D01*
X144388335Y-92155499D01*
X145677871Y-92155499D01*
X145677872Y-92155499D01*
X145737483Y-92149091D01*
X145872331Y-92098796D01*
X145987546Y-92012546D01*
X146073796Y-91897331D01*
X146077960Y-91886165D01*
X146119829Y-91830234D01*
X146185293Y-91805816D01*
X146194141Y-91805500D01*
X148416093Y-91805500D01*
X148483132Y-91825185D01*
X148528887Y-91877989D01*
X148534024Y-91891182D01*
X148562103Y-91977603D01*
X148562104Y-91977606D01*
X148630122Y-92111096D01*
X148662014Y-92173687D01*
X148662187Y-92174025D01*
X148791752Y-92352358D01*
X148791756Y-92352363D01*
X148841928Y-92402535D01*
X148875413Y-92463858D01*
X148870429Y-92533550D01*
X148828557Y-92589483D01*
X148797581Y-92606398D01*
X148717669Y-92636203D01*
X148717664Y-92636206D01*
X148602455Y-92722452D01*
X148602452Y-92722455D01*
X148516206Y-92837664D01*
X148516202Y-92837671D01*
X148465908Y-92972517D01*
X148463183Y-92997869D01*
X148459501Y-93032123D01*
X148459500Y-93032135D01*
X148459500Y-94927870D01*
X148459501Y-94927876D01*
X148465908Y-94987483D01*
X148516202Y-95122328D01*
X148516206Y-95122335D01*
X148602452Y-95237544D01*
X148602455Y-95237547D01*
X148717664Y-95323793D01*
X148717671Y-95323797D01*
X148852517Y-95374091D01*
X148852516Y-95374091D01*
X148859444Y-95374835D01*
X148912127Y-95380500D01*
X150807872Y-95380499D01*
X150867483Y-95374091D01*
X151002331Y-95323796D01*
X151117546Y-95237546D01*
X151203796Y-95122331D01*
X151226609Y-95061167D01*
X151268480Y-95005233D01*
X151333944Y-94980816D01*
X151342791Y-94980500D01*
X151934218Y-94980500D01*
X152001257Y-95000185D01*
X152021899Y-95016819D01*
X153903181Y-96898101D01*
X153936666Y-96959424D01*
X153939500Y-96985782D01*
X153939500Y-97549237D01*
X153919815Y-97616276D01*
X153915818Y-97622122D01*
X153827715Y-97743386D01*
X153734781Y-97925776D01*
X153671522Y-98120465D01*
X153639500Y-98322648D01*
X153639500Y-98527351D01*
X153671522Y-98729534D01*
X153734781Y-98924223D01*
X153753755Y-98961460D01*
X153827585Y-99106359D01*
X153827715Y-99106613D01*
X153948028Y-99272213D01*
X154092786Y-99416971D01*
X154213226Y-99504474D01*
X154258390Y-99537287D01*
X154374607Y-99596503D01*
X154440776Y-99630218D01*
X154440778Y-99630218D01*
X154440781Y-99630220D01*
X154545137Y-99664127D01*
X154635465Y-99693477D01*
X154733492Y-99709003D01*
X154837648Y-99725500D01*
X154837649Y-99725500D01*
X155042351Y-99725500D01*
X155042352Y-99725500D01*
X155244534Y-99693477D01*
X155439219Y-99630220D01*
X155621610Y-99537287D01*
X155714590Y-99469732D01*
X155787213Y-99416971D01*
X155787215Y-99416968D01*
X155787219Y-99416966D01*
X155931966Y-99272219D01*
X155931968Y-99272215D01*
X155931971Y-99272213D01*
X156014555Y-99158544D01*
X156052287Y-99106610D01*
X156145220Y-98924219D01*
X156208477Y-98729534D01*
X156240500Y-98527352D01*
X156240500Y-98322648D01*
X156218926Y-98186437D01*
X156208477Y-98120465D01*
X156177458Y-98025000D01*
X156145220Y-97925781D01*
X156145218Y-97925778D01*
X156145218Y-97925776D01*
X156109600Y-97855873D01*
X156052287Y-97743390D01*
X156020091Y-97699076D01*
X155964182Y-97622122D01*
X155940702Y-97556316D01*
X155940500Y-97549237D01*
X155940500Y-96421456D01*
X155924085Y-96338938D01*
X155902051Y-96228165D01*
X155900579Y-96224612D01*
X155864137Y-96136632D01*
X155826632Y-96046086D01*
X155826628Y-96046080D01*
X155717140Y-95882219D01*
X155648808Y-95813887D01*
X155577782Y-95742861D01*
X155577781Y-95742860D01*
X153184208Y-93349288D01*
X153184206Y-93349285D01*
X153184206Y-93349286D01*
X153177139Y-93342219D01*
X153177139Y-93342218D01*
X153037782Y-93202861D01*
X153037781Y-93202860D01*
X153037780Y-93202859D01*
X152873920Y-93093371D01*
X152873907Y-93093364D01*
X152745177Y-93040043D01*
X152745171Y-93040041D01*
X152737954Y-93037052D01*
X152691836Y-93017949D01*
X152595188Y-92998724D01*
X152590890Y-92997869D01*
X152498544Y-92979500D01*
X152498541Y-92979500D01*
X151342791Y-92979500D01*
X151275752Y-92959815D01*
X151229997Y-92907011D01*
X151226609Y-92898833D01*
X151203797Y-92837671D01*
X151203793Y-92837664D01*
X151117547Y-92722455D01*
X151117544Y-92722452D01*
X151002335Y-92636206D01*
X151002328Y-92636202D01*
X150922419Y-92606398D01*
X150866485Y-92564527D01*
X150842068Y-92499062D01*
X150856920Y-92430789D01*
X150878069Y-92402537D01*
X150928242Y-92352365D01*
X151057815Y-92174022D01*
X151157895Y-91977606D01*
X151226015Y-91767951D01*
X151260500Y-91550222D01*
X151260500Y-91329778D01*
X151226015Y-91112049D01*
X151186644Y-90990876D01*
X151157896Y-90902396D01*
X151157895Y-90902393D01*
X151094964Y-90778887D01*
X151057815Y-90705978D01*
X151000730Y-90627407D01*
X150928247Y-90527641D01*
X150928243Y-90527636D01*
X150772363Y-90371756D01*
X150772358Y-90371752D01*
X150594025Y-90242187D01*
X150594024Y-90242186D01*
X150594022Y-90242185D01*
X150531096Y-90210122D01*
X150397606Y-90142104D01*
X150397603Y-90142103D01*
X150187952Y-90073985D01*
X149986934Y-90042147D01*
X149970222Y-90039500D01*
X149970221Y-90039500D01*
X149917816Y-90039500D01*
X149850777Y-90019815D01*
X149848925Y-90018602D01*
X149698920Y-89918371D01*
X149698907Y-89918364D01*
X149570176Y-89865042D01*
X149570167Y-89865039D01*
X149562952Y-89862051D01*
X149516836Y-89842949D01*
X149420188Y-89823724D01*
X149415894Y-89822870D01*
X149415891Y-89822869D01*
X149323544Y-89804500D01*
X149323541Y-89804500D01*
X146194141Y-89804500D01*
X146127102Y-89784815D01*
X146081347Y-89732011D01*
X146077969Y-89723859D01*
X146073796Y-89712669D01*
X146073793Y-89712665D01*
X146073793Y-89712664D01*
X145987547Y-89597455D01*
X145987544Y-89597452D01*
X145872335Y-89511206D01*
X145872328Y-89511202D01*
X145737482Y-89460908D01*
X145737483Y-89460908D01*
X145677883Y-89454501D01*
X145677881Y-89454500D01*
X145677873Y-89454500D01*
X145677864Y-89454500D01*
X143882129Y-89454500D01*
X143882123Y-89454501D01*
X143822516Y-89460908D01*
X143687671Y-89511202D01*
X143687663Y-89511207D01*
X143686576Y-89512021D01*
X143685304Y-89512495D01*
X143679886Y-89515454D01*
X143679460Y-89514674D01*
X143621110Y-89536435D01*
X143552838Y-89521579D01*
X143503435Y-89472171D01*
X143489798Y-89432148D01*
X143459709Y-89242173D01*
X143398882Y-89054970D01*
X143351743Y-88962455D01*
X143309524Y-88879595D01*
X143193828Y-88720354D01*
X143054646Y-88581172D01*
X142895405Y-88465476D01*
X142880719Y-88457993D01*
X142720029Y-88376117D01*
X142532826Y-88315290D01*
X142456635Y-88303223D01*
X142393500Y-88273293D01*
X142388351Y-88268431D01*
X142382139Y-88262219D01*
X142382139Y-88262218D01*
X142242782Y-88122861D01*
X142242781Y-88122860D01*
X142242780Y-88122859D01*
X142078920Y-88013371D01*
X142078911Y-88013366D01*
X141981856Y-87973165D01*
X141950165Y-87960038D01*
X141896836Y-87937949D01*
X141896832Y-87937948D01*
X141896828Y-87937946D01*
X141800188Y-87918724D01*
X141703544Y-87899500D01*
X141703541Y-87899500D01*
X130914675Y-87899500D01*
X130914655Y-87899499D01*
X130908541Y-87899499D01*
X130711460Y-87899499D01*
X130711457Y-87899499D01*
X130518172Y-87937946D01*
X130518164Y-87937948D01*
X130336088Y-88013366D01*
X130336079Y-88013371D01*
X130172219Y-88122859D01*
X130172215Y-88122862D01*
X129796899Y-88498181D01*
X129735576Y-88531666D01*
X129709218Y-88534500D01*
X124996455Y-88534500D01*
X124899812Y-88553724D01*
X124803167Y-88572947D01*
X124803161Y-88572949D01*
X124749834Y-88595037D01*
X124749834Y-88595038D01*
X124704315Y-88613892D01*
X124621089Y-88648366D01*
X124621079Y-88648371D01*
X124457219Y-88757859D01*
X124387540Y-88827538D01*
X124317861Y-88897218D01*
X124317858Y-88897221D01*
X123754171Y-89460909D01*
X123211899Y-90003181D01*
X123150576Y-90036666D01*
X123124218Y-90039500D01*
X123079778Y-90039500D01*
X123063066Y-90042147D01*
X122862047Y-90073985D01*
X122652396Y-90142103D01*
X122652393Y-90142104D01*
X122455974Y-90242187D01*
X122277641Y-90371752D01*
X122277636Y-90371756D01*
X122121756Y-90527636D01*
X122121752Y-90527641D01*
X121992187Y-90705974D01*
X121892104Y-90902393D01*
X121892103Y-90902396D01*
X121823985Y-91112047D01*
X121796341Y-91286586D01*
X121789500Y-91329778D01*
X121789500Y-91550222D01*
X121796409Y-91593846D01*
X121823985Y-91767952D01*
X121892103Y-91977603D01*
X121892104Y-91977606D01*
X121960122Y-92111096D01*
X121992014Y-92173687D01*
X121992187Y-92174025D01*
X122121752Y-92352358D01*
X122121756Y-92352363D01*
X122171928Y-92402535D01*
X122205413Y-92463858D01*
X122200429Y-92533550D01*
X122158557Y-92589483D01*
X122127581Y-92606398D01*
X122047669Y-92636203D01*
X122047664Y-92636206D01*
X121932455Y-92722452D01*
X121932452Y-92722455D01*
X121846206Y-92837664D01*
X121846202Y-92837671D01*
X121795908Y-92972517D01*
X121793183Y-92997869D01*
X121789501Y-93032123D01*
X121789500Y-93032135D01*
X121789500Y-94927870D01*
X121789501Y-94927876D01*
X121795908Y-94987483D01*
X121846202Y-95122328D01*
X121846206Y-95122335D01*
X121932452Y-95237544D01*
X121932455Y-95237547D01*
X122047664Y-95323793D01*
X122047671Y-95323797D01*
X122182517Y-95374091D01*
X122182516Y-95374091D01*
X122189444Y-95374835D01*
X122242127Y-95380500D01*
X123759217Y-95380499D01*
X123826256Y-95400184D01*
X123846898Y-95416818D01*
X126943281Y-98513202D01*
X126976766Y-98574525D01*
X126978073Y-98581484D01*
X127001522Y-98729531D01*
X127001523Y-98729534D01*
X127064780Y-98924219D01*
X127157585Y-99106359D01*
X127157715Y-99106613D01*
X127278028Y-99272213D01*
X127422786Y-99416971D01*
X127543226Y-99504474D01*
X127588390Y-99537287D01*
X127704607Y-99596503D01*
X127770776Y-99630218D01*
X127770778Y-99630218D01*
X127770781Y-99630220D01*
X127875137Y-99664127D01*
X127965465Y-99693477D01*
X128063492Y-99709003D01*
X128167648Y-99725500D01*
X128167649Y-99725500D01*
X128372351Y-99725500D01*
X128372352Y-99725500D01*
X128574534Y-99693477D01*
X128769219Y-99630220D01*
X128951610Y-99537287D01*
X129044590Y-99469732D01*
X129117213Y-99416971D01*
X129117215Y-99416968D01*
X129117219Y-99416966D01*
X129261966Y-99272219D01*
X129261968Y-99272215D01*
X129261971Y-99272213D01*
X129344555Y-99158544D01*
X129382287Y-99106610D01*
X129475220Y-98924219D01*
X129538477Y-98729534D01*
X129570500Y-98527352D01*
X129570500Y-98322648D01*
X129548926Y-98186437D01*
X129538477Y-98120465D01*
X129507458Y-98025000D01*
X129475220Y-97925781D01*
X129475218Y-97925778D01*
X129475218Y-97925776D01*
X129439600Y-97855873D01*
X129382287Y-97743390D01*
X129350092Y-97699077D01*
X129261971Y-97577786D01*
X129117213Y-97433028D01*
X128951613Y-97312715D01*
X128951612Y-97312714D01*
X128951610Y-97312713D01*
X128769219Y-97219780D01*
X128574534Y-97156523D01*
X128574531Y-97156522D01*
X128574532Y-97156522D01*
X128426484Y-97133073D01*
X128363350Y-97103143D01*
X128358202Y-97098281D01*
X124626818Y-93366897D01*
X124593333Y-93305574D01*
X124590499Y-93279216D01*
X124590499Y-93032129D01*
X124590498Y-93032123D01*
X124590497Y-93032116D01*
X124584091Y-92972517D01*
X124579353Y-92959815D01*
X124533797Y-92837671D01*
X124533793Y-92837664D01*
X124447547Y-92722455D01*
X124447544Y-92722452D01*
X124332335Y-92636206D01*
X124332328Y-92636202D01*
X124252419Y-92606398D01*
X124196485Y-92564527D01*
X124172068Y-92499062D01*
X124186920Y-92430789D01*
X124208069Y-92402537D01*
X124258242Y-92352365D01*
X124387815Y-92174022D01*
X124487895Y-91977606D01*
X124556015Y-91767951D01*
X124590500Y-91550222D01*
X124590500Y-91505782D01*
X124610185Y-91438743D01*
X124626819Y-91418101D01*
X125473101Y-90571819D01*
X125534424Y-90538334D01*
X125560782Y-90535500D01*
X130273542Y-90535500D01*
X130313049Y-90527641D01*
X130370188Y-90516275D01*
X130466836Y-90497051D01*
X130520165Y-90474961D01*
X130648914Y-90421632D01*
X130812782Y-90312139D01*
X130952139Y-90172782D01*
X130952139Y-90172780D01*
X130962347Y-90162573D01*
X130962347Y-90162571D01*
X131143218Y-89981701D01*
X131188103Y-89936818D01*
X131249427Y-89903334D01*
X131275784Y-89900500D01*
X132773072Y-89900500D01*
X132840111Y-89920185D01*
X132885866Y-89972989D01*
X132895810Y-90042147D01*
X132866785Y-90105703D01*
X132816419Y-90139094D01*
X132816894Y-90140241D01*
X132812393Y-90142104D01*
X132615974Y-90242187D01*
X132437641Y-90371752D01*
X132437636Y-90371756D01*
X132281756Y-90527636D01*
X132281752Y-90527641D01*
X132152187Y-90705974D01*
X132052104Y-90902393D01*
X132052103Y-90902396D01*
X131983985Y-91112047D01*
X131956341Y-91286586D01*
X131949500Y-91329778D01*
X131949500Y-91550222D01*
X131956409Y-91593846D01*
X131983985Y-91767952D01*
X132052103Y-91977603D01*
X132052104Y-91977606D01*
X132120122Y-92111096D01*
X132152014Y-92173687D01*
X132152187Y-92174025D01*
X132281752Y-92352358D01*
X132281756Y-92352363D01*
X132331928Y-92402535D01*
X132365413Y-92463858D01*
X132360429Y-92533550D01*
X132318557Y-92589483D01*
X132287581Y-92606398D01*
X132207669Y-92636203D01*
X132207664Y-92636206D01*
X132092455Y-92722452D01*
X132092452Y-92722455D01*
X132006206Y-92837664D01*
X132006202Y-92837671D01*
X131955908Y-92972517D01*
X131953183Y-92997869D01*
X131949501Y-93032123D01*
X131949500Y-93032135D01*
X131949500Y-93914217D01*
X131929815Y-93981256D01*
X131913181Y-94001898D01*
X130807221Y-95107858D01*
X130807218Y-95107861D01*
X130763620Y-95151459D01*
X130667859Y-95247219D01*
X130558371Y-95411079D01*
X130558364Y-95411092D01*
X130482950Y-95593160D01*
X130482947Y-95593170D01*
X130444500Y-95786456D01*
X130444500Y-97549237D01*
X130424815Y-97616276D01*
X130420818Y-97622122D01*
X130332715Y-97743386D01*
X130239781Y-97925776D01*
X130176522Y-98120465D01*
X130144500Y-98322648D01*
X130144500Y-98527351D01*
X130176522Y-98729534D01*
X130239781Y-98924223D01*
X130258755Y-98961460D01*
X130332585Y-99106359D01*
X130332715Y-99106613D01*
X130453028Y-99272213D01*
X130597786Y-99416971D01*
X130718226Y-99504474D01*
X130763390Y-99537287D01*
X130879607Y-99596503D01*
X130945776Y-99630218D01*
X130945778Y-99630218D01*
X130945781Y-99630220D01*
X131050137Y-99664127D01*
X131140465Y-99693477D01*
X131238492Y-99709003D01*
X131342648Y-99725500D01*
X131342649Y-99725500D01*
X131547351Y-99725500D01*
X131547352Y-99725500D01*
X131749534Y-99693477D01*
X131944219Y-99630220D01*
X132126610Y-99537287D01*
X132219590Y-99469732D01*
X132292213Y-99416971D01*
X132292215Y-99416968D01*
X132292219Y-99416966D01*
X132436966Y-99272219D01*
X132436968Y-99272215D01*
X132436971Y-99272213D01*
X132519555Y-99158544D01*
X132557287Y-99106610D01*
X132650220Y-98924219D01*
X132713477Y-98729534D01*
X132745500Y-98527352D01*
X132745500Y-98322682D01*
X140305000Y-98322682D01*
X140305000Y-98527317D01*
X140337009Y-98729417D01*
X140400244Y-98924031D01*
X140493141Y-99106350D01*
X140493147Y-99106359D01*
X140525523Y-99150921D01*
X140525524Y-99150922D01*
X141205000Y-98471446D01*
X141205000Y-98477661D01*
X141232259Y-98579394D01*
X141284920Y-98670606D01*
X141359394Y-98745080D01*
X141450606Y-98797741D01*
X141552339Y-98825000D01*
X141558553Y-98825000D01*
X140879076Y-99504474D01*
X140923650Y-99536859D01*
X141105968Y-99629755D01*
X141300582Y-99692990D01*
X141502683Y-99725000D01*
X141707317Y-99725000D01*
X141909417Y-99692990D01*
X142104031Y-99629755D01*
X142286349Y-99536859D01*
X142330921Y-99504474D01*
X141651447Y-98825000D01*
X141657661Y-98825000D01*
X141759394Y-98797741D01*
X141850606Y-98745080D01*
X141925080Y-98670606D01*
X141977741Y-98579394D01*
X142005000Y-98477661D01*
X142005000Y-98471448D01*
X142684474Y-99150922D01*
X142684474Y-99150921D01*
X142716859Y-99106349D01*
X142809755Y-98924031D01*
X142872990Y-98729417D01*
X142905000Y-98527317D01*
X142905000Y-98322682D01*
X142872990Y-98120582D01*
X142809755Y-97925968D01*
X142716859Y-97743650D01*
X142684474Y-97699077D01*
X142684474Y-97699076D01*
X142005000Y-98378551D01*
X142005000Y-98372339D01*
X141977741Y-98270606D01*
X141925080Y-98179394D01*
X141850606Y-98104920D01*
X141759394Y-98052259D01*
X141657661Y-98025000D01*
X141651446Y-98025000D01*
X142330922Y-97345524D01*
X142330921Y-97345523D01*
X142286359Y-97313147D01*
X142286350Y-97313141D01*
X142104031Y-97220244D01*
X141909417Y-97157009D01*
X141707317Y-97125000D01*
X141502683Y-97125000D01*
X141300582Y-97157009D01*
X141105968Y-97220244D01*
X140923644Y-97313143D01*
X140879077Y-97345523D01*
X140879077Y-97345524D01*
X141558554Y-98025000D01*
X141552339Y-98025000D01*
X141450606Y-98052259D01*
X141359394Y-98104920D01*
X141284920Y-98179394D01*
X141232259Y-98270606D01*
X141205000Y-98372339D01*
X141205000Y-98378553D01*
X140525524Y-97699077D01*
X140525523Y-97699077D01*
X140493143Y-97743644D01*
X140400244Y-97925968D01*
X140337009Y-98120582D01*
X140305000Y-98322682D01*
X132745500Y-98322682D01*
X132745500Y-98322648D01*
X132723926Y-98186437D01*
X132713477Y-98120465D01*
X132682458Y-98025000D01*
X132650220Y-97925781D01*
X132650218Y-97925778D01*
X132650218Y-97925776D01*
X132614600Y-97855873D01*
X132557287Y-97743390D01*
X132525091Y-97699076D01*
X132469182Y-97622122D01*
X132445702Y-97556316D01*
X132445500Y-97549237D01*
X132445500Y-96350781D01*
X132465185Y-96283742D01*
X132481815Y-96263104D01*
X133328101Y-95416817D01*
X133389424Y-95383333D01*
X133415782Y-95380499D01*
X134297871Y-95380499D01*
X134297872Y-95380499D01*
X134357483Y-95374091D01*
X134492331Y-95323796D01*
X134607546Y-95237546D01*
X134693796Y-95122331D01*
X134744091Y-94987483D01*
X134750500Y-94927873D01*
X134750499Y-93032128D01*
X134744091Y-92972517D01*
X134739353Y-92959815D01*
X134693797Y-92837671D01*
X134693793Y-92837664D01*
X134607547Y-92722455D01*
X134607544Y-92722452D01*
X134529150Y-92663766D01*
X134487279Y-92607832D01*
X134482295Y-92538141D01*
X134515781Y-92476818D01*
X134577104Y-92443334D01*
X134603461Y-92440500D01*
X139163542Y-92440500D01*
X139197959Y-92433653D01*
X139260188Y-92421275D01*
X139356836Y-92402051D01*
X139441852Y-92366836D01*
X139538914Y-92326632D01*
X139702782Y-92217139D01*
X139728496Y-92191424D01*
X139789816Y-92157939D01*
X139805288Y-92155657D01*
X139806279Y-92155500D01*
X139806287Y-92155500D01*
X140016243Y-92122246D01*
X140218412Y-92056557D01*
X140407816Y-91960051D01*
X140441542Y-91935548D01*
X140579786Y-91835109D01*
X140579788Y-91835106D01*
X140579792Y-91835104D01*
X140730104Y-91684792D01*
X140765181Y-91636511D01*
X140820511Y-91593846D01*
X140890124Y-91587867D01*
X140951920Y-91620472D01*
X140986277Y-91681311D01*
X140989500Y-91709397D01*
X140989500Y-92173422D01*
X141020290Y-92367826D01*
X141081117Y-92555030D01*
X141166424Y-92722452D01*
X141170476Y-92730405D01*
X141286172Y-92889646D01*
X141286174Y-92889648D01*
X145414785Y-97018259D01*
X145448270Y-97079582D01*
X145443286Y-97149274D01*
X145401414Y-97205207D01*
X145335950Y-97229624D01*
X145283843Y-97221184D01*
X145283660Y-97221749D01*
X145280013Y-97220564D01*
X145279667Y-97220508D01*
X145279033Y-97220245D01*
X145084417Y-97157009D01*
X144882317Y-97125000D01*
X144677683Y-97125000D01*
X144475582Y-97157009D01*
X144280968Y-97220244D01*
X144098644Y-97313143D01*
X144054077Y-97345523D01*
X144054077Y-97345524D01*
X144733554Y-98025000D01*
X144727339Y-98025000D01*
X144625606Y-98052259D01*
X144534394Y-98104920D01*
X144459920Y-98179394D01*
X144407259Y-98270606D01*
X144380000Y-98372339D01*
X144380000Y-98378553D01*
X143700524Y-97699077D01*
X143700523Y-97699077D01*
X143668143Y-97743644D01*
X143575244Y-97925968D01*
X143512009Y-98120582D01*
X143480000Y-98322682D01*
X143480000Y-98527317D01*
X143512009Y-98729417D01*
X143575244Y-98924031D01*
X143668141Y-99106350D01*
X143668147Y-99106359D01*
X143700523Y-99150921D01*
X143700524Y-99150922D01*
X144380000Y-98471446D01*
X144380000Y-98477661D01*
X144407259Y-98579394D01*
X144459920Y-98670606D01*
X144534394Y-98745080D01*
X144625606Y-98797741D01*
X144727339Y-98825000D01*
X144733553Y-98825000D01*
X144054076Y-99504474D01*
X144098650Y-99536859D01*
X144280968Y-99629755D01*
X144475582Y-99692990D01*
X144677683Y-99725000D01*
X144882317Y-99725000D01*
X145084417Y-99692990D01*
X145279031Y-99629755D01*
X145461349Y-99536859D01*
X145505921Y-99504474D01*
X144826447Y-98825000D01*
X144832661Y-98825000D01*
X144934394Y-98797741D01*
X145025606Y-98745080D01*
X145100080Y-98670606D01*
X145152741Y-98579394D01*
X145180000Y-98477661D01*
X145180000Y-98471446D01*
X145859474Y-99150921D01*
X145891859Y-99106349D01*
X145984755Y-98924031D01*
X146047990Y-98729417D01*
X146080000Y-98527317D01*
X146080000Y-98322682D01*
X146047990Y-98120582D01*
X145984754Y-97925966D01*
X145984496Y-97925343D01*
X145984468Y-97925086D01*
X145983251Y-97921340D01*
X145984038Y-97921084D01*
X145977030Y-97855873D01*
X146008308Y-97793395D01*
X146068398Y-97757745D01*
X146138223Y-97760242D01*
X146186740Y-97790214D01*
X151748181Y-103351655D01*
X151781666Y-103412978D01*
X151784500Y-103439336D01*
X151784500Y-111270500D01*
X151764815Y-111337539D01*
X151712011Y-111383294D01*
X151660500Y-111394500D01*
X150344430Y-111394500D01*
X150277391Y-111374815D01*
X150231636Y-111322011D01*
X150221692Y-111252853D01*
X150250717Y-111189297D01*
X150301097Y-111154318D01*
X150317086Y-111148354D01*
X150317093Y-111148350D01*
X150432187Y-111062190D01*
X150432190Y-111062187D01*
X150518350Y-110947093D01*
X150518354Y-110947086D01*
X150568596Y-110812379D01*
X150568598Y-110812372D01*
X150574999Y-110752844D01*
X150575000Y-110752827D01*
X150575000Y-110105000D01*
X149658012Y-110105000D01*
X149690925Y-110047993D01*
X149725000Y-109920826D01*
X149725000Y-109789174D01*
X149690925Y-109662007D01*
X149658012Y-109605000D01*
X150575000Y-109605000D01*
X150575000Y-108957172D01*
X150574999Y-108957155D01*
X150568598Y-108897627D01*
X150568596Y-108897620D01*
X150518354Y-108762913D01*
X150518350Y-108762906D01*
X150432190Y-108647812D01*
X150432187Y-108647809D01*
X150317093Y-108561649D01*
X150317086Y-108561645D01*
X150182379Y-108511403D01*
X150182372Y-108511401D01*
X150122844Y-108505000D01*
X149475000Y-108505000D01*
X149475000Y-109421988D01*
X149417993Y-109389075D01*
X149290826Y-109355000D01*
X149159174Y-109355000D01*
X149032007Y-109389075D01*
X148975000Y-109421988D01*
X148975000Y-108505000D01*
X148327155Y-108505000D01*
X148267627Y-108511401D01*
X148267620Y-108511403D01*
X148132913Y-108561645D01*
X148132906Y-108561649D01*
X148017812Y-108647809D01*
X148017809Y-108647812D01*
X147931649Y-108762906D01*
X147931645Y-108762913D01*
X147881403Y-108897620D01*
X147881401Y-108897627D01*
X147875000Y-108957155D01*
X147875000Y-109605000D01*
X148791988Y-109605000D01*
X148759075Y-109662007D01*
X148725000Y-109789174D01*
X148725000Y-109920826D01*
X148759075Y-110047993D01*
X148791988Y-110105000D01*
X147875000Y-110105000D01*
X147875000Y-110752844D01*
X147881401Y-110812372D01*
X147881403Y-110812379D01*
X147931645Y-110947086D01*
X147931649Y-110947093D01*
X148017809Y-111062187D01*
X148017812Y-111062190D01*
X148132906Y-111148350D01*
X148132913Y-111148354D01*
X148264470Y-111197422D01*
X148320404Y-111239293D01*
X148344821Y-111304758D01*
X148329969Y-111373031D01*
X148308819Y-111401285D01*
X148194889Y-111515215D01*
X148069951Y-111687179D01*
X147973444Y-111876583D01*
X147939855Y-111979961D01*
X147900417Y-112037636D01*
X147836058Y-112064834D01*
X147767212Y-112052919D01*
X147734243Y-112029323D01*
X144926479Y-109221559D01*
X144926459Y-109221537D01*
X144782785Y-109077863D01*
X144782781Y-109077860D01*
X144751492Y-109056953D01*
X144618917Y-108968369D01*
X144535147Y-108933671D01*
X144479207Y-108910500D01*
X144436836Y-108892949D01*
X144340188Y-108873724D01*
X144336092Y-108872909D01*
X144336080Y-108872906D01*
X144243544Y-108854500D01*
X144243541Y-108854500D01*
X140503931Y-108854500D01*
X140436892Y-108834815D01*
X140391137Y-108782011D01*
X140381193Y-108712853D01*
X140410218Y-108649297D01*
X140468996Y-108611523D01*
X140484530Y-108608027D01*
X140639534Y-108583477D01*
X140834219Y-108520220D01*
X141016610Y-108427287D01*
X141109590Y-108359732D01*
X141182213Y-108306971D01*
X141182215Y-108306968D01*
X141182219Y-108306966D01*
X141326966Y-108162219D01*
X141326968Y-108162215D01*
X141326971Y-108162213D01*
X141382508Y-108085771D01*
X141447287Y-107996610D01*
X141540220Y-107814219D01*
X141603477Y-107619534D01*
X141635500Y-107417352D01*
X141635500Y-107212648D01*
X141611022Y-107058101D01*
X141603477Y-107010465D01*
X141540218Y-106815776D01*
X141504494Y-106745664D01*
X141447287Y-106633390D01*
X141436126Y-106618028D01*
X141326971Y-106467786D01*
X141182213Y-106323028D01*
X141016613Y-106202715D01*
X141016612Y-106202714D01*
X141016610Y-106202713D01*
X140959653Y-106173691D01*
X140834223Y-106109781D01*
X140639535Y-106046523D01*
X140491483Y-106023073D01*
X140428349Y-105993143D01*
X140423201Y-105988281D01*
X139211479Y-104776559D01*
X139211459Y-104776537D01*
X139067785Y-104632863D01*
X139067781Y-104632860D01*
X138903920Y-104523371D01*
X138903911Y-104523366D01*
X138831315Y-104493296D01*
X138775165Y-104470038D01*
X138721836Y-104447949D01*
X138721832Y-104447948D01*
X138721828Y-104447946D01*
X138625188Y-104428724D01*
X138528544Y-104409500D01*
X138528541Y-104409500D01*
X136467231Y-104409500D01*
X136400192Y-104389815D01*
X136379550Y-104373182D01*
X136273656Y-104267288D01*
X136124334Y-104175186D01*
X136062558Y-104154715D01*
X136005115Y-104114943D01*
X135978292Y-104050427D01*
X135977946Y-104027280D01*
X135980921Y-103989473D01*
X135301447Y-103310000D01*
X135307661Y-103310000D01*
X135409394Y-103282741D01*
X135500606Y-103230080D01*
X135575080Y-103155606D01*
X135627741Y-103064394D01*
X135655000Y-102962661D01*
X135655000Y-102956447D01*
X136334474Y-103635921D01*
X136366859Y-103591349D01*
X136459755Y-103409031D01*
X136522990Y-103214417D01*
X136555000Y-103012317D01*
X136555000Y-102807682D01*
X136522990Y-102605582D01*
X136459755Y-102410968D01*
X136366859Y-102228650D01*
X136334474Y-102184077D01*
X136334474Y-102184076D01*
X135655000Y-102863551D01*
X135655000Y-102857339D01*
X135627741Y-102755606D01*
X135575080Y-102664394D01*
X135500606Y-102589920D01*
X135409394Y-102537259D01*
X135307661Y-102510000D01*
X135301446Y-102510000D01*
X135980922Y-101830524D01*
X135980921Y-101830523D01*
X135936359Y-101798147D01*
X135936350Y-101798141D01*
X135754031Y-101705244D01*
X135559417Y-101642009D01*
X135357317Y-101610000D01*
X135152683Y-101610000D01*
X134950582Y-101642009D01*
X134755968Y-101705244D01*
X134573644Y-101798143D01*
X134529077Y-101830523D01*
X134529077Y-101830524D01*
X135208554Y-102510000D01*
X135202339Y-102510000D01*
X135100606Y-102537259D01*
X135009394Y-102589920D01*
X134934920Y-102664394D01*
X134882259Y-102755606D01*
X134855000Y-102857339D01*
X134855000Y-102863553D01*
X134175524Y-102184077D01*
X134175523Y-102184077D01*
X134143143Y-102228644D01*
X134050244Y-102410968D01*
X133987009Y-102605582D01*
X133955000Y-102807682D01*
X133955000Y-103012317D01*
X133987009Y-103214417D01*
X134050244Y-103409031D01*
X134143141Y-103591350D01*
X134143147Y-103591359D01*
X134175523Y-103635921D01*
X134175524Y-103635922D01*
X134855000Y-102956446D01*
X134855000Y-102962661D01*
X134882259Y-103064394D01*
X134934920Y-103155606D01*
X135009394Y-103230080D01*
X135100606Y-103282741D01*
X135202339Y-103310000D01*
X135208553Y-103310000D01*
X134529076Y-103989474D01*
X134532052Y-104027282D01*
X134517687Y-104095659D01*
X134468636Y-104145415D01*
X134447440Y-104154715D01*
X134385672Y-104175184D01*
X134385663Y-104175187D01*
X134236345Y-104267287D01*
X134130450Y-104373182D01*
X134069127Y-104406666D01*
X134042769Y-104409500D01*
X129441456Y-104409500D01*
X129248171Y-104447946D01*
X129248167Y-104447948D01*
X129248165Y-104447948D01*
X129248164Y-104447949D01*
X129172745Y-104479188D01*
X129172743Y-104479189D01*
X129066089Y-104523366D01*
X129066079Y-104523371D01*
X128933458Y-104611987D01*
X128933457Y-104611988D01*
X128902215Y-104632862D01*
X128902214Y-104632863D01*
X126982367Y-106552712D01*
X126362220Y-107172859D01*
X126362218Y-107172861D01*
X126322431Y-107212648D01*
X126222859Y-107312219D01*
X126113371Y-107476080D01*
X126113364Y-107476093D01*
X126071293Y-107577665D01*
X126044625Y-107642048D01*
X126044624Y-107642052D01*
X126037948Y-107658167D01*
X126037947Y-107658171D01*
X125999500Y-107851454D01*
X125999500Y-108579237D01*
X125979815Y-108646276D01*
X125975818Y-108652122D01*
X125887713Y-108773388D01*
X125840203Y-108866630D01*
X125792228Y-108917426D01*
X125724407Y-108934220D01*
X125658272Y-108911682D01*
X125619234Y-108866628D01*
X125571861Y-108773652D01*
X125451582Y-108608105D01*
X125451582Y-108608104D01*
X125306895Y-108463417D01*
X125141349Y-108343140D01*
X124959029Y-108250244D01*
X124764413Y-108187009D01*
X124710000Y-108178390D01*
X124710000Y-109539314D01*
X124705606Y-109534920D01*
X124614394Y-109482259D01*
X124512661Y-109455000D01*
X124407339Y-109455000D01*
X124305606Y-109482259D01*
X124214394Y-109534920D01*
X124210000Y-109539314D01*
X124210000Y-108178390D01*
X124155586Y-108187009D01*
X123960970Y-108250244D01*
X123778650Y-108343140D01*
X123613105Y-108463417D01*
X123613104Y-108463417D01*
X123468417Y-108608104D01*
X123468417Y-108608105D01*
X123348140Y-108773650D01*
X123300765Y-108866629D01*
X123252790Y-108917425D01*
X123184969Y-108934220D01*
X123118834Y-108911682D01*
X123079795Y-108866629D01*
X123063585Y-108834815D01*
X123032287Y-108773390D01*
X123008009Y-108739974D01*
X122944182Y-108652122D01*
X122921159Y-108592004D01*
X122920500Y-108585637D01*
X122920500Y-108486459D01*
X122900224Y-108384524D01*
X122882052Y-108293165D01*
X122806632Y-108111086D01*
X122806631Y-108111085D01*
X122806628Y-108111079D01*
X122697140Y-107947219D01*
X122697137Y-107947215D01*
X120644817Y-105894896D01*
X119505417Y-104755497D01*
X119422602Y-104672682D01*
X123160000Y-104672682D01*
X123160000Y-104877317D01*
X123192009Y-105079417D01*
X123255244Y-105274031D01*
X123348141Y-105456350D01*
X123348147Y-105456359D01*
X123380523Y-105500921D01*
X123380524Y-105500922D01*
X124060000Y-104821446D01*
X124060000Y-104827661D01*
X124087259Y-104929394D01*
X124139920Y-105020606D01*
X124214394Y-105095080D01*
X124305606Y-105147741D01*
X124407339Y-105175000D01*
X124413553Y-105175000D01*
X123734076Y-105854474D01*
X123778650Y-105886859D01*
X123960968Y-105979755D01*
X124155582Y-106042990D01*
X124357683Y-106075000D01*
X124562317Y-106075000D01*
X124764417Y-106042990D01*
X124959031Y-105979755D01*
X125141349Y-105886859D01*
X125185921Y-105854474D01*
X124506447Y-105175000D01*
X124512661Y-105175000D01*
X124614394Y-105147741D01*
X124705606Y-105095080D01*
X124780080Y-105020606D01*
X124832741Y-104929394D01*
X124860000Y-104827661D01*
X124860000Y-104821448D01*
X125539474Y-105500922D01*
X125539474Y-105500921D01*
X125571859Y-105456349D01*
X125664755Y-105274031D01*
X125727990Y-105079417D01*
X125760000Y-104877317D01*
X125760000Y-104672682D01*
X125727990Y-104470582D01*
X125664755Y-104275968D01*
X125571859Y-104093650D01*
X125539474Y-104049077D01*
X125539474Y-104049076D01*
X124860000Y-104728551D01*
X124860000Y-104722339D01*
X124832741Y-104620606D01*
X124780080Y-104529394D01*
X124705606Y-104454920D01*
X124614394Y-104402259D01*
X124512661Y-104375000D01*
X124506446Y-104375000D01*
X125185922Y-103695524D01*
X125185921Y-103695523D01*
X125141359Y-103663147D01*
X125141350Y-103663141D01*
X124959031Y-103570244D01*
X124764417Y-103507009D01*
X124562317Y-103475000D01*
X124357683Y-103475000D01*
X124155582Y-103507009D01*
X123960968Y-103570244D01*
X123778644Y-103663143D01*
X123734077Y-103695523D01*
X123734077Y-103695524D01*
X124413554Y-104375000D01*
X124407339Y-104375000D01*
X124305606Y-104402259D01*
X124214394Y-104454920D01*
X124139920Y-104529394D01*
X124087259Y-104620606D01*
X124060000Y-104722339D01*
X124060000Y-104728553D01*
X123380524Y-104049077D01*
X123380523Y-104049077D01*
X123348143Y-104093644D01*
X123255244Y-104275968D01*
X123192009Y-104470582D01*
X123160000Y-104672682D01*
X119422602Y-104672682D01*
X118894209Y-104144289D01*
X118894206Y-104144285D01*
X118894206Y-104144286D01*
X118887139Y-104137219D01*
X118887139Y-104137218D01*
X118747782Y-103997861D01*
X118747781Y-103997860D01*
X118747780Y-103997859D01*
X118583920Y-103888371D01*
X118583907Y-103888364D01*
X118509016Y-103857344D01*
X118509015Y-103857344D01*
X118447952Y-103832051D01*
X118401836Y-103812949D01*
X118401828Y-103812947D01*
X118305188Y-103793724D01*
X118208544Y-103774500D01*
X118208541Y-103774500D01*
X115175762Y-103774500D01*
X115108723Y-103754815D01*
X115102877Y-103750818D01*
X114981613Y-103662715D01*
X114981612Y-103662714D01*
X114981610Y-103662713D01*
X114924653Y-103633691D01*
X114799223Y-103569781D01*
X114604534Y-103506522D01*
X114429995Y-103478878D01*
X114402352Y-103474500D01*
X114197648Y-103474500D01*
X114173329Y-103478351D01*
X113995465Y-103506522D01*
X113800776Y-103569781D01*
X113618386Y-103662715D01*
X113497123Y-103750818D01*
X113431317Y-103774298D01*
X113424238Y-103774500D01*
X109756455Y-103774500D01*
X109664108Y-103792869D01*
X109664101Y-103792870D01*
X109659812Y-103793724D01*
X109563164Y-103812949D01*
X109517048Y-103832051D01*
X109509834Y-103835038D01*
X109509823Y-103835042D01*
X109381088Y-103888366D01*
X109248458Y-103976987D01*
X109248457Y-103976988D01*
X109217215Y-103997862D01*
X109217214Y-103997863D01*
X105811878Y-107403201D01*
X104772220Y-108442859D01*
X104772218Y-108442861D01*
X104728620Y-108486459D01*
X104632859Y-108582219D01*
X104523371Y-108746080D01*
X104523364Y-108746093D01*
X104478462Y-108854499D01*
X104478462Y-108854500D01*
X104447950Y-108928161D01*
X104447947Y-108928170D01*
X104442455Y-108955783D01*
X104409500Y-109121456D01*
X104409500Y-115127065D01*
X104389815Y-115194104D01*
X104337011Y-115239859D01*
X104267853Y-115249803D01*
X104204297Y-115220778D01*
X104170939Y-115174518D01*
X104158347Y-115144118D01*
X104158342Y-115144109D01*
X104117161Y-115072781D01*
X104043611Y-114945388D01*
X104043608Y-114945385D01*
X104043607Y-114945382D01*
X103903918Y-114763338D01*
X103903911Y-114763330D01*
X103741670Y-114601089D01*
X103741661Y-114601081D01*
X103559617Y-114461392D01*
X103540751Y-114450500D01*
X103437559Y-114390922D01*
X103360890Y-114346657D01*
X103360876Y-114346650D01*
X103148887Y-114258842D01*
X102927238Y-114199452D01*
X102889215Y-114194446D01*
X102699741Y-114169500D01*
X102699734Y-114169500D01*
X102470266Y-114169500D01*
X102470258Y-114169500D01*
X102253715Y-114198009D01*
X102242762Y-114199452D01*
X102149076Y-114224554D01*
X102021112Y-114258842D01*
X101809123Y-114346650D01*
X101809109Y-114346657D01*
X101610382Y-114461392D01*
X101428338Y-114601081D01*
X101428330Y-114601089D01*
X101266085Y-114763333D01*
X101266079Y-114763340D01*
X101183480Y-114870986D01*
X101127052Y-114912189D01*
X101085104Y-114919500D01*
X99935762Y-114919500D01*
X99868723Y-114899815D01*
X99862877Y-114895818D01*
X99827641Y-114870218D01*
X99741610Y-114807713D01*
X99681056Y-114776859D01*
X99559223Y-114714781D01*
X99368868Y-114652931D01*
X99311193Y-114613493D01*
X99283995Y-114549134D01*
X99295910Y-114480288D01*
X99343154Y-114428812D01*
X99368868Y-114417069D01*
X99411508Y-114403213D01*
X99559219Y-114355220D01*
X99741610Y-114262287D01*
X99834590Y-114194732D01*
X99907213Y-114141971D01*
X99907215Y-114141968D01*
X99907219Y-114141966D01*
X100051966Y-113997219D01*
X100051968Y-113997215D01*
X100051971Y-113997213D01*
X100104732Y-113924590D01*
X100172287Y-113831610D01*
X100265220Y-113649219D01*
X100328477Y-113454534D01*
X100360500Y-113252352D01*
X100360500Y-113047648D01*
X100359892Y-113043812D01*
X100328477Y-112845465D01*
X100272448Y-112673028D01*
X100265220Y-112650781D01*
X100265218Y-112650778D01*
X100265218Y-112650776D01*
X100215252Y-112552713D01*
X100172287Y-112468390D01*
X100156463Y-112446610D01*
X100051971Y-112302786D01*
X99907213Y-112158028D01*
X99741613Y-112037715D01*
X99741612Y-112037714D01*
X99741610Y-112037713D01*
X99684653Y-112008691D01*
X99559223Y-111944781D01*
X99368868Y-111882931D01*
X99311193Y-111843493D01*
X99283995Y-111779134D01*
X99295910Y-111710288D01*
X99343154Y-111658812D01*
X99368868Y-111647069D01*
X99458760Y-111617861D01*
X99559219Y-111585220D01*
X99741610Y-111492287D01*
X99862877Y-111404181D01*
X99928683Y-111380702D01*
X99935762Y-111380500D01*
X101808542Y-111380500D01*
X101846089Y-111373031D01*
X101905188Y-111361275D01*
X102001836Y-111342051D01*
X102055165Y-111319961D01*
X102183914Y-111266632D01*
X102347782Y-111157139D01*
X102487139Y-111017782D01*
X102487140Y-111017779D01*
X102494206Y-111010714D01*
X102494209Y-111010710D01*
X102872778Y-110632141D01*
X102872782Y-110632139D01*
X103012139Y-110492782D01*
X103121632Y-110328914D01*
X103197051Y-110146835D01*
X103224390Y-110009394D01*
X103235500Y-109953543D01*
X103235500Y-103471519D01*
X103255185Y-103404480D01*
X103307989Y-103358725D01*
X103375686Y-103348580D01*
X103390266Y-103350500D01*
X103390273Y-103350500D01*
X103619727Y-103350500D01*
X103619734Y-103350500D01*
X103847238Y-103320548D01*
X104068887Y-103261158D01*
X104151545Y-103226919D01*
X104221013Y-103219451D01*
X104283492Y-103250726D01*
X104319144Y-103310815D01*
X104316650Y-103380640D01*
X104276802Y-103438033D01*
X104274485Y-103439855D01*
X104253340Y-103456080D01*
X104091081Y-103618338D01*
X103951392Y-103800382D01*
X103836657Y-103999109D01*
X103836650Y-103999123D01*
X103763723Y-104175187D01*
X103748842Y-104211113D01*
X103700960Y-104389815D01*
X103689453Y-104432759D01*
X103689451Y-104432770D01*
X103659500Y-104660258D01*
X103659500Y-104889741D01*
X103664721Y-104929394D01*
X103689452Y-105117238D01*
X103725658Y-105252362D01*
X103748842Y-105338887D01*
X103836650Y-105550876D01*
X103836657Y-105550890D01*
X103951392Y-105749617D01*
X104091081Y-105931661D01*
X104091089Y-105931670D01*
X104253330Y-106093911D01*
X104253338Y-106093918D01*
X104253339Y-106093919D01*
X104274011Y-106109781D01*
X104435382Y-106233607D01*
X104435385Y-106233608D01*
X104435388Y-106233611D01*
X104634112Y-106348344D01*
X104634117Y-106348346D01*
X104634123Y-106348349D01*
X104725480Y-106386190D01*
X104846113Y-106436158D01*
X105067762Y-106495548D01*
X105295266Y-106525500D01*
X105295273Y-106525500D01*
X105524727Y-106525500D01*
X105524734Y-106525500D01*
X105752238Y-106495548D01*
X105973887Y-106436158D01*
X106185888Y-106348344D01*
X106384612Y-106233611D01*
X106566661Y-106093919D01*
X106566665Y-106093914D01*
X106566670Y-106093911D01*
X106728911Y-105931670D01*
X106728914Y-105931665D01*
X106728919Y-105931661D01*
X106868611Y-105749612D01*
X106983344Y-105550888D01*
X107071158Y-105338887D01*
X107130548Y-105117238D01*
X107160500Y-104889734D01*
X107160500Y-104660266D01*
X107130548Y-104432762D01*
X107071158Y-104211113D01*
X107021190Y-104090480D01*
X106983349Y-103999123D01*
X106983346Y-103999117D01*
X106983344Y-103999112D01*
X106868611Y-103800388D01*
X106868608Y-103800385D01*
X106868607Y-103800382D01*
X106728918Y-103618338D01*
X106669195Y-103558615D01*
X106566661Y-103456081D01*
X106493344Y-103399822D01*
X106452143Y-103343394D01*
X106447989Y-103273648D01*
X106481150Y-103213769D01*
X109069538Y-100625382D01*
X110325387Y-99369534D01*
X111372239Y-98322682D01*
X113635000Y-98322682D01*
X113635000Y-98527317D01*
X113667009Y-98729417D01*
X113730244Y-98924031D01*
X113823141Y-99106350D01*
X113823147Y-99106359D01*
X113855523Y-99150921D01*
X113855524Y-99150922D01*
X114535000Y-98471446D01*
X114535000Y-98477661D01*
X114562259Y-98579394D01*
X114614920Y-98670606D01*
X114689394Y-98745080D01*
X114780606Y-98797741D01*
X114882339Y-98825000D01*
X114888553Y-98825000D01*
X114209076Y-99504474D01*
X114253650Y-99536859D01*
X114435968Y-99629755D01*
X114630582Y-99692990D01*
X114832683Y-99725000D01*
X115037317Y-99725000D01*
X115239417Y-99692990D01*
X115434031Y-99629755D01*
X115616349Y-99536859D01*
X115660921Y-99504474D01*
X114981447Y-98825000D01*
X114987661Y-98825000D01*
X115089394Y-98797741D01*
X115180606Y-98745080D01*
X115255080Y-98670606D01*
X115307741Y-98579394D01*
X115335000Y-98477661D01*
X115335000Y-98471448D01*
X116014474Y-99150922D01*
X116014474Y-99150921D01*
X116046859Y-99106349D01*
X116139755Y-98924031D01*
X116202990Y-98729417D01*
X116235000Y-98527317D01*
X116235000Y-98322682D01*
X116810000Y-98322682D01*
X116810000Y-98527317D01*
X116842009Y-98729417D01*
X116905244Y-98924031D01*
X116998141Y-99106350D01*
X116998147Y-99106359D01*
X117030523Y-99150921D01*
X117030524Y-99150922D01*
X117710000Y-98471446D01*
X117710000Y-98477661D01*
X117737259Y-98579394D01*
X117789920Y-98670606D01*
X117864394Y-98745080D01*
X117955606Y-98797741D01*
X118057339Y-98825000D01*
X118063553Y-98825000D01*
X117384076Y-99504474D01*
X117428650Y-99536859D01*
X117610968Y-99629755D01*
X117805582Y-99692990D01*
X118007683Y-99725000D01*
X118212317Y-99725000D01*
X118414417Y-99692990D01*
X118609031Y-99629755D01*
X118791349Y-99536859D01*
X118835921Y-99504474D01*
X118156447Y-98825000D01*
X118162661Y-98825000D01*
X118264394Y-98797741D01*
X118355606Y-98745080D01*
X118430080Y-98670606D01*
X118482741Y-98579394D01*
X118510000Y-98477661D01*
X118510000Y-98471447D01*
X119189474Y-99150921D01*
X119221859Y-99106349D01*
X119314755Y-98924031D01*
X119377990Y-98729417D01*
X119410000Y-98527317D01*
X119410000Y-98322682D01*
X119377990Y-98120582D01*
X119314755Y-97925968D01*
X119221859Y-97743650D01*
X119189474Y-97699077D01*
X119189474Y-97699076D01*
X118510000Y-98378551D01*
X118510000Y-98372339D01*
X118482741Y-98270606D01*
X118430080Y-98179394D01*
X118355606Y-98104920D01*
X118264394Y-98052259D01*
X118162661Y-98025000D01*
X118156446Y-98025000D01*
X118835922Y-97345524D01*
X118835921Y-97345523D01*
X118791359Y-97313147D01*
X118791350Y-97313141D01*
X118609031Y-97220244D01*
X118414417Y-97157009D01*
X118212317Y-97125000D01*
X118007683Y-97125000D01*
X117805582Y-97157009D01*
X117610968Y-97220244D01*
X117428644Y-97313143D01*
X117384077Y-97345523D01*
X117384077Y-97345524D01*
X118063554Y-98025000D01*
X118057339Y-98025000D01*
X117955606Y-98052259D01*
X117864394Y-98104920D01*
X117789920Y-98179394D01*
X117737259Y-98270606D01*
X117710000Y-98372339D01*
X117710000Y-98378553D01*
X117030524Y-97699077D01*
X117030523Y-97699077D01*
X116998143Y-97743644D01*
X116905244Y-97925968D01*
X116842009Y-98120582D01*
X116810000Y-98322682D01*
X116235000Y-98322682D01*
X116202990Y-98120582D01*
X116139755Y-97925968D01*
X116046859Y-97743650D01*
X116014474Y-97699077D01*
X116014474Y-97699076D01*
X115335000Y-98378551D01*
X115335000Y-98372339D01*
X115307741Y-98270606D01*
X115255080Y-98179394D01*
X115180606Y-98104920D01*
X115089394Y-98052259D01*
X114987661Y-98025000D01*
X114981446Y-98025000D01*
X115660922Y-97345524D01*
X115660921Y-97345523D01*
X115616359Y-97313147D01*
X115616350Y-97313141D01*
X115434031Y-97220244D01*
X115239417Y-97157009D01*
X115037317Y-97125000D01*
X114832683Y-97125000D01*
X114630582Y-97157009D01*
X114435968Y-97220244D01*
X114253644Y-97313143D01*
X114209077Y-97345523D01*
X114209077Y-97345524D01*
X114888554Y-98025000D01*
X114882339Y-98025000D01*
X114780606Y-98052259D01*
X114689394Y-98104920D01*
X114614920Y-98179394D01*
X114562259Y-98270606D01*
X114535000Y-98372339D01*
X114535000Y-98378553D01*
X113855524Y-97699077D01*
X113855523Y-97699077D01*
X113823143Y-97743644D01*
X113730244Y-97925968D01*
X113667009Y-98120582D01*
X113635000Y-98322682D01*
X111372239Y-98322682D01*
X113807136Y-95887785D01*
X113807136Y-95887784D01*
X113807139Y-95887782D01*
X113903972Y-95742861D01*
X113916628Y-95723920D01*
X113916628Y-95723918D01*
X113916631Y-95723915D01*
X113916632Y-95723914D01*
X113971174Y-95592238D01*
X113992051Y-95541836D01*
X114030500Y-95348541D01*
X114030500Y-95151460D01*
X114030500Y-95151459D01*
X114030500Y-93519783D01*
X114050185Y-93452744D01*
X114102989Y-93406989D01*
X114172147Y-93397045D01*
X114235703Y-93426070D01*
X114242166Y-93432087D01*
X114297218Y-93487139D01*
X114297220Y-93487140D01*
X114304290Y-93494210D01*
X114932215Y-94122137D01*
X114932219Y-94122140D01*
X115096079Y-94231628D01*
X115096085Y-94231631D01*
X115096086Y-94231632D01*
X115278165Y-94307052D01*
X115471455Y-94345500D01*
X115471458Y-94345501D01*
X115471460Y-94345501D01*
X115674655Y-94345501D01*
X115674675Y-94345500D01*
X115879800Y-94345500D01*
X115946839Y-94365185D01*
X115959365Y-94374493D01*
X116132179Y-94500048D01*
X116132181Y-94500049D01*
X116132184Y-94500051D01*
X116321588Y-94596557D01*
X116523757Y-94662246D01*
X116733713Y-94695500D01*
X116733714Y-94695500D01*
X116946286Y-94695500D01*
X116946287Y-94695500D01*
X117156243Y-94662246D01*
X117358412Y-94596557D01*
X117547816Y-94500051D01*
X117583522Y-94474109D01*
X117719786Y-94375109D01*
X117719788Y-94375106D01*
X117719792Y-94375104D01*
X117870104Y-94224792D01*
X117870106Y-94224788D01*
X117870109Y-94224786D01*
X117995048Y-94052820D01*
X117995047Y-94052820D01*
X117995051Y-94052816D01*
X118091557Y-93863412D01*
X118157246Y-93661243D01*
X118190500Y-93451287D01*
X118190500Y-93238713D01*
X118157246Y-93028757D01*
X118091557Y-92826588D01*
X117995051Y-92637184D01*
X117995049Y-92637181D01*
X117995048Y-92637179D01*
X117870109Y-92465213D01*
X117719786Y-92314890D01*
X117547820Y-92189951D01*
X117547115Y-92189591D01*
X117539054Y-92185485D01*
X117488259Y-92137512D01*
X117471463Y-92069692D01*
X117493999Y-92003556D01*
X117539054Y-91964515D01*
X117547816Y-91960051D01*
X117581542Y-91935548D01*
X117719786Y-91835109D01*
X117719788Y-91835106D01*
X117719792Y-91835104D01*
X117870104Y-91684792D01*
X117870106Y-91684788D01*
X117870109Y-91684786D01*
X117995048Y-91512820D01*
X117995047Y-91512820D01*
X117995051Y-91512816D01*
X118091557Y-91323412D01*
X118157246Y-91121243D01*
X118190500Y-90911287D01*
X118190500Y-90698713D01*
X118157246Y-90488757D01*
X118091557Y-90286588D01*
X117995051Y-90097184D01*
X117995049Y-90097181D01*
X117995048Y-90097179D01*
X117870109Y-89925213D01*
X117756181Y-89811285D01*
X117722696Y-89749962D01*
X117727680Y-89680270D01*
X117769552Y-89624337D01*
X117800529Y-89607422D01*
X117932086Y-89558354D01*
X117932093Y-89558350D01*
X118047187Y-89472190D01*
X118047190Y-89472187D01*
X118133350Y-89357093D01*
X118133354Y-89357086D01*
X118183596Y-89222379D01*
X118183598Y-89222372D01*
X118189999Y-89162844D01*
X118190000Y-89162827D01*
X118190000Y-88515000D01*
X117273012Y-88515000D01*
X117305925Y-88457993D01*
X117340000Y-88330826D01*
X117340000Y-88199174D01*
X117305925Y-88072007D01*
X117273012Y-88015000D01*
X118190000Y-88015000D01*
X118190000Y-87367172D01*
X118189999Y-87367155D01*
X118183598Y-87307627D01*
X118183596Y-87307620D01*
X118133354Y-87172913D01*
X118133350Y-87172906D01*
X118047938Y-87058811D01*
X118023520Y-86993347D01*
X118038371Y-86925074D01*
X118087776Y-86875668D01*
X118147204Y-86860500D01*
X182033519Y-86860500D01*
X182100558Y-86880185D01*
X182146313Y-86932989D01*
X182156257Y-87002147D01*
X182127232Y-87065703D01*
X182102410Y-87087602D01*
X181942964Y-87194140D01*
X181942950Y-87194150D01*
X181661893Y-87424807D01*
X181404807Y-87681893D01*
X181174150Y-87962950D01*
X181174140Y-87962964D01*
X180972151Y-88265261D01*
X180972140Y-88265279D01*
X180800756Y-88585916D01*
X180800754Y-88585921D01*
X180661614Y-88921834D01*
X180556067Y-89269776D01*
X180556064Y-89269787D01*
X180485137Y-89626369D01*
X180461925Y-89862051D01*
X180449500Y-89988206D01*
X180449500Y-90351794D01*
X180458059Y-90438692D01*
X180485137Y-90713630D01*
X180556064Y-91070212D01*
X180556067Y-91070223D01*
X180661614Y-91418165D01*
X180800754Y-91754078D01*
X180800756Y-91754083D01*
X180972140Y-92074720D01*
X180972151Y-92074738D01*
X181174140Y-92377035D01*
X181174150Y-92377049D01*
X181404807Y-92658106D01*
X181661893Y-92915192D01*
X181661898Y-92915196D01*
X181661899Y-92915197D01*
X181942956Y-93145854D01*
X182245268Y-93347853D01*
X182245277Y-93347858D01*
X182245279Y-93347859D01*
X182565916Y-93519243D01*
X182565918Y-93519243D01*
X182565924Y-93519247D01*
X182901836Y-93658386D01*
X183249767Y-93763930D01*
X183249773Y-93763931D01*
X183249776Y-93763932D01*
X183249787Y-93763935D01*
X183606369Y-93834862D01*
X183968206Y-93870500D01*
X183968209Y-93870500D01*
X184331791Y-93870500D01*
X184331794Y-93870500D01*
X184693631Y-93834862D01*
X184763045Y-93821054D01*
X185050212Y-93763935D01*
X185050223Y-93763932D01*
X185050223Y-93763931D01*
X185050233Y-93763930D01*
X185398164Y-93658386D01*
X185734076Y-93519247D01*
X186054732Y-93347853D01*
X186357044Y-93145854D01*
X186638101Y-92915197D01*
X186895197Y-92658101D01*
X187125854Y-92377044D01*
X187232398Y-92217589D01*
X187286010Y-92172785D01*
X187355335Y-92164078D01*
X187418363Y-92194232D01*
X187455082Y-92253675D01*
X187459500Y-92286481D01*
X187459500Y-131233518D01*
X187439815Y-131300557D01*
X187387011Y-131346312D01*
X187317853Y-131356256D01*
X187254297Y-131327231D01*
X187232398Y-131302409D01*
X187125859Y-131142964D01*
X187125854Y-131142956D01*
X186895197Y-130861899D01*
X186895196Y-130861898D01*
X186895192Y-130861893D01*
X186638106Y-130604807D01*
X186357049Y-130374150D01*
X186357048Y-130374149D01*
X186357044Y-130374146D01*
X186054732Y-130172147D01*
X186054727Y-130172144D01*
X186054720Y-130172140D01*
X185734083Y-130000756D01*
X185734078Y-130000754D01*
X185398165Y-129861614D01*
X185050223Y-129756067D01*
X185050212Y-129756064D01*
X184693630Y-129685137D01*
X184421111Y-129658296D01*
X184331794Y-129649500D01*
X183968206Y-129649500D01*
X183885679Y-129657628D01*
X183606369Y-129685137D01*
X183249787Y-129756064D01*
X183249776Y-129756067D01*
X182901834Y-129861614D01*
X182565921Y-130000754D01*
X182565916Y-130000756D01*
X182245279Y-130172140D01*
X182245261Y-130172151D01*
X181942964Y-130374140D01*
X181942950Y-130374150D01*
X181661893Y-130604807D01*
X181404807Y-130861893D01*
X181174150Y-131142950D01*
X181174140Y-131142964D01*
X180972151Y-131445261D01*
X180972140Y-131445279D01*
X180800756Y-131765916D01*
X180800754Y-131765921D01*
X180661614Y-132101834D01*
X180556067Y-132449776D01*
X180556064Y-132449787D01*
X180485137Y-132806369D01*
X180460533Y-133056182D01*
X180449500Y-133168206D01*
X180449500Y-133531794D01*
X180449874Y-133535587D01*
X180485137Y-133893630D01*
X180556064Y-134250212D01*
X180556067Y-134250223D01*
X180661614Y-134598165D01*
X180800754Y-134934078D01*
X180800756Y-134934083D01*
X180972140Y-135254720D01*
X180972151Y-135254738D01*
X181174140Y-135557035D01*
X181174150Y-135557049D01*
X181404807Y-135838106D01*
X181661893Y-136095192D01*
X181661898Y-136095196D01*
X181661899Y-136095197D01*
X181942956Y-136325854D01*
X182102410Y-136432398D01*
X182147215Y-136486010D01*
X182155922Y-136555335D01*
X182125768Y-136618363D01*
X182066325Y-136655082D01*
X182033519Y-136659500D01*
X98126238Y-136659500D01*
X98059199Y-136639815D01*
X98013444Y-136587011D01*
X98003500Y-136517853D01*
X98032525Y-136454297D01*
X98091303Y-136416523D01*
X98098645Y-136414609D01*
X98333178Y-136361078D01*
X98333180Y-136361077D01*
X98598217Y-136268337D01*
X98851200Y-136146507D01*
X99088956Y-135997116D01*
X99222257Y-135890810D01*
X98580698Y-135249251D01*
X98682330Y-135175412D01*
X98860412Y-134997330D01*
X98934251Y-134895698D01*
X99575810Y-135537257D01*
X99682116Y-135403956D01*
X99831507Y-135166200D01*
X99953337Y-134913217D01*
X100046077Y-134648180D01*
X100046078Y-134648178D01*
X100108560Y-134374424D01*
X100108562Y-134374412D01*
X100139999Y-134095401D01*
X100140000Y-134095399D01*
X100140000Y-133814600D01*
X100139999Y-133814598D01*
X100108562Y-133535587D01*
X100108560Y-133535575D01*
X100046078Y-133261821D01*
X100046077Y-133261819D01*
X99953337Y-132996782D01*
X99831507Y-132743799D01*
X99682115Y-132506043D01*
X99575810Y-132372741D01*
X98934251Y-133014300D01*
X98860412Y-132912670D01*
X98682330Y-132734588D01*
X98580697Y-132660747D01*
X99222257Y-132019187D01*
X99088956Y-131912884D01*
X98851200Y-131763492D01*
X98598217Y-131641662D01*
X98333180Y-131548922D01*
X98333178Y-131548921D01*
X98059424Y-131486439D01*
X98059412Y-131486437D01*
X97780401Y-131455000D01*
X97499598Y-131455000D01*
X97220587Y-131486437D01*
X97220575Y-131486439D01*
X96946821Y-131548921D01*
X96946819Y-131548922D01*
X96681782Y-131641662D01*
X96428799Y-131763492D01*
X96191043Y-131912884D01*
X96057741Y-132019187D01*
X96699301Y-132660747D01*
X96597670Y-132734588D01*
X96419588Y-132912670D01*
X96345748Y-133014301D01*
X95704187Y-132372741D01*
X95597884Y-132506043D01*
X95448492Y-132743799D01*
X95326662Y-132996782D01*
X95233922Y-133261819D01*
X95233921Y-133261821D01*
X95171439Y-133535575D01*
X95171437Y-133535587D01*
X95140000Y-133814598D01*
X95140000Y-134095401D01*
X95171437Y-134374412D01*
X95171439Y-134374424D01*
X95233921Y-134648178D01*
X95233922Y-134648180D01*
X95326662Y-134913217D01*
X95448492Y-135166200D01*
X95597884Y-135403956D01*
X95704187Y-135537257D01*
X96345747Y-134895697D01*
X96419588Y-134997330D01*
X96597670Y-135175412D01*
X96699300Y-135249251D01*
X96057741Y-135890810D01*
X96057741Y-135890811D01*
X96191043Y-135997115D01*
X96428799Y-136146507D01*
X96681782Y-136268337D01*
X96946819Y-136361077D01*
X96946821Y-136361078D01*
X97181355Y-136414609D01*
X97242333Y-136448718D01*
X97275191Y-136510379D01*
X97269496Y-136580016D01*
X97227056Y-136635520D01*
X97161346Y-136659268D01*
X97153762Y-136659500D01*
X88254500Y-136659500D01*
X88187461Y-136639815D01*
X88141706Y-136587011D01*
X88130500Y-136535500D01*
X88130500Y-92286481D01*
X88150185Y-92219442D01*
X88202989Y-92173687D01*
X88272147Y-92163743D01*
X88335703Y-92192768D01*
X88357602Y-92217590D01*
X88464140Y-92377035D01*
X88464150Y-92377049D01*
X88694807Y-92658106D01*
X88951893Y-92915192D01*
X88951898Y-92915196D01*
X88951899Y-92915197D01*
X89232956Y-93145854D01*
X89535268Y-93347853D01*
X89535277Y-93347858D01*
X89535279Y-93347859D01*
X89855916Y-93519243D01*
X89855918Y-93519243D01*
X89855924Y-93519247D01*
X90191836Y-93658386D01*
X90539767Y-93763930D01*
X90539773Y-93763931D01*
X90539776Y-93763932D01*
X90539787Y-93763935D01*
X90896369Y-93834862D01*
X91258206Y-93870500D01*
X91258209Y-93870500D01*
X91621791Y-93870500D01*
X91621794Y-93870500D01*
X91983631Y-93834862D01*
X92053045Y-93821054D01*
X92340212Y-93763935D01*
X92340223Y-93763932D01*
X92340223Y-93763931D01*
X92340233Y-93763930D01*
X92688164Y-93658386D01*
X93024076Y-93519247D01*
X93344732Y-93347853D01*
X93647044Y-93145854D01*
X93928101Y-92915197D01*
X94185197Y-92658101D01*
X94415854Y-92377044D01*
X94617853Y-92074732D01*
X94789247Y-91754076D01*
X94928386Y-91418164D01*
X95033930Y-91070233D01*
X95033932Y-91070223D01*
X95033935Y-91070212D01*
X95091882Y-90778887D01*
X95104862Y-90713631D01*
X95140500Y-90351794D01*
X95140500Y-89988206D01*
X95104862Y-89626369D01*
X95099111Y-89597455D01*
X95033935Y-89269787D01*
X95033932Y-89269776D01*
X95033931Y-89269773D01*
X95033930Y-89269767D01*
X94928386Y-88921836D01*
X94789247Y-88585924D01*
X94761760Y-88534500D01*
X94617859Y-88265279D01*
X94617858Y-88265277D01*
X94617853Y-88265268D01*
X94415854Y-87962956D01*
X94185197Y-87681899D01*
X94185196Y-87681898D01*
X94185192Y-87681893D01*
X93928106Y-87424807D01*
X93647049Y-87194150D01*
X93647048Y-87194149D01*
X93647044Y-87194146D01*
X93487589Y-87087601D01*
X93442785Y-87033990D01*
X93434078Y-86964665D01*
X93464232Y-86901637D01*
X93523675Y-86864918D01*
X93556481Y-86860500D01*
X115532796Y-86860500D01*
X115599835Y-86880185D01*
G37*
%TD.AperFunction*%
%TA.AperFunction,Conductor*%
G36*
X170142381Y-118495185D02*
G01*
X170148220Y-118499177D01*
X170175319Y-118518865D01*
X170315863Y-118590476D01*
X170346493Y-118606083D01*
X170411081Y-118627069D01*
X170468756Y-118666506D01*
X170495955Y-118730865D01*
X170484041Y-118799711D01*
X170436797Y-118851187D01*
X170411081Y-118862931D01*
X170346493Y-118883916D01*
X170175318Y-118971135D01*
X170089173Y-119033724D01*
X170019898Y-119084055D01*
X170019896Y-119084057D01*
X170019895Y-119084057D01*
X169884057Y-119219895D01*
X169879985Y-119225500D01*
X169813095Y-119317567D01*
X169808867Y-119323386D01*
X169753537Y-119366051D01*
X169708549Y-119374500D01*
X166525699Y-119374500D01*
X166458660Y-119354815D01*
X166452814Y-119350818D01*
X166390408Y-119305478D01*
X166390407Y-119305477D01*
X166390405Y-119305476D01*
X166315782Y-119267454D01*
X166215029Y-119216117D01*
X166027826Y-119155290D01*
X165833422Y-119124500D01*
X165833417Y-119124500D01*
X165636583Y-119124500D01*
X165636578Y-119124500D01*
X165442173Y-119155290D01*
X165254970Y-119216117D01*
X165079594Y-119305476D01*
X165017187Y-119350818D01*
X164920354Y-119421172D01*
X164920352Y-119421174D01*
X164920351Y-119421174D01*
X164781174Y-119560351D01*
X164781174Y-119560352D01*
X164781172Y-119560354D01*
X164768980Y-119577135D01*
X164665476Y-119719594D01*
X164575204Y-119896764D01*
X164527229Y-119947560D01*
X164459408Y-119964355D01*
X164393274Y-119941818D01*
X164354234Y-119896764D01*
X164264096Y-119719858D01*
X164238678Y-119684873D01*
X164238677Y-119684873D01*
X163595000Y-120328551D01*
X163595000Y-120322339D01*
X163567741Y-120220606D01*
X163515080Y-120129394D01*
X163440606Y-120054920D01*
X163349394Y-120002259D01*
X163247661Y-119975000D01*
X163241447Y-119975000D01*
X163885125Y-119331320D01*
X163885125Y-119331319D01*
X163850145Y-119305905D01*
X163674835Y-119216581D01*
X163487705Y-119155778D01*
X163293382Y-119125000D01*
X163096618Y-119125000D01*
X162902294Y-119155778D01*
X162715161Y-119216582D01*
X162539863Y-119305899D01*
X162539859Y-119305902D01*
X162504873Y-119331320D01*
X162504872Y-119331320D01*
X163148554Y-119975000D01*
X163142339Y-119975000D01*
X163040606Y-120002259D01*
X162949394Y-120054920D01*
X162874920Y-120129394D01*
X162822259Y-120220606D01*
X162795000Y-120322339D01*
X162795000Y-120328552D01*
X162151320Y-119684872D01*
X162151319Y-119684873D01*
X162129819Y-119714468D01*
X162074490Y-119757135D01*
X162004877Y-119763116D01*
X161943081Y-119730512D01*
X161908722Y-119669674D01*
X161905499Y-119641585D01*
X161905499Y-119577129D01*
X161905498Y-119577123D01*
X161905497Y-119577116D01*
X161899091Y-119517517D01*
X161880301Y-119467139D01*
X161863433Y-119421912D01*
X161848797Y-119382671D01*
X161848793Y-119382664D01*
X161762548Y-119267457D01*
X161762546Y-119267454D01*
X161754105Y-119261135D01*
X161712233Y-119205202D01*
X161707247Y-119135511D01*
X161740730Y-119074189D01*
X162303101Y-118511819D01*
X162364424Y-118478334D01*
X162390782Y-118475500D01*
X170075342Y-118475500D01*
X170142381Y-118495185D01*
G37*
%TD.AperFunction*%
%TD*%
M02*
