%TF.GenerationSoftware,KiCad,Pcbnew,10.0.0*%
%TF.CreationDate,2026-05-02T17:45:33-03:00*%
%TF.ProjectId,pwmsla5800,70776d73-6c61-4353-9830-302e6b696361,rev?*%
%TF.SameCoordinates,Original*%
%TF.FileFunction,Legend,Top*%
%TF.FilePolarity,Positive*%
%FSLAX46Y46*%
G04 Gerber Fmt 4.6, Leading zero omitted, Abs format (unit mm)*
G04 Created by KiCad (PCBNEW 10.0.0) date 2026-05-02 17:45:33*
%MOMM*%
%LPD*%
G01*
G04 APERTURE LIST*
%ADD10C,0.150000*%
%ADD11C,0.120000*%
G04 APERTURE END LIST*
D10*
X138419819Y-113633095D02*
X137943628Y-113966428D01*
X138419819Y-114204523D02*
X137419819Y-114204523D01*
X137419819Y-114204523D02*
X137419819Y-113823571D01*
X137419819Y-113823571D02*
X137467438Y-113728333D01*
X137467438Y-113728333D02*
X137515057Y-113680714D01*
X137515057Y-113680714D02*
X137610295Y-113633095D01*
X137610295Y-113633095D02*
X137753152Y-113633095D01*
X137753152Y-113633095D02*
X137848390Y-113680714D01*
X137848390Y-113680714D02*
X137896009Y-113728333D01*
X137896009Y-113728333D02*
X137943628Y-113823571D01*
X137943628Y-113823571D02*
X137943628Y-114204523D01*
X137753152Y-113347380D02*
X137753152Y-112966428D01*
X138419819Y-113204523D02*
X137562676Y-113204523D01*
X137562676Y-113204523D02*
X137467438Y-113156904D01*
X137467438Y-113156904D02*
X137419819Y-113061666D01*
X137419819Y-113061666D02*
X137419819Y-112966428D01*
X138419819Y-112633094D02*
X137753152Y-112633094D01*
X137419819Y-112633094D02*
X137467438Y-112680713D01*
X137467438Y-112680713D02*
X137515057Y-112633094D01*
X137515057Y-112633094D02*
X137467438Y-112585475D01*
X137467438Y-112585475D02*
X137419819Y-112633094D01*
X137419819Y-112633094D02*
X137515057Y-112633094D01*
X138419819Y-112014047D02*
X138372200Y-112109285D01*
X138372200Y-112109285D02*
X138276961Y-112156904D01*
X138276961Y-112156904D02*
X137419819Y-112156904D01*
X137753152Y-111775951D02*
X137753152Y-111394999D01*
X137419819Y-111633094D02*
X138276961Y-111633094D01*
X138276961Y-111633094D02*
X138372200Y-111585475D01*
X138372200Y-111585475D02*
X138419819Y-111490237D01*
X138419819Y-111490237D02*
X138419819Y-111394999D01*
X138419819Y-110537856D02*
X138419819Y-111109284D01*
X138419819Y-110823570D02*
X137419819Y-110823570D01*
X137419819Y-110823570D02*
X137562676Y-110918808D01*
X137562676Y-110918808D02*
X137657914Y-111014046D01*
X137657914Y-111014046D02*
X137705533Y-111109284D01*
X173444819Y-100964761D02*
X174159104Y-100964761D01*
X174159104Y-100964761D02*
X174301961Y-101012380D01*
X174301961Y-101012380D02*
X174397200Y-101107618D01*
X174397200Y-101107618D02*
X174444819Y-101250475D01*
X174444819Y-101250475D02*
X174444819Y-101345713D01*
X174444819Y-100488570D02*
X173444819Y-100488570D01*
X173444819Y-100488570D02*
X173444819Y-100107618D01*
X173444819Y-100107618D02*
X173492438Y-100012380D01*
X173492438Y-100012380D02*
X173540057Y-99964761D01*
X173540057Y-99964761D02*
X173635295Y-99917142D01*
X173635295Y-99917142D02*
X173778152Y-99917142D01*
X173778152Y-99917142D02*
X173873390Y-99964761D01*
X173873390Y-99964761D02*
X173921009Y-100012380D01*
X173921009Y-100012380D02*
X173968628Y-100107618D01*
X173968628Y-100107618D02*
X173968628Y-100488570D01*
X173444819Y-99583808D02*
X174444819Y-99345713D01*
X174444819Y-99345713D02*
X173730533Y-99155237D01*
X173730533Y-99155237D02*
X174444819Y-98964761D01*
X174444819Y-98964761D02*
X173444819Y-98726666D01*
X174444819Y-97774285D02*
X173968628Y-98107618D01*
X174444819Y-98345713D02*
X173444819Y-98345713D01*
X173444819Y-98345713D02*
X173444819Y-97964761D01*
X173444819Y-97964761D02*
X173492438Y-97869523D01*
X173492438Y-97869523D02*
X173540057Y-97821904D01*
X173540057Y-97821904D02*
X173635295Y-97774285D01*
X173635295Y-97774285D02*
X173778152Y-97774285D01*
X173778152Y-97774285D02*
X173873390Y-97821904D01*
X173873390Y-97821904D02*
X173921009Y-97869523D01*
X173921009Y-97869523D02*
X173968628Y-97964761D01*
X173968628Y-97964761D02*
X173968628Y-98345713D01*
X174444819Y-96821904D02*
X174444819Y-97393332D01*
X174444819Y-97107618D02*
X173444819Y-97107618D01*
X173444819Y-97107618D02*
X173587676Y-97202856D01*
X173587676Y-97202856D02*
X173682914Y-97298094D01*
X173682914Y-97298094D02*
X173730533Y-97393332D01*
X146153570Y-106929819D02*
X146153570Y-107644104D01*
X146153570Y-107644104D02*
X146105951Y-107786961D01*
X146105951Y-107786961D02*
X146010713Y-107882200D01*
X146010713Y-107882200D02*
X145867856Y-107929819D01*
X145867856Y-107929819D02*
X145772618Y-107929819D01*
X147201189Y-107834580D02*
X147153570Y-107882200D01*
X147153570Y-107882200D02*
X147010713Y-107929819D01*
X147010713Y-107929819D02*
X146915475Y-107929819D01*
X146915475Y-107929819D02*
X146772618Y-107882200D01*
X146772618Y-107882200D02*
X146677380Y-107786961D01*
X146677380Y-107786961D02*
X146629761Y-107691723D01*
X146629761Y-107691723D02*
X146582142Y-107501247D01*
X146582142Y-107501247D02*
X146582142Y-107358390D01*
X146582142Y-107358390D02*
X146629761Y-107167914D01*
X146629761Y-107167914D02*
X146677380Y-107072676D01*
X146677380Y-107072676D02*
X146772618Y-106977438D01*
X146772618Y-106977438D02*
X146915475Y-106929819D01*
X146915475Y-106929819D02*
X147010713Y-106929819D01*
X147010713Y-106929819D02*
X147153570Y-106977438D01*
X147153570Y-106977438D02*
X147201189Y-107025057D01*
X148058332Y-107263152D02*
X148058332Y-107929819D01*
X147629761Y-107263152D02*
X147629761Y-107786961D01*
X147629761Y-107786961D02*
X147677380Y-107882200D01*
X147677380Y-107882200D02*
X147772618Y-107929819D01*
X147772618Y-107929819D02*
X147915475Y-107929819D01*
X147915475Y-107929819D02*
X148010713Y-107882200D01*
X148010713Y-107882200D02*
X148058332Y-107834580D01*
X148534523Y-107929819D02*
X148534523Y-107263152D01*
X148534523Y-107453628D02*
X148582142Y-107358390D01*
X148582142Y-107358390D02*
X148629761Y-107310771D01*
X148629761Y-107310771D02*
X148724999Y-107263152D01*
X148724999Y-107263152D02*
X148820237Y-107263152D01*
X149153571Y-107929819D02*
X149153571Y-107263152D01*
X149153571Y-107453628D02*
X149201190Y-107358390D01*
X149201190Y-107358390D02*
X149248809Y-107310771D01*
X149248809Y-107310771D02*
X149344047Y-107263152D01*
X149344047Y-107263152D02*
X149439285Y-107263152D01*
X150153571Y-107882200D02*
X150058333Y-107929819D01*
X150058333Y-107929819D02*
X149867857Y-107929819D01*
X149867857Y-107929819D02*
X149772619Y-107882200D01*
X149772619Y-107882200D02*
X149725000Y-107786961D01*
X149725000Y-107786961D02*
X149725000Y-107406009D01*
X149725000Y-107406009D02*
X149772619Y-107310771D01*
X149772619Y-107310771D02*
X149867857Y-107263152D01*
X149867857Y-107263152D02*
X150058333Y-107263152D01*
X150058333Y-107263152D02*
X150153571Y-107310771D01*
X150153571Y-107310771D02*
X150201190Y-107406009D01*
X150201190Y-107406009D02*
X150201190Y-107501247D01*
X150201190Y-107501247D02*
X149725000Y-107596485D01*
X150629762Y-107263152D02*
X150629762Y-107929819D01*
X150629762Y-107358390D02*
X150677381Y-107310771D01*
X150677381Y-107310771D02*
X150772619Y-107263152D01*
X150772619Y-107263152D02*
X150915476Y-107263152D01*
X150915476Y-107263152D02*
X151010714Y-107310771D01*
X151010714Y-107310771D02*
X151058333Y-107406009D01*
X151058333Y-107406009D02*
X151058333Y-107929819D01*
X151391667Y-107263152D02*
X151772619Y-107263152D01*
X151534524Y-106929819D02*
X151534524Y-107786961D01*
X151534524Y-107786961D02*
X151582143Y-107882200D01*
X151582143Y-107882200D02*
X151677381Y-107929819D01*
X151677381Y-107929819D02*
X151772619Y-107929819D01*
X152629762Y-107929819D02*
X152058334Y-107929819D01*
X152344048Y-107929819D02*
X152344048Y-106929819D01*
X152344048Y-106929819D02*
X152248810Y-107072676D01*
X152248810Y-107072676D02*
X152153572Y-107167914D01*
X152153572Y-107167914D02*
X152058334Y-107215533D01*
X147354819Y-95876666D02*
X146354819Y-95876666D01*
X146354819Y-95876666D02*
X146354819Y-95638571D01*
X146354819Y-95638571D02*
X146402438Y-95495714D01*
X146402438Y-95495714D02*
X146497676Y-95400476D01*
X146497676Y-95400476D02*
X146592914Y-95352857D01*
X146592914Y-95352857D02*
X146783390Y-95305238D01*
X146783390Y-95305238D02*
X146926247Y-95305238D01*
X146926247Y-95305238D02*
X147116723Y-95352857D01*
X147116723Y-95352857D02*
X147211961Y-95400476D01*
X147211961Y-95400476D02*
X147307200Y-95495714D01*
X147307200Y-95495714D02*
X147354819Y-95638571D01*
X147354819Y-95638571D02*
X147354819Y-95876666D01*
X147307200Y-94448095D02*
X147354819Y-94543333D01*
X147354819Y-94543333D02*
X147354819Y-94733809D01*
X147354819Y-94733809D02*
X147307200Y-94829047D01*
X147307200Y-94829047D02*
X147259580Y-94876666D01*
X147259580Y-94876666D02*
X147164342Y-94924285D01*
X147164342Y-94924285D02*
X146878628Y-94924285D01*
X146878628Y-94924285D02*
X146783390Y-94876666D01*
X146783390Y-94876666D02*
X146735771Y-94829047D01*
X146735771Y-94829047D02*
X146688152Y-94733809D01*
X146688152Y-94733809D02*
X146688152Y-94543333D01*
X146688152Y-94543333D02*
X146735771Y-94448095D01*
X147354819Y-93876666D02*
X147307200Y-93971904D01*
X147307200Y-93971904D02*
X147211961Y-94019523D01*
X147211961Y-94019523D02*
X146354819Y-94019523D01*
X147354819Y-93352856D02*
X147307200Y-93448094D01*
X147307200Y-93448094D02*
X147259580Y-93495713D01*
X147259580Y-93495713D02*
X147164342Y-93543332D01*
X147164342Y-93543332D02*
X146878628Y-93543332D01*
X146878628Y-93543332D02*
X146783390Y-93495713D01*
X146783390Y-93495713D02*
X146735771Y-93448094D01*
X146735771Y-93448094D02*
X146688152Y-93352856D01*
X146688152Y-93352856D02*
X146688152Y-93209999D01*
X146688152Y-93209999D02*
X146735771Y-93114761D01*
X146735771Y-93114761D02*
X146783390Y-93067142D01*
X146783390Y-93067142D02*
X146878628Y-93019523D01*
X146878628Y-93019523D02*
X147164342Y-93019523D01*
X147164342Y-93019523D02*
X147259580Y-93067142D01*
X147259580Y-93067142D02*
X147307200Y-93114761D01*
X147307200Y-93114761D02*
X147354819Y-93209999D01*
X147354819Y-93209999D02*
X147354819Y-93352856D01*
X147307200Y-92638570D02*
X147354819Y-92543332D01*
X147354819Y-92543332D02*
X147354819Y-92352856D01*
X147354819Y-92352856D02*
X147307200Y-92257618D01*
X147307200Y-92257618D02*
X147211961Y-92209999D01*
X147211961Y-92209999D02*
X147164342Y-92209999D01*
X147164342Y-92209999D02*
X147069104Y-92257618D01*
X147069104Y-92257618D02*
X147021485Y-92352856D01*
X147021485Y-92352856D02*
X147021485Y-92495713D01*
X147021485Y-92495713D02*
X146973866Y-92590951D01*
X146973866Y-92590951D02*
X146878628Y-92638570D01*
X146878628Y-92638570D02*
X146831009Y-92638570D01*
X146831009Y-92638570D02*
X146735771Y-92590951D01*
X146735771Y-92590951D02*
X146688152Y-92495713D01*
X146688152Y-92495713D02*
X146688152Y-92352856D01*
X146688152Y-92352856D02*
X146735771Y-92257618D01*
X147307200Y-91400475D02*
X147354819Y-91495713D01*
X147354819Y-91495713D02*
X147354819Y-91686189D01*
X147354819Y-91686189D02*
X147307200Y-91781427D01*
X147307200Y-91781427D02*
X147211961Y-91829046D01*
X147211961Y-91829046D02*
X146831009Y-91829046D01*
X146831009Y-91829046D02*
X146735771Y-91781427D01*
X146735771Y-91781427D02*
X146688152Y-91686189D01*
X146688152Y-91686189D02*
X146688152Y-91495713D01*
X146688152Y-91495713D02*
X146735771Y-91400475D01*
X146735771Y-91400475D02*
X146831009Y-91352856D01*
X146831009Y-91352856D02*
X146926247Y-91352856D01*
X146926247Y-91352856D02*
X147021485Y-91829046D01*
X147354819Y-90495713D02*
X146354819Y-90495713D01*
X147307200Y-90495713D02*
X147354819Y-90590951D01*
X147354819Y-90590951D02*
X147354819Y-90781427D01*
X147354819Y-90781427D02*
X147307200Y-90876665D01*
X147307200Y-90876665D02*
X147259580Y-90924284D01*
X147259580Y-90924284D02*
X147164342Y-90971903D01*
X147164342Y-90971903D02*
X146878628Y-90971903D01*
X146878628Y-90971903D02*
X146783390Y-90924284D01*
X146783390Y-90924284D02*
X146735771Y-90876665D01*
X146735771Y-90876665D02*
X146688152Y-90781427D01*
X146688152Y-90781427D02*
X146688152Y-90590951D01*
X146688152Y-90590951D02*
X146735771Y-90495713D01*
X147354819Y-89495713D02*
X147354819Y-90067141D01*
X147354819Y-89781427D02*
X146354819Y-89781427D01*
X146354819Y-89781427D02*
X146497676Y-89876665D01*
X146497676Y-89876665D02*
X146592914Y-89971903D01*
X146592914Y-89971903D02*
X146640533Y-90067141D01*
X120684819Y-94352856D02*
X119684819Y-94352856D01*
X119684819Y-94352856D02*
X119684819Y-94114761D01*
X119684819Y-94114761D02*
X119732438Y-93971904D01*
X119732438Y-93971904D02*
X119827676Y-93876666D01*
X119827676Y-93876666D02*
X119922914Y-93829047D01*
X119922914Y-93829047D02*
X120113390Y-93781428D01*
X120113390Y-93781428D02*
X120256247Y-93781428D01*
X120256247Y-93781428D02*
X120446723Y-93829047D01*
X120446723Y-93829047D02*
X120541961Y-93876666D01*
X120541961Y-93876666D02*
X120637200Y-93971904D01*
X120637200Y-93971904D02*
X120684819Y-94114761D01*
X120684819Y-94114761D02*
X120684819Y-94352856D01*
X120684819Y-93209999D02*
X120637200Y-93305237D01*
X120637200Y-93305237D02*
X120589580Y-93352856D01*
X120589580Y-93352856D02*
X120494342Y-93400475D01*
X120494342Y-93400475D02*
X120208628Y-93400475D01*
X120208628Y-93400475D02*
X120113390Y-93352856D01*
X120113390Y-93352856D02*
X120065771Y-93305237D01*
X120065771Y-93305237D02*
X120018152Y-93209999D01*
X120018152Y-93209999D02*
X120018152Y-93067142D01*
X120018152Y-93067142D02*
X120065771Y-92971904D01*
X120065771Y-92971904D02*
X120113390Y-92924285D01*
X120113390Y-92924285D02*
X120208628Y-92876666D01*
X120208628Y-92876666D02*
X120494342Y-92876666D01*
X120494342Y-92876666D02*
X120589580Y-92924285D01*
X120589580Y-92924285D02*
X120637200Y-92971904D01*
X120637200Y-92971904D02*
X120684819Y-93067142D01*
X120684819Y-93067142D02*
X120684819Y-93209999D01*
X120018152Y-92448094D02*
X120684819Y-92448094D01*
X120113390Y-92448094D02*
X120065771Y-92400475D01*
X120065771Y-92400475D02*
X120018152Y-92305237D01*
X120018152Y-92305237D02*
X120018152Y-92162380D01*
X120018152Y-92162380D02*
X120065771Y-92067142D01*
X120065771Y-92067142D02*
X120161009Y-92019523D01*
X120161009Y-92019523D02*
X120684819Y-92019523D01*
X120684819Y-91019523D02*
X120684819Y-91590951D01*
X120684819Y-91305237D02*
X119684819Y-91305237D01*
X119684819Y-91305237D02*
X119827676Y-91400475D01*
X119827676Y-91400475D02*
X119922914Y-91495713D01*
X119922914Y-91495713D02*
X119970533Y-91590951D01*
X137255476Y-120004819D02*
X136922143Y-119528628D01*
X136684048Y-120004819D02*
X136684048Y-119004819D01*
X136684048Y-119004819D02*
X137065000Y-119004819D01*
X137065000Y-119004819D02*
X137160238Y-119052438D01*
X137160238Y-119052438D02*
X137207857Y-119100057D01*
X137207857Y-119100057D02*
X137255476Y-119195295D01*
X137255476Y-119195295D02*
X137255476Y-119338152D01*
X137255476Y-119338152D02*
X137207857Y-119433390D01*
X137207857Y-119433390D02*
X137160238Y-119481009D01*
X137160238Y-119481009D02*
X137065000Y-119528628D01*
X137065000Y-119528628D02*
X136684048Y-119528628D01*
X137684048Y-119338152D02*
X137684048Y-120338152D01*
X137684048Y-119385771D02*
X137779286Y-119338152D01*
X137779286Y-119338152D02*
X137969762Y-119338152D01*
X137969762Y-119338152D02*
X138065000Y-119385771D01*
X138065000Y-119385771D02*
X138112619Y-119433390D01*
X138112619Y-119433390D02*
X138160238Y-119528628D01*
X138160238Y-119528628D02*
X138160238Y-119814342D01*
X138160238Y-119814342D02*
X138112619Y-119909580D01*
X138112619Y-119909580D02*
X138065000Y-119957200D01*
X138065000Y-119957200D02*
X137969762Y-120004819D01*
X137969762Y-120004819D02*
X137779286Y-120004819D01*
X137779286Y-120004819D02*
X137684048Y-119957200D01*
X138493572Y-119338152D02*
X138684048Y-120004819D01*
X138684048Y-120004819D02*
X138874524Y-119528628D01*
X138874524Y-119528628D02*
X139065000Y-120004819D01*
X139065000Y-120004819D02*
X139255476Y-119338152D01*
X139636429Y-120004819D02*
X139636429Y-119338152D01*
X139636429Y-119433390D02*
X139684048Y-119385771D01*
X139684048Y-119385771D02*
X139779286Y-119338152D01*
X139779286Y-119338152D02*
X139922143Y-119338152D01*
X139922143Y-119338152D02*
X140017381Y-119385771D01*
X140017381Y-119385771D02*
X140065000Y-119481009D01*
X140065000Y-119481009D02*
X140065000Y-120004819D01*
X140065000Y-119481009D02*
X140112619Y-119385771D01*
X140112619Y-119385771D02*
X140207857Y-119338152D01*
X140207857Y-119338152D02*
X140350714Y-119338152D01*
X140350714Y-119338152D02*
X140445953Y-119385771D01*
X140445953Y-119385771D02*
X140493572Y-119481009D01*
X140493572Y-119481009D02*
X140493572Y-120004819D01*
X141493571Y-120004819D02*
X140922143Y-120004819D01*
X141207857Y-120004819D02*
X141207857Y-119004819D01*
X141207857Y-119004819D02*
X141112619Y-119147676D01*
X141112619Y-119147676D02*
X141017381Y-119242914D01*
X141017381Y-119242914D02*
X140922143Y-119290533D01*
X117784761Y-102859819D02*
X117451428Y-102383628D01*
X117213333Y-102859819D02*
X117213333Y-101859819D01*
X117213333Y-101859819D02*
X117594285Y-101859819D01*
X117594285Y-101859819D02*
X117689523Y-101907438D01*
X117689523Y-101907438D02*
X117737142Y-101955057D01*
X117737142Y-101955057D02*
X117784761Y-102050295D01*
X117784761Y-102050295D02*
X117784761Y-102193152D01*
X117784761Y-102193152D02*
X117737142Y-102288390D01*
X117737142Y-102288390D02*
X117689523Y-102336009D01*
X117689523Y-102336009D02*
X117594285Y-102383628D01*
X117594285Y-102383628D02*
X117213333Y-102383628D01*
X118213333Y-102859819D02*
X118213333Y-101859819D01*
X118832380Y-102859819D02*
X118737142Y-102812200D01*
X118737142Y-102812200D02*
X118689523Y-102764580D01*
X118689523Y-102764580D02*
X118641904Y-102669342D01*
X118641904Y-102669342D02*
X118641904Y-102383628D01*
X118641904Y-102383628D02*
X118689523Y-102288390D01*
X118689523Y-102288390D02*
X118737142Y-102240771D01*
X118737142Y-102240771D02*
X118832380Y-102193152D01*
X118832380Y-102193152D02*
X118975237Y-102193152D01*
X118975237Y-102193152D02*
X119070475Y-102240771D01*
X119070475Y-102240771D02*
X119118094Y-102288390D01*
X119118094Y-102288390D02*
X119165713Y-102383628D01*
X119165713Y-102383628D02*
X119165713Y-102669342D01*
X119165713Y-102669342D02*
X119118094Y-102764580D01*
X119118094Y-102764580D02*
X119070475Y-102812200D01*
X119070475Y-102812200D02*
X118975237Y-102859819D01*
X118975237Y-102859819D02*
X118832380Y-102859819D01*
X120022856Y-102193152D02*
X120022856Y-102859819D01*
X119594285Y-102193152D02*
X119594285Y-102716961D01*
X119594285Y-102716961D02*
X119641904Y-102812200D01*
X119641904Y-102812200D02*
X119737142Y-102859819D01*
X119737142Y-102859819D02*
X119879999Y-102859819D01*
X119879999Y-102859819D02*
X119975237Y-102812200D01*
X119975237Y-102812200D02*
X120022856Y-102764580D01*
X120356190Y-102193152D02*
X120737142Y-102193152D01*
X120499047Y-101859819D02*
X120499047Y-102716961D01*
X120499047Y-102716961D02*
X120546666Y-102812200D01*
X120546666Y-102812200D02*
X120641904Y-102859819D01*
X120641904Y-102859819D02*
X120737142Y-102859819D01*
X121594285Y-102859819D02*
X121022857Y-102859819D01*
X121308571Y-102859819D02*
X121308571Y-101859819D01*
X121308571Y-101859819D02*
X121213333Y-102002676D01*
X121213333Y-102002676D02*
X121118095Y-102097914D01*
X121118095Y-102097914D02*
X121022857Y-102145533D01*
X101314819Y-120662142D02*
X102029104Y-120662142D01*
X102029104Y-120662142D02*
X102171961Y-120709761D01*
X102171961Y-120709761D02*
X102267200Y-120804999D01*
X102267200Y-120804999D02*
X102314819Y-120947856D01*
X102314819Y-120947856D02*
X102314819Y-121043094D01*
X101791009Y-119852618D02*
X101838628Y-119709761D01*
X101838628Y-119709761D02*
X101886247Y-119662142D01*
X101886247Y-119662142D02*
X101981485Y-119614523D01*
X101981485Y-119614523D02*
X102124342Y-119614523D01*
X102124342Y-119614523D02*
X102219580Y-119662142D01*
X102219580Y-119662142D02*
X102267200Y-119709761D01*
X102267200Y-119709761D02*
X102314819Y-119804999D01*
X102314819Y-119804999D02*
X102314819Y-120185951D01*
X102314819Y-120185951D02*
X101314819Y-120185951D01*
X101314819Y-120185951D02*
X101314819Y-119852618D01*
X101314819Y-119852618D02*
X101362438Y-119757380D01*
X101362438Y-119757380D02*
X101410057Y-119709761D01*
X101410057Y-119709761D02*
X101505295Y-119662142D01*
X101505295Y-119662142D02*
X101600533Y-119662142D01*
X101600533Y-119662142D02*
X101695771Y-119709761D01*
X101695771Y-119709761D02*
X101743390Y-119757380D01*
X101743390Y-119757380D02*
X101791009Y-119852618D01*
X101791009Y-119852618D02*
X101791009Y-120185951D01*
X102314819Y-118614523D02*
X101838628Y-118947856D01*
X102314819Y-119185951D02*
X101314819Y-119185951D01*
X101314819Y-119185951D02*
X101314819Y-118804999D01*
X101314819Y-118804999D02*
X101362438Y-118709761D01*
X101362438Y-118709761D02*
X101410057Y-118662142D01*
X101410057Y-118662142D02*
X101505295Y-118614523D01*
X101505295Y-118614523D02*
X101648152Y-118614523D01*
X101648152Y-118614523D02*
X101743390Y-118662142D01*
X101743390Y-118662142D02*
X101791009Y-118709761D01*
X101791009Y-118709761D02*
X101838628Y-118804999D01*
X101838628Y-118804999D02*
X101838628Y-119185951D01*
X101314819Y-117995475D02*
X101314819Y-117804999D01*
X101314819Y-117804999D02*
X101362438Y-117709761D01*
X101362438Y-117709761D02*
X101457676Y-117614523D01*
X101457676Y-117614523D02*
X101648152Y-117566904D01*
X101648152Y-117566904D02*
X101981485Y-117566904D01*
X101981485Y-117566904D02*
X102171961Y-117614523D01*
X102171961Y-117614523D02*
X102267200Y-117709761D01*
X102267200Y-117709761D02*
X102314819Y-117804999D01*
X102314819Y-117804999D02*
X102314819Y-117995475D01*
X102314819Y-117995475D02*
X102267200Y-118090713D01*
X102267200Y-118090713D02*
X102171961Y-118185951D01*
X102171961Y-118185951D02*
X101981485Y-118233570D01*
X101981485Y-118233570D02*
X101648152Y-118233570D01*
X101648152Y-118233570D02*
X101457676Y-118185951D01*
X101457676Y-118185951D02*
X101362438Y-118090713D01*
X101362438Y-118090713D02*
X101314819Y-117995475D01*
X101314819Y-116947856D02*
X101314819Y-116757380D01*
X101314819Y-116757380D02*
X101362438Y-116662142D01*
X101362438Y-116662142D02*
X101457676Y-116566904D01*
X101457676Y-116566904D02*
X101648152Y-116519285D01*
X101648152Y-116519285D02*
X101981485Y-116519285D01*
X101981485Y-116519285D02*
X102171961Y-116566904D01*
X102171961Y-116566904D02*
X102267200Y-116662142D01*
X102267200Y-116662142D02*
X102314819Y-116757380D01*
X102314819Y-116757380D02*
X102314819Y-116947856D01*
X102314819Y-116947856D02*
X102267200Y-117043094D01*
X102267200Y-117043094D02*
X102171961Y-117138332D01*
X102171961Y-117138332D02*
X101981485Y-117185951D01*
X101981485Y-117185951D02*
X101648152Y-117185951D01*
X101648152Y-117185951D02*
X101457676Y-117138332D01*
X101457676Y-117138332D02*
X101362438Y-117043094D01*
X101362438Y-117043094D02*
X101314819Y-116947856D01*
X102314819Y-116090713D02*
X101314819Y-116090713D01*
X102314819Y-115519285D02*
X101743390Y-115947856D01*
X101314819Y-115519285D02*
X101886247Y-116090713D01*
X102267200Y-115138332D02*
X102314819Y-114995475D01*
X102314819Y-114995475D02*
X102314819Y-114757380D01*
X102314819Y-114757380D02*
X102267200Y-114662142D01*
X102267200Y-114662142D02*
X102219580Y-114614523D01*
X102219580Y-114614523D02*
X102124342Y-114566904D01*
X102124342Y-114566904D02*
X102029104Y-114566904D01*
X102029104Y-114566904D02*
X101933866Y-114614523D01*
X101933866Y-114614523D02*
X101886247Y-114662142D01*
X101886247Y-114662142D02*
X101838628Y-114757380D01*
X101838628Y-114757380D02*
X101791009Y-114947856D01*
X101791009Y-114947856D02*
X101743390Y-115043094D01*
X101743390Y-115043094D02*
X101695771Y-115090713D01*
X101695771Y-115090713D02*
X101600533Y-115138332D01*
X101600533Y-115138332D02*
X101505295Y-115138332D01*
X101505295Y-115138332D02*
X101410057Y-115090713D01*
X101410057Y-115090713D02*
X101362438Y-115043094D01*
X101362438Y-115043094D02*
X101314819Y-114947856D01*
X101314819Y-114947856D02*
X101314819Y-114709761D01*
X101314819Y-114709761D02*
X101362438Y-114566904D01*
X102314819Y-113614523D02*
X102314819Y-114185951D01*
X102314819Y-113900237D02*
X101314819Y-113900237D01*
X101314819Y-113900237D02*
X101457676Y-113995475D01*
X101457676Y-113995475D02*
X101552914Y-114090713D01*
X101552914Y-114090713D02*
X101600533Y-114185951D01*
X122118571Y-101249819D02*
X121785238Y-100773628D01*
X121547143Y-101249819D02*
X121547143Y-100249819D01*
X121547143Y-100249819D02*
X121928095Y-100249819D01*
X121928095Y-100249819D02*
X122023333Y-100297438D01*
X122023333Y-100297438D02*
X122070952Y-100345057D01*
X122070952Y-100345057D02*
X122118571Y-100440295D01*
X122118571Y-100440295D02*
X122118571Y-100583152D01*
X122118571Y-100583152D02*
X122070952Y-100678390D01*
X122070952Y-100678390D02*
X122023333Y-100726009D01*
X122023333Y-100726009D02*
X121928095Y-100773628D01*
X121928095Y-100773628D02*
X121547143Y-100773628D01*
X122690000Y-101249819D02*
X122594762Y-101202200D01*
X122594762Y-101202200D02*
X122547143Y-101154580D01*
X122547143Y-101154580D02*
X122499524Y-101059342D01*
X122499524Y-101059342D02*
X122499524Y-100773628D01*
X122499524Y-100773628D02*
X122547143Y-100678390D01*
X122547143Y-100678390D02*
X122594762Y-100630771D01*
X122594762Y-100630771D02*
X122690000Y-100583152D01*
X122690000Y-100583152D02*
X122832857Y-100583152D01*
X122832857Y-100583152D02*
X122928095Y-100630771D01*
X122928095Y-100630771D02*
X122975714Y-100678390D01*
X122975714Y-100678390D02*
X123023333Y-100773628D01*
X123023333Y-100773628D02*
X123023333Y-101059342D01*
X123023333Y-101059342D02*
X122975714Y-101154580D01*
X122975714Y-101154580D02*
X122928095Y-101202200D01*
X122928095Y-101202200D02*
X122832857Y-101249819D01*
X122832857Y-101249819D02*
X122690000Y-101249819D01*
X123451905Y-100583152D02*
X123451905Y-101249819D01*
X123451905Y-100678390D02*
X123499524Y-100630771D01*
X123499524Y-100630771D02*
X123594762Y-100583152D01*
X123594762Y-100583152D02*
X123737619Y-100583152D01*
X123737619Y-100583152D02*
X123832857Y-100630771D01*
X123832857Y-100630771D02*
X123880476Y-100726009D01*
X123880476Y-100726009D02*
X123880476Y-101249819D01*
X124880476Y-101249819D02*
X124309048Y-101249819D01*
X124594762Y-101249819D02*
X124594762Y-100249819D01*
X124594762Y-100249819D02*
X124499524Y-100392676D01*
X124499524Y-100392676D02*
X124404286Y-100487914D01*
X124404286Y-100487914D02*
X124309048Y-100535533D01*
X154932285Y-130137819D02*
X154932285Y-130852104D01*
X154932285Y-130852104D02*
X154884666Y-130994961D01*
X154884666Y-130994961D02*
X154789428Y-131090200D01*
X154789428Y-131090200D02*
X154646571Y-131137819D01*
X154646571Y-131137819D02*
X154551333Y-131137819D01*
X155265619Y-130137819D02*
X155598952Y-131137819D01*
X155598952Y-131137819D02*
X155932285Y-130137819D01*
X156265619Y-131137819D02*
X156265619Y-130471152D01*
X156265619Y-130661628D02*
X156313238Y-130566390D01*
X156313238Y-130566390D02*
X156360857Y-130518771D01*
X156360857Y-130518771D02*
X156456095Y-130471152D01*
X156456095Y-130471152D02*
X156551333Y-130471152D01*
X157265619Y-131090200D02*
X157170381Y-131137819D01*
X157170381Y-131137819D02*
X156979905Y-131137819D01*
X156979905Y-131137819D02*
X156884667Y-131090200D01*
X156884667Y-131090200D02*
X156837048Y-130994961D01*
X156837048Y-130994961D02*
X156837048Y-130614009D01*
X156837048Y-130614009D02*
X156884667Y-130518771D01*
X156884667Y-130518771D02*
X156979905Y-130471152D01*
X156979905Y-130471152D02*
X157170381Y-130471152D01*
X157170381Y-130471152D02*
X157265619Y-130518771D01*
X157265619Y-130518771D02*
X157313238Y-130614009D01*
X157313238Y-130614009D02*
X157313238Y-130709247D01*
X157313238Y-130709247D02*
X156837048Y-130804485D01*
X157598953Y-130471152D02*
X157979905Y-130471152D01*
X157741810Y-131137819D02*
X157741810Y-130280676D01*
X157741810Y-130280676D02*
X157789429Y-130185438D01*
X157789429Y-130185438D02*
X157884667Y-130137819D01*
X157884667Y-130137819D02*
X157979905Y-130137819D01*
X158837048Y-131137819D02*
X158265620Y-131137819D01*
X158551334Y-131137819D02*
X158551334Y-130137819D01*
X158551334Y-130137819D02*
X158456096Y-130280676D01*
X158456096Y-130280676D02*
X158360858Y-130375914D01*
X158360858Y-130375914D02*
X158265620Y-130423533D01*
X162433095Y-116269819D02*
X162433095Y-117079342D01*
X162433095Y-117079342D02*
X162480714Y-117174580D01*
X162480714Y-117174580D02*
X162528333Y-117222200D01*
X162528333Y-117222200D02*
X162623571Y-117269819D01*
X162623571Y-117269819D02*
X162814047Y-117269819D01*
X162814047Y-117269819D02*
X162909285Y-117222200D01*
X162909285Y-117222200D02*
X162956904Y-117174580D01*
X162956904Y-117174580D02*
X163004523Y-117079342D01*
X163004523Y-117079342D02*
X163004523Y-116269819D01*
X163433095Y-116365057D02*
X163480714Y-116317438D01*
X163480714Y-116317438D02*
X163575952Y-116269819D01*
X163575952Y-116269819D02*
X163814047Y-116269819D01*
X163814047Y-116269819D02*
X163909285Y-116317438D01*
X163909285Y-116317438D02*
X163956904Y-116365057D01*
X163956904Y-116365057D02*
X164004523Y-116460295D01*
X164004523Y-116460295D02*
X164004523Y-116555533D01*
X164004523Y-116555533D02*
X163956904Y-116698390D01*
X163956904Y-116698390D02*
X163385476Y-117269819D01*
X163385476Y-117269819D02*
X164004523Y-117269819D01*
X107545475Y-96509819D02*
X107212142Y-96033628D01*
X106974047Y-96509819D02*
X106974047Y-95509819D01*
X106974047Y-95509819D02*
X107354999Y-95509819D01*
X107354999Y-95509819D02*
X107450237Y-95557438D01*
X107450237Y-95557438D02*
X107497856Y-95605057D01*
X107497856Y-95605057D02*
X107545475Y-95700295D01*
X107545475Y-95700295D02*
X107545475Y-95843152D01*
X107545475Y-95843152D02*
X107497856Y-95938390D01*
X107497856Y-95938390D02*
X107450237Y-95986009D01*
X107450237Y-95986009D02*
X107354999Y-96033628D01*
X107354999Y-96033628D02*
X106974047Y-96033628D01*
X108402618Y-96509819D02*
X108402618Y-95986009D01*
X108402618Y-95986009D02*
X108354999Y-95890771D01*
X108354999Y-95890771D02*
X108259761Y-95843152D01*
X108259761Y-95843152D02*
X108069285Y-95843152D01*
X108069285Y-95843152D02*
X107974047Y-95890771D01*
X108402618Y-96462200D02*
X108307380Y-96509819D01*
X108307380Y-96509819D02*
X108069285Y-96509819D01*
X108069285Y-96509819D02*
X107974047Y-96462200D01*
X107974047Y-96462200D02*
X107926428Y-96366961D01*
X107926428Y-96366961D02*
X107926428Y-96271723D01*
X107926428Y-96271723D02*
X107974047Y-96176485D01*
X107974047Y-96176485D02*
X108069285Y-96128866D01*
X108069285Y-96128866D02*
X108307380Y-96128866D01*
X108307380Y-96128866D02*
X108402618Y-96081247D01*
X109021666Y-96509819D02*
X108926428Y-96462200D01*
X108926428Y-96462200D02*
X108878809Y-96366961D01*
X108878809Y-96366961D02*
X108878809Y-95509819D01*
X109831190Y-96509819D02*
X109831190Y-95986009D01*
X109831190Y-95986009D02*
X109783571Y-95890771D01*
X109783571Y-95890771D02*
X109688333Y-95843152D01*
X109688333Y-95843152D02*
X109497857Y-95843152D01*
X109497857Y-95843152D02*
X109402619Y-95890771D01*
X109831190Y-96462200D02*
X109735952Y-96509819D01*
X109735952Y-96509819D02*
X109497857Y-96509819D01*
X109497857Y-96509819D02*
X109402619Y-96462200D01*
X109402619Y-96462200D02*
X109355000Y-96366961D01*
X109355000Y-96366961D02*
X109355000Y-96271723D01*
X109355000Y-96271723D02*
X109402619Y-96176485D01*
X109402619Y-96176485D02*
X109497857Y-96128866D01*
X109497857Y-96128866D02*
X109735952Y-96128866D01*
X109735952Y-96128866D02*
X109831190Y-96081247D01*
X110307381Y-96509819D02*
X110307381Y-95843152D01*
X110307381Y-96033628D02*
X110355000Y-95938390D01*
X110355000Y-95938390D02*
X110402619Y-95890771D01*
X110402619Y-95890771D02*
X110497857Y-95843152D01*
X110497857Y-95843152D02*
X110593095Y-95843152D01*
X110926429Y-96509819D02*
X110926429Y-95843152D01*
X110926429Y-95938390D02*
X110974048Y-95890771D01*
X110974048Y-95890771D02*
X111069286Y-95843152D01*
X111069286Y-95843152D02*
X111212143Y-95843152D01*
X111212143Y-95843152D02*
X111307381Y-95890771D01*
X111307381Y-95890771D02*
X111355000Y-95986009D01*
X111355000Y-95986009D02*
X111355000Y-96509819D01*
X111355000Y-95986009D02*
X111402619Y-95890771D01*
X111402619Y-95890771D02*
X111497857Y-95843152D01*
X111497857Y-95843152D02*
X111640714Y-95843152D01*
X111640714Y-95843152D02*
X111735953Y-95890771D01*
X111735953Y-95890771D02*
X111783572Y-95986009D01*
X111783572Y-95986009D02*
X111783572Y-96509819D01*
X112783571Y-96509819D02*
X112212143Y-96509819D01*
X112497857Y-96509819D02*
X112497857Y-95509819D01*
X112497857Y-95509819D02*
X112402619Y-95652676D01*
X112402619Y-95652676D02*
X112307381Y-95747914D01*
X112307381Y-95747914D02*
X112212143Y-95795533D01*
X160099523Y-111749819D02*
X159766190Y-111273628D01*
X159528095Y-111749819D02*
X159528095Y-110749819D01*
X159528095Y-110749819D02*
X159909047Y-110749819D01*
X159909047Y-110749819D02*
X160004285Y-110797438D01*
X160004285Y-110797438D02*
X160051904Y-110845057D01*
X160051904Y-110845057D02*
X160099523Y-110940295D01*
X160099523Y-110940295D02*
X160099523Y-111083152D01*
X160099523Y-111083152D02*
X160051904Y-111178390D01*
X160051904Y-111178390D02*
X160004285Y-111226009D01*
X160004285Y-111226009D02*
X159909047Y-111273628D01*
X159909047Y-111273628D02*
X159528095Y-111273628D01*
X160528095Y-111749819D02*
X160528095Y-111083152D01*
X160528095Y-111273628D02*
X160575714Y-111178390D01*
X160575714Y-111178390D02*
X160623333Y-111130771D01*
X160623333Y-111130771D02*
X160718571Y-111083152D01*
X160718571Y-111083152D02*
X160813809Y-111083152D01*
X161528095Y-111702200D02*
X161432857Y-111749819D01*
X161432857Y-111749819D02*
X161242381Y-111749819D01*
X161242381Y-111749819D02*
X161147143Y-111702200D01*
X161147143Y-111702200D02*
X161099524Y-111606961D01*
X161099524Y-111606961D02*
X161099524Y-111226009D01*
X161099524Y-111226009D02*
X161147143Y-111130771D01*
X161147143Y-111130771D02*
X161242381Y-111083152D01*
X161242381Y-111083152D02*
X161432857Y-111083152D01*
X161432857Y-111083152D02*
X161528095Y-111130771D01*
X161528095Y-111130771D02*
X161575714Y-111226009D01*
X161575714Y-111226009D02*
X161575714Y-111321247D01*
X161575714Y-111321247D02*
X161099524Y-111416485D01*
X161861429Y-111083152D02*
X162242381Y-111083152D01*
X162004286Y-111749819D02*
X162004286Y-110892676D01*
X162004286Y-110892676D02*
X162051905Y-110797438D01*
X162051905Y-110797438D02*
X162147143Y-110749819D01*
X162147143Y-110749819D02*
X162242381Y-110749819D01*
X162528096Y-110845057D02*
X162575715Y-110797438D01*
X162575715Y-110797438D02*
X162670953Y-110749819D01*
X162670953Y-110749819D02*
X162909048Y-110749819D01*
X162909048Y-110749819D02*
X163004286Y-110797438D01*
X163004286Y-110797438D02*
X163051905Y-110845057D01*
X163051905Y-110845057D02*
X163099524Y-110940295D01*
X163099524Y-110940295D02*
X163099524Y-111035533D01*
X163099524Y-111035533D02*
X163051905Y-111178390D01*
X163051905Y-111178390D02*
X162480477Y-111749819D01*
X162480477Y-111749819D02*
X163099524Y-111749819D01*
X121138333Y-128589580D02*
X121090714Y-128637200D01*
X121090714Y-128637200D02*
X120947857Y-128684819D01*
X120947857Y-128684819D02*
X120852619Y-128684819D01*
X120852619Y-128684819D02*
X120709762Y-128637200D01*
X120709762Y-128637200D02*
X120614524Y-128541961D01*
X120614524Y-128541961D02*
X120566905Y-128446723D01*
X120566905Y-128446723D02*
X120519286Y-128256247D01*
X120519286Y-128256247D02*
X120519286Y-128113390D01*
X120519286Y-128113390D02*
X120566905Y-127922914D01*
X120566905Y-127922914D02*
X120614524Y-127827676D01*
X120614524Y-127827676D02*
X120709762Y-127732438D01*
X120709762Y-127732438D02*
X120852619Y-127684819D01*
X120852619Y-127684819D02*
X120947857Y-127684819D01*
X120947857Y-127684819D02*
X121090714Y-127732438D01*
X121090714Y-127732438D02*
X121138333Y-127780057D01*
X122090714Y-128684819D02*
X121519286Y-128684819D01*
X121805000Y-128684819D02*
X121805000Y-127684819D01*
X121805000Y-127684819D02*
X121709762Y-127827676D01*
X121709762Y-127827676D02*
X121614524Y-127922914D01*
X121614524Y-127922914D02*
X121519286Y-127970533D01*
X163909523Y-130280580D02*
X163861904Y-130328200D01*
X163861904Y-130328200D02*
X163719047Y-130375819D01*
X163719047Y-130375819D02*
X163623809Y-130375819D01*
X163623809Y-130375819D02*
X163480952Y-130328200D01*
X163480952Y-130328200D02*
X163385714Y-130232961D01*
X163385714Y-130232961D02*
X163338095Y-130137723D01*
X163338095Y-130137723D02*
X163290476Y-129947247D01*
X163290476Y-129947247D02*
X163290476Y-129804390D01*
X163290476Y-129804390D02*
X163338095Y-129613914D01*
X163338095Y-129613914D02*
X163385714Y-129518676D01*
X163385714Y-129518676D02*
X163480952Y-129423438D01*
X163480952Y-129423438D02*
X163623809Y-129375819D01*
X163623809Y-129375819D02*
X163719047Y-129375819D01*
X163719047Y-129375819D02*
X163861904Y-129423438D01*
X163861904Y-129423438D02*
X163909523Y-129471057D01*
X164338095Y-130375819D02*
X164338095Y-129709152D01*
X164338095Y-129899628D02*
X164385714Y-129804390D01*
X164385714Y-129804390D02*
X164433333Y-129756771D01*
X164433333Y-129756771D02*
X164528571Y-129709152D01*
X164528571Y-129709152D02*
X164623809Y-129709152D01*
X165338095Y-130328200D02*
X165242857Y-130375819D01*
X165242857Y-130375819D02*
X165052381Y-130375819D01*
X165052381Y-130375819D02*
X164957143Y-130328200D01*
X164957143Y-130328200D02*
X164909524Y-130232961D01*
X164909524Y-130232961D02*
X164909524Y-129852009D01*
X164909524Y-129852009D02*
X164957143Y-129756771D01*
X164957143Y-129756771D02*
X165052381Y-129709152D01*
X165052381Y-129709152D02*
X165242857Y-129709152D01*
X165242857Y-129709152D02*
X165338095Y-129756771D01*
X165338095Y-129756771D02*
X165385714Y-129852009D01*
X165385714Y-129852009D02*
X165385714Y-129947247D01*
X165385714Y-129947247D02*
X164909524Y-130042485D01*
X165671429Y-129709152D02*
X166052381Y-129709152D01*
X165814286Y-130375819D02*
X165814286Y-129518676D01*
X165814286Y-129518676D02*
X165861905Y-129423438D01*
X165861905Y-129423438D02*
X165957143Y-129375819D01*
X165957143Y-129375819D02*
X166052381Y-129375819D01*
X166909524Y-130375819D02*
X166338096Y-130375819D01*
X166623810Y-130375819D02*
X166623810Y-129375819D01*
X166623810Y-129375819D02*
X166528572Y-129518676D01*
X166528572Y-129518676D02*
X166433334Y-129613914D01*
X166433334Y-129613914D02*
X166338096Y-129661533D01*
X177736666Y-88084819D02*
X177403333Y-87608628D01*
X177165238Y-88084819D02*
X177165238Y-87084819D01*
X177165238Y-87084819D02*
X177546190Y-87084819D01*
X177546190Y-87084819D02*
X177641428Y-87132438D01*
X177641428Y-87132438D02*
X177689047Y-87180057D01*
X177689047Y-87180057D02*
X177736666Y-87275295D01*
X177736666Y-87275295D02*
X177736666Y-87418152D01*
X177736666Y-87418152D02*
X177689047Y-87513390D01*
X177689047Y-87513390D02*
X177641428Y-87561009D01*
X177641428Y-87561009D02*
X177546190Y-87608628D01*
X177546190Y-87608628D02*
X177165238Y-87608628D01*
X178165238Y-87561009D02*
X178498571Y-87561009D01*
X178641428Y-88084819D02*
X178165238Y-88084819D01*
X178165238Y-88084819D02*
X178165238Y-87084819D01*
X178165238Y-87084819D02*
X178641428Y-87084819D01*
X179403333Y-87561009D02*
X179070000Y-87561009D01*
X179070000Y-88084819D02*
X179070000Y-87084819D01*
X179070000Y-87084819D02*
X179546190Y-87084819D01*
X180070000Y-87084819D02*
X180070000Y-87322914D01*
X179831905Y-87227676D02*
X180070000Y-87322914D01*
X180070000Y-87322914D02*
X180308095Y-87227676D01*
X179927143Y-87513390D02*
X180070000Y-87322914D01*
X180070000Y-87322914D02*
X180212857Y-87513390D01*
X180831905Y-87084819D02*
X180831905Y-87322914D01*
X180593810Y-87227676D02*
X180831905Y-87322914D01*
X180831905Y-87322914D02*
X181070000Y-87227676D01*
X180689048Y-87513390D02*
X180831905Y-87322914D01*
X180831905Y-87322914D02*
X180974762Y-87513390D01*
X114754819Y-124999523D02*
X114278628Y-125332856D01*
X114754819Y-125570951D02*
X113754819Y-125570951D01*
X113754819Y-125570951D02*
X113754819Y-125189999D01*
X113754819Y-125189999D02*
X113802438Y-125094761D01*
X113802438Y-125094761D02*
X113850057Y-125047142D01*
X113850057Y-125047142D02*
X113945295Y-124999523D01*
X113945295Y-124999523D02*
X114088152Y-124999523D01*
X114088152Y-124999523D02*
X114183390Y-125047142D01*
X114183390Y-125047142D02*
X114231009Y-125094761D01*
X114231009Y-125094761D02*
X114278628Y-125189999D01*
X114278628Y-125189999D02*
X114278628Y-125570951D01*
X114088152Y-124570951D02*
X115088152Y-124570951D01*
X114135771Y-124570951D02*
X114088152Y-124475713D01*
X114088152Y-124475713D02*
X114088152Y-124285237D01*
X114088152Y-124285237D02*
X114135771Y-124189999D01*
X114135771Y-124189999D02*
X114183390Y-124142380D01*
X114183390Y-124142380D02*
X114278628Y-124094761D01*
X114278628Y-124094761D02*
X114564342Y-124094761D01*
X114564342Y-124094761D02*
X114659580Y-124142380D01*
X114659580Y-124142380D02*
X114707200Y-124189999D01*
X114707200Y-124189999D02*
X114754819Y-124285237D01*
X114754819Y-124285237D02*
X114754819Y-124475713D01*
X114754819Y-124475713D02*
X114707200Y-124570951D01*
X114088152Y-123761427D02*
X114754819Y-123570951D01*
X114754819Y-123570951D02*
X114278628Y-123380475D01*
X114278628Y-123380475D02*
X114754819Y-123189999D01*
X114754819Y-123189999D02*
X114088152Y-122999523D01*
X114754819Y-122618570D02*
X114088152Y-122618570D01*
X114183390Y-122618570D02*
X114135771Y-122570951D01*
X114135771Y-122570951D02*
X114088152Y-122475713D01*
X114088152Y-122475713D02*
X114088152Y-122332856D01*
X114088152Y-122332856D02*
X114135771Y-122237618D01*
X114135771Y-122237618D02*
X114231009Y-122189999D01*
X114231009Y-122189999D02*
X114754819Y-122189999D01*
X114231009Y-122189999D02*
X114135771Y-122142380D01*
X114135771Y-122142380D02*
X114088152Y-122047142D01*
X114088152Y-122047142D02*
X114088152Y-121904285D01*
X114088152Y-121904285D02*
X114135771Y-121809046D01*
X114135771Y-121809046D02*
X114231009Y-121761427D01*
X114231009Y-121761427D02*
X114754819Y-121761427D01*
X113850057Y-121332856D02*
X113802438Y-121285237D01*
X113802438Y-121285237D02*
X113754819Y-121189999D01*
X113754819Y-121189999D02*
X113754819Y-120951904D01*
X113754819Y-120951904D02*
X113802438Y-120856666D01*
X113802438Y-120856666D02*
X113850057Y-120809047D01*
X113850057Y-120809047D02*
X113945295Y-120761428D01*
X113945295Y-120761428D02*
X114040533Y-120761428D01*
X114040533Y-120761428D02*
X114183390Y-120809047D01*
X114183390Y-120809047D02*
X114754819Y-121380475D01*
X114754819Y-121380475D02*
X114754819Y-120761428D01*
X174929819Y-119094048D02*
X174453628Y-119427381D01*
X174929819Y-119665476D02*
X173929819Y-119665476D01*
X173929819Y-119665476D02*
X173929819Y-119284524D01*
X173929819Y-119284524D02*
X173977438Y-119189286D01*
X173977438Y-119189286D02*
X174025057Y-119141667D01*
X174025057Y-119141667D02*
X174120295Y-119094048D01*
X174120295Y-119094048D02*
X174263152Y-119094048D01*
X174263152Y-119094048D02*
X174358390Y-119141667D01*
X174358390Y-119141667D02*
X174406009Y-119189286D01*
X174406009Y-119189286D02*
X174453628Y-119284524D01*
X174453628Y-119284524D02*
X174453628Y-119665476D01*
X173929819Y-118808333D02*
X174929819Y-118475000D01*
X174929819Y-118475000D02*
X173929819Y-118141667D01*
X174929819Y-117808333D02*
X174263152Y-117808333D01*
X174453628Y-117808333D02*
X174358390Y-117760714D01*
X174358390Y-117760714D02*
X174310771Y-117713095D01*
X174310771Y-117713095D02*
X174263152Y-117617857D01*
X174263152Y-117617857D02*
X174263152Y-117522619D01*
X174882200Y-116808333D02*
X174929819Y-116903571D01*
X174929819Y-116903571D02*
X174929819Y-117094047D01*
X174929819Y-117094047D02*
X174882200Y-117189285D01*
X174882200Y-117189285D02*
X174786961Y-117236904D01*
X174786961Y-117236904D02*
X174406009Y-117236904D01*
X174406009Y-117236904D02*
X174310771Y-117189285D01*
X174310771Y-117189285D02*
X174263152Y-117094047D01*
X174263152Y-117094047D02*
X174263152Y-116903571D01*
X174263152Y-116903571D02*
X174310771Y-116808333D01*
X174310771Y-116808333D02*
X174406009Y-116760714D01*
X174406009Y-116760714D02*
X174501247Y-116760714D01*
X174501247Y-116760714D02*
X174596485Y-117236904D01*
X174263152Y-116474999D02*
X174263152Y-116094047D01*
X174929819Y-116332142D02*
X174072676Y-116332142D01*
X174072676Y-116332142D02*
X173977438Y-116284523D01*
X173977438Y-116284523D02*
X173929819Y-116189285D01*
X173929819Y-116189285D02*
X173929819Y-116094047D01*
X174929819Y-115236904D02*
X174929819Y-115808332D01*
X174929819Y-115522618D02*
X173929819Y-115522618D01*
X173929819Y-115522618D02*
X174072676Y-115617856D01*
X174072676Y-115617856D02*
X174167914Y-115713094D01*
X174167914Y-115713094D02*
X174215533Y-115808332D01*
X147264761Y-101249819D02*
X146931428Y-100773628D01*
X146693333Y-101249819D02*
X146693333Y-100249819D01*
X146693333Y-100249819D02*
X147074285Y-100249819D01*
X147074285Y-100249819D02*
X147169523Y-100297438D01*
X147169523Y-100297438D02*
X147217142Y-100345057D01*
X147217142Y-100345057D02*
X147264761Y-100440295D01*
X147264761Y-100440295D02*
X147264761Y-100583152D01*
X147264761Y-100583152D02*
X147217142Y-100678390D01*
X147217142Y-100678390D02*
X147169523Y-100726009D01*
X147169523Y-100726009D02*
X147074285Y-100773628D01*
X147074285Y-100773628D02*
X146693333Y-100773628D01*
X148121904Y-101202200D02*
X148026666Y-101249819D01*
X148026666Y-101249819D02*
X147836190Y-101249819D01*
X147836190Y-101249819D02*
X147740952Y-101202200D01*
X147740952Y-101202200D02*
X147693333Y-101154580D01*
X147693333Y-101154580D02*
X147645714Y-101059342D01*
X147645714Y-101059342D02*
X147645714Y-100773628D01*
X147645714Y-100773628D02*
X147693333Y-100678390D01*
X147693333Y-100678390D02*
X147740952Y-100630771D01*
X147740952Y-100630771D02*
X147836190Y-100583152D01*
X147836190Y-100583152D02*
X148026666Y-100583152D01*
X148026666Y-100583152D02*
X148121904Y-100630771D01*
X148693333Y-101249819D02*
X148598095Y-101202200D01*
X148598095Y-101202200D02*
X148550476Y-101106961D01*
X148550476Y-101106961D02*
X148550476Y-100249819D01*
X149217143Y-101249819D02*
X149121905Y-101202200D01*
X149121905Y-101202200D02*
X149074286Y-101154580D01*
X149074286Y-101154580D02*
X149026667Y-101059342D01*
X149026667Y-101059342D02*
X149026667Y-100773628D01*
X149026667Y-100773628D02*
X149074286Y-100678390D01*
X149074286Y-100678390D02*
X149121905Y-100630771D01*
X149121905Y-100630771D02*
X149217143Y-100583152D01*
X149217143Y-100583152D02*
X149360000Y-100583152D01*
X149360000Y-100583152D02*
X149455238Y-100630771D01*
X149455238Y-100630771D02*
X149502857Y-100678390D01*
X149502857Y-100678390D02*
X149550476Y-100773628D01*
X149550476Y-100773628D02*
X149550476Y-101059342D01*
X149550476Y-101059342D02*
X149502857Y-101154580D01*
X149502857Y-101154580D02*
X149455238Y-101202200D01*
X149455238Y-101202200D02*
X149360000Y-101249819D01*
X149360000Y-101249819D02*
X149217143Y-101249819D01*
X149931429Y-101202200D02*
X150026667Y-101249819D01*
X150026667Y-101249819D02*
X150217143Y-101249819D01*
X150217143Y-101249819D02*
X150312381Y-101202200D01*
X150312381Y-101202200D02*
X150360000Y-101106961D01*
X150360000Y-101106961D02*
X150360000Y-101059342D01*
X150360000Y-101059342D02*
X150312381Y-100964104D01*
X150312381Y-100964104D02*
X150217143Y-100916485D01*
X150217143Y-100916485D02*
X150074286Y-100916485D01*
X150074286Y-100916485D02*
X149979048Y-100868866D01*
X149979048Y-100868866D02*
X149931429Y-100773628D01*
X149931429Y-100773628D02*
X149931429Y-100726009D01*
X149931429Y-100726009D02*
X149979048Y-100630771D01*
X149979048Y-100630771D02*
X150074286Y-100583152D01*
X150074286Y-100583152D02*
X150217143Y-100583152D01*
X150217143Y-100583152D02*
X150312381Y-100630771D01*
X151169524Y-101202200D02*
X151074286Y-101249819D01*
X151074286Y-101249819D02*
X150883810Y-101249819D01*
X150883810Y-101249819D02*
X150788572Y-101202200D01*
X150788572Y-101202200D02*
X150740953Y-101106961D01*
X150740953Y-101106961D02*
X150740953Y-100726009D01*
X150740953Y-100726009D02*
X150788572Y-100630771D01*
X150788572Y-100630771D02*
X150883810Y-100583152D01*
X150883810Y-100583152D02*
X151074286Y-100583152D01*
X151074286Y-100583152D02*
X151169524Y-100630771D01*
X151169524Y-100630771D02*
X151217143Y-100726009D01*
X151217143Y-100726009D02*
X151217143Y-100821247D01*
X151217143Y-100821247D02*
X150740953Y-100916485D01*
X152074286Y-101249819D02*
X152074286Y-100249819D01*
X152074286Y-101202200D02*
X151979048Y-101249819D01*
X151979048Y-101249819D02*
X151788572Y-101249819D01*
X151788572Y-101249819D02*
X151693334Y-101202200D01*
X151693334Y-101202200D02*
X151645715Y-101154580D01*
X151645715Y-101154580D02*
X151598096Y-101059342D01*
X151598096Y-101059342D02*
X151598096Y-100773628D01*
X151598096Y-100773628D02*
X151645715Y-100678390D01*
X151645715Y-100678390D02*
X151693334Y-100630771D01*
X151693334Y-100630771D02*
X151788572Y-100583152D01*
X151788572Y-100583152D02*
X151979048Y-100583152D01*
X151979048Y-100583152D02*
X152074286Y-100630771D01*
X153074286Y-101249819D02*
X152502858Y-101249819D01*
X152788572Y-101249819D02*
X152788572Y-100249819D01*
X152788572Y-100249819D02*
X152693334Y-100392676D01*
X152693334Y-100392676D02*
X152598096Y-100487914D01*
X152598096Y-100487914D02*
X152502858Y-100535533D01*
X110833819Y-116696904D02*
X111548104Y-116696904D01*
X111548104Y-116696904D02*
X111690961Y-116744523D01*
X111690961Y-116744523D02*
X111786200Y-116839761D01*
X111786200Y-116839761D02*
X111833819Y-116982618D01*
X111833819Y-116982618D02*
X111833819Y-117077856D01*
X111310009Y-116220713D02*
X111310009Y-115887380D01*
X111833819Y-115744523D02*
X111833819Y-116220713D01*
X111833819Y-116220713D02*
X110833819Y-116220713D01*
X110833819Y-116220713D02*
X110833819Y-115744523D01*
X111786200Y-115363570D02*
X111833819Y-115220713D01*
X111833819Y-115220713D02*
X111833819Y-114982618D01*
X111833819Y-114982618D02*
X111786200Y-114887380D01*
X111786200Y-114887380D02*
X111738580Y-114839761D01*
X111738580Y-114839761D02*
X111643342Y-114792142D01*
X111643342Y-114792142D02*
X111548104Y-114792142D01*
X111548104Y-114792142D02*
X111452866Y-114839761D01*
X111452866Y-114839761D02*
X111405247Y-114887380D01*
X111405247Y-114887380D02*
X111357628Y-114982618D01*
X111357628Y-114982618D02*
X111310009Y-115173094D01*
X111310009Y-115173094D02*
X111262390Y-115268332D01*
X111262390Y-115268332D02*
X111214771Y-115315951D01*
X111214771Y-115315951D02*
X111119533Y-115363570D01*
X111119533Y-115363570D02*
X111024295Y-115363570D01*
X111024295Y-115363570D02*
X110929057Y-115315951D01*
X110929057Y-115315951D02*
X110881438Y-115268332D01*
X110881438Y-115268332D02*
X110833819Y-115173094D01*
X110833819Y-115173094D02*
X110833819Y-114934999D01*
X110833819Y-114934999D02*
X110881438Y-114792142D01*
X111833819Y-114363570D02*
X110833819Y-114363570D01*
X110833819Y-114363570D02*
X110833819Y-113982618D01*
X110833819Y-113982618D02*
X110881438Y-113887380D01*
X110881438Y-113887380D02*
X110929057Y-113839761D01*
X110929057Y-113839761D02*
X111024295Y-113792142D01*
X111024295Y-113792142D02*
X111167152Y-113792142D01*
X111167152Y-113792142D02*
X111262390Y-113839761D01*
X111262390Y-113839761D02*
X111310009Y-113887380D01*
X111310009Y-113887380D02*
X111357628Y-113982618D01*
X111357628Y-113982618D02*
X111357628Y-114363570D01*
X111833819Y-112839761D02*
X111833819Y-113411189D01*
X111833819Y-113125475D02*
X110833819Y-113125475D01*
X110833819Y-113125475D02*
X110976676Y-113220713D01*
X110976676Y-113220713D02*
X111071914Y-113315951D01*
X111071914Y-113315951D02*
X111119533Y-113411189D01*
X107349819Y-94320952D02*
X106349819Y-94320952D01*
X106349819Y-94320952D02*
X106349819Y-94082857D01*
X106349819Y-94082857D02*
X106397438Y-93940000D01*
X106397438Y-93940000D02*
X106492676Y-93844762D01*
X106492676Y-93844762D02*
X106587914Y-93797143D01*
X106587914Y-93797143D02*
X106778390Y-93749524D01*
X106778390Y-93749524D02*
X106921247Y-93749524D01*
X106921247Y-93749524D02*
X107111723Y-93797143D01*
X107111723Y-93797143D02*
X107206961Y-93844762D01*
X107206961Y-93844762D02*
X107302200Y-93940000D01*
X107302200Y-93940000D02*
X107349819Y-94082857D01*
X107349819Y-94082857D02*
X107349819Y-94320952D01*
X107349819Y-92892381D02*
X106826009Y-92892381D01*
X106826009Y-92892381D02*
X106730771Y-92940000D01*
X106730771Y-92940000D02*
X106683152Y-93035238D01*
X106683152Y-93035238D02*
X106683152Y-93225714D01*
X106683152Y-93225714D02*
X106730771Y-93320952D01*
X107302200Y-92892381D02*
X107349819Y-92987619D01*
X107349819Y-92987619D02*
X107349819Y-93225714D01*
X107349819Y-93225714D02*
X107302200Y-93320952D01*
X107302200Y-93320952D02*
X107206961Y-93368571D01*
X107206961Y-93368571D02*
X107111723Y-93368571D01*
X107111723Y-93368571D02*
X107016485Y-93320952D01*
X107016485Y-93320952D02*
X106968866Y-93225714D01*
X106968866Y-93225714D02*
X106968866Y-92987619D01*
X106968866Y-92987619D02*
X106921247Y-92892381D01*
X107349819Y-92273333D02*
X107302200Y-92368571D01*
X107302200Y-92368571D02*
X107206961Y-92416190D01*
X107206961Y-92416190D02*
X106349819Y-92416190D01*
X107349819Y-91463809D02*
X106826009Y-91463809D01*
X106826009Y-91463809D02*
X106730771Y-91511428D01*
X106730771Y-91511428D02*
X106683152Y-91606666D01*
X106683152Y-91606666D02*
X106683152Y-91797142D01*
X106683152Y-91797142D02*
X106730771Y-91892380D01*
X107302200Y-91463809D02*
X107349819Y-91559047D01*
X107349819Y-91559047D02*
X107349819Y-91797142D01*
X107349819Y-91797142D02*
X107302200Y-91892380D01*
X107302200Y-91892380D02*
X107206961Y-91939999D01*
X107206961Y-91939999D02*
X107111723Y-91939999D01*
X107111723Y-91939999D02*
X107016485Y-91892380D01*
X107016485Y-91892380D02*
X106968866Y-91797142D01*
X106968866Y-91797142D02*
X106968866Y-91559047D01*
X106968866Y-91559047D02*
X106921247Y-91463809D01*
X107349819Y-90987618D02*
X106683152Y-90987618D01*
X106873628Y-90987618D02*
X106778390Y-90939999D01*
X106778390Y-90939999D02*
X106730771Y-90892380D01*
X106730771Y-90892380D02*
X106683152Y-90797142D01*
X106683152Y-90797142D02*
X106683152Y-90701904D01*
X107349819Y-90368570D02*
X106683152Y-90368570D01*
X106778390Y-90368570D02*
X106730771Y-90320951D01*
X106730771Y-90320951D02*
X106683152Y-90225713D01*
X106683152Y-90225713D02*
X106683152Y-90082856D01*
X106683152Y-90082856D02*
X106730771Y-89987618D01*
X106730771Y-89987618D02*
X106826009Y-89939999D01*
X106826009Y-89939999D02*
X107349819Y-89939999D01*
X106826009Y-89939999D02*
X106730771Y-89892380D01*
X106730771Y-89892380D02*
X106683152Y-89797142D01*
X106683152Y-89797142D02*
X106683152Y-89654285D01*
X106683152Y-89654285D02*
X106730771Y-89559046D01*
X106730771Y-89559046D02*
X106826009Y-89511427D01*
X106826009Y-89511427D02*
X107349819Y-89511427D01*
X107349819Y-88511428D02*
X107349819Y-89082856D01*
X107349819Y-88797142D02*
X106349819Y-88797142D01*
X106349819Y-88797142D02*
X106492676Y-88892380D01*
X106492676Y-88892380D02*
X106587914Y-88987618D01*
X106587914Y-88987618D02*
X106635533Y-89082856D01*
X174714819Y-128904761D02*
X175429104Y-128904761D01*
X175429104Y-128904761D02*
X175571961Y-128952380D01*
X175571961Y-128952380D02*
X175667200Y-129047618D01*
X175667200Y-129047618D02*
X175714819Y-129190475D01*
X175714819Y-129190475D02*
X175714819Y-129285713D01*
X175714819Y-128428570D02*
X174714819Y-128428570D01*
X174714819Y-128428570D02*
X174714819Y-128047618D01*
X174714819Y-128047618D02*
X174762438Y-127952380D01*
X174762438Y-127952380D02*
X174810057Y-127904761D01*
X174810057Y-127904761D02*
X174905295Y-127857142D01*
X174905295Y-127857142D02*
X175048152Y-127857142D01*
X175048152Y-127857142D02*
X175143390Y-127904761D01*
X175143390Y-127904761D02*
X175191009Y-127952380D01*
X175191009Y-127952380D02*
X175238628Y-128047618D01*
X175238628Y-128047618D02*
X175238628Y-128428570D01*
X174714819Y-127523808D02*
X175714819Y-127285713D01*
X175714819Y-127285713D02*
X175000533Y-127095237D01*
X175000533Y-127095237D02*
X175714819Y-126904761D01*
X175714819Y-126904761D02*
X174714819Y-126666666D01*
X175714819Y-125714285D02*
X175238628Y-126047618D01*
X175714819Y-126285713D02*
X174714819Y-126285713D01*
X174714819Y-126285713D02*
X174714819Y-125904761D01*
X174714819Y-125904761D02*
X174762438Y-125809523D01*
X174762438Y-125809523D02*
X174810057Y-125761904D01*
X174810057Y-125761904D02*
X174905295Y-125714285D01*
X174905295Y-125714285D02*
X175048152Y-125714285D01*
X175048152Y-125714285D02*
X175143390Y-125761904D01*
X175143390Y-125761904D02*
X175191009Y-125809523D01*
X175191009Y-125809523D02*
X175238628Y-125904761D01*
X175238628Y-125904761D02*
X175238628Y-126285713D01*
X174810057Y-125333332D02*
X174762438Y-125285713D01*
X174762438Y-125285713D02*
X174714819Y-125190475D01*
X174714819Y-125190475D02*
X174714819Y-124952380D01*
X174714819Y-124952380D02*
X174762438Y-124857142D01*
X174762438Y-124857142D02*
X174810057Y-124809523D01*
X174810057Y-124809523D02*
X174905295Y-124761904D01*
X174905295Y-124761904D02*
X175000533Y-124761904D01*
X175000533Y-124761904D02*
X175143390Y-124809523D01*
X175143390Y-124809523D02*
X175714819Y-125380951D01*
X175714819Y-125380951D02*
X175714819Y-124761904D01*
X107299285Y-130739819D02*
X107299285Y-131454104D01*
X107299285Y-131454104D02*
X107251666Y-131596961D01*
X107251666Y-131596961D02*
X107156428Y-131692200D01*
X107156428Y-131692200D02*
X107013571Y-131739819D01*
X107013571Y-131739819D02*
X106918333Y-131739819D01*
X107727857Y-131454104D02*
X108204047Y-131454104D01*
X107632619Y-131739819D02*
X107965952Y-130739819D01*
X107965952Y-130739819D02*
X108299285Y-131739819D01*
X108823095Y-130739819D02*
X109013571Y-130739819D01*
X109013571Y-130739819D02*
X109108809Y-130787438D01*
X109108809Y-130787438D02*
X109204047Y-130882676D01*
X109204047Y-130882676D02*
X109251666Y-131073152D01*
X109251666Y-131073152D02*
X109251666Y-131406485D01*
X109251666Y-131406485D02*
X109204047Y-131596961D01*
X109204047Y-131596961D02*
X109108809Y-131692200D01*
X109108809Y-131692200D02*
X109013571Y-131739819D01*
X109013571Y-131739819D02*
X108823095Y-131739819D01*
X108823095Y-131739819D02*
X108727857Y-131692200D01*
X108727857Y-131692200D02*
X108632619Y-131596961D01*
X108632619Y-131596961D02*
X108585000Y-131406485D01*
X108585000Y-131406485D02*
X108585000Y-131073152D01*
X108585000Y-131073152D02*
X108632619Y-130882676D01*
X108632619Y-130882676D02*
X108727857Y-130787438D01*
X108727857Y-130787438D02*
X108823095Y-130739819D01*
X110204047Y-131739819D02*
X109632619Y-131739819D01*
X109918333Y-131739819D02*
X109918333Y-130739819D01*
X109918333Y-130739819D02*
X109823095Y-130882676D01*
X109823095Y-130882676D02*
X109727857Y-130977914D01*
X109727857Y-130977914D02*
X109632619Y-131025533D01*
X130714761Y-131385057D02*
X130619523Y-131337438D01*
X130619523Y-131337438D02*
X130524285Y-131242200D01*
X130524285Y-131242200D02*
X130381428Y-131099342D01*
X130381428Y-131099342D02*
X130286190Y-131051723D01*
X130286190Y-131051723D02*
X130190952Y-131051723D01*
X130238571Y-131289819D02*
X130143333Y-131242200D01*
X130143333Y-131242200D02*
X130048095Y-131146961D01*
X130048095Y-131146961D02*
X130000476Y-130956485D01*
X130000476Y-130956485D02*
X130000476Y-130623152D01*
X130000476Y-130623152D02*
X130048095Y-130432676D01*
X130048095Y-130432676D02*
X130143333Y-130337438D01*
X130143333Y-130337438D02*
X130238571Y-130289819D01*
X130238571Y-130289819D02*
X130429047Y-130289819D01*
X130429047Y-130289819D02*
X130524285Y-130337438D01*
X130524285Y-130337438D02*
X130619523Y-130432676D01*
X130619523Y-130432676D02*
X130667142Y-130623152D01*
X130667142Y-130623152D02*
X130667142Y-130956485D01*
X130667142Y-130956485D02*
X130619523Y-131146961D01*
X130619523Y-131146961D02*
X130524285Y-131242200D01*
X130524285Y-131242200D02*
X130429047Y-131289819D01*
X130429047Y-131289819D02*
X130238571Y-131289819D01*
X131619523Y-131289819D02*
X131048095Y-131289819D01*
X131333809Y-131289819D02*
X131333809Y-130289819D01*
X131333809Y-130289819D02*
X131238571Y-130432676D01*
X131238571Y-130432676D02*
X131143333Y-130527914D01*
X131143333Y-130527914D02*
X131048095Y-130575533D01*
X169624523Y-135539819D02*
X169291190Y-135063628D01*
X169053095Y-135539819D02*
X169053095Y-134539819D01*
X169053095Y-134539819D02*
X169434047Y-134539819D01*
X169434047Y-134539819D02*
X169529285Y-134587438D01*
X169529285Y-134587438D02*
X169576904Y-134635057D01*
X169576904Y-134635057D02*
X169624523Y-134730295D01*
X169624523Y-134730295D02*
X169624523Y-134873152D01*
X169624523Y-134873152D02*
X169576904Y-134968390D01*
X169576904Y-134968390D02*
X169529285Y-135016009D01*
X169529285Y-135016009D02*
X169434047Y-135063628D01*
X169434047Y-135063628D02*
X169053095Y-135063628D01*
X170053095Y-135539819D02*
X170053095Y-134873152D01*
X170053095Y-135063628D02*
X170100714Y-134968390D01*
X170100714Y-134968390D02*
X170148333Y-134920771D01*
X170148333Y-134920771D02*
X170243571Y-134873152D01*
X170243571Y-134873152D02*
X170338809Y-134873152D01*
X171053095Y-135492200D02*
X170957857Y-135539819D01*
X170957857Y-135539819D02*
X170767381Y-135539819D01*
X170767381Y-135539819D02*
X170672143Y-135492200D01*
X170672143Y-135492200D02*
X170624524Y-135396961D01*
X170624524Y-135396961D02*
X170624524Y-135016009D01*
X170624524Y-135016009D02*
X170672143Y-134920771D01*
X170672143Y-134920771D02*
X170767381Y-134873152D01*
X170767381Y-134873152D02*
X170957857Y-134873152D01*
X170957857Y-134873152D02*
X171053095Y-134920771D01*
X171053095Y-134920771D02*
X171100714Y-135016009D01*
X171100714Y-135016009D02*
X171100714Y-135111247D01*
X171100714Y-135111247D02*
X170624524Y-135206485D01*
X171386429Y-134873152D02*
X171767381Y-134873152D01*
X171529286Y-135539819D02*
X171529286Y-134682676D01*
X171529286Y-134682676D02*
X171576905Y-134587438D01*
X171576905Y-134587438D02*
X171672143Y-134539819D01*
X171672143Y-134539819D02*
X171767381Y-134539819D01*
X172624524Y-135539819D02*
X172053096Y-135539819D01*
X172338810Y-135539819D02*
X172338810Y-134539819D01*
X172338810Y-134539819D02*
X172243572Y-134682676D01*
X172243572Y-134682676D02*
X172148334Y-134777914D01*
X172148334Y-134777914D02*
X172053096Y-134825533D01*
X134572618Y-96509819D02*
X134239285Y-96033628D01*
X134001190Y-96509819D02*
X134001190Y-95509819D01*
X134001190Y-95509819D02*
X134382142Y-95509819D01*
X134382142Y-95509819D02*
X134477380Y-95557438D01*
X134477380Y-95557438D02*
X134524999Y-95605057D01*
X134524999Y-95605057D02*
X134572618Y-95700295D01*
X134572618Y-95700295D02*
X134572618Y-95843152D01*
X134572618Y-95843152D02*
X134524999Y-95938390D01*
X134524999Y-95938390D02*
X134477380Y-95986009D01*
X134477380Y-95986009D02*
X134382142Y-96033628D01*
X134382142Y-96033628D02*
X134001190Y-96033628D01*
X135144047Y-96509819D02*
X135048809Y-96462200D01*
X135048809Y-96462200D02*
X135001190Y-96414580D01*
X135001190Y-96414580D02*
X134953571Y-96319342D01*
X134953571Y-96319342D02*
X134953571Y-96033628D01*
X134953571Y-96033628D02*
X135001190Y-95938390D01*
X135001190Y-95938390D02*
X135048809Y-95890771D01*
X135048809Y-95890771D02*
X135144047Y-95843152D01*
X135144047Y-95843152D02*
X135286904Y-95843152D01*
X135286904Y-95843152D02*
X135382142Y-95890771D01*
X135382142Y-95890771D02*
X135429761Y-95938390D01*
X135429761Y-95938390D02*
X135477380Y-96033628D01*
X135477380Y-96033628D02*
X135477380Y-96319342D01*
X135477380Y-96319342D02*
X135429761Y-96414580D01*
X135429761Y-96414580D02*
X135382142Y-96462200D01*
X135382142Y-96462200D02*
X135286904Y-96509819D01*
X135286904Y-96509819D02*
X135144047Y-96509819D01*
X135905952Y-95843152D02*
X135905952Y-96843152D01*
X135905952Y-95890771D02*
X136001190Y-95843152D01*
X136001190Y-95843152D02*
X136191666Y-95843152D01*
X136191666Y-95843152D02*
X136286904Y-95890771D01*
X136286904Y-95890771D02*
X136334523Y-95938390D01*
X136334523Y-95938390D02*
X136382142Y-96033628D01*
X136382142Y-96033628D02*
X136382142Y-96319342D01*
X136382142Y-96319342D02*
X136334523Y-96414580D01*
X136334523Y-96414580D02*
X136286904Y-96462200D01*
X136286904Y-96462200D02*
X136191666Y-96509819D01*
X136191666Y-96509819D02*
X136001190Y-96509819D01*
X136001190Y-96509819D02*
X135905952Y-96462200D01*
X137191666Y-96462200D02*
X137096428Y-96509819D01*
X137096428Y-96509819D02*
X136905952Y-96509819D01*
X136905952Y-96509819D02*
X136810714Y-96462200D01*
X136810714Y-96462200D02*
X136763095Y-96366961D01*
X136763095Y-96366961D02*
X136763095Y-95986009D01*
X136763095Y-95986009D02*
X136810714Y-95890771D01*
X136810714Y-95890771D02*
X136905952Y-95843152D01*
X136905952Y-95843152D02*
X137096428Y-95843152D01*
X137096428Y-95843152D02*
X137191666Y-95890771D01*
X137191666Y-95890771D02*
X137239285Y-95986009D01*
X137239285Y-95986009D02*
X137239285Y-96081247D01*
X137239285Y-96081247D02*
X136763095Y-96176485D01*
X137667857Y-95843152D02*
X137667857Y-96509819D01*
X137667857Y-95938390D02*
X137715476Y-95890771D01*
X137715476Y-95890771D02*
X137810714Y-95843152D01*
X137810714Y-95843152D02*
X137953571Y-95843152D01*
X137953571Y-95843152D02*
X138048809Y-95890771D01*
X138048809Y-95890771D02*
X138096428Y-95986009D01*
X138096428Y-95986009D02*
X138096428Y-96509819D01*
X139096428Y-96509819D02*
X138525000Y-96509819D01*
X138810714Y-96509819D02*
X138810714Y-95509819D01*
X138810714Y-95509819D02*
X138715476Y-95652676D01*
X138715476Y-95652676D02*
X138620238Y-95747914D01*
X138620238Y-95747914D02*
X138525000Y-95795533D01*
X107442380Y-87084819D02*
X107442380Y-87799104D01*
X107442380Y-87799104D02*
X107394761Y-87941961D01*
X107394761Y-87941961D02*
X107299523Y-88037200D01*
X107299523Y-88037200D02*
X107156666Y-88084819D01*
X107156666Y-88084819D02*
X107061428Y-88084819D01*
X108489999Y-87989580D02*
X108442380Y-88037200D01*
X108442380Y-88037200D02*
X108299523Y-88084819D01*
X108299523Y-88084819D02*
X108204285Y-88084819D01*
X108204285Y-88084819D02*
X108061428Y-88037200D01*
X108061428Y-88037200D02*
X107966190Y-87941961D01*
X107966190Y-87941961D02*
X107918571Y-87846723D01*
X107918571Y-87846723D02*
X107870952Y-87656247D01*
X107870952Y-87656247D02*
X107870952Y-87513390D01*
X107870952Y-87513390D02*
X107918571Y-87322914D01*
X107918571Y-87322914D02*
X107966190Y-87227676D01*
X107966190Y-87227676D02*
X108061428Y-87132438D01*
X108061428Y-87132438D02*
X108204285Y-87084819D01*
X108204285Y-87084819D02*
X108299523Y-87084819D01*
X108299523Y-87084819D02*
X108442380Y-87132438D01*
X108442380Y-87132438D02*
X108489999Y-87180057D01*
X109061428Y-88084819D02*
X108966190Y-88037200D01*
X108966190Y-88037200D02*
X108918571Y-87989580D01*
X108918571Y-87989580D02*
X108870952Y-87894342D01*
X108870952Y-87894342D02*
X108870952Y-87608628D01*
X108870952Y-87608628D02*
X108918571Y-87513390D01*
X108918571Y-87513390D02*
X108966190Y-87465771D01*
X108966190Y-87465771D02*
X109061428Y-87418152D01*
X109061428Y-87418152D02*
X109204285Y-87418152D01*
X109204285Y-87418152D02*
X109299523Y-87465771D01*
X109299523Y-87465771D02*
X109347142Y-87513390D01*
X109347142Y-87513390D02*
X109394761Y-87608628D01*
X109394761Y-87608628D02*
X109394761Y-87894342D01*
X109394761Y-87894342D02*
X109347142Y-87989580D01*
X109347142Y-87989580D02*
X109299523Y-88037200D01*
X109299523Y-88037200D02*
X109204285Y-88084819D01*
X109204285Y-88084819D02*
X109061428Y-88084819D01*
X109823333Y-87418152D02*
X109823333Y-88084819D01*
X109823333Y-87513390D02*
X109870952Y-87465771D01*
X109870952Y-87465771D02*
X109966190Y-87418152D01*
X109966190Y-87418152D02*
X110109047Y-87418152D01*
X110109047Y-87418152D02*
X110204285Y-87465771D01*
X110204285Y-87465771D02*
X110251904Y-87561009D01*
X110251904Y-87561009D02*
X110251904Y-88084819D01*
X110585238Y-87418152D02*
X110966190Y-87418152D01*
X110728095Y-87084819D02*
X110728095Y-87941961D01*
X110728095Y-87941961D02*
X110775714Y-88037200D01*
X110775714Y-88037200D02*
X110870952Y-88084819D01*
X110870952Y-88084819D02*
X110966190Y-88084819D01*
X111299524Y-88084819D02*
X111299524Y-87418152D01*
X111299524Y-87608628D02*
X111347143Y-87513390D01*
X111347143Y-87513390D02*
X111394762Y-87465771D01*
X111394762Y-87465771D02*
X111490000Y-87418152D01*
X111490000Y-87418152D02*
X111585238Y-87418152D01*
X112061429Y-88084819D02*
X111966191Y-88037200D01*
X111966191Y-88037200D02*
X111918572Y-87989580D01*
X111918572Y-87989580D02*
X111870953Y-87894342D01*
X111870953Y-87894342D02*
X111870953Y-87608628D01*
X111870953Y-87608628D02*
X111918572Y-87513390D01*
X111918572Y-87513390D02*
X111966191Y-87465771D01*
X111966191Y-87465771D02*
X112061429Y-87418152D01*
X112061429Y-87418152D02*
X112204286Y-87418152D01*
X112204286Y-87418152D02*
X112299524Y-87465771D01*
X112299524Y-87465771D02*
X112347143Y-87513390D01*
X112347143Y-87513390D02*
X112394762Y-87608628D01*
X112394762Y-87608628D02*
X112394762Y-87894342D01*
X112394762Y-87894342D02*
X112347143Y-87989580D01*
X112347143Y-87989580D02*
X112299524Y-88037200D01*
X112299524Y-88037200D02*
X112204286Y-88084819D01*
X112204286Y-88084819D02*
X112061429Y-88084819D01*
X112966191Y-88084819D02*
X112870953Y-88037200D01*
X112870953Y-88037200D02*
X112823334Y-87941961D01*
X112823334Y-87941961D02*
X112823334Y-87084819D01*
X113870953Y-88084819D02*
X113299525Y-88084819D01*
X113585239Y-88084819D02*
X113585239Y-87084819D01*
X113585239Y-87084819D02*
X113490001Y-87227676D01*
X113490001Y-87227676D02*
X113394763Y-87322914D01*
X113394763Y-87322914D02*
X113299525Y-87370533D01*
X113329819Y-114426904D02*
X114139342Y-114426904D01*
X114139342Y-114426904D02*
X114234580Y-114379285D01*
X114234580Y-114379285D02*
X114282200Y-114331666D01*
X114282200Y-114331666D02*
X114329819Y-114236428D01*
X114329819Y-114236428D02*
X114329819Y-114045952D01*
X114329819Y-114045952D02*
X114282200Y-113950714D01*
X114282200Y-113950714D02*
X114234580Y-113903095D01*
X114234580Y-113903095D02*
X114139342Y-113855476D01*
X114139342Y-113855476D02*
X113329819Y-113855476D01*
X114329819Y-112855476D02*
X114329819Y-113426904D01*
X114329819Y-113141190D02*
X113329819Y-113141190D01*
X113329819Y-113141190D02*
X113472676Y-113236428D01*
X113472676Y-113236428D02*
X113567914Y-113331666D01*
X113567914Y-113331666D02*
X113615533Y-113426904D01*
X130844819Y-95233809D02*
X129844819Y-95233809D01*
X129844819Y-95233809D02*
X129844819Y-94995714D01*
X129844819Y-94995714D02*
X129892438Y-94852857D01*
X129892438Y-94852857D02*
X129987676Y-94757619D01*
X129987676Y-94757619D02*
X130082914Y-94710000D01*
X130082914Y-94710000D02*
X130273390Y-94662381D01*
X130273390Y-94662381D02*
X130416247Y-94662381D01*
X130416247Y-94662381D02*
X130606723Y-94710000D01*
X130606723Y-94710000D02*
X130701961Y-94757619D01*
X130701961Y-94757619D02*
X130797200Y-94852857D01*
X130797200Y-94852857D02*
X130844819Y-94995714D01*
X130844819Y-94995714D02*
X130844819Y-95233809D01*
X130844819Y-94090952D02*
X130797200Y-94186190D01*
X130797200Y-94186190D02*
X130749580Y-94233809D01*
X130749580Y-94233809D02*
X130654342Y-94281428D01*
X130654342Y-94281428D02*
X130368628Y-94281428D01*
X130368628Y-94281428D02*
X130273390Y-94233809D01*
X130273390Y-94233809D02*
X130225771Y-94186190D01*
X130225771Y-94186190D02*
X130178152Y-94090952D01*
X130178152Y-94090952D02*
X130178152Y-93948095D01*
X130178152Y-93948095D02*
X130225771Y-93852857D01*
X130225771Y-93852857D02*
X130273390Y-93805238D01*
X130273390Y-93805238D02*
X130368628Y-93757619D01*
X130368628Y-93757619D02*
X130654342Y-93757619D01*
X130654342Y-93757619D02*
X130749580Y-93805238D01*
X130749580Y-93805238D02*
X130797200Y-93852857D01*
X130797200Y-93852857D02*
X130844819Y-93948095D01*
X130844819Y-93948095D02*
X130844819Y-94090952D01*
X130178152Y-93329047D02*
X131178152Y-93329047D01*
X130225771Y-93329047D02*
X130178152Y-93233809D01*
X130178152Y-93233809D02*
X130178152Y-93043333D01*
X130178152Y-93043333D02*
X130225771Y-92948095D01*
X130225771Y-92948095D02*
X130273390Y-92900476D01*
X130273390Y-92900476D02*
X130368628Y-92852857D01*
X130368628Y-92852857D02*
X130654342Y-92852857D01*
X130654342Y-92852857D02*
X130749580Y-92900476D01*
X130749580Y-92900476D02*
X130797200Y-92948095D01*
X130797200Y-92948095D02*
X130844819Y-93043333D01*
X130844819Y-93043333D02*
X130844819Y-93233809D01*
X130844819Y-93233809D02*
X130797200Y-93329047D01*
X130797200Y-92043333D02*
X130844819Y-92138571D01*
X130844819Y-92138571D02*
X130844819Y-92329047D01*
X130844819Y-92329047D02*
X130797200Y-92424285D01*
X130797200Y-92424285D02*
X130701961Y-92471904D01*
X130701961Y-92471904D02*
X130321009Y-92471904D01*
X130321009Y-92471904D02*
X130225771Y-92424285D01*
X130225771Y-92424285D02*
X130178152Y-92329047D01*
X130178152Y-92329047D02*
X130178152Y-92138571D01*
X130178152Y-92138571D02*
X130225771Y-92043333D01*
X130225771Y-92043333D02*
X130321009Y-91995714D01*
X130321009Y-91995714D02*
X130416247Y-91995714D01*
X130416247Y-91995714D02*
X130511485Y-92471904D01*
X130178152Y-91567142D02*
X130844819Y-91567142D01*
X130273390Y-91567142D02*
X130225771Y-91519523D01*
X130225771Y-91519523D02*
X130178152Y-91424285D01*
X130178152Y-91424285D02*
X130178152Y-91281428D01*
X130178152Y-91281428D02*
X130225771Y-91186190D01*
X130225771Y-91186190D02*
X130321009Y-91138571D01*
X130321009Y-91138571D02*
X130844819Y-91138571D01*
X130844819Y-90138571D02*
X130844819Y-90709999D01*
X130844819Y-90424285D02*
X129844819Y-90424285D01*
X129844819Y-90424285D02*
X129987676Y-90519523D01*
X129987676Y-90519523D02*
X130082914Y-90614761D01*
X130082914Y-90614761D02*
X130130533Y-90709999D01*
X135088333Y-109539580D02*
X135040714Y-109587200D01*
X135040714Y-109587200D02*
X134897857Y-109634819D01*
X134897857Y-109634819D02*
X134802619Y-109634819D01*
X134802619Y-109634819D02*
X134659762Y-109587200D01*
X134659762Y-109587200D02*
X134564524Y-109491961D01*
X134564524Y-109491961D02*
X134516905Y-109396723D01*
X134516905Y-109396723D02*
X134469286Y-109206247D01*
X134469286Y-109206247D02*
X134469286Y-109063390D01*
X134469286Y-109063390D02*
X134516905Y-108872914D01*
X134516905Y-108872914D02*
X134564524Y-108777676D01*
X134564524Y-108777676D02*
X134659762Y-108682438D01*
X134659762Y-108682438D02*
X134802619Y-108634819D01*
X134802619Y-108634819D02*
X134897857Y-108634819D01*
X134897857Y-108634819D02*
X135040714Y-108682438D01*
X135040714Y-108682438D02*
X135088333Y-108730057D01*
X135469286Y-108730057D02*
X135516905Y-108682438D01*
X135516905Y-108682438D02*
X135612143Y-108634819D01*
X135612143Y-108634819D02*
X135850238Y-108634819D01*
X135850238Y-108634819D02*
X135945476Y-108682438D01*
X135945476Y-108682438D02*
X135993095Y-108730057D01*
X135993095Y-108730057D02*
X136040714Y-108825295D01*
X136040714Y-108825295D02*
X136040714Y-108920533D01*
X136040714Y-108920533D02*
X135993095Y-109063390D01*
X135993095Y-109063390D02*
X135421667Y-109634819D01*
X135421667Y-109634819D02*
X136040714Y-109634819D01*
X139176665Y-87719819D02*
X139176665Y-88434104D01*
X139176665Y-88434104D02*
X139129046Y-88576961D01*
X139129046Y-88576961D02*
X139033808Y-88672200D01*
X139033808Y-88672200D02*
X138890951Y-88719819D01*
X138890951Y-88719819D02*
X138795713Y-88719819D01*
X140129046Y-88719819D02*
X139652856Y-88719819D01*
X139652856Y-88719819D02*
X139652856Y-87719819D01*
X140843332Y-88672200D02*
X140748094Y-88719819D01*
X140748094Y-88719819D02*
X140557618Y-88719819D01*
X140557618Y-88719819D02*
X140462380Y-88672200D01*
X140462380Y-88672200D02*
X140414761Y-88576961D01*
X140414761Y-88576961D02*
X140414761Y-88196009D01*
X140414761Y-88196009D02*
X140462380Y-88100771D01*
X140462380Y-88100771D02*
X140557618Y-88053152D01*
X140557618Y-88053152D02*
X140748094Y-88053152D01*
X140748094Y-88053152D02*
X140843332Y-88100771D01*
X140843332Y-88100771D02*
X140890951Y-88196009D01*
X140890951Y-88196009D02*
X140890951Y-88291247D01*
X140890951Y-88291247D02*
X140414761Y-88386485D01*
X141748094Y-88719819D02*
X141748094Y-87719819D01*
X141748094Y-88672200D02*
X141652856Y-88719819D01*
X141652856Y-88719819D02*
X141462380Y-88719819D01*
X141462380Y-88719819D02*
X141367142Y-88672200D01*
X141367142Y-88672200D02*
X141319523Y-88624580D01*
X141319523Y-88624580D02*
X141271904Y-88529342D01*
X141271904Y-88529342D02*
X141271904Y-88243628D01*
X141271904Y-88243628D02*
X141319523Y-88148390D01*
X141319523Y-88148390D02*
X141367142Y-88100771D01*
X141367142Y-88100771D02*
X141462380Y-88053152D01*
X141462380Y-88053152D02*
X141652856Y-88053152D01*
X141652856Y-88053152D02*
X141748094Y-88100771D01*
X142795713Y-88624580D02*
X142748094Y-88672200D01*
X142748094Y-88672200D02*
X142605237Y-88719819D01*
X142605237Y-88719819D02*
X142509999Y-88719819D01*
X142509999Y-88719819D02*
X142367142Y-88672200D01*
X142367142Y-88672200D02*
X142271904Y-88576961D01*
X142271904Y-88576961D02*
X142224285Y-88481723D01*
X142224285Y-88481723D02*
X142176666Y-88291247D01*
X142176666Y-88291247D02*
X142176666Y-88148390D01*
X142176666Y-88148390D02*
X142224285Y-87957914D01*
X142224285Y-87957914D02*
X142271904Y-87862676D01*
X142271904Y-87862676D02*
X142367142Y-87767438D01*
X142367142Y-87767438D02*
X142509999Y-87719819D01*
X142509999Y-87719819D02*
X142605237Y-87719819D01*
X142605237Y-87719819D02*
X142748094Y-87767438D01*
X142748094Y-87767438D02*
X142795713Y-87815057D01*
X143367142Y-88719819D02*
X143271904Y-88672200D01*
X143271904Y-88672200D02*
X143224285Y-88624580D01*
X143224285Y-88624580D02*
X143176666Y-88529342D01*
X143176666Y-88529342D02*
X143176666Y-88243628D01*
X143176666Y-88243628D02*
X143224285Y-88148390D01*
X143224285Y-88148390D02*
X143271904Y-88100771D01*
X143271904Y-88100771D02*
X143367142Y-88053152D01*
X143367142Y-88053152D02*
X143509999Y-88053152D01*
X143509999Y-88053152D02*
X143605237Y-88100771D01*
X143605237Y-88100771D02*
X143652856Y-88148390D01*
X143652856Y-88148390D02*
X143700475Y-88243628D01*
X143700475Y-88243628D02*
X143700475Y-88529342D01*
X143700475Y-88529342D02*
X143652856Y-88624580D01*
X143652856Y-88624580D02*
X143605237Y-88672200D01*
X143605237Y-88672200D02*
X143509999Y-88719819D01*
X143509999Y-88719819D02*
X143367142Y-88719819D01*
X144129047Y-88053152D02*
X144129047Y-88719819D01*
X144129047Y-88148390D02*
X144176666Y-88100771D01*
X144176666Y-88100771D02*
X144271904Y-88053152D01*
X144271904Y-88053152D02*
X144414761Y-88053152D01*
X144414761Y-88053152D02*
X144509999Y-88100771D01*
X144509999Y-88100771D02*
X144557618Y-88196009D01*
X144557618Y-88196009D02*
X144557618Y-88719819D01*
X144890952Y-88053152D02*
X145271904Y-88053152D01*
X145033809Y-87719819D02*
X145033809Y-88576961D01*
X145033809Y-88576961D02*
X145081428Y-88672200D01*
X145081428Y-88672200D02*
X145176666Y-88719819D01*
X145176666Y-88719819D02*
X145271904Y-88719819D01*
X145605238Y-88719819D02*
X145605238Y-88053152D01*
X145605238Y-88243628D02*
X145652857Y-88148390D01*
X145652857Y-88148390D02*
X145700476Y-88100771D01*
X145700476Y-88100771D02*
X145795714Y-88053152D01*
X145795714Y-88053152D02*
X145890952Y-88053152D01*
X146367143Y-88719819D02*
X146271905Y-88672200D01*
X146271905Y-88672200D02*
X146224286Y-88624580D01*
X146224286Y-88624580D02*
X146176667Y-88529342D01*
X146176667Y-88529342D02*
X146176667Y-88243628D01*
X146176667Y-88243628D02*
X146224286Y-88148390D01*
X146224286Y-88148390D02*
X146271905Y-88100771D01*
X146271905Y-88100771D02*
X146367143Y-88053152D01*
X146367143Y-88053152D02*
X146510000Y-88053152D01*
X146510000Y-88053152D02*
X146605238Y-88100771D01*
X146605238Y-88100771D02*
X146652857Y-88148390D01*
X146652857Y-88148390D02*
X146700476Y-88243628D01*
X146700476Y-88243628D02*
X146700476Y-88529342D01*
X146700476Y-88529342D02*
X146652857Y-88624580D01*
X146652857Y-88624580D02*
X146605238Y-88672200D01*
X146605238Y-88672200D02*
X146510000Y-88719819D01*
X146510000Y-88719819D02*
X146367143Y-88719819D01*
X147271905Y-88719819D02*
X147176667Y-88672200D01*
X147176667Y-88672200D02*
X147129048Y-88576961D01*
X147129048Y-88576961D02*
X147129048Y-87719819D01*
X148176667Y-88719819D02*
X147605239Y-88719819D01*
X147890953Y-88719819D02*
X147890953Y-87719819D01*
X147890953Y-87719819D02*
X147795715Y-87862676D01*
X147795715Y-87862676D02*
X147700477Y-87957914D01*
X147700477Y-87957914D02*
X147605239Y-88005533D01*
%TO.C,Rfilt1*%
D11*
X140335000Y-108355000D02*
X140335000Y-109125000D01*
X140335000Y-116435000D02*
X140335000Y-115665000D01*
X138965000Y-109125000D02*
X141705000Y-109125000D01*
X141705000Y-115665000D01*
X138965000Y-115665000D01*
X138965000Y-109125000D01*
%TO.C,JPWR1*%
X178140000Y-98860000D02*
X183440000Y-98860000D01*
X178140000Y-99600000D02*
X178140000Y-98860000D01*
X178140000Y-103600000D02*
X178140000Y-104680000D01*
X178140000Y-109420000D02*
X178140000Y-108680000D01*
X183440000Y-98860000D02*
X183440000Y-109420000D01*
X183440000Y-109420000D02*
X178140000Y-109420000D01*
X184440000Y-97950000D02*
X184440000Y-100490000D01*
X184440000Y-102600000D02*
X184440000Y-105680000D01*
X184440000Y-110330000D02*
X184440000Y-107790000D01*
X185450000Y-101600000D02*
X186050000Y-101300000D01*
X186050000Y-101300000D02*
X186050000Y-101900000D01*
X186050000Y-101900000D02*
X185450000Y-101600000D01*
X176430000Y-97950000D02*
X185250000Y-97950000D01*
X185250000Y-110330000D01*
X176430000Y-110330000D01*
X176430000Y-97950000D01*
X183440000Y-100600000D02*
X185250000Y-100600000D01*
X185250000Y-102600000D01*
X183440000Y-102600000D01*
X183440000Y-100600000D01*
X183440000Y-105680000D02*
X185250000Y-105680000D01*
X185250000Y-107680000D01*
X183440000Y-107680000D01*
X183440000Y-105680000D01*
X178124179Y-103586842D02*
G75*
G02*
X178140000Y-99600000I1665821J1986842D01*
G01*
X178124179Y-108666842D02*
G75*
G02*
X178140000Y-104680000I1665821J1986842D01*
G01*
%TO.C,JCurrent1*%
X147845000Y-108475000D02*
X149225000Y-108475000D01*
X147845000Y-109855000D02*
X147845000Y-108475000D01*
X147845000Y-111125000D02*
X147845000Y-118855000D01*
X147845000Y-111125000D02*
X150605000Y-111125000D01*
X147845000Y-118855000D02*
X150605000Y-118855000D01*
X150605000Y-111125000D02*
X150605000Y-118855000D01*
%TO.C,Dclosed1*%
X148624000Y-94270000D02*
X148780000Y-94270000D01*
X150940000Y-94270000D02*
X151096000Y-94270000D01*
X148624484Y-94270000D02*
G75*
G02*
X148780000Y-91038563I1235516J1560000D01*
G01*
X148780000Y-93750961D02*
G75*
G02*
X148780000Y-91669039I1080000J1040961D01*
G01*
X150940000Y-91038563D02*
G75*
G02*
X151095516Y-94270000I-1080000J-1671437D01*
G01*
X150940000Y-91669039D02*
G75*
G02*
X150940000Y-93750961I-1080000J-1040961D01*
G01*
%TO.C,Don1*%
X121954000Y-94270000D02*
X122110000Y-94270000D01*
X124270000Y-94270000D02*
X124426000Y-94270000D01*
X121954484Y-94270000D02*
G75*
G02*
X122110000Y-91038563I1235516J1560000D01*
G01*
X122110000Y-93750961D02*
G75*
G02*
X122110000Y-91669039I1080000J1040961D01*
G01*
X124270000Y-91038563D02*
G75*
G02*
X124425516Y-94270000I-1080000J-1671437D01*
G01*
X124270000Y-91669039D02*
G75*
G02*
X124270000Y-93750961I-1080000J-1040961D01*
G01*
%TO.C,Rpwm1*%
X132485000Y-121920000D02*
X133255000Y-121920000D01*
X140565000Y-121920000D02*
X139795000Y-121920000D01*
X133255000Y-120550000D02*
X139795000Y-120550000D01*
X139795000Y-123290000D01*
X133255000Y-123290000D01*
X133255000Y-120550000D01*
%TO.C,RIout1*%
X115340000Y-104775000D02*
X116110000Y-104775000D01*
X123420000Y-104775000D02*
X122650000Y-104775000D01*
X116110000Y-103405000D02*
X122650000Y-103405000D01*
X122650000Y-106145000D01*
X116110000Y-106145000D01*
X116110000Y-103405000D01*
%TO.C,JBROOKS1*%
X88580000Y-97645000D02*
X100920000Y-97645000D01*
X100920000Y-97645000D02*
X100920000Y-136965000D01*
X100920000Y-136965000D02*
X88580000Y-136965000D01*
X101381325Y-127000000D02*
X101814338Y-126750000D01*
X101814338Y-126750000D02*
X101814338Y-127250000D01*
X101814338Y-127250000D02*
X101381325Y-127000000D01*
%TO.C,Ron1*%
X119150000Y-98425000D02*
X119920000Y-98425000D01*
X127230000Y-98425000D02*
X126460000Y-98425000D01*
X119920000Y-97055000D02*
X126460000Y-97055000D01*
X126460000Y-99795000D01*
X119920000Y-99795000D01*
X119920000Y-97055000D01*
%TO.C,JVref1*%
X159275000Y-128795000D02*
X160655000Y-128795000D01*
X159275000Y-130175000D02*
X159275000Y-128795000D01*
X159275000Y-131445000D02*
X159275000Y-134095000D01*
X159275000Y-131445000D02*
X162035000Y-131445000D01*
X159275000Y-134095000D02*
X162035000Y-134095000D01*
X162035000Y-131445000D02*
X162035000Y-134095000D01*
%TO.C,U2*%
X161395000Y-122225000D02*
X164995000Y-122225000D01*
X160838600Y-119276193D02*
G75*
G02*
X163195000Y-117775000I2356400J-1098807D01*
G01*
X161395000Y-122225000D02*
G75*
G02*
X160870816Y-121497795I1800000J1850000D01*
G01*
X163195000Y-117775000D02*
G75*
G02*
X165551400Y-119276193I0J-2600000D01*
G01*
X165519184Y-121497795D02*
G75*
G02*
X164995000Y-122225000I-2324184J1122795D01*
G01*
%TO.C,Ralarm1*%
X105815000Y-98425000D02*
X106585000Y-98425000D01*
X113895000Y-98425000D02*
X113125000Y-98425000D01*
X106585000Y-97055000D02*
X113125000Y-97055000D01*
X113125000Y-99795000D01*
X106585000Y-99795000D01*
X106585000Y-97055000D01*
%TO.C,Rref2*%
X157250000Y-113665000D02*
X158020000Y-113665000D01*
X165330000Y-113665000D02*
X164560000Y-113665000D01*
X158020000Y-112295000D02*
X164560000Y-112295000D01*
X164560000Y-115035000D01*
X158020000Y-115035000D01*
X158020000Y-112295000D01*
%TO.C,C1*%
X118685000Y-124360000D02*
X123925000Y-124360000D01*
X118685000Y-127100000D02*
X118685000Y-124360000D01*
X123925000Y-124360000D02*
X123925000Y-127100000D01*
X123925000Y-127100000D02*
X118685000Y-127100000D01*
%TO.C,Cref1*%
X166325000Y-127402000D02*
X166325000Y-126598000D01*
X166365000Y-127633000D02*
X166365000Y-126367000D01*
X166405000Y-127801000D02*
X166405000Y-126199000D01*
X166445000Y-127939000D02*
X166445000Y-126061000D01*
X166485000Y-128058000D02*
X166485000Y-125942000D01*
X166525000Y-128165000D02*
X166525000Y-125835000D01*
X166565000Y-128261000D02*
X166565000Y-125739000D01*
X166605000Y-128350000D02*
X166605000Y-125650000D01*
X166645000Y-128432000D02*
X166645000Y-125568000D01*
X166685000Y-128509000D02*
X166685000Y-125491000D01*
X166725000Y-128581000D02*
X166725000Y-125419000D01*
X166765000Y-128649000D02*
X166765000Y-125351000D01*
X166805000Y-128714000D02*
X166805000Y-125286000D01*
X166845000Y-128775000D02*
X166845000Y-125225000D01*
X166885000Y-128834000D02*
X166885000Y-125166000D01*
X166925000Y-128890000D02*
X166925000Y-125110000D01*
X166965000Y-128943000D02*
X166965000Y-125057000D01*
X167005000Y-128995000D02*
X167005000Y-125005000D01*
X167045000Y-129044000D02*
X167045000Y-124956000D01*
X167085000Y-129091000D02*
X167085000Y-124909000D01*
X167125000Y-129137000D02*
X167125000Y-124863000D01*
X167165000Y-129181000D02*
X167165000Y-124819000D01*
X167205000Y-129223000D02*
X167205000Y-124777000D01*
X167245000Y-129264000D02*
X167245000Y-124736000D01*
X167285000Y-125960000D02*
X167285000Y-124696000D01*
X167285000Y-129304000D02*
X167285000Y-128040000D01*
X167325000Y-125960000D02*
X167325000Y-124658000D01*
X167325000Y-129342000D02*
X167325000Y-128040000D01*
X167365000Y-125960000D02*
X167365000Y-124621000D01*
X167365000Y-129379000D02*
X167365000Y-128040000D01*
X167405000Y-125960000D02*
X167405000Y-124585000D01*
X167405000Y-129415000D02*
X167405000Y-128040000D01*
X167445000Y-125960000D02*
X167445000Y-124550000D01*
X167445000Y-129450000D02*
X167445000Y-128040000D01*
X167485000Y-125960000D02*
X167485000Y-124517000D01*
X167485000Y-129483000D02*
X167485000Y-128040000D01*
X167525000Y-125960000D02*
X167525000Y-124484000D01*
X167525000Y-129516000D02*
X167525000Y-128040000D01*
X167565000Y-125960000D02*
X167565000Y-124453000D01*
X167565000Y-129547000D02*
X167565000Y-128040000D01*
X167605000Y-125960000D02*
X167605000Y-124423000D01*
X167605000Y-129577000D02*
X167605000Y-128040000D01*
X167645000Y-125960000D02*
X167645000Y-124393000D01*
X167645000Y-129607000D02*
X167645000Y-128040000D01*
X167685000Y-125960000D02*
X167685000Y-124364000D01*
X167685000Y-129636000D02*
X167685000Y-128040000D01*
X167725000Y-125960000D02*
X167725000Y-124337000D01*
X167725000Y-129663000D02*
X167725000Y-128040000D01*
X167765000Y-125960000D02*
X167765000Y-124310000D01*
X167765000Y-129690000D02*
X167765000Y-128040000D01*
X167805000Y-125960000D02*
X167805000Y-124284000D01*
X167805000Y-129716000D02*
X167805000Y-128040000D01*
X167845000Y-125960000D02*
X167845000Y-124259000D01*
X167845000Y-129741000D02*
X167845000Y-128040000D01*
X167885000Y-125960000D02*
X167885000Y-124235000D01*
X167885000Y-129765000D02*
X167885000Y-128040000D01*
X167925000Y-125960000D02*
X167925000Y-124211000D01*
X167925000Y-129789000D02*
X167925000Y-128040000D01*
X167965000Y-125960000D02*
X167965000Y-124188000D01*
X167965000Y-129812000D02*
X167965000Y-128040000D01*
X168005000Y-125960000D02*
X168005000Y-124166000D01*
X168005000Y-129834000D02*
X168005000Y-128040000D01*
X168045000Y-125960000D02*
X168045000Y-124145000D01*
X168045000Y-129855000D02*
X168045000Y-128040000D01*
X168085000Y-125960000D02*
X168085000Y-124124000D01*
X168085000Y-129876000D02*
X168085000Y-128040000D01*
X168125000Y-125960000D02*
X168125000Y-124104000D01*
X168125000Y-129896000D02*
X168125000Y-128040000D01*
X168165000Y-125960000D02*
X168165000Y-124085000D01*
X168165000Y-129915000D02*
X168165000Y-128040000D01*
X168205000Y-125960000D02*
X168205000Y-124066000D01*
X168205000Y-129934000D02*
X168205000Y-128040000D01*
X168245000Y-125960000D02*
X168245000Y-124048000D01*
X168245000Y-129952000D02*
X168245000Y-128040000D01*
X168285000Y-125960000D02*
X168285000Y-124031000D01*
X168285000Y-129969000D02*
X168285000Y-128040000D01*
X168325000Y-125960000D02*
X168325000Y-124014000D01*
X168325000Y-129986000D02*
X168325000Y-128040000D01*
X168365000Y-125960000D02*
X168365000Y-123998000D01*
X168365000Y-130002000D02*
X168365000Y-128040000D01*
X168405000Y-125960000D02*
X168405000Y-123983000D01*
X168405000Y-130017000D02*
X168405000Y-128040000D01*
X168445000Y-125960000D02*
X168445000Y-123968000D01*
X168445000Y-130032000D02*
X168445000Y-128040000D01*
X168485000Y-125960000D02*
X168485000Y-123953000D01*
X168485000Y-130047000D02*
X168485000Y-128040000D01*
X168525000Y-125960000D02*
X168525000Y-123940000D01*
X168525000Y-130060000D02*
X168525000Y-128040000D01*
X168565000Y-125960000D02*
X168565000Y-123927000D01*
X168565000Y-130073000D02*
X168565000Y-128040000D01*
X168605000Y-125960000D02*
X168605000Y-123914000D01*
X168605000Y-130086000D02*
X168605000Y-128040000D01*
X168645000Y-125960000D02*
X168645000Y-123902000D01*
X168645000Y-130098000D02*
X168645000Y-128040000D01*
X168685000Y-125960000D02*
X168685000Y-123891000D01*
X168685000Y-130109000D02*
X168685000Y-128040000D01*
X168725000Y-125960000D02*
X168725000Y-123880000D01*
X168725000Y-130120000D02*
X168725000Y-128040000D01*
X168765000Y-125960000D02*
X168765000Y-123869000D01*
X168765000Y-130131000D02*
X168765000Y-128040000D01*
X168805000Y-125960000D02*
X168805000Y-123860000D01*
X168805000Y-130140000D02*
X168805000Y-128040000D01*
X168845000Y-125960000D02*
X168845000Y-123850000D01*
X168845000Y-130150000D02*
X168845000Y-128040000D01*
X168885000Y-125960000D02*
X168885000Y-123841000D01*
X168885000Y-130159000D02*
X168885000Y-128040000D01*
X168925000Y-125960000D02*
X168925000Y-123833000D01*
X168925000Y-130167000D02*
X168925000Y-128040000D01*
X168965000Y-125960000D02*
X168965000Y-123826000D01*
X168965000Y-130174000D02*
X168965000Y-128040000D01*
X169005000Y-125960000D02*
X169005000Y-123818000D01*
X169005000Y-130182000D02*
X169005000Y-128040000D01*
X169045000Y-125960000D02*
X169045000Y-123812000D01*
X169045000Y-130188000D02*
X169045000Y-128040000D01*
X169085000Y-125960000D02*
X169085000Y-123805000D01*
X169085000Y-130195000D02*
X169085000Y-128040000D01*
X169125000Y-125960000D02*
X169125000Y-123800000D01*
X169125000Y-130200000D02*
X169125000Y-128040000D01*
X169165000Y-125960000D02*
X169165000Y-123795000D01*
X169165000Y-130205000D02*
X169165000Y-128040000D01*
X169205000Y-125960000D02*
X169205000Y-123790000D01*
X169205000Y-130210000D02*
X169205000Y-128040000D01*
X169245000Y-125960000D02*
X169245000Y-123786000D01*
X169245000Y-130214000D02*
X169245000Y-128040000D01*
X169285000Y-125960000D02*
X169285000Y-123782000D01*
X169285000Y-130218000D02*
X169285000Y-128040000D01*
X169325000Y-125960000D02*
X169325000Y-123779000D01*
X169325000Y-130221000D02*
X169325000Y-128040000D01*
X169365000Y-130224000D02*
X169365000Y-123776000D01*
X169405000Y-130226000D02*
X169405000Y-123774000D01*
X169445000Y-130228000D02*
X169445000Y-123772000D01*
X169485000Y-130229000D02*
X169485000Y-123771000D01*
X169525000Y-130230000D02*
X169525000Y-123770000D01*
X169565000Y-130230000D02*
X169565000Y-123770000D01*
X172750241Y-129154000D02*
X172750241Y-128524000D01*
X173065241Y-128839000D02*
X172435241Y-128839000D01*
X172835000Y-127000000D02*
G75*
G02*
X166295000Y-127000000I-3270000J0D01*
G01*
X166295000Y-127000000D02*
G75*
G02*
X172835000Y-127000000I3270000J0D01*
G01*
%TO.C,Rpwm2*%
X117880000Y-121920000D02*
X118650000Y-121920000D01*
X125960000Y-121920000D02*
X125190000Y-121920000D01*
X118650000Y-120550000D02*
X125190000Y-120550000D01*
X125190000Y-123290000D01*
X118650000Y-123290000D01*
X118650000Y-120550000D01*
%TO.C,RVref1*%
X168285000Y-112600000D02*
X173335000Y-112600000D01*
X168285000Y-122350000D02*
X168285000Y-112600000D01*
X173335000Y-112600000D02*
X173335000Y-122350000D01*
X173335000Y-122350000D02*
X168285000Y-122350000D01*
%TO.C,Rclosed1*%
X145820000Y-98425000D02*
X146590000Y-98425000D01*
X153900000Y-98425000D02*
X153130000Y-98425000D01*
X146590000Y-97055000D02*
X153130000Y-97055000D01*
X153130000Y-99795000D01*
X146590000Y-99795000D01*
X146590000Y-97055000D01*
%TO.C,JESP1*%
X107205000Y-116205000D02*
X107205000Y-111015000D01*
X109965000Y-111015000D02*
X107205000Y-111015000D01*
X109965000Y-116205000D02*
X107205000Y-116205000D01*
X109965000Y-116205000D02*
X109965000Y-111015000D01*
X109965000Y-117475000D02*
X109965000Y-118855000D01*
X109965000Y-118855000D02*
X108585000Y-118855000D01*
%TO.C,Dalarm1*%
X108619000Y-94270000D02*
X108775000Y-94270000D01*
X110935000Y-94270000D02*
X111091000Y-94270000D01*
X108619484Y-94270000D02*
G75*
G02*
X108775000Y-91038563I1235516J1560000D01*
G01*
X108775000Y-93750961D02*
G75*
G02*
X108775000Y-91669039I1080000J1040961D01*
G01*
X110935000Y-91038563D02*
G75*
G02*
X111090516Y-94270000I-1080000J-1671437D01*
G01*
X110935000Y-91669039D02*
G75*
G02*
X110935000Y-93750961I-1080000J-1040961D01*
G01*
%TO.C,JPWR2*%
X178140000Y-114100000D02*
X183440000Y-114100000D01*
X178140000Y-114840000D02*
X178140000Y-114100000D01*
X178140000Y-118840000D02*
X178140000Y-119920000D01*
X178140000Y-124660000D02*
X178140000Y-123920000D01*
X183440000Y-114100000D02*
X183440000Y-124660000D01*
X183440000Y-124660000D02*
X178140000Y-124660000D01*
X184440000Y-113190000D02*
X184440000Y-115730000D01*
X184440000Y-117840000D02*
X184440000Y-120920000D01*
X184440000Y-125570000D02*
X184440000Y-123030000D01*
X185450000Y-116840000D02*
X186050000Y-116540000D01*
X186050000Y-116540000D02*
X186050000Y-117140000D01*
X186050000Y-117140000D02*
X185450000Y-116840000D01*
X176430000Y-113190000D02*
X185250000Y-113190000D01*
X185250000Y-125570000D01*
X176430000Y-125570000D01*
X176430000Y-113190000D01*
X183440000Y-115840000D02*
X185250000Y-115840000D01*
X185250000Y-117840000D01*
X183440000Y-117840000D01*
X183440000Y-115840000D01*
X183440000Y-120920000D02*
X185250000Y-120920000D01*
X185250000Y-122920000D01*
X183440000Y-122920000D01*
X183440000Y-120920000D01*
X178124179Y-118826842D02*
G75*
G02*
X178140000Y-114840000I1665821J1986842D01*
G01*
X178124179Y-123906842D02*
G75*
G02*
X178140000Y-119920000I1665821J1986842D01*
G01*
%TO.C,JAO1*%
X107205000Y-127635000D02*
X107205000Y-124985000D01*
X109965000Y-124985000D02*
X107205000Y-124985000D01*
X109965000Y-127635000D02*
X107205000Y-127635000D01*
X109965000Y-127635000D02*
X109965000Y-124985000D01*
X109965000Y-128905000D02*
X109965000Y-130285000D01*
X109965000Y-130285000D02*
X108585000Y-130285000D01*
%TO.C,Q1*%
X132610000Y-125425000D02*
X129010000Y-125425000D01*
X128485816Y-126152205D02*
G75*
G02*
X129010000Y-125425000I2324184J-1122795D01*
G01*
X130810000Y-129875000D02*
G75*
G02*
X128453600Y-128373807I0J2600000D01*
G01*
X132610000Y-125425000D02*
G75*
G02*
X133134184Y-126152205I-1800000J-1850000D01*
G01*
X133166400Y-128373807D02*
G75*
G02*
X130810000Y-129875000I-2356400J1098807D01*
G01*
%TO.C,Rref1*%
X166775000Y-132715000D02*
X167545000Y-132715000D01*
X174855000Y-132715000D02*
X174085000Y-132715000D01*
X167545000Y-131345000D02*
X174085000Y-131345000D01*
X174085000Y-134085000D01*
X167545000Y-134085000D01*
X167545000Y-131345000D01*
%TO.C,Ropen1*%
X132485000Y-98425000D02*
X133255000Y-98425000D01*
X140565000Y-98425000D02*
X139795000Y-98425000D01*
X133255000Y-97055000D02*
X139795000Y-97055000D01*
X139795000Y-99795000D01*
X133255000Y-99795000D01*
X133255000Y-97055000D01*
%TO.C,JControl1*%
X115460000Y-86885000D02*
X116840000Y-86885000D01*
X115460000Y-88265000D02*
X115460000Y-86885000D01*
X115460000Y-89535000D02*
X115460000Y-94725000D01*
X115460000Y-89535000D02*
X118220000Y-89535000D01*
X115460000Y-94725000D02*
X118220000Y-94725000D01*
X118220000Y-89535000D02*
X118220000Y-94725000D01*
%TO.C,U1*%
X114875000Y-111415000D02*
X114875000Y-112665000D01*
X114875000Y-114665000D02*
X114875000Y-115915000D01*
X114875000Y-115915000D02*
X134045000Y-115915000D01*
X134045000Y-111415000D02*
X114875000Y-111415000D01*
X134045000Y-115915000D02*
X134045000Y-111415000D01*
X114815000Y-108415000D02*
X134105000Y-108415000D01*
X134105000Y-118915000D01*
X114815000Y-118915000D01*
X114815000Y-108415000D01*
X114875000Y-112665000D02*
G75*
G02*
X114875000Y-114665000I0J-1000000D01*
G01*
%TO.C,Dopen1*%
X132114000Y-94270000D02*
X132270000Y-94270000D01*
X134430000Y-94270000D02*
X134586000Y-94270000D01*
X132114484Y-94270000D02*
G75*
G02*
X132270000Y-91038563I1235516J1560000D01*
G01*
X132270000Y-93750961D02*
G75*
G02*
X132270000Y-91669039I1080000J1040961D01*
G01*
X134430000Y-91038563D02*
G75*
G02*
X134585516Y-94270000I-1080000J-1671437D01*
G01*
X134430000Y-91669039D02*
G75*
G02*
X134430000Y-93750961I-1080000J-1040961D01*
G01*
%TO.C,C2*%
X132025000Y-104120000D02*
X138485000Y-104120000D01*
X132025000Y-104160000D02*
X138485000Y-104160000D01*
X132026000Y-104080000D02*
X138484000Y-104080000D01*
X132027000Y-104040000D02*
X138483000Y-104040000D01*
X132029000Y-104000000D02*
X138481000Y-104000000D01*
X132031000Y-103960000D02*
X138479000Y-103960000D01*
X132034000Y-103920000D02*
X134215000Y-103920000D01*
X132037000Y-103880000D02*
X134215000Y-103880000D01*
X132041000Y-103840000D02*
X134215000Y-103840000D01*
X132045000Y-103800000D02*
X134215000Y-103800000D01*
X132050000Y-103760000D02*
X134215000Y-103760000D01*
X132055000Y-103720000D02*
X134215000Y-103720000D01*
X132060000Y-103680000D02*
X134215000Y-103680000D01*
X132067000Y-103640000D02*
X134215000Y-103640000D01*
X132073000Y-103600000D02*
X134215000Y-103600000D01*
X132081000Y-103560000D02*
X134215000Y-103560000D01*
X132088000Y-103520000D02*
X134215000Y-103520000D01*
X132096000Y-103480000D02*
X134215000Y-103480000D01*
X132105000Y-103440000D02*
X134215000Y-103440000D01*
X132115000Y-103400000D02*
X134215000Y-103400000D01*
X132124000Y-103360000D02*
X134215000Y-103360000D01*
X132135000Y-103320000D02*
X134215000Y-103320000D01*
X132146000Y-103280000D02*
X134215000Y-103280000D01*
X132157000Y-103240000D02*
X134215000Y-103240000D01*
X132169000Y-103200000D02*
X134215000Y-103200000D01*
X132182000Y-103160000D02*
X134215000Y-103160000D01*
X132195000Y-103120000D02*
X134215000Y-103120000D01*
X132208000Y-103080000D02*
X134215000Y-103080000D01*
X132223000Y-103040000D02*
X134215000Y-103040000D01*
X132238000Y-103000000D02*
X134215000Y-103000000D01*
X132253000Y-102960000D02*
X134215000Y-102960000D01*
X132269000Y-102920000D02*
X134215000Y-102920000D01*
X132286000Y-102880000D02*
X134215000Y-102880000D01*
X132303000Y-102840000D02*
X134215000Y-102840000D01*
X132321000Y-102800000D02*
X134215000Y-102800000D01*
X132340000Y-102760000D02*
X134215000Y-102760000D01*
X132359000Y-102720000D02*
X134215000Y-102720000D01*
X132379000Y-102680000D02*
X134215000Y-102680000D01*
X132400000Y-102640000D02*
X134215000Y-102640000D01*
X132421000Y-102600000D02*
X134215000Y-102600000D01*
X132443000Y-102560000D02*
X134215000Y-102560000D01*
X132466000Y-102520000D02*
X134215000Y-102520000D01*
X132490000Y-102480000D02*
X134215000Y-102480000D01*
X132514000Y-102440000D02*
X134215000Y-102440000D01*
X132539000Y-102400000D02*
X134215000Y-102400000D01*
X132565000Y-102360000D02*
X134215000Y-102360000D01*
X132592000Y-102320000D02*
X134215000Y-102320000D01*
X132619000Y-102280000D02*
X134215000Y-102280000D01*
X132648000Y-102240000D02*
X134215000Y-102240000D01*
X132678000Y-102200000D02*
X134215000Y-102200000D01*
X132708000Y-102160000D02*
X134215000Y-102160000D01*
X132739000Y-102120000D02*
X134215000Y-102120000D01*
X132772000Y-102080000D02*
X134215000Y-102080000D01*
X132805000Y-102040000D02*
X134215000Y-102040000D01*
X132840000Y-102000000D02*
X134215000Y-102000000D01*
X132876000Y-101960000D02*
X134215000Y-101960000D01*
X132913000Y-101920000D02*
X134215000Y-101920000D01*
X132951000Y-101880000D02*
X134215000Y-101880000D01*
X132991000Y-101840000D02*
X137519000Y-101840000D01*
X133032000Y-101800000D02*
X137478000Y-101800000D01*
X133074000Y-101760000D02*
X137436000Y-101760000D01*
X133101000Y-107345241D02*
X133731000Y-107345241D01*
X133118000Y-101720000D02*
X137392000Y-101720000D01*
X133164000Y-101680000D02*
X137346000Y-101680000D01*
X133211000Y-101640000D02*
X137299000Y-101640000D01*
X133260000Y-101600000D02*
X137250000Y-101600000D01*
X133312000Y-101560000D02*
X137198000Y-101560000D01*
X133365000Y-101520000D02*
X137145000Y-101520000D01*
X133416000Y-107660241D02*
X133416000Y-107030241D01*
X133421000Y-101480000D02*
X137089000Y-101480000D01*
X133480000Y-101440000D02*
X137030000Y-101440000D01*
X133541000Y-101400000D02*
X136969000Y-101400000D01*
X133606000Y-101360000D02*
X136904000Y-101360000D01*
X133674000Y-101320000D02*
X136836000Y-101320000D01*
X133746000Y-101280000D02*
X136764000Y-101280000D01*
X133823000Y-101240000D02*
X136687000Y-101240000D01*
X133905000Y-101200000D02*
X136605000Y-101200000D01*
X133994000Y-101160000D02*
X136516000Y-101160000D01*
X134090000Y-101120000D02*
X136420000Y-101120000D01*
X134197000Y-101080000D02*
X136313000Y-101080000D01*
X134316000Y-101040000D02*
X136194000Y-101040000D01*
X134454000Y-101000000D02*
X136056000Y-101000000D01*
X134622000Y-100960000D02*
X135888000Y-100960000D01*
X134853000Y-100920000D02*
X135657000Y-100920000D01*
X136295000Y-101880000D02*
X137559000Y-101880000D01*
X136295000Y-101920000D02*
X137597000Y-101920000D01*
X136295000Y-101960000D02*
X137634000Y-101960000D01*
X136295000Y-102000000D02*
X137670000Y-102000000D01*
X136295000Y-102040000D02*
X137705000Y-102040000D01*
X136295000Y-102080000D02*
X137738000Y-102080000D01*
X136295000Y-102120000D02*
X137771000Y-102120000D01*
X136295000Y-102160000D02*
X137802000Y-102160000D01*
X136295000Y-102200000D02*
X137832000Y-102200000D01*
X136295000Y-102240000D02*
X137862000Y-102240000D01*
X136295000Y-102280000D02*
X137891000Y-102280000D01*
X136295000Y-102320000D02*
X137918000Y-102320000D01*
X136295000Y-102360000D02*
X137945000Y-102360000D01*
X136295000Y-102400000D02*
X137971000Y-102400000D01*
X136295000Y-102440000D02*
X137996000Y-102440000D01*
X136295000Y-102480000D02*
X138020000Y-102480000D01*
X136295000Y-102520000D02*
X138044000Y-102520000D01*
X136295000Y-102560000D02*
X138067000Y-102560000D01*
X136295000Y-102600000D02*
X138089000Y-102600000D01*
X136295000Y-102640000D02*
X138110000Y-102640000D01*
X136295000Y-102680000D02*
X138131000Y-102680000D01*
X136295000Y-102720000D02*
X138151000Y-102720000D01*
X136295000Y-102760000D02*
X138170000Y-102760000D01*
X136295000Y-102800000D02*
X138189000Y-102800000D01*
X136295000Y-102840000D02*
X138207000Y-102840000D01*
X136295000Y-102880000D02*
X138224000Y-102880000D01*
X136295000Y-102920000D02*
X138241000Y-102920000D01*
X136295000Y-102960000D02*
X138257000Y-102960000D01*
X136295000Y-103000000D02*
X138272000Y-103000000D01*
X136295000Y-103040000D02*
X138287000Y-103040000D01*
X136295000Y-103080000D02*
X138302000Y-103080000D01*
X136295000Y-103120000D02*
X138315000Y-103120000D01*
X136295000Y-103160000D02*
X138328000Y-103160000D01*
X136295000Y-103200000D02*
X138341000Y-103200000D01*
X136295000Y-103240000D02*
X138353000Y-103240000D01*
X136295000Y-103280000D02*
X138364000Y-103280000D01*
X136295000Y-103320000D02*
X138375000Y-103320000D01*
X136295000Y-103360000D02*
X138386000Y-103360000D01*
X136295000Y-103400000D02*
X138395000Y-103400000D01*
X136295000Y-103440000D02*
X138405000Y-103440000D01*
X136295000Y-103480000D02*
X138414000Y-103480000D01*
X136295000Y-103520000D02*
X138422000Y-103520000D01*
X136295000Y-103560000D02*
X138429000Y-103560000D01*
X136295000Y-103600000D02*
X138437000Y-103600000D01*
X136295000Y-103640000D02*
X138443000Y-103640000D01*
X136295000Y-103680000D02*
X138450000Y-103680000D01*
X136295000Y-103720000D02*
X138455000Y-103720000D01*
X136295000Y-103760000D02*
X138460000Y-103760000D01*
X136295000Y-103800000D02*
X138465000Y-103800000D01*
X136295000Y-103840000D02*
X138469000Y-103840000D01*
X136295000Y-103880000D02*
X138473000Y-103880000D01*
X136295000Y-103920000D02*
X138476000Y-103920000D01*
X138525000Y-104160000D02*
G75*
G02*
X131985000Y-104160000I-3270000J0D01*
G01*
X131985000Y-104160000D02*
G75*
G02*
X138525000Y-104160000I3270000J0D01*
G01*
%TO.C,JLedControl1*%
X138320000Y-89425000D02*
X138320000Y-92185000D01*
X143510000Y-89425000D02*
X138320000Y-89425000D01*
X143510000Y-89425000D02*
X143510000Y-92185000D01*
X143510000Y-92185000D02*
X138320000Y-92185000D01*
X144780000Y-89425000D02*
X146160000Y-89425000D01*
X146160000Y-89425000D02*
X146160000Y-90805000D01*
%TD*%
M02*
